<svg width="25" height="72" viewBox="0 0 25 72" fill="none" xmlns="http://www.w3.org/2000/svg">
<path d="M1.75013 0.137024C2.27826 0.16611 2.79742 0.202769 3.32575 0.154558C2.94962 2.23998 2.71455 4.35688 2.43266 6.45704C2.12964 8.71538 1.84715 10.9377 1.74455 13.2153C1.69535 14.3108 1.62084 15.4328 1.81169 16.5176C1.87644 16.8851 1.9107 17.2525 2.07067 17.5948C2.06709 18.8359 1.98939 20.2073 2.5998 21.3423C2.86874 22.996 3.65247 24.734 4.43102 26.2022C6.76029 30.594 10.4243 34.0271 13.9955 37.3997C16.0885 39.3763 18.259 41.2803 20.0524 43.5454C22.2318 46.2984 23.771 49.7276 24.1983 53.2236C24.5396 56.0155 24.2971 58.7061 23.5116 61.4018C22.7773 63.9211 21.6118 66.2966 20.2422 68.5296C19.5428 69.6692 18.7453 70.8087 18.1403 72H15.9883C16.8613 70.5656 17.8787 69.2289 18.7869 67.8164C20.7168 64.8164 22.3352 61.545 22.8665 57.9858C23.666 52.631 21.1913 47.3371 17.6685 43.4247C15.1332 40.6091 12.1382 38.2504 9.4579 35.5822C7.34778 33.4821 5.57016 31.1647 3.80269 28.7739C3.24627 28.0215 2.62151 27.2105 2.2404 26.3498C1.61685 24.9414 1.41305 23.0976 1.09789 21.5821C0.771966 20.0157 0.256787 18.3528 0.0898417 16.7694C0.0215097 16.1203 0.0866558 15.4297 0.0703199 14.7744C0.0183238 12.6952 0.0641431 10.5663 0.315756 8.49903C0.657417 5.69104 1.33217 2.93266 1.75013 0.137024Z" fill="#693427"/>
</svg>
