<svg width="34" height="98" viewBox="0 0 34 98" fill="none" xmlns="http://www.w3.org/2000/svg">
<path d="M22.0076 6.34876L32.1022 21.4299C31.6474 21.4004 31.1937 21.3871 30.7382 21.38C30.5378 21.3768 30.2964 21.3465 30.1103 21.4214C29.6596 20.6692 29.2774 19.8643 28.8537 19.0956C28.1796 17.8727 27.4584 16.6645 26.7171 15.4808C25.9696 14.2871 25.2007 13.0966 24.3795 11.952C23.4116 10.603 22.3773 9.3049 21.3961 7.96665L22.0076 6.34876Z" fill="#14734C"/>
<path d="M33.26 62.775C33.4035 62.7947 33.534 62.8009 33.6554 62.8877C33.7587 63.1618 33.6859 63.4993 33.6637 63.7869C33.6277 64.2564 33.5921 64.7258 33.5569 65.1954C33.1096 71.1613 31.742 77.0834 29.2669 82.541C28.4448 84.3537 27.3227 85.9436 26.2233 87.5952C25.7188 88.3532 25.2475 89.1677 24.6952 89.8898C23.9862 90.8167 23.0488 91.6498 22.2413 92.4962C20.7458 94.0634 19.2721 95.6743 17.6857 97.1501C17.4448 97.3742 17.178 97.6987 16.8965 97.8574L16.8327 97.8126C16.9828 97.6182 16.8952 92.0181 16.9127 91.2664C17.0799 91.1067 17.2847 90.9806 17.4605 90.8278C18.0822 90.2877 18.7023 89.6912 19.2796 89.103C21.2181 87.1285 23.0471 85.0486 24.6659 82.8017C28.1645 77.9459 30.7005 72.4039 32.2123 66.6188C32.5011 65.5137 32.646 64.3742 32.8989 63.2616L33.0376 62.9136L32.939 62.7957L33.26 62.775Z" fill="#653225"/>
<path d="M16.2983 3.46263C16.4205 3.72596 16.3849 4.05452 16.3866 4.34163C16.3897 4.89952 16.3864 5.45754 16.3853 6.01544C16.3822 7.62463 16.3779 9.23378 16.3729 10.8429C16.3704 11.6358 16.329 12.4476 16.3646 13.2385L16.3417 14.4848C14.7611 15.1631 13.1864 15.8476 11.7048 16.7273C7.97064 18.9444 5.28027 22.1541 3.68437 26.1817C3.10675 27.6394 2.79713 29.2415 2.66867 30.7997C2.52716 32.5173 2.56836 34.2462 2.56961 35.968C2.57168 38.8051 2.6077 41.6426 2.61153 44.4787C2.61733 48.8509 2.57064 53.2209 2.56464 57.5929C2.56226 59.3601 2.5251 61.1354 2.56588 62.9017L0.877438 63.188L0.822057 63.1446L0.830027 63.1077C0.893171 62.6623 0.857252 62.188 0.855906 61.7376C0.853421 60.9252 0.852076 60.1127 0.850627 59.3004C0.845658 56.4502 0.841002 53.5999 0.840174 50.7497C0.839035 46.5931 0.840069 42.4364 0.842657 38.2799C0.844313 35.4815 0.704464 32.609 1.08944 29.8335C1.6449 25.8297 3.49908 22.0223 5.46121 18.5312C5.98511 17.5991 6.49399 16.6464 7.06757 15.744C7.78276 14.6188 8.57538 13.5337 9.33146 12.435C10.0505 11.3901 10.7414 10.3078 11.5093 9.29889C13.0286 7.30243 14.6993 5.39633 16.2983 3.46263Z" fill="#FDFCDB"/>
<path d="M2.56588 62.9017C2.8286 62.9146 3.20871 62.6961 3.42423 62.7713L3.40281 62.8003C3.61201 63.203 3.65052 63.7995 3.74327 64.2519C3.96169 65.3176 4.16737 66.3869 4.39873 67.4498C4.51053 67.9632 4.68153 68.4676 4.83743 68.9691L4.97966 69.4369L6.24534 73.0405L6.43271 73.4626L8.25458 77.0351L8.47787 77.4476L10.6927 80.8503L11.0374 81.2867C12.0973 82.6767 13.226 84.0217 14.4179 85.3003C15.2012 86.1405 16.0059 86.9767 16.894 87.7069L16.8919 91.1776L16.9127 91.2664C16.8952 92.0181 16.9828 97.6182 16.8327 97.8126L12.7986 94.214C12.3282 93.7814 11.9143 93.2925 11.4778 92.826C10.948 92.2595 10.3741 91.7062 9.8833 91.1076C8.96594 89.9885 8.23781 88.7518 7.47915 87.5244C6.80712 86.4373 6.03148 85.3337 5.45407 84.1945C4.97169 83.243 4.60928 82.1545 4.22824 81.1559C3.87598 80.2323 3.46243 79.3198 3.16203 78.3783C2.8637 77.4428 2.67696 76.4534 2.45264 75.4976C2.17584 74.3178 1.84531 73.1358 1.63341 71.9425C1.47721 71.0635 1.4212 70.1435 1.32297 69.2539C1.11449 67.3673 0.919879 65.4818 0.842035 63.585C0.626412 63.5391 0.465135 63.4778 0.327148 63.3018L0.35986 63.2328L0.830027 63.1077L0.822057 63.1446L0.877438 63.188L2.56588 62.9017Z" fill="#F38922"/>
<path d="M2.56588 62.9017C2.8286 62.9146 3.20871 62.6961 3.42423 62.7713L3.40281 62.8003C3.61201 63.203 3.65052 63.7995 3.74327 64.2519C3.96169 65.3176 4.16737 66.3869 4.39873 67.4498C4.51053 67.9632 4.68153 68.4676 4.83743 68.9691L4.97966 69.4369L6.24534 73.0405L6.43271 73.4626L8.25458 77.0351L8.47787 77.4476L10.6927 80.8503L11.0374 81.2867C12.0973 82.6767 13.226 84.0217 14.4179 85.3003C15.2012 86.1405 16.0059 86.9767 16.894 87.7069L16.8919 91.1776C15.2898 89.7268 13.8447 88.1231 12.4487 86.4739C8.3376 81.6174 4.91776 76.2786 3.02984 70.1555C2.59973 68.7607 2.21724 67.3247 1.94862 65.8891C1.79303 65.0582 1.71643 64.2102 1.5506 63.3819C1.3181 63.4534 1.08126 63.5419 0.842035 63.585C0.626412 63.5391 0.465135 63.4778 0.327148 63.3018L0.35986 63.2328L0.830027 63.1077L0.822057 63.1446L0.877438 63.188L2.56588 62.9017Z" fill="#FDFCDB"/>
<path d="M2.56588 62.9017C2.8286 62.9146 3.20871 62.6961 3.42423 62.7713L3.40281 62.8003C2.78233 63.0051 2.19374 63.2498 1.5506 63.3819C1.3181 63.4534 1.08126 63.5419 0.842035 63.585C0.626412 63.5391 0.465135 63.4778 0.327148 63.3018L0.35986 63.2328L0.830027 63.1077L0.822057 63.1446L0.877438 63.188L2.56588 62.9017Z" fill="#653225"/>
<path d="M16.3417 14.4848L16.3646 13.2385C16.3893 13.9777 16.3785 14.7194 16.3813 15.4591C16.3824 15.7474 16.4356 16.2343 16.3415 16.4993L16.3176 21.0996C15.7337 21.2349 15.1487 21.3248 14.5692 21.4879C12.7671 21.995 11.0972 22.8273 9.67564 24.058C9.35495 24.3358 9.03934 24.6345 8.75301 24.9479C8.51555 25.2078 8.28523 25.5503 7.98803 25.7366C7.88317 25.9776 7.68898 26.1867 7.54095 26.4037C7.40182 26.6076 7.28619 26.845 7.11726 27.0251C6.86323 27.7677 6.98921 28.6297 6.99604 29.4039C7.00474 30.3963 7.02565 31.4044 6.98807 32.3958L6.99076 33.6469L6.98942 38.4074L6.98031 39.7054L6.96322 44.8376L6.96364 44.88L6.9744 46.104L6.97627 51.0863L6.97585 52.3898L6.98051 57.0033L6.98828 58.2162L6.97554 61.748L6.14566 61.9483L6.09276 61.956L6.00446 61.9675C5.51214 62.035 5.02283 62.0114 4.53071 61.9496L4.12327 61.9725C4.04615 62.1171 3.99243 62.408 4.03363 62.5681L4.04926 62.6087L3.42423 62.7713C3.20871 62.6961 2.8286 62.9146 2.56588 62.9017C2.5251 61.1354 2.56226 59.3601 2.56464 57.5929C2.57064 53.2209 2.61733 48.8509 2.61153 44.4787C2.6077 41.6426 2.57168 38.8051 2.56961 35.968C2.56836 34.2462 2.52716 32.5173 2.66867 30.7997C2.79713 29.2415 3.10675 27.6394 3.68437 26.1817C5.28027 22.1541 7.97064 18.9444 11.7048 16.7273C13.1864 15.8476 14.7611 15.1631 16.3417 14.4848Z" fill="#C47F4E"/>
<path d="M3.98373 44.8756L6.96364 44.88L6.9744 46.104L5.25511 46.1247L3.99875 46.1153L3.98373 44.8756Z" fill="#FDFCDB"/>
<path d="M4.8955 58.237L6.98828 58.2162L6.97554 61.748L6.14566 61.9483L6.09276 61.956L6.00446 61.9675C5.51214 62.035 5.02283 62.0114 4.53071 61.9496L4.14801 61.8784L4.15733 58.2857C4.40877 58.2854 4.64675 58.2827 4.8955 58.237Z" fill="#B8441E"/>
<path d="M6.98031 39.7054L6.96322 44.8376L4.16623 44.8384L4.16758 39.7654L4.96631 39.719L6.98031 39.7054Z" fill="#B8441E"/>
<path d="M5.47394 26.9755C6.02485 26.9708 6.56966 26.9533 7.11726 27.0251C6.86323 27.7677 6.98921 28.6297 6.99604 29.4039C7.00474 30.3963 7.02565 31.4044 6.98807 32.3958C6.60465 32.446 6.203 32.4269 5.81596 32.428C5.3755 32.4294 4.92459 32.4516 4.48858 32.3846C4.36643 32.3655 4.24811 32.3551 4.13818 32.2945C4.13104 31.3996 4.12441 30.5012 4.25091 29.6131C4.37616 28.7341 4.63008 27.8881 4.84902 27.0298L5.47394 26.9755Z" fill="#B8441E"/>
<path d="M4.48879 52.3973C5.21019 52.2883 6.25342 52.284 6.97585 52.3898L6.98051 57.0033L6.98828 58.2162L4.8955 58.237L4.00061 58.231C4.00309 57.9361 3.92525 57.1947 4.09336 56.9887C4.29221 55.8629 4.19584 54.5947 4.17772 53.4527C4.17275 53.1439 4.09719 52.754 4.16354 52.4585L4.48879 52.3973Z" fill="#B8441E"/>
<path d="M4.09336 56.9887L6.98051 57.0033L6.98828 58.2162L4.8955 58.237L4.00061 58.231C4.00309 57.9361 3.92525 57.1947 4.09336 56.9887Z" fill="#FDFCDB"/>
<path d="M5.25511 46.1247L6.9744 46.104L6.97627 51.0863L6.97585 52.3898C6.25342 52.284 5.21019 52.2883 4.48879 52.3973L4.06199 52.3697L3.96614 52.2256C3.95806 51.8763 3.86831 51.3642 4.08642 51.0787L4.32782 51.0776L4.21106 50.9834L4.15381 46.154C4.52191 46.1617 4.88981 46.181 5.25511 46.1247Z" fill="#B8441E"/>
<path d="M4.32782 51.0776L6.97627 51.0863L6.97585 52.3898C6.25342 52.284 5.21019 52.2883 4.48879 52.3973L4.06199 52.3697L3.96614 52.2256C3.95806 51.8763 3.86831 51.3642 4.08642 51.0787L4.32782 51.0776Z" fill="#FDFCDB"/>
<path d="M4.48858 32.3846C4.92459 32.4516 5.3755 32.4294 5.81596 32.428C6.203 32.4269 6.60465 32.446 6.98807 32.3958L6.99076 33.6469L6.98942 38.4074L6.98031 39.7054L4.96631 39.719C4.63733 39.6856 4.29242 39.7178 3.962 39.7308C3.93726 39.4025 3.85082 38.7747 3.99285 38.4789C4.02701 38.4076 4.09046 38.4083 4.1595 38.3839L4.1624 33.7222L4.3449 33.6716L4.08642 33.6503C3.96645 33.5105 3.94896 33.4541 3.93798 33.2671C3.92194 32.9951 3.90827 32.6063 4.08642 32.4018L4.48858 32.3846Z" fill="#B8441E"/>
<path d="M4.48858 32.3846C4.92459 32.4516 5.3755 32.4294 5.81596 32.428C6.203 32.4269 6.60465 32.446 6.98807 32.3958L6.99076 33.6469C6.14846 33.6136 5.16992 33.5175 4.3449 33.6716L4.08642 33.6503C3.96645 33.5105 3.94896 33.4541 3.93798 33.2671C3.92194 32.9951 3.90827 32.6063 4.08642 32.4018L4.48858 32.3846Z" fill="#FDFCDB"/>
<path d="M4.1595 38.3839L6.98942 38.4074L6.98031 39.7054L4.96631 39.719C4.63733 39.6856 4.29242 39.7178 3.962 39.7308C3.93726 39.4025 3.85082 38.7747 3.99285 38.4789C4.02701 38.4076 4.09046 38.4083 4.1595 38.3839Z" fill="#FDFCDB"/>
<path d="M5.45469 25.7368L5.48388 25.62C5.66255 25.2404 5.98262 24.8452 6.21046 24.4881C7.92913 21.793 10.2518 19.5293 13.0655 17.9907C13.6759 17.6568 14.3169 17.3309 14.9577 17.0606C15.4152 16.8676 15.8968 16.72 16.3415 16.4993L16.3176 21.0996C15.7337 21.2349 15.1487 21.3248 14.5692 21.4879C12.7671 21.995 11.0972 22.8273 9.67564 24.058C9.35495 24.3358 9.03934 24.6345 8.75301 24.9479C8.51555 25.2078 8.28523 25.5503 7.98803 25.7366C7.88317 25.9776 7.68898 26.1867 7.54095 26.4037C7.40182 26.6076 7.28619 26.845 7.11726 27.0251C6.56966 26.9533 6.02485 26.9708 5.47394 26.9755C5.30004 26.9728 5.03152 27.0121 4.89022 26.916C4.96951 26.5712 5.19497 25.9804 5.45469 25.7368Z" fill="#653225"/>
<path d="M5.45469 25.7368L7.98803 25.7366C7.88317 25.9776 7.68898 26.1867 7.54095 26.4037C7.40182 26.6076 7.28619 26.845 7.11726 27.0251C6.56966 26.9533 6.02485 26.9708 5.47394 26.9755C5.30004 26.9728 5.03152 27.0121 4.89022 26.916C4.96951 26.5712 5.19497 25.9804 5.45469 25.7368Z" fill="#FDFCDB"/>
<path d="M16.276 0.634562C16.7273 0.600909 17.2778 0.491379 17.6987 0.675968C17.817 0.925099 17.7648 1.28769 17.7647 1.56017C17.7644 2.26197 17.7203 2.98625 17.7623 3.68544L21.3961 7.96665C22.3773 9.3049 23.4116 10.603 24.3795 11.952C25.2007 13.0966 25.9696 14.2871 26.7171 15.4808C27.4584 16.6645 28.1796 17.8727 28.8537 19.0956C29.2774 19.8643 29.6596 20.6692 30.1103 21.4214C31.5023 24.1536 32.5221 27.0651 32.9948 30.0991C33.1342 30.9934 33.2619 31.9175 33.2996 32.8224C33.3434 33.8761 33.2715 34.9309 33.2719 35.9838C33.2728 38.0437 33.2885 40.1036 33.2857 42.1638C33.2763 49.0342 33.2606 55.9044 33.26 62.775L32.939 62.7957L33.0376 62.9136L32.8989 63.2616C32.646 64.3742 32.5011 65.5137 32.2123 66.6188C30.7005 72.4039 28.1645 77.9459 24.6659 82.8017C23.0471 85.0486 21.2181 87.1285 19.2796 89.103C18.7023 89.6912 18.0822 90.2877 17.4605 90.8278C17.2847 90.9806 17.0799 91.1067 16.9127 91.2664L16.8919 91.1776L16.894 87.7069C16.0059 86.9767 15.2012 86.1405 14.4179 85.3003C13.226 84.0217 12.0973 82.6767 11.0374 81.2867L10.6927 80.8503L8.47787 77.4476L8.25458 77.0351L6.43271 73.4626L6.24534 73.0405L4.97966 69.4369L4.83743 68.9691C4.68153 68.4676 4.51053 67.9632 4.39873 67.4498C4.16737 66.3869 3.96169 65.3176 3.74327 64.2519C3.65052 63.7995 3.61201 63.203 3.40281 62.8003L3.42423 62.7713L4.04926 62.6087L4.03363 62.5681C3.99243 62.408 4.04615 62.1171 4.12327 61.9725L4.53071 61.9496C5.02283 62.0114 5.51214 62.035 6.00446 61.9675L6.09276 61.956L6.14566 61.9483L6.97554 61.748L6.98828 58.2162L6.98051 57.0033L6.97585 52.3898L6.97627 51.0863L6.9744 46.104L6.96364 44.88L6.96322 44.8376L6.98031 39.7054L6.98942 38.4074L6.99076 33.6469L6.98807 32.3958C7.02565 31.4044 7.00474 30.3963 6.99604 29.4039C6.98921 28.6297 6.86323 27.7677 7.11726 27.0251C7.28619 26.845 7.40182 26.6076 7.54095 26.4037C7.68898 26.1867 7.88317 25.9776 7.98803 25.7366C8.28523 25.5503 8.51555 25.2078 8.75301 24.9479C9.03934 24.6345 9.35495 24.3358 9.67564 24.058C11.0972 22.8273 12.7671 21.995 14.5692 21.4879C15.1487 21.3248 15.7337 21.2349 16.3176 21.0996L16.3415 16.4993C16.4356 16.2343 16.3824 15.7474 16.3813 15.4591C16.3785 14.7194 16.3893 13.9777 16.3646 13.2385C16.329 12.4476 16.3704 11.6358 16.3729 10.8429C16.3779 9.23378 16.3822 7.62463 16.3853 6.01544C16.3864 5.45754 16.3897 4.89952 16.3866 4.34163C16.3849 4.05452 16.4205 3.72596 16.2983 3.46263L16.276 0.634562Z" fill="#F38922"/>
<path d="M4.53071 61.9496C5.02283 62.0114 5.51214 62.035 6.00446 61.9675L6.09276 61.956L6.14566 61.9483C5.91461 62.1509 5.64433 62.1833 5.35449 62.2538C4.92003 62.3592 4.47129 62.4619 4.04926 62.6087L4.03363 62.5681C3.99243 62.408 4.04615 62.1171 4.12327 61.9725L4.53071 61.9496Z" fill="#C0B48B"/>
<path d="M4.83743 68.9691L16.1849 66.2889L16.1794 66.3631L4.97966 69.4369L4.83743 68.9691Z" fill="#B8441E"/>
<path d="M26.7047 25.7301L28.0328 25.7304L29.4146 25.7246L29.883 26.9735L28.4006 27.0209L26.8118 27.0227C26.6666 27.0244 26.5312 27.0362 26.394 26.9799C26.1612 26.6822 26.0515 26.1389 25.9337 25.7788L26.7047 25.7301Z" fill="#FDFCDB"/>
<path d="M26.8118 27.0227L28.4006 27.0209L28.4161 27.071C28.5734 27.5681 28.8107 28.0602 28.9935 28.5522C29.4469 29.7718 29.755 31.0024 29.8389 32.3008L26.7968 32.3028L26.8118 27.0227Z" fill="#653225"/>
<path d="M24.1877 57.5104L24.5814 57.517L24.6419 57.5249C25.2202 57.5945 26.2368 57.4244 26.661 57.9121L26.6968 57.9595L26.7433 58.1566C26.9041 58.1707 27.069 58.1763 27.2255 58.2174L29.8357 58.2297L29.8342 62.5971L26.623 61.9908L24.1514 61.3146L24.1877 57.5104Z" fill="#653225"/>
<path d="M24.1877 57.5104L24.5814 57.517L24.6419 57.5249C25.2202 57.5945 26.2368 57.4244 26.661 57.9121L26.6968 57.9595L26.7433 58.1566C26.9041 58.1707 27.069 58.1763 27.2255 58.2174L26.7563 58.2211C26.5528 58.4978 26.6936 61.4159 26.623 61.9908L24.1514 61.3146L24.1877 57.5104Z" fill="#7CC2AB"/>
<path d="M26.7765 50.5751L29.8832 50.5602L29.8857 52.0721L29.8372 56.7269L29.8357 58.2297L27.2255 58.2174C27.069 58.1763 26.9041 58.1707 26.7433 58.1566L26.6968 57.9595C26.8173 57.5603 26.7829 57.1405 26.7726 56.7283L26.7692 52.0736L26.7765 50.5751Z" fill="#653225"/>
<path d="M26.7726 56.7283L29.8372 56.7269L29.8357 58.2297L27.2255 58.2174C27.069 58.1763 26.9041 58.1707 26.7433 58.1566L26.6968 57.9595C26.8173 57.5603 26.7829 57.1405 26.7726 56.7283Z" fill="#78D8E6"/>
<path d="M26.7765 50.5751L29.8832 50.5602L29.8857 52.0721L26.7692 52.0736L26.7765 50.5751Z" fill="#78D8E6"/>
<path d="M17.733 16.7075L17.7505 16.5869L17.8281 16.5518C18.3173 16.7566 18.8184 16.9447 19.2932 17.1813C23.0826 19.0704 26.1247 21.9378 28.0328 25.7304L26.7047 25.7301C24.3603 23.2784 21.155 21.4101 17.7269 21.167L17.737 21.1278C17.6858 20.6465 17.7234 20.1231 17.725 19.6367C17.7284 18.6598 17.7416 17.6848 17.733 16.7075Z" fill="#653225"/>
<path d="M17.733 16.7075L17.8022 16.6118C17.9176 16.9001 17.8348 17.5393 17.8335 17.8662C17.8292 18.9246 17.8318 19.9831 17.8267 21.0415L17.737 21.1278C17.6858 20.6465 17.7234 20.1231 17.725 19.6367C17.7284 18.6598 17.7416 17.6848 17.733 16.7075Z" fill="#3A1C16"/>
<path d="M11.7957 57.4663C14.4531 57.4433 17.1046 57.5043 19.7617 57.5023C21.2307 57.5013 22.7225 57.3421 24.1877 57.5104L24.1514 61.3146C23.0764 60.9281 21.9558 60.6509 20.8615 60.3259C20.0377 60.0811 17.404 59.1175 16.6877 59.3285L9.50008 61.1251L9.40878 61.1423L9.40091 57.4913L11.7957 57.4663Z" fill="#FDFCDB"/>
<path d="M16.1794 66.3631L16.8939 66.1632L16.9036 70.4721L16.9006 70.5961L16.8494 70.6034C16.4566 70.6373 16.125 70.7667 15.7529 70.8727C15.064 71.0689 14.3767 71.2716 13.6875 71.4671C12.0127 71.9422 10.3347 72.4089 8.66212 72.8907C8.20241 73.0231 7.7428 73.1551 7.28195 73.2836C6.99935 73.3623 6.72876 73.4584 6.43271 73.4626L6.24534 73.0405L4.97966 69.4369L16.1794 66.3631Z" fill="#F38922"/>
<path d="M16.9036 70.4721L16.9006 70.5961L16.8494 70.6034C16.4566 70.6373 16.125 70.7667 15.7529 70.8727C15.064 71.0689 14.3767 71.2716 13.6875 71.4671C12.0127 71.9422 10.3347 72.4089 8.66212 72.8907C8.20241 73.0231 7.7428 73.1551 7.28195 73.2836C6.99935 73.3623 6.72876 73.4584 6.43271 73.4626L6.24534 73.0405C6.73404 72.8227 7.30078 72.7148 7.81681 72.5775C8.89648 72.2902 9.98091 72.031 11.0663 71.7668C12.2494 71.479 13.4337 71.1941 14.6191 70.9166C15.382 70.738 16.1184 70.523 16.9036 70.4721Z" fill="#B8441E"/>
<path d="M16.9064 64.769C19.4602 65.3706 22.0291 65.9328 24.5919 66.4949C26.2605 66.8609 28.0183 67.1641 29.6292 67.7328L27.7333 72.9198L27.7017 72.9912C26.8787 72.7898 26.0212 72.6474 25.1893 72.4763C23.7286 72.1759 22.2662 71.8503 20.8122 71.5193C19.9355 71.3198 19.0643 71.0871 18.1909 70.8729C17.7677 70.7689 17.3382 70.6184 16.9006 70.5961L16.9036 70.4721L16.8939 66.1632L16.1794 66.3631L16.1849 66.2889C16.4234 66.195 16.6483 66.1616 16.8954 66.1085L16.9064 64.769Z" fill="#B8441E"/>
<path d="M16.9036 70.4721C19.1119 70.8605 21.2871 71.3324 23.4697 71.8485C24.7994 72.163 26.14 72.5121 27.4876 72.7317C27.6149 72.7525 27.6638 72.8188 27.7333 72.9198L27.7017 72.9912C26.8787 72.7898 26.0212 72.6474 25.1893 72.4763C23.7286 72.1759 22.2662 71.8503 20.8122 71.5193C19.9355 71.3198 19.0643 71.0871 18.1909 70.8729C17.7677 70.7689 17.3382 70.6184 16.9006 70.5961L16.9036 70.4721Z" fill="#653225"/>
<path d="M6.43271 73.4626C6.72876 73.4584 6.99935 73.3623 7.28195 73.2836C7.7428 73.1551 8.20241 73.0231 8.66212 72.8907C10.3347 72.4089 12.0127 71.9422 13.6875 71.4671C14.3767 71.2716 15.064 71.0689 15.7529 70.8727C16.125 70.7667 16.4566 70.6373 16.8494 70.6034C16.9595 71.0197 16.9586 74.5725 16.8711 74.9992L16.6275 75.0266L16.7154 75.0874L16.8706 75.1469C16.9218 75.4706 16.8983 75.8176 16.8991 76.146C16.9004 76.7298 16.9008 77.3135 16.9001 77.8974C16.8996 78.2919 16.9614 78.8097 16.8949 79.1914C16.8807 79.2725 16.8495 79.3202 16.8053 79.386L16.8609 79.4088L16.8522 79.5079L11.0374 81.2867L10.6927 80.8503L8.47787 77.4476L8.25458 77.0351L6.43271 73.4626Z" fill="#F38922"/>
<path d="M8.25458 77.0351C8.75932 76.786 9.4888 76.6984 10.0354 76.5606C11.8124 76.1123 13.5936 75.6663 15.38 75.257C15.7921 75.1626 16.2144 75.1193 16.6275 75.0266L16.7154 75.0874C14.9872 75.6163 13.2454 76.1052 11.5132 76.6211C10.9347 76.7935 10.3544 76.9601 9.77657 77.1344C9.35412 77.2618 8.92267 77.4297 8.47787 77.4476L8.25458 77.0351Z" fill="#B8441E"/>
<path d="M16.7154 75.0874L16.8706 75.1469C16.9218 75.4706 16.8983 75.8176 16.8991 76.146C16.9004 76.7298 16.9008 77.3135 16.9001 77.8974C16.8996 78.2919 16.9614 78.8097 16.8949 79.1914C16.8807 79.2725 16.8495 79.3202 16.8053 79.386L16.8609 79.4088L16.8522 79.5079L11.0374 81.2867L10.6927 80.8503L8.47787 77.4476C8.92267 77.4297 9.35412 77.2618 9.77657 77.1344C10.3544 76.9601 10.9347 76.7935 11.5132 76.6211C13.2454 76.1052 14.9872 75.6163 16.7154 75.0874Z" fill="#F38922"/>
<path d="M16.8053 79.386L16.8609 79.4088L16.8522 79.5079L11.0374 81.2867L10.6927 80.8503L10.7451 80.8256C11.2434 80.5712 11.9614 80.5079 12.5118 80.3754C13.9326 80.0334 15.3654 79.6269 16.8053 79.386Z" fill="#B8441E"/>
<path d="M16.9006 70.5961C17.3382 70.6184 17.7677 70.7689 18.1909 70.8729C19.0643 71.0871 19.9355 71.3198 20.8122 71.5193C22.2662 71.8503 23.7286 72.1759 25.1893 72.4763C26.0212 72.6474 26.8787 72.7898 27.7017 72.9912L25.7461 76.8265L25.5115 77.2596L23.2952 80.7632L22.9166 81.1958L16.9005 79.5106L16.8522 79.5079L16.8609 79.4088L16.8053 79.386C16.8495 79.3202 16.8807 79.2725 16.8949 79.1914C16.9614 78.8097 16.8996 78.2919 16.9001 77.8974C16.9008 77.3135 16.9004 76.7298 16.8991 76.146C16.8983 75.8176 16.9218 75.4706 16.8706 75.1469L16.7154 75.0874L16.6275 75.0266L16.8711 74.9992C16.9586 74.5725 16.9595 71.0197 16.8494 70.6034L16.9006 70.5961Z" fill="#B8441E"/>
<path d="M16.8711 74.9992C17.2655 75.0302 17.6828 75.0723 18.0714 75.1461C18.7318 75.2716 19.3796 75.4748 20.0403 75.6078C21.4904 75.8997 22.9373 76.1971 24.3819 76.516C24.7935 76.6068 25.3713 76.6644 25.7461 76.8265L25.5115 77.2596C24.4733 76.9308 23.3913 76.7427 22.3311 76.4996C21.2324 76.2476 20.1458 75.9361 19.0548 75.6534C18.6077 75.5376 18.1674 75.3955 17.722 75.2784C17.4115 75.1967 17.16 75.1553 16.8711 74.9992Z" fill="#653225"/>
<path d="M16.6275 75.0266L16.8711 74.9992C17.16 75.1553 17.4115 75.1967 17.722 75.2784C18.1674 75.3955 18.6077 75.5376 19.0548 75.6534C20.1458 75.9361 21.2324 76.2476 22.3311 76.4996C23.3913 76.7427 24.4733 76.9308 25.5115 77.2596L23.2952 80.7632L22.9166 81.1958L16.9005 79.5106L16.8522 79.5079L16.8609 79.4088L16.8053 79.386C16.8495 79.3202 16.8807 79.2725 16.8949 79.1914C16.9614 78.8097 16.8996 78.2919 16.9001 77.8974C16.9008 77.3135 16.9004 76.7298 16.8991 76.146C16.8983 75.8176 16.9218 75.4706 16.8706 75.1469L16.7154 75.0874L16.6275 75.0266Z" fill="#B8441E"/>
<path d="M16.8609 79.4088C18.1346 79.5139 19.3557 79.9056 20.6003 80.1805C21.4871 80.3763 22.4311 80.5035 23.2952 80.7632L22.9166 81.1958L16.9005 79.5106L16.8522 79.5079L16.8609 79.4088Z" fill="#653225"/>
<path d="M30.943 62.7862L30.6229 62.6662L30.6382 62.606L31.651 62.677L32.939 62.7957L33.0376 62.9136L32.8989 63.2616C32.646 64.3742 32.5011 65.5137 32.2123 66.6188C30.7005 72.4039 28.1645 77.9459 24.6659 82.8017C23.0471 85.0486 21.2181 87.1285 19.2796 89.103C18.7023 89.6912 18.0822 90.2877 17.4605 90.8278C17.2847 90.9806 17.0799 91.1067 16.9127 91.2664L16.8919 91.1776L16.894 87.7069C16.0059 86.9767 15.2012 86.1405 14.4179 85.3003C13.226 84.0217 12.0973 82.6767 11.0374 81.2867L16.8522 79.5079L16.9005 79.5106L22.9166 81.1958L23.2952 80.7632L25.5115 77.2596L25.7461 76.8265L27.7017 72.9912L27.7333 72.9198L29.6292 67.7328L30.943 62.7862Z" fill="#C0B48B"/>
<path d="M30.943 62.7862L30.6229 62.6662L30.6382 62.606L31.651 62.677L32.939 62.7957L33.0376 62.9136L32.8989 63.2616L30.943 62.7862Z" fill="#3A1C16"/>
<path d="M16.9005 79.5106L22.9166 81.1958C21.0538 83.4951 19.1165 85.7425 16.894 87.7069C16.0059 86.9767 15.2012 86.1405 14.4179 85.3003C13.226 84.0217 12.0973 82.6767 11.0374 81.2867L16.8522 79.5079L16.9005 79.5106Z" fill="#B8441E"/>
<path d="M16.9332 79.9823C17.7373 80.1149 18.3643 80.3762 18.8416 81.0756C19.2463 81.6684 19.3678 82.4217 19.2193 83.1197C19.096 83.6983 18.6453 84.3116 18.1387 84.6168L17.8459 84.7829C17.7049 84.8599 17.5355 84.8743 17.3807 84.9138C17.2085 84.9579 17.015 84.9541 16.8376 84.9629C16.9086 84.6877 16.9183 84.4045 16.854 84.1275C17.0783 84.1118 17.2869 84.0739 17.4944 83.9829C17.9144 83.7988 18.2766 83.4193 18.4334 82.9885L18.4577 82.918C18.4772 82.8624 18.4966 82.8095 18.5056 82.7509C18.5703 82.3328 18.4236 81.9041 18.1834 81.566C17.8625 81.1144 17.4421 80.9607 16.9146 80.8736L16.8991 80.0028L16.9332 79.9823Z" fill="#C0B48B"/>
<path d="M16.9146 80.8736C17.4421 80.9607 17.8625 81.1144 18.1834 81.566C18.4236 81.9041 18.5703 82.3328 18.5056 82.7509C18.4966 82.8095 18.4772 82.8624 18.4577 82.918L18.4334 82.9885C18.2766 83.4193 17.9144 83.7988 17.4944 83.9829C17.2869 84.0739 17.0783 84.1118 16.854 84.1275C16.6299 84.1045 16.3453 84.0397 16.1462 83.9305C15.811 83.7466 15.5284 83.4428 15.4267 83.0705C15.2904 82.5718 15.3376 82.062 15.6079 81.6152C15.7947 81.3064 16.0572 81.0851 16.4111 80.9972L16.9146 80.8736Z" fill="#653225"/>
<path d="M16.8522 79.5079L16.9005 79.5106C16.9054 79.6666 16.9 79.8299 16.9332 79.9823L16.8991 80.0028L16.9146 80.8736L16.4111 80.9972C16.0572 81.0851 15.7947 81.3064 15.6079 81.6152C15.3376 82.062 15.2904 82.5718 15.4267 83.0705C15.5284 83.4428 15.811 83.7466 16.1462 83.9305C16.3453 84.0397 16.6299 84.1045 16.854 84.1275C16.9183 84.4045 16.9086 84.6877 16.8376 84.9629C16.9863 85.8223 16.9107 86.8311 16.894 87.7069C16.0059 86.9767 15.2012 86.1405 14.4179 85.3003C13.226 84.0217 12.0973 82.6767 11.0374 81.2867L16.8522 79.5079Z" fill="#F38922"/>
<path d="M16.8376 84.9629C16.5001 84.9159 16.1533 84.8729 15.8442 84.7195C15.2469 84.4233 14.8182 83.8317 14.6348 83.2023C14.4471 82.559 14.5791 81.7738 14.9099 81.197C15.177 80.7313 15.6672 80.3156 16.1914 80.1732L16.8991 80.0028L16.9146 80.8736L16.4111 80.9972C16.0572 81.0851 15.7947 81.3064 15.6079 81.6152C15.3376 82.062 15.2904 82.5718 15.4267 83.0705C15.5284 83.4428 15.811 83.7466 16.1462 83.9305C16.3453 84.0397 16.6299 84.1045 16.854 84.1275C16.9183 84.4045 16.9086 84.6877 16.8376 84.9629Z" fill="#FDFCDB"/>
<path d="M17.7623 3.68544L21.3961 7.96665C22.3773 9.3049 23.4116 10.603 24.3795 11.952C25.2007 13.0966 25.9696 14.2871 26.7171 15.4808C27.4584 16.6645 28.1796 17.8727 28.8537 19.0956C29.2774 19.8643 29.6596 20.6692 30.1103 21.4214C31.5023 24.1536 32.5221 27.0651 32.9948 30.0991C33.1342 30.9934 33.2619 31.9175 33.2996 32.8224C33.3434 33.8761 33.2715 34.9309 33.2719 35.9838C33.2728 38.0437 33.2885 40.1036 33.2857 42.1638C33.2763 49.0342 33.2606 55.9044 33.26 62.775L32.939 62.7957L31.651 62.677C31.7144 62.2713 31.6866 61.8467 31.6853 61.4371C31.6834 60.7417 31.6806 60.0463 31.6787 59.3509C31.6726 57.0915 31.6798 54.832 31.6829 52.5725C31.6886 48.2653 31.6923 43.958 31.6929 39.6507C31.693 38.3167 31.6929 36.9827 31.6916 35.6487C31.6906 34.6499 31.7106 33.6455 31.6216 32.6497C31.4162 30.3493 30.9548 28.056 30.0759 25.9149C27.8036 20.379 23.1546 16.7836 17.7578 14.5304L17.7623 3.68544Z" fill="#FDFCDB"/>
<path d="M17.7269 21.167C21.155 21.4101 24.3603 23.2784 26.7047 25.7301L25.9337 25.7788C26.0515 26.1389 26.1612 26.6822 26.394 26.9799C26.5312 27.0362 26.6666 27.0244 26.8118 27.0227L26.7968 32.3028L29.8389 32.3008L29.8355 33.7491L29.8372 38.4049L29.8362 39.8594C29.8349 40.8731 29.8328 41.8869 29.8358 42.9006C29.8373 43.3568 29.8851 43.7997 29.842 44.2549L29.8228 44.4818C29.9126 44.9753 29.8978 45.4687 29.8529 45.9664C29.8169 46.8311 29.8321 47.7003 29.8326 48.5657C29.833 49.2274 29.8015 49.9035 29.8832 50.5602L26.7765 50.5751L26.7692 52.0736L26.7726 56.7283C26.7829 57.1405 26.8173 57.5603 26.6968 57.9595L26.661 57.9121C26.2368 57.4244 25.2202 57.5945 24.6419 57.5249L24.5814 57.517C24.7708 57.5197 24.9654 57.5329 25.1518 57.4959C25.2043 57.2053 25.2937 56.6404 25.1449 56.3773C25.1066 56.3096 24.9882 56.3159 24.9169 56.3024L22.3816 56.3177L22.3838 52.3816C22.211 52.3841 22.0608 52.3691 21.8911 52.3371C21.87 52.3085 21.8377 52.2855 21.8278 52.2515C21.7929 52.133 21.8222 51.8757 21.8208 51.7422C21.8148 51.1135 21.8492 50.4833 21.8498 49.8534C21.8523 47.1458 21.819 44.4389 21.8203 41.7311L17.7091 41.7331L17.729 39.343L18.1674 39.2783C20.2333 38.8711 21.9813 37.89 23.1666 36.1237C24.0425 34.8187 24.6893 33.0142 24.3702 31.4254C24.293 31.0407 24.2179 30.6805 24.0811 30.3118C23.7973 29.5478 23.3944 28.9081 22.8472 28.3034C22.628 28.0612 22.404 27.8127 22.1024 27.6749L22.2454 28.2619L17.6829 28.2615L17.7007 23.7592C17.6013 22.9968 17.6379 21.9998 17.7275 21.2385L17.7269 21.167Z" fill="#5ABB5A"/>
<path d="M28.9823 44.472L29.8228 44.4818C29.9126 44.9753 29.8978 45.4687 29.8529 45.9664L26.7835 45.9666L26.7819 44.514L28.9823 44.472Z" fill="#78D8E6"/>
<path d="M22.3838 52.3816L25.2446 52.3806L24.9169 56.3024L22.3816 56.3177L22.3838 52.3816Z" fill="#B6CCC6"/>
<path d="M29.8529 45.9664C29.8169 46.8311 29.8321 47.7003 29.8326 48.5657C29.833 49.2274 29.8015 49.9035 29.8832 50.5602L26.7765 50.5751L26.7835 45.9666L29.8529 45.9664Z" fill="#653225"/>
<path d="M26.7718 39.8586L29.8362 39.8594C29.8349 40.8731 29.8328 41.8869 29.8358 42.9006C29.8373 43.3568 29.8851 43.7997 29.842 44.2549L29.8228 44.4818L28.9823 44.472L26.7803 44.4853L26.7718 39.8586Z" fill="#653225"/>
<path d="M17.7007 23.7592L17.8622 23.784C19.4255 24.284 20.8653 25.1413 21.6395 26.6539L22.1024 27.6749L22.2454 28.2619L17.6829 28.2615L17.7007 23.7592Z" fill="#78D8E6"/>
<path d="M26.7968 32.3028L29.8389 32.3008L29.8355 33.7491L29.8372 38.4049L29.8362 39.8594L26.7718 39.8586L26.7695 38.4063C26.7202 37.9497 26.7528 37.4567 26.7525 36.9961C26.7516 35.9159 26.7808 34.8355 26.7876 33.755L26.7968 32.3028Z" fill="#653225"/>
<path d="M26.7968 32.3028L29.8389 32.3008L29.8355 33.7491L26.7876 33.755L26.7968 32.3028Z" fill="#7CC2AB"/>
<path d="M26.7695 38.4063L29.8372 38.4049L29.8362 39.8594L26.7718 39.8586L26.7695 38.4063Z" fill="#7CC2AB"/>
<path d="M7.98803 25.7366C8.28523 25.5503 8.51555 25.2078 8.75301 24.9479C9.03934 24.6345 9.35495 24.3358 9.67564 24.058C11.0972 22.8273 12.7671 21.995 14.5692 21.4879C15.1487 21.3248 15.7337 21.2349 16.3176 21.0996L16.3279 23.866L16.3192 28.2896C16.7463 28.2143 17.2469 28.2624 17.6829 28.2615L22.2454 28.2619L22.1024 27.6749C22.404 27.8127 22.628 28.0612 22.8472 28.3034C23.3944 28.9081 23.7973 29.5478 24.0811 30.3118C24.2179 30.6805 24.293 31.0407 24.3702 31.4254C24.6893 33.0142 24.0425 34.8187 23.1666 36.1237C21.9813 37.89 20.2333 38.8711 18.1674 39.2783L17.729 39.343L17.7091 41.7331L21.8203 41.7311C21.819 44.4389 21.8523 47.1458 21.8498 49.8534C21.8492 50.4833 21.8148 51.1135 21.8208 51.7422C21.8222 51.8757 21.7929 52.133 21.8278 52.2515C21.8377 52.2855 21.87 52.3085 21.8911 52.3371C22.0608 52.3691 22.211 52.3841 22.3838 52.3816L22.3816 56.3177L24.9169 56.3024C24.9882 56.3159 25.1066 56.3096 25.1449 56.3773C25.2937 56.6404 25.2043 57.2053 25.1518 57.4959C24.9654 57.5329 24.7708 57.5197 24.5814 57.517L24.1877 57.5104C22.7225 57.3421 21.2307 57.5013 19.7617 57.5023C17.1046 57.5043 14.4531 57.4433 11.7957 57.4663L9.40091 57.4913L9.40878 61.1423L6.97554 61.748L6.98828 58.2162L6.98051 57.0033L6.97585 52.3898L6.97627 51.0863L6.9744 46.104L6.96364 44.88L6.96322 44.8376L6.98031 39.7054L6.98942 38.4074L6.99076 33.6469L6.98807 32.3958C7.02565 31.4044 7.00474 30.3963 6.99604 29.4039C6.98921 28.6297 6.86323 27.7677 7.11726 27.0251C7.28619 26.845 7.40182 26.6076 7.54095 26.4037C7.68898 26.1867 7.88317 25.9776 7.98803 25.7366Z" fill="url(#paint0_linear_279_2)"/>
<path d="M16.3927 34.8782C16.616 34.8886 16.839 34.8924 17.0595 34.9293C17.2286 34.9575 17.408 34.9017 17.5771 34.8772L17.7214 34.8832L17.729 39.343L17.7091 41.7331L16.3511 41.7186L16.3307 39.3065C16.3327 38.6432 16.3203 37.9757 16.3425 37.313C16.3682 36.5396 16.45 35.6568 16.3481 34.8922L16.3927 34.8782Z" fill="#F38922"/>
<path d="M16.3279 23.866L16.3192 28.2896L16.1567 28.2584L11.824 28.2659C11.9756 27.7379 12.1511 27.1986 12.4034 26.709C13.1781 25.2052 14.643 24.3929 16.1973 23.9088L16.3279 23.866Z" fill="#FDFCDB"/>
<path d="M11.5652 52.3801L12.6075 52.3809L12.6077 56.361L8.44794 56.3654L8.45395 56.3164L8.45705 52.3786L11.5652 52.3801Z" fill="#FDFCDB"/>
<path d="M11.5652 52.3801L12.6075 52.3809L12.6077 56.361L8.44794 56.3654L8.45395 56.3164L11.6185 56.3254L11.5652 52.3801Z" fill="#7C786A"/>
<path d="M17.5195 29.3982L22.3478 29.4028C22.2773 29.9932 22.2228 30.5817 22.0557 31.1551C21.7426 32.2294 21.0976 33.0832 20.2251 33.7686C19.4609 34.3691 18.6527 34.6497 17.7214 34.8832L17.5771 34.8772L17.5162 29.8232L17.5195 29.3982Z" fill="#78D8E6"/>
<path d="M16.3307 39.3065C16.2526 39.2547 16.1836 39.2178 16.0966 39.1814C14.0921 38.3426 12.5512 37.0304 11.6681 35.0252C11.1053 33.7473 11.0483 32.3901 11.3049 31.0308C11.3649 30.7124 11.4233 30.3408 11.5486 30.043C11.6092 29.8989 11.6092 29.8807 11.7531 29.823C11.8609 31.3441 12.6274 32.7346 13.7651 33.7236C14.5139 34.3744 15.3788 34.7234 16.3481 34.8922C16.45 35.6568 16.3682 36.5396 16.3425 37.313C16.3203 37.9757 16.3327 38.6432 16.3307 39.3065Z" fill="#14734C"/>
<path d="M16.4277 29.4L17.5195 29.3982L17.5162 29.8232L17.5771 34.8772C17.408 34.9017 17.2286 34.9575 17.0595 34.9293C16.839 34.8924 16.616 34.8886 16.3927 34.8782L16.3481 34.8922C15.3788 34.7234 14.5139 34.3744 13.7651 33.7236C12.6274 32.7346 11.8609 31.3441 11.7531 29.823C11.7362 29.6563 11.6975 29.5713 11.788 29.4263C12.3006 29.3572 12.8639 29.3997 13.3825 29.3995C14.3976 29.3989 15.4126 29.3993 16.4277 29.4Z" fill="#FDFCDB"/>
<path d="M16.4277 29.4L17.5195 29.3982L17.5162 29.8232L17.5771 34.8772C17.408 34.9017 17.2286 34.9575 17.0595 34.9293C16.839 34.8924 16.616 34.8886 16.3927 34.8782C16.5243 34.3459 16.4344 33.6886 16.4341 33.1396C16.4333 31.9975 16.4339 30.8555 16.4343 29.7134L16.4277 29.4Z" fill="#C0B48B"/>
<path d="M16.4277 29.4L17.5195 29.3982L17.5162 29.8232C17.1469 29.8249 16.7845 29.849 16.4343 29.7134L16.4277 29.4Z" fill="#F38922"/>
<path d="M16.3511 41.7186L17.7091 41.7331L21.8203 41.7311C21.819 44.4389 21.8523 47.1458 21.8498 49.8534C21.8492 50.4833 21.8148 51.1135 21.8208 51.7422C21.8222 51.8757 21.7929 52.133 21.8278 52.2515C21.8377 52.2855 21.87 52.3085 21.8911 52.3371C22.0608 52.3691 22.211 52.3841 22.3838 52.3816L22.3816 56.3177L24.9169 56.3024C24.9882 56.3159 25.1066 56.3096 25.1449 56.3773C25.2937 56.6404 25.2043 57.2053 25.1518 57.4959C24.9654 57.5329 24.7708 57.5197 24.5814 57.517L24.1877 57.5104C22.7225 57.3421 21.2307 57.5013 19.7617 57.5023C17.1046 57.5043 14.4531 57.4433 11.7957 57.4663L8.37766 57.4516L8.44794 56.3654L12.6077 56.361L12.6075 52.3809L11.5652 52.3801L11.5141 41.7391L16.3511 41.7186Z" fill="#653225"/>
<path d="M12.6075 52.3809L16.7855 52.3791C16.9363 52.9417 16.8987 53.5193 16.8995 54.0963C16.9004 54.8382 16.9003 55.5801 16.8997 56.322L12.6077 56.361L12.6075 52.3809Z" fill="#FDFCDB"/>
<path d="M16.7855 52.3791L21.6082 52.3809L21.6071 56.3417L16.8997 56.322C16.9003 55.5801 16.9004 54.8382 16.8995 54.0963C16.8987 53.5193 16.9363 52.9417 16.7855 52.3791Z" fill="#B6CCC6"/>
<defs>
<linearGradient id="paint0_linear_279_2" x1="31.6593" y1="49.87" x2="-0.0233713" y2="49.3594" gradientUnits="userSpaceOnUse">
<stop stop-color="#428F3B"/>
<stop offset="1" stop-color="#68BF49"/>
</linearGradient>
</defs>
</svg>
