<svg width="78" height="84" viewBox="0 0 78 84" fill="none" xmlns="http://www.w3.org/2000/svg">
<path d="M38.8873 0.539612C39.3228 0.682131 39.7375 0.955657 40.1407 1.17021C41.1452 1.70466 42.1391 2.25791 43.1348 2.80821C46.0877 4.43994 49.0497 6.05449 51.9929 7.70381C57.8467 10.9844 63.716 14.2375 69.5741 17.5104C71.9856 18.8578 74.4565 20.1349 76.8332 21.5397C77.1103 21.7035 77.2862 21.846 77.4647 22.1213C77.5415 22.6418 77.5181 23.1808 77.5194 23.706C77.5217 24.5276 77.5215 25.3492 77.5217 26.1709C77.5224 28.9907 77.5213 31.8105 77.5209 34.6304C77.5198 41.6688 77.5179 48.7072 77.5182 55.7457C77.5182 57.1812 77.5201 58.6168 77.5238 60.0523C77.5247 60.4202 77.5259 60.7881 77.5284 61.156C77.5295 61.325 77.5516 61.5432 77.5012 61.706C77.455 61.8554 77.3097 61.9536 77.1845 62.0317C75.9771 62.7851 74.6459 63.4149 73.3988 64.1062C71.1719 65.3406 68.9665 66.6144 66.7514 67.8698C62.3527 70.3626 57.9222 72.7943 53.5049 75.2535C48.6799 77.9397 43.8691 80.6501 39.0356 83.3216L38.9934 83.3288C38.8762 83.331 38.729 83.2272 38.6271 83.174C38.2785 82.9918 37.9317 82.8059 37.5841 82.6219C34.5291 81.0053 31.5326 79.2748 28.5191 77.5822C21.8368 73.8288 15.1359 70.1079 8.43946 66.3798C6.78204 65.4571 5.11963 64.5396 3.4501 63.6392C2.47452 63.1129 1.3668 62.642 0.491216 61.9683C0.427642 60.8811 0.474321 59.7775 0.47481 58.688C0.475591 56.6915 0.475786 54.695 0.475982 52.6985C0.47647 46.4442 0.479399 40.1899 0.468462 33.9356C0.463481 31.0449 0.446197 28.1541 0.431255 25.2634C0.42774 24.588 0.41729 23.9127 0.41065 23.2373C0.407427 22.9116 0.369634 22.4988 0.440435 22.1839C0.472564 22.0411 0.6002 21.9128 0.710845 21.825C0.994927 21.5995 1.3627 21.446 1.68213 21.2769C2.21905 20.9928 2.75235 20.7033 3.28096 20.4039C6.17325 18.7653 9.09004 17.1643 11.996 15.5496C20.9689 10.5637 29.8699 5.44522 38.8873 0.539612Z" fill="#251815"/>
<path d="M14.7447 30.9364L25.769 37.0315L25.7589 42.6058L14.7521 36.4655L14.7447 30.9364Z" fill="#FEDD01"/>
<path d="M63.3445 30.8611L63.4373 30.9404L63.4492 36.7569L52.3428 42.9762L52.3072 42.9416C52.133 42.3809 52.2341 41.5172 52.2331 40.9217C52.2312 39.6616 52.2312 38.4017 52.2314 37.1416L63.3445 30.8611Z" fill="#D81C0E"/>
<path d="M20.7862 12.9833C21.0814 13.0267 21.4378 13.2942 21.701 13.4406C22.3357 13.7935 22.9724 14.1427 23.606 14.4978C26.1858 15.9438 28.7518 17.4146 31.3341 18.856C37.4733 22.2822 43.6327 25.6721 49.7667 29.1077C51.8734 30.2877 53.9944 31.4381 56.0797 32.6565L51.1847 35.3643C50.9357 35.3736 46.1788 32.6012 45.505 32.2307C39.2457 28.7892 33.0456 25.2378 26.7931 21.7835C24.163 20.3305 21.5336 18.8745 18.9169 17.3976C17.8984 16.8226 16.8269 16.3447 15.8519 15.6975L20.7862 12.9833Z" fill="#D81C0E"/>
<path d="M13.7729 16.9076L48.9811 36.5182L39.0318 42.0572L3.70469 22.568L13.7729 16.9076Z" fill="#FEDD01"/>
<path d="M38.8991 2.88037C39.3023 3.02295 39.6343 3.24141 40.0064 3.44414C40.5823 3.75811 41.1603 4.06905 41.7371 4.38135C44.1642 5.69483 46.5733 7.03994 48.9855 8.38067C57.4225 13.0703 65.8145 17.8385 74.2858 22.467L58.3059 31.3299L58.1896 31.3679C57.7099 31.2633 57.3865 30.9761 56.9731 30.7342C56.564 30.4948 56.1442 30.2709 55.7298 30.0408C53.2615 28.6706 50.7984 27.2907 48.3322 25.9166C42.5648 22.7029 36.7844 19.5119 31.0197 16.2933C29.6295 15.5171 28.2454 14.7284 26.851 13.96C25.5552 13.246 24.2475 12.5587 22.9816 11.7913L38.8991 2.88037Z" fill="#FEDD01"/>
<path d="M75.4174 24.2241C75.4343 24.2493 75.4574 24.2714 75.4683 24.2998C75.4885 24.353 75.4633 24.5174 75.462 24.5812C75.4557 24.8829 75.4503 25.1846 75.4451 25.4862C75.4236 26.7265 75.4276 27.9669 75.4262 29.2072C75.414 39.6739 75.4014 50.1395 75.4307 60.6063L40.0388 80.4683L40.0257 72.2979L40.0238 43.9055L50.2339 38.2012L50.2369 46.5624L65.5108 37.8686L65.5082 29.6971L75.4174 24.2241Z" fill="#3FA935"/>
<path d="M2.48204 24.3045L12.7386 29.8408L12.7312 37.6964L27.8124 46.0463L27.8168 38.1726L37.9764 43.8089L37.9765 80.5013L2.47403 60.7011L2.48204 24.3045Z" fill="#F28E00"/>
</svg>
