<svg width="152" height="152" viewBox="0 0 152 152" fill="none" xmlns="http://www.w3.org/2000/svg">
<g filter="url(#filter0_ii_459_489)">
<circle cx="75.5337" cy="75.5337" r="75.5337" fill="url(#paint0_radial_459_489)" fill-opacity="0.23"/>
</g>
<circle cx="75.5337" cy="75.5337" r="75.0337" stroke="white" stroke-opacity="0.12"/>
<path d="M122.106 29.9967C122.106 32.8831 119.395 35.223 116.461 35.223C113.527 35.223 111.148 32.8831 111.148 29.9967C111.148 27.1103 113.527 24.2647 116.461 24.2647C119.395 24.2647 122.106 27.1103 122.106 29.9967Z" fill="#B8F2FF" fill-opacity="0.71"/>
<path d="M133.847 45.0493C133.847 49.9973 130.616 54.0085 125.639 54.0085C120.662 54.0085 116.627 49.9973 116.627 45.0493C116.627 40.1012 120.662 35.223 125.639 35.223C130.616 35.223 133.847 40.1012 133.847 45.0493Z" fill="#B8F2FF" fill-opacity="0.71"/>
<path d="M115.844 40.4733C115.844 42.3288 114.312 43.833 112.654 43.833C110.995 43.833 110.365 42.3288 110.365 40.4733C110.365 38.6178 110.995 36.7885 112.654 36.7885C114.312 36.7885 115.844 38.6178 115.844 40.4733Z" fill="#B8F2FF" fill-opacity="0.71"/>
<defs>
<filter id="filter0_ii_459_489" x="-3.1" y="-5.9" width="157.167" height="160.067" filterUnits="userSpaceOnUse" color-interpolation-filters="sRGB">
<feFlood flood-opacity="0" result="BackgroundImageFix"/>
<feBlend mode="normal" in="SourceGraphic" in2="BackgroundImageFix" result="shape"/>
<feColorMatrix in="SourceAlpha" type="matrix" values="0 0 0 0 0 0 0 0 0 0 0 0 0 0 0 0 0 0 127 0" result="hardAlpha"/>
<feMorphology radius="2" operator="erode" in="SourceAlpha" result="effect1_innerShadow_459_489"/>
<feOffset dx="3" dy="-7"/>
<feGaussianBlur stdDeviation="1.95"/>
<feComposite in2="hardAlpha" operator="arithmetic" k2="-1" k3="1"/>
<feColorMatrix type="matrix" values="0 0 0 0 0 0 0 0 0 0.308333 0 0 0 0 0.4625 0 0 0 0.1 0"/>
<feBlend mode="plus-darker" in2="shape" result="effect1_innerShadow_459_489"/>
<feColorMatrix in="SourceAlpha" type="matrix" values="0 0 0 0 0 0 0 0 0 0 0 0 0 0 0 0 0 0 127 0" result="hardAlpha"/>
<feOffset dx="-7" dy="4"/>
<feGaussianBlur stdDeviation="1.55"/>
<feComposite in2="hardAlpha" operator="arithmetic" k2="-1" k3="1"/>
<feColorMatrix type="matrix" values="0 0 0 0 1 0 0 0 0 1 0 0 0 0 1 0 0 0 0.18 0"/>
<feBlend mode="normal" in2="effect1_innerShadow_459_489" result="effect2_innerShadow_459_489"/>
</filter>
<radialGradient id="paint0_radial_459_489" cx="0" cy="0" r="1" gradientUnits="userSpaceOnUse" gradientTransform="translate(75.5337 75.5337) rotate(90) scale(75.5337)">
<stop stop-color="#D9D9D9" stop-opacity="0.55"/>
<stop offset="1" stop-color="white"/>
</radialGradient>
</defs>
</svg>
