<svg width="215" height="313" viewBox="0 0 215 313" fill="none" xmlns="http://www.w3.org/2000/svg">
<path d="M187.555 302.558C188.865 301.367 190.077 300.294 191.211 298.914L195.375 313H189.673L187.555 302.558Z" fill="#56A5AE"/>
<path d="M5.75949 299.662L9.39471 302.18C9.55754 303.111 9.23097 304.098 9.07795 305.02C8.65939 307.545 7.86917 310.458 7.90965 313H1.5303L5.75949 299.662Z" fill="#47859C"/>
<path d="M5.63224 274.375C8.28591 273.202 11.9582 273.765 14.5932 274.78L14.7165 274.831L15.3724 275.009L14.5408 278.302L14.6781 278.531L14.5018 280.067C14.6622 280.3 14.71 280.264 14.6561 280.568C14.5972 280.901 14.6349 280.775 14.4543 281.077C13.879 281.719 13.631 283.263 13.3715 284.118C12.5979 286.67 11.7795 289.209 11.0184 291.764C10.6535 292.99 10.28 294.209 9.88933 295.427C9.72528 295.938 9.63421 296.492 9.35547 296.953L7.54936 295.775L2.8277 291.86C1.95316 291.022 0.908437 290.149 0.872253 288.854C1.24758 288.281 1.71981 287.904 2.39994 287.766L2.56154 287.736C3.61393 287.522 4.804 287.723 5.87203 287.815L4.96806 281.862C4.72765 279.726 4.23181 276.159 5.63224 274.375Z" fill="#E6955F"/>
<path d="M5.63224 274.375C8.28591 273.202 11.9582 273.765 14.5932 274.78L14.7165 274.831L15.3724 275.009L14.5408 278.302L14.6781 278.531L14.5018 280.067C14.3384 280.308 14.3583 280.596 14.3322 280.882C11.6412 279.772 7.87164 277.542 6.1707 275.141L5.63224 274.375Z" fill="#FDCA53"/>
<path d="M14.7165 274.831L15.3724 275.009L14.5408 278.302C13.577 277.645 11.8414 276.853 11.5139 275.697L11.6841 275.434C12.6614 275.015 13.6766 274.985 14.7165 274.831Z" fill="#9F2125"/>
<path d="M188.16 274.294C189.671 274.249 190.815 274.337 192.065 275.312L193.076 276.196C191.854 280.389 192.439 283.665 193.644 287.775C194.687 287.743 196.763 287.421 197.545 288.106C197.585 289.406 196.28 290.763 195.437 291.674L195.284 291.838C194.374 292.986 193.353 294.058 192.19 294.949C191.622 295.383 190.907 295.776 190.417 296.284C186.593 298.469 182.897 300.128 178.703 301.469C177.701 301.789 176.344 302.303 175.311 302.307C174.14 301.615 172.611 301.93 171.367 301.09C168.872 299.406 167.267 290.043 166.584 286.814L166.12 284.874L172.896 283.022C175.45 282.519 177.876 281.377 180.192 280.221C181.329 279.653 182.512 279.115 183.497 278.298C182.79 277.561 182.467 275.64 182.184 274.638L188.16 274.294Z" fill="#CD683A"/>
<path d="M188.16 274.294C189.671 274.249 190.815 274.337 192.065 275.312L183.621 280.99C178.125 283.682 172.529 285.41 166.584 286.814L166.12 284.874L172.896 283.022C175.45 282.519 177.876 281.377 180.192 280.221C181.329 279.653 182.512 279.115 183.497 278.298C182.79 277.561 182.467 275.64 182.184 274.638L188.16 274.294Z" fill="#FDCA53"/>
<path d="M182.184 274.638L188.16 274.294C186.848 275.838 185.109 277.086 183.497 278.298C182.79 277.561 182.467 275.64 182.184 274.638Z" fill="#253051"/>
<path d="M192.065 275.312L193.076 276.196C191.854 280.389 192.439 283.665 193.644 287.775C194.687 287.743 196.763 287.421 197.545 288.106C197.585 289.406 196.28 290.763 195.437 291.674L195.284 291.838C194.117 292.242 193.11 293.197 192.03 293.805C190.735 294.535 189.345 295.041 188.015 295.698L183.621 280.99L192.065 275.312Z" fill="#E6955F"/>
<path d="M151.697 287.925C155.05 287.936 158.369 287.966 161.708 287.607C163.329 287.433 164.966 287.053 166.584 286.814C167.267 290.043 168.872 299.406 171.367 301.09C172.611 301.93 174.14 301.615 175.311 302.307C170.77 303.936 165.172 304.243 160.374 304.169C159.761 303.646 157.985 304.021 157.113 303.667C156.631 303.471 156.445 302.992 156.277 302.533C155.712 300.995 155.403 299.31 154.944 297.731C153.984 294.429 152.911 291.141 151.697 287.925Z" fill="#AC4821"/>
<path d="M190.417 296.284L191.211 298.914C190.077 300.294 188.865 301.367 187.555 302.558L189.673 313H178.401H162.813L160.374 304.169C165.172 304.243 170.77 303.936 175.311 302.307C176.344 302.303 177.701 301.789 178.703 301.469C182.897 300.128 186.593 298.469 190.417 296.284Z" fill="#253051"/>
<path d="M179.38 307.301C180.798 306.623 182.275 305.96 183.625 305.152C184.975 304.343 186.225 303.397 187.555 302.558L189.673 313H178.401C178.728 312.91 179.054 312.851 179.313 312.616C179.542 312.409 179.386 307.96 179.38 307.301Z" fill="#434E6C"/>
<path d="M43.9194 214.345L51.9696 220.016C54.2805 221.366 56.4692 223.368 58.5943 225.013L56.3671 244.371L40.9769 251.952C39.1162 252.959 37.1727 253.803 35.2743 254.736C33.6638 255.528 31.9815 256.534 30.2754 257.063L22.8256 252.968L7.70052 244.642L7.63183 239.251C8.33036 238.141 9.40146 237.205 10.2965 236.253C11.3247 235.16 12.2799 233.993 13.2421 232.841C14.6505 230.59 15.9534 228.369 17.6814 226.348C21.0707 222.381 25.0291 220.023 29.928 218.426C32.7126 217.44 35.4386 217.181 38.3716 217.362L43.9194 214.345Z" fill="#D3D1D2"/>
<path d="M41.3543 218.324C42.8897 218.82 44.085 219.426 45.2361 220.612L42.9081 236.787C41.9655 237.527 41.0765 238.36 40.0956 239.044C38.2517 240.33 36.2405 241.302 34.2789 242.377C32.842 243.165 31.4483 244.001 29.9461 244.663L29.7759 244.555C27.3709 243.055 13.8864 236.667 13.6141 235.143L13.6043 233.861C18.5786 237.084 23.9764 239.332 29.2344 242.001C32.3091 240.767 35.2436 239.01 38.111 237.349C38.9616 236.856 39.7472 236.274 40.6212 235.82C41.1572 232.644 41.6509 229.51 42.0903 226.319C42.3344 224.546 42.8658 222.367 42.5156 220.59L42.48 220.429C42.3071 219.57 41.6137 219.266 41.3881 218.519L41.3543 218.324Z" fill="#434E6C"/>
<path d="M7.70052 244.642L7.63183 239.251L29.9859 250.718L30.2754 257.063L22.8256 252.968L7.70052 244.642Z" fill="#889AAC"/>
<path d="M29.928 218.426C32.7126 217.44 35.4386 217.181 38.3716 217.362L41.3543 218.324L41.3881 218.519C41.6137 219.266 42.3071 219.57 42.48 220.429L42.5156 220.59C42.8658 222.367 42.3344 224.546 42.0903 226.319C41.6509 229.51 41.1572 232.644 40.6212 235.82C39.7472 236.274 38.9616 236.856 38.111 237.349C35.2436 239.01 32.3091 240.767 29.2344 242.001C23.9764 239.332 18.5786 237.084 13.6043 233.861C13.5436 233.475 13.4016 233.192 13.2421 232.841C14.6505 230.59 15.9534 228.369 17.6814 226.348C17.6826 227.659 16.9464 228.315 16.3607 229.415C15.9994 230.093 15.836 230.903 15.7425 231.66C15.84 231.917 15.8461 232.084 16.0767 232.247C16.8599 232.801 17.9635 233.037 18.865 233.343C21.6968 234.307 24.5087 235.417 27.5576 234.894L28.856 234.667C31.6259 234.026 34.308 232.401 36.5937 230.742C37.6375 229.985 38.7053 229.177 39.3566 228.028C40.2336 226.481 39.9907 223.681 39.8585 221.979C39.8095 221.348 39.8122 220.483 39.5967 219.891C38.9487 218.114 35.0397 218.135 33.535 218.295C32.5228 218.403 30.9834 218.905 30.0467 218.484L29.928 218.426Z" fill="#56A5AE"/>
<path d="M29.928 218.426L30.0467 218.484C30.9834 218.905 32.5228 218.403 33.535 218.295C35.0397 218.135 38.9487 218.114 39.5967 219.891C39.8122 220.483 39.8095 221.348 39.8585 221.979C39.9907 223.681 40.2336 226.481 39.3566 228.028C38.7053 229.177 37.6375 229.985 36.5937 230.742C34.308 232.401 31.6259 234.026 28.856 234.667L27.5576 234.894C24.5087 235.417 21.6968 234.307 18.865 233.343C17.9635 233.037 16.8599 232.801 16.0767 232.247C15.8461 232.084 15.84 231.917 15.7425 231.66C15.836 230.903 15.9994 230.093 16.3607 229.415C16.9464 228.315 17.6826 227.659 17.6814 226.348C21.0707 222.381 25.0291 220.023 29.928 218.426Z" fill="#65BEC2"/>
<path d="M28.147 220.767C28.4291 220.771 28.6603 220.854 28.9326 220.93C29.1635 221.155 29.4055 221.355 29.5146 221.67C29.5959 221.905 29.4567 222.224 29.353 222.441C27.9876 225.306 23.1049 227.891 20.2752 228.95C19.8242 229.033 19.5684 229.032 19.1201 228.935L18.9659 228.565C19.075 227.884 19.2704 227.127 19.6433 226.541C21.4951 223.635 24.8702 221.558 28.147 220.767Z" fill="#FDFBFB"/>
<path d="M51.9696 220.016C54.2805 221.366 56.4692 223.368 58.5943 225.013L56.3671 244.371L40.9769 251.952C39.1162 252.959 37.1727 253.803 35.2743 254.736C33.6638 255.528 31.9815 256.534 30.2754 257.063L29.9859 250.718L50.1595 240.285L51.9696 220.016Z" fill="#706074"/>
<path d="M154.276 213.93L162.789 216.59L165.34 217.308C168.977 218.45 173.729 219.644 176.174 222.857C177.54 224.652 178.565 226.612 180.001 228.374C182.408 230.952 184.808 233.533 187.169 236.153C188.164 237.256 189.515 238.479 190.214 239.789C190.356 241.209 190.576 243.985 189.97 245.249C188.977 246.251 187.347 246.898 186.107 247.568C182.515 249.508 178.724 251.256 175.225 253.349C173.863 254.193 172.491 255.104 171.065 255.828C170.002 256.367 168.876 256.785 167.801 257.31C165.837 256.735 163.89 255.646 162.015 254.803C158.603 253.269 154.994 251.927 151.714 250.139L146.755 247.753L145.831 247.281C144.828 246.757 143.268 246.263 142.421 245.577C142.146 245.355 142.145 244.658 142.092 244.292L140.624 233.649L139.405 225.22L144.808 221.018L154.276 213.93Z" fill="#9FBCC2"/>
<path d="M139.405 225.22L144.808 221.018C145.343 225.478 145.701 229.976 146.132 234.449C146.319 236.39 146.324 238.49 146.756 240.393C145.733 241.386 144.57 242.294 143.493 243.227C143.047 243.613 142.669 244.114 142.092 244.292L140.624 233.649L139.405 225.22Z" fill="#596B83"/>
<path d="M155.063 219.226C155.684 218.834 156.27 218.542 156.957 218.288C156.876 218.829 156.796 219.347 156.635 219.872C156.43 220.54 156.409 221.221 156.315 221.909C155.943 224.651 155.948 227.521 156.296 230.265C156.467 231.617 156.68 232.94 157.316 234.164C158.933 237.279 163.02 238.968 166.206 239.872C167.131 240.134 168.253 240.338 169.215 240.188C170.482 239.991 171.634 239.422 172.794 238.913C175.065 237.918 177.403 236.85 179.566 235.628C180.438 235.135 181.092 234.417 181.684 233.618L182.854 236.446C179.862 237.98 176.885 239.541 173.889 241.069C172.56 241.746 171.248 242.641 169.799 243.024C168.965 243.245 168.085 243.195 167.247 243.019C165.872 242.729 164.639 242.183 163.354 241.637C161.254 240.744 159.298 239.77 157.37 238.537C156.43 237.935 155.329 237.319 154.757 236.319C153.994 234.985 154.042 233.377 153.977 231.893C153.8 227.874 153.951 223.101 155.063 219.226Z" fill="#434E6C"/>
<path d="M162.789 216.59L165.34 217.308L165.214 217.37C164.388 217.738 163.506 217.616 162.628 217.654C161.128 217.718 158.812 218.295 158.201 219.897C157.391 222.019 158.569 225.898 159.536 227.792C161.162 230.978 164.06 233.059 167.41 234.077C172.265 235.552 176.489 234.717 181.191 233.196C180.859 232.45 180.524 231.706 180.373 230.897C180.929 231.705 181.323 232.705 181.684 233.618C181.092 234.417 180.438 235.135 179.566 235.628C177.403 236.85 175.065 237.918 172.794 238.913C171.634 239.422 170.482 239.991 169.215 240.188C168.253 240.338 167.131 240.134 166.206 239.872C163.02 238.968 158.933 237.279 157.316 234.164C156.68 232.94 156.467 231.617 156.296 230.265C155.948 227.521 155.943 224.651 156.315 221.909C156.409 221.221 156.43 220.54 156.635 219.872C156.796 219.347 156.876 218.829 156.957 218.288C158.048 217.906 159.175 217.564 160.297 217.286C161.131 217.081 162.014 216.969 162.789 216.59Z" fill="#56A5AE"/>
<path d="M165.34 217.308C168.977 218.45 173.729 219.644 176.174 222.857C177.54 224.652 178.565 226.612 180.001 228.374C179.731 229.06 180.264 230.162 180.373 230.897C180.524 231.706 180.859 232.45 181.191 233.196C176.489 234.717 172.265 235.552 167.41 234.077C164.06 233.059 161.162 230.978 159.536 227.792C158.569 225.898 157.391 222.019 158.201 219.897C158.812 218.295 161.128 217.718 162.628 217.654C163.506 217.616 164.388 217.738 165.214 217.37L165.34 217.308Z" fill="#65BEC2"/>
<path d="M166.274 220.165C167.69 220.07 169.188 220.19 170.541 220.64C172.206 221.193 174.179 222.424 174.964 224.061L175.042 224.231C175.332 224.834 175.215 225.237 175.079 225.882C172.015 225.559 168.719 223.957 166.7 221.54C166.304 221.066 166.231 220.776 166.274 220.165Z" fill="#A9E7E8"/>
<path d="M190.214 239.789C190.356 241.209 190.576 243.985 189.97 245.249C188.977 246.251 187.347 246.898 186.107 247.568C182.515 249.508 178.724 251.256 175.225 253.349C173.863 254.193 172.491 255.104 171.065 255.828C170.002 256.367 168.876 256.785 167.801 257.31C165.837 256.735 163.89 255.646 162.015 254.803C158.603 253.269 154.994 251.927 151.714 250.139L146.755 247.753L145.831 247.281C144.828 246.757 143.268 246.263 142.421 245.577C142.146 245.355 142.145 244.658 142.092 244.292C142.669 244.114 143.047 243.613 143.493 243.227C144.57 242.294 145.733 241.386 146.756 240.393C147.949 240.829 149.031 241.475 150.184 241.999C153.77 243.628 157.353 245.267 160.941 246.891C162.753 247.71 164.654 248.769 166.605 249.193C167.441 249.374 168.213 249.322 169.04 249.113C171.261 248.55 173.351 247.544 175.45 246.646C178.674 245.266 181.855 243.858 185.016 242.341C186.769 241.5 188.567 240.847 190.214 239.789Z" fill="#706074"/>
<path d="M52.1974 180.642C53.7199 181.966 55.0783 183.824 56.4346 185.344L68.9124 194.177C71.6759 195.429 74.4249 196.712 77.1782 197.986C78.433 198.567 79.9015 199.47 81.244 199.772L81.2075 202.213L81.2513 211.767C80.9987 214.117 80.7589 216.389 79.8997 218.604C78.4937 219.445 77.0921 220.295 75.6739 221.114C74.6721 221.693 73.5991 222.228 72.7077 222.973L74.3268 224.958L81.0968 235.508C83.625 240.309 86.3477 245.261 87.8705 250.504C87.4746 250.223 87.2311 249.88 86.9453 249.495C84.7029 247.973 82.5843 245.764 80.5396 243.958C76.2592 240.176 71.977 236.394 67.7156 232.591L58.5943 225.013C56.4692 223.368 54.2805 221.366 51.9696 220.016L43.9194 214.345L20.8502 199.492L23.0126 196.778C28.6582 190.116 37.0111 186.067 45.0309 183.109C46.4176 182.597 47.8201 182.13 49.2298 181.687C50.1098 181.411 51.1024 181.183 51.9291 180.778L52.1974 180.642Z" fill="#F23F37"/>
<path d="M56.4346 185.344L68.9124 194.177C68.523 194.271 68.1602 194.372 67.7892 194.525C65.8206 195.34 63.5799 195.734 61.5411 196.39C59.5102 197.042 57.4778 197.716 55.4828 198.474C54.745 198.755 54.06 199.151 53.3148 199.419C51.9712 199.901 50.0822 200.82 48.9054 201.636L37.2211 194.901C41.0578 192.255 45.0625 189.835 49.3405 187.983C51.6553 186.98 54.0891 186.263 56.4346 185.344Z" fill="#9F2125"/>
<path d="M23.0126 196.778C24.1003 196.981 25.0171 197.401 26.0392 197.794C28.8719 198.883 31.624 200.265 34.2988 201.706C39.5154 204.518 44.468 207.699 49.3276 211.091C55.3745 215.312 61.2225 219.831 66.5728 224.936C69.9581 228.166 73.0812 231.66 76.189 235.158C79.5706 238.964 82.9063 242.862 85.8028 247.062C86.3416 247.843 86.6592 248.596 86.9453 249.495C84.7029 247.973 82.5843 245.764 80.5396 243.958C76.2592 240.176 71.977 236.394 67.7156 232.591L58.5943 225.013C56.4692 223.368 54.2805 221.366 51.9696 220.016L43.9194 214.345L20.8502 199.492L23.0126 196.778Z" fill="#9F2125"/>
<path d="M68.9124 194.177C71.6759 195.429 74.4249 196.712 77.1782 197.986C78.433 198.567 79.9015 199.47 81.244 199.772L81.2075 202.213L81.2513 211.767C80.9987 214.117 80.7589 216.389 79.8997 218.604C78.4937 219.445 77.0921 220.295 75.6739 221.114C74.6721 221.693 73.5991 222.228 72.7077 222.973C66.325 214.337 57.6863 207.595 48.9054 201.636C50.0822 200.82 51.9712 199.901 53.3148 199.419C54.06 199.151 54.745 198.755 55.4828 198.474C57.4778 197.716 59.5102 197.042 61.5411 196.39C63.5799 195.734 65.8206 195.34 67.7892 194.525C68.1602 194.372 68.523 194.271 68.9124 194.177Z" fill="#671826"/>
<path d="M146.755 247.753L151.714 250.139C154.994 251.927 158.603 253.269 162.015 254.803C163.89 255.646 165.837 256.735 167.801 257.31C168.876 256.785 170.002 256.367 171.065 255.828C172.491 255.104 173.863 254.193 175.225 253.349L178.563 263.572C179.422 266.091 180.242 268.612 181.067 271.142C181.439 272.284 181.952 273.467 182.184 274.638C182.467 275.64 182.79 277.561 183.497 278.298C182.512 279.115 181.329 279.653 180.192 280.221C177.876 281.377 175.45 282.519 172.896 283.022L166.12 284.874L166.584 286.814C164.966 287.053 163.329 287.433 161.708 287.607C158.369 287.966 155.05 287.936 151.697 287.925L150.844 285.931L151.973 282.079L150.665 276.081C150.128 278.191 149.816 280.365 149.429 282.507C148.706 286.505 148.003 290.51 147.33 294.517C147.094 295.918 146.405 297.957 146.577 299.337C146.192 299.795 145.734 299.893 145.185 300.092C143.654 300.648 142.056 300.993 140.474 301.365C138.524 301.823 136.546 302.373 134.569 302.69L135.983 290.87C135.29 290.627 134.369 290.746 133.632 290.743C131.999 290.739 130.364 290.733 128.731 290.707C126.92 290.678 125.164 290.492 123.339 290.543L123.364 289.748L123.425 289.575L123.473 276.603L128.822 271.158C129.716 269.825 130.872 268.657 131.917 267.443C133.714 265.357 135.491 263.254 137.316 261.192L144.953 250.962C145.59 249.928 146.288 248.879 146.755 247.753Z" fill="#253051"/>
<path d="M150.844 285.931C151.589 285.921 152.386 285.854 153.122 285.967C154.397 286.162 155.75 286.039 157.035 285.976C160.148 285.823 163.048 285.377 166.12 284.874L166.584 286.814C164.966 287.053 163.329 287.433 161.708 287.607C158.369 287.966 155.05 287.936 151.697 287.925L150.844 285.931Z" fill="#CD683A"/>
<path d="M178.563 263.572C179.422 266.091 180.242 268.612 181.067 271.142C181.439 272.284 181.952 273.467 182.184 274.638C182.467 275.64 182.79 277.561 183.497 278.298C182.512 279.115 181.329 279.653 180.192 280.221C177.876 281.377 175.45 282.519 172.896 283.022C172.028 282.432 170.679 282.56 169.651 282.283C168.25 281.906 167.055 281.385 165.796 280.664L162.767 267.765C166.799 268.527 171.199 268.441 174.727 266.113C175.958 265.3 177.058 264.254 178.407 263.641L178.563 263.572Z" fill="#596B83"/>
<path d="M144.953 250.962L151.712 254.01C152.286 255.483 151.532 258.381 151.319 259.942C150.397 266.703 149.388 273.366 147.47 279.928C146.864 282 146.294 284.057 145.438 286.044C144.761 287.617 143.801 289.389 142.134 290.036C140.23 290.775 138.075 290.801 136.058 290.891L135.983 290.87C135.29 290.627 134.369 290.746 133.632 290.743C131.999 290.739 130.364 290.733 128.731 290.707C126.92 290.678 125.164 290.492 123.339 290.543L123.364 289.748L123.425 289.575L123.473 276.603L128.822 271.158C129.716 269.825 130.872 268.657 131.917 267.443C133.714 265.357 135.491 263.254 137.316 261.192L144.953 250.962Z" fill="#434E6C"/>
<path d="M137.316 261.192C137.716 262.595 137.602 264.201 137.518 265.636C137.41 267.491 137.329 269.384 137.328 271.241L130.335 271.235L128.822 271.158C129.716 269.825 130.872 268.657 131.917 267.443C133.714 265.357 135.491 263.254 137.316 261.192Z" fill="#65BEC2"/>
<path d="M128.822 271.158L130.335 271.235C129.906 271.334 129.537 271.41 129.092 271.389C129.606 271.618 130.694 271.48 131.289 271.479C133.296 271.474 135.304 271.467 137.311 271.475L136.396 285.75L136.058 290.891L135.983 290.87C135.29 290.627 134.369 290.746 133.632 290.743C131.999 290.739 130.364 290.733 128.731 290.707C126.92 290.678 125.164 290.492 123.339 290.543L123.364 289.748L123.425 289.575L123.473 276.603L128.822 271.158Z" fill="#56A5AE"/>
<path d="M136.396 285.75L136.058 290.891L135.983 290.87C135.29 290.627 134.369 290.746 133.632 290.743C131.999 290.739 130.364 290.733 128.731 290.707C126.92 290.678 125.164 290.492 123.339 290.543L123.364 289.748L123.425 289.575L136.18 286.19L136.396 285.75Z" fill="#596B83"/>
<path d="M146.505 179.315C148.989 180.362 151.507 181.324 153.94 182.493C161.759 186.25 169.616 191.248 176.349 196.747L178.853 198.943C175.846 200.188 173.135 201.753 170.319 203.369C164.782 206.547 159.37 210.073 154.276 213.93L144.808 221.018L139.405 225.22L140.624 233.649L142.092 244.292C142.145 244.658 142.146 245.355 142.421 245.577C143.268 246.263 144.828 246.757 145.831 247.281L146.755 247.753C146.288 248.879 145.59 249.928 144.953 250.962L137.316 261.192C135.491 263.254 133.714 265.357 131.917 267.443C130.872 268.657 129.716 269.825 128.822 271.158L123.473 276.603L122.319 277.677C122.081 276.973 122.164 275.985 121.978 275.208L121.906 275.133C121.647 274.563 121.354 273.999 120.954 273.515C120.17 272.567 119.134 271.841 118.242 271.006C116.669 269.532 115.229 267.859 113.683 266.344L109.634 262.126L108.872 261.361C109.866 259.966 111.133 258.789 112.289 257.537C114.624 255.01 116.949 252.463 119.233 249.888C117.896 249.811 116.502 250.347 115.207 250.665C113.529 251.077 111.845 251.43 110.161 251.811C102.93 253.207 95.0502 253.691 87.8027 252.235L88.1661 251.594C88.3301 251.164 88.0612 250.883 87.8705 250.504C86.3477 245.261 83.625 240.309 81.0968 235.508L74.3268 224.958L72.7077 222.973C73.5991 222.228 74.6721 221.693 75.6739 221.114C77.0921 220.295 78.4937 219.445 79.8997 218.604C80.7589 216.389 80.9987 214.117 81.2513 211.767L81.2075 202.213L81.244 199.772C83.6017 200.51 85.9006 201.416 88.2676 202.131C90.8323 202.905 93.4814 203.583 96.1507 203.849C100.326 204.265 104.401 203.659 108.419 202.53C111.048 201.791 113.572 200.711 116.192 199.999L127.834 195.247C132.712 192.447 137.009 189.485 141.335 185.882C143.269 183.79 145.037 181.78 146.505 179.315Z" fill="#F23F37"/>
<path d="M141.335 185.882C142.313 186.375 143.37 186.676 144.384 187.082C146.327 187.861 148.309 188.653 150.197 189.559C153.536 191.161 156.572 193.147 159.819 194.884L147.595 202.344C145.354 200.792 143.331 199.947 140.812 198.967C137.969 197.86 135.184 196.93 132.216 196.204C130.763 195.848 129.285 195.613 127.834 195.247C132.712 192.447 137.009 189.485 141.335 185.882Z" fill="#9F2125"/>
<path d="M127.834 195.247C129.285 195.613 130.763 195.848 132.216 196.204C135.184 196.93 137.969 197.86 140.812 198.967C143.331 199.947 145.354 200.792 147.595 202.344C139.205 208.263 131.075 214.773 124.583 222.824L117.036 218.472L115.821 210.02C115.948 209.25 115.864 208.377 115.864 207.593C115.863 206.135 115.865 204.681 115.927 203.225C116.275 202.274 116.19 200.997 116.192 199.999L127.834 195.247Z" fill="#671826"/>
<path d="M176.349 196.747L178.853 198.943C175.846 200.188 173.135 201.753 170.319 203.369C164.782 206.547 159.37 210.073 154.276 213.93L144.808 221.018L139.405 225.22L140.624 233.649L142.092 244.292C142.145 244.658 142.146 245.355 142.421 245.577C143.268 246.263 144.828 246.757 145.831 247.281L146.755 247.753C146.288 248.879 145.59 249.928 144.953 250.962L137.316 261.192C135.491 263.254 133.714 265.357 131.917 267.443C130.872 268.657 129.716 269.825 128.822 271.158L123.473 276.603L122.319 277.677C122.081 276.973 122.164 275.985 121.978 275.208L121.906 275.133C121.647 274.563 121.354 273.999 120.954 273.515C120.17 272.567 119.134 271.841 118.242 271.006C116.669 269.532 115.229 267.859 113.683 266.344L109.634 262.126L108.872 261.361C109.866 259.966 111.133 258.789 112.289 257.537C114.624 255.01 116.949 252.463 119.233 249.888C117.896 249.811 116.502 250.347 115.207 250.665C113.529 251.077 111.845 251.43 110.161 251.811L110.045 251.57C109.886 251.032 110.181 250.458 110.382 249.976C110.902 249.9 111.086 249.568 111.451 249.199L111.526 248.678C111.807 247.399 113.198 245.764 113.909 244.643C116.392 240.734 119.434 237.355 122.558 233.973C132.056 223.693 143.09 214.087 155.178 207.048C159.324 204.634 163.578 202.35 167.971 200.427C170.027 199.527 172.095 198.654 174.147 197.744C174.853 197.431 175.559 197.256 176.221 196.831L176.349 196.747Z" fill="#9F2125"/>
<path d="M139.405 225.22L140.624 233.649C139.897 233.728 139.36 233.736 138.636 233.572L138.405 233.518C136.364 233.11 134.193 232.275 132.112 232.252C131.566 232.067 131.57 232.008 131.265 231.547L139.405 225.22Z" fill="#1E1426"/>
<path d="M130.205 232.645C130.489 232.211 130.884 231.891 131.265 231.547C131.57 232.008 131.566 232.067 132.112 232.252C132.367 233.787 130.211 236.558 129.416 237.831C128.231 239.727 127.059 241.613 125.779 243.449C125.023 244.534 123.845 245.868 123.393 247.083C121.168 249.891 118.742 252.507 116.374 255.188C114.307 257.528 112.163 260.279 109.634 262.126L108.872 261.361C109.866 259.966 111.133 258.789 112.289 257.537C114.624 255.01 116.949 252.463 119.233 249.888C117.896 249.811 116.502 250.347 115.207 250.665C113.529 251.077 111.845 251.43 110.161 251.811L110.045 251.57C109.886 251.032 110.181 250.458 110.382 249.976C110.902 249.9 111.086 249.568 111.451 249.199L130.205 232.645Z" fill="#596B83"/>
<path d="M130.205 232.645C130.489 232.211 130.884 231.891 131.265 231.547C131.57 232.008 131.566 232.067 132.112 232.252C132.367 233.787 130.211 236.558 129.416 237.831C128.231 239.727 127.059 241.613 125.779 243.449C125.023 244.534 123.845 245.868 123.393 247.083C121.168 249.891 118.742 252.507 116.374 255.188C114.307 257.528 112.163 260.279 109.634 262.126L108.872 261.361C109.866 259.966 111.133 258.789 112.289 257.537C114.624 255.01 116.949 252.463 119.233 249.888C120.565 248.665 121.587 246.939 122.614 245.458C125.44 241.382 128.34 237.275 130.205 232.645Z" fill="url(#paint0_linear_241_134)"/>
<path d="M132.112 232.252C134.193 232.275 136.364 233.11 138.405 233.518L138.636 233.572C139.36 233.736 139.897 233.728 140.624 233.649L142.092 244.292C142.145 244.658 142.146 245.355 142.421 245.577C143.268 246.263 144.828 246.757 145.831 247.281C144.938 248.143 144.312 249.412 143.25 250.073C142.79 249.509 142.262 248.674 141.653 248.281C140.893 247.79 139.774 247.582 138.906 247.366C133.715 246.074 128.642 246.235 123.393 247.083C123.845 245.868 125.023 244.534 125.779 243.449C127.059 241.613 128.231 239.727 129.416 237.831C130.211 236.558 132.367 233.787 132.112 232.252Z" fill="#3A1A27"/>
<path d="M123.393 247.083C128.642 246.235 133.715 246.074 138.906 247.366C139.774 247.582 140.893 247.79 141.653 248.281C142.262 248.674 142.79 249.509 143.25 250.073C144.312 249.412 144.938 248.143 145.831 247.281L146.755 247.753C146.288 248.879 145.59 249.928 144.953 250.962L137.316 261.192C135.491 263.254 133.714 265.357 131.917 267.443C130.872 268.657 129.716 269.825 128.822 271.158L123.473 276.603L122.319 277.677C122.081 276.973 122.164 275.985 121.978 275.208L121.906 275.133C121.647 274.563 121.354 273.999 120.954 273.515C120.17 272.567 119.134 271.841 118.242 271.006C116.669 269.532 115.229 267.859 113.683 266.344L109.634 262.126C112.163 260.279 114.307 257.528 116.374 255.188C118.742 252.507 121.168 249.891 123.393 247.083Z" fill="#6F3927"/>
<path d="M145.831 247.281L146.755 247.753C146.288 248.879 145.59 249.928 144.953 250.962L137.316 261.192C135.491 263.254 133.714 265.357 131.917 267.443C130.872 268.657 129.716 269.825 128.822 271.158L123.473 276.603L122.319 277.677C122.081 276.973 122.164 275.985 121.978 275.208C122.434 275.092 122.814 274.724 123.177 274.435C124.554 273.34 125.788 271.696 126.948 270.357C132.656 263.773 138.082 257.104 143.25 250.073C144.312 249.412 144.938 248.143 145.831 247.281Z" fill="#18251E"/>
<path d="M81.244 199.772C83.6017 200.51 85.9006 201.416 88.2676 202.131C90.8323 202.905 93.4814 203.583 96.1507 203.849C100.326 204.265 104.401 203.659 108.419 202.53C111.048 201.791 113.572 200.711 116.192 199.999C116.19 200.997 116.275 202.274 115.927 203.225C115.865 204.681 115.863 206.135 115.864 207.593C115.864 208.377 115.948 209.25 115.821 210.02L117.036 218.472L124.583 222.824L122.918 225.118L116.637 235.231L110.382 249.976C110.181 250.458 109.886 251.032 110.045 251.57L110.161 251.811C102.93 253.207 95.0502 253.691 87.8027 252.235L88.1661 251.594C88.3301 251.164 88.0612 250.883 87.8705 250.504C86.3477 245.261 83.625 240.309 81.0968 235.508L74.3268 224.958L72.7077 222.973C73.5991 222.228 74.6721 221.693 75.6739 221.114C77.0921 220.295 78.4937 219.445 79.8997 218.604C80.7589 216.389 80.9987 214.117 81.2513 211.767L81.2075 202.213L81.244 199.772Z" fill="#E6955F"/>
<path d="M74.3268 224.958L74.6117 224.993C75.5301 225.127 76.499 225.867 77.365 226.244C78.2843 226.645 79.2508 226.954 80.1993 227.275C87.4311 229.726 94.9012 231.202 102.547 230.626C107.258 230.271 112.028 228.97 116.501 227.492C117.777 227.07 122.068 224.94 122.918 225.118L116.637 235.231C113.211 236.125 109.739 237.181 106.359 238.251C103.887 239.034 101.296 240.245 98.6998 240.504C98.242 240.549 97.7045 240.282 97.2657 240.158C96.1293 239.837 94.9968 239.503 93.8638 239.169C89.6239 237.922 85.3707 236.626 81.0968 235.508L74.3268 224.958Z" fill="#F8C59C"/>
<path d="M81.0968 235.508C85.3707 236.626 89.6239 237.922 93.8638 239.169C94.9968 239.503 96.1293 239.837 97.2657 240.158C97.7045 240.282 98.242 240.549 98.6998 240.504C101.296 240.245 103.887 239.034 106.359 238.251C109.739 237.181 113.211 236.125 116.637 235.231L110.382 249.976C110.181 250.458 109.886 251.032 110.045 251.57L110.161 251.811C102.93 253.207 95.0502 253.691 87.8027 252.235L88.1661 251.594C88.3301 251.164 88.0612 250.883 87.8705 250.504C86.3477 245.261 83.625 240.309 81.0968 235.508Z" fill="#47859C"/>
<path d="M81.244 199.772C83.6017 200.51 85.9006 201.416 88.2676 202.131C90.8323 202.905 93.4814 203.583 96.1507 203.849C100.326 204.265 104.401 203.659 108.419 202.53C111.048 201.791 113.572 200.711 116.192 199.999C116.19 200.997 116.275 202.274 115.927 203.225C115.865 204.681 115.863 206.135 115.864 207.593C115.864 208.377 115.948 209.25 115.821 210.02C113.636 211.46 111.438 212.92 109.017 213.927C106.027 215.172 102.805 215.593 99.6035 215.81C96.431 216.024 93.2894 216.013 90.1599 215.345C88.0198 214.889 85.8399 213.93 83.9259 212.883C83.1332 212.449 82.4141 211.906 81.5982 211.514L81.2513 211.767L81.2075 202.213L81.244 199.772Z" fill="#CD683A"/>
<path d="M81.244 199.772C83.6017 200.51 85.9006 201.416 88.2676 202.131C90.8323 202.905 93.4814 203.583 96.1507 203.849C100.326 204.265 104.401 203.659 108.419 202.53C111.048 201.791 113.572 200.711 116.192 199.999C116.19 200.997 116.275 202.274 115.927 203.225L115.855 202.87C115.782 202.844 115.713 202.79 115.635 202.792C115.146 202.81 113.955 203.452 113.463 203.652C112.374 204.095 111.312 204.617 110.201 205.003C107.769 205.846 105.222 206.341 102.682 206.702C97.0988 207.494 90.9133 206.419 85.693 204.429C84.1359 203.835 82.5549 203.222 81.2075 202.213L81.244 199.772Z" fill="#964E44"/>
<path d="M58.5943 225.013L67.7156 232.591C71.977 236.394 76.2592 240.176 80.5396 243.958C82.5843 245.764 84.7029 247.973 86.9453 249.495C87.2311 249.88 87.4746 250.223 87.8705 250.504C88.0612 250.883 88.3301 251.164 88.1661 251.594L87.8027 252.235C95.0502 253.691 102.93 253.207 110.161 251.811C111.845 251.43 113.529 251.077 115.207 250.665C116.502 250.347 117.896 249.811 119.233 249.888C116.949 252.463 114.624 255.01 112.289 257.537C111.133 258.789 109.866 259.966 108.872 261.361L109.634 262.126L113.683 266.344C115.229 267.859 116.669 269.532 118.242 271.006C119.134 271.841 120.17 272.567 120.954 273.515C121.354 273.999 121.647 274.563 121.906 275.133L121.978 275.208C122.164 275.985 122.081 276.973 122.319 277.677L123.473 276.603L123.425 289.575L123.364 289.748L123.339 290.543C125.164 290.492 126.92 290.678 128.731 290.707C130.364 290.733 131.999 290.739 133.632 290.743C134.369 290.746 135.29 290.627 135.983 290.87L134.569 302.69C136.546 302.373 138.524 301.823 140.474 301.365C142.056 300.993 143.654 300.648 145.185 300.092C145.734 299.893 146.192 299.795 146.577 299.337C147.052 299.281 147.256 299.151 147.643 299.456C147.633 302.839 146.952 306.366 146.514 309.728C146.393 310.657 146.415 312.013 146.052 312.836L146.061 313H130.252H78.629H68.3611H50.5293H50.4389H36.6584H21.9704H7.90965C7.86917 310.458 8.65939 307.545 9.07795 305.02C9.23097 304.098 9.55754 303.111 9.39471 302.18L5.75949 299.662L7.54936 295.775L9.35547 296.953C9.63421 296.492 9.72528 295.938 9.88933 295.427C10.28 294.209 10.6535 292.99 11.0184 291.764C11.7795 289.209 12.5979 286.67 13.3715 284.118C13.631 283.263 13.879 281.719 14.4543 281.077C14.6349 280.775 14.5972 280.901 14.6561 280.568C14.71 280.264 14.6622 280.3 14.5018 280.067L14.6781 278.531L14.5408 278.302L15.3724 275.009L19.3498 263.626L22.8256 252.968L30.2754 257.063C31.9815 256.534 33.6638 255.528 35.2743 254.736C37.1727 253.803 39.1162 252.959 40.9769 251.952L56.3671 244.371L58.5943 225.013ZM14.6781 278.531L14.5018 280.067C14.6622 280.3 14.71 280.264 14.6561 280.568C14.5972 280.901 14.6349 280.775 14.4543 281.077C13.879 281.719 13.631 283.263 13.3715 284.118C12.5979 286.67 11.7795 289.209 11.0184 291.764C10.6535 292.99 10.28 294.209 9.88933 295.427C9.72528 295.938 9.63421 296.492 9.35547 296.953L7.54936 295.775L5.75949 299.662L9.39471 302.18C9.55754 303.111 9.23097 304.098 9.07795 305.02C8.65939 307.545 7.86917 310.458 7.90965 313H21.9704H36.6584H50.4389L49.5137 312.65C48.6751 311.437 49.0605 308.477 49.009 306.991C48.9234 304.517 48.7382 302.061 48.6993 299.581L51.7856 298.356L48.7882 290.416C48.5248 289.621 48.1771 288.041 47.4077 287.642C46.9953 287.666 46.5872 287.718 46.1876 287.586L46.0024 287.504L45.9325 287.77C45.808 288.086 45.3707 288.399 45.0763 288.531C41.6846 290.058 34.163 288.646 30.7826 287.321L30.7676 287.212L30.7679 285.051L27.8769 284.111L16.7219 279.551L14.6781 278.531Z" fill="url(#paint1_linear_241_134)"/>
<path d="M58.5943 225.013L67.7156 232.591L60.3642 234.638L60.2127 248.687C56.4398 249.991 52.6823 251.662 49.2037 253.64C47.4461 254.64 45.7743 255.792 43.9911 256.749C43.0028 257.216 42.1869 257.771 41.3773 258.502C41.3709 256.297 41.4104 254.124 40.9769 251.952L56.3671 244.371L58.5943 225.013Z" fill="#1E1426"/>
<path d="M62.3463 244.936C66.4593 247.025 70.1181 249.995 74.0315 252.438L73.8999 248.782L87.8027 252.235C95.0502 253.691 102.93 253.207 110.161 251.811C111.845 251.43 113.529 251.077 115.207 250.665C116.502 250.347 117.896 249.811 119.233 249.888C116.949 252.463 114.624 255.01 112.289 257.537C111.133 258.789 109.866 259.966 108.872 261.361C107.778 260.35 106.492 259.002 104.998 258.675L104.826 258.639C104.148 258.466 103.597 258.616 102.921 258.746C100.982 259.982 99.5296 261.404 97.8706 262.981C96.6882 264.104 95.4798 265.176 94.3222 266.332C93.4271 267.226 92.5517 268.238 91.5928 269.055L89.0584 271.54L73.8711 272.159L73.8389 272.246C73.0429 271.963 71.5612 272.136 70.6768 272.17C67.726 272.284 64.6906 272.413 61.7646 272.807L61.6165 270.512C61.6993 268.815 61.6352 267.103 61.6539 265.404C61.6917 261.973 61.7616 258.542 61.784 255.11C61.8054 251.786 61.4801 248.159 62.3463 244.936Z" fill="#65BEC2"/>
<path d="M73.8711 272.159L74.0198 252.396L91.5928 269.055L89.0584 271.54L73.8711 272.159Z" fill="#FDFBFB"/>
<path d="M30.2754 257.063C31.9815 256.534 33.6638 255.528 35.2743 254.736C37.1727 253.803 39.1162 252.959 40.9769 251.952C41.4104 254.124 41.3709 256.297 41.3773 258.502C42.1869 257.771 43.0028 257.216 43.9911 256.749C45.9144 267.09 47.7892 278.225 54.719 286.541C56.0887 288.185 57.4901 289.688 59.2588 290.915L62.0121 292.653L51.7856 298.356L48.7882 290.416C48.5248 289.621 48.1771 288.041 47.4077 287.642C46.9953 287.666 46.5872 287.718 46.1876 287.586L46.0024 287.504L45.9325 287.77C45.808 288.086 45.3707 288.399 45.0763 288.531C41.6846 290.058 34.163 288.646 30.7826 287.321L30.7676 287.212L30.7679 285.051L27.8769 284.111L16.7219 279.551L14.6781 278.531L14.5408 278.302L15.3724 275.009L19.3498 263.626L22.8256 252.968L30.2754 257.063Z" fill="#253051"/>
<path d="M45.276 284.094C45.7062 284.482 46.3216 284.914 46.3731 285.526C46.4265 286.16 46.1698 286.897 46.0024 287.504L45.9325 287.77C45.808 288.086 45.3707 288.399 45.0763 288.531C41.6846 290.058 34.163 288.646 30.7826 287.321L30.7676 287.212L30.7679 285.051C33.8499 285.733 37.0414 286.392 40.2047 286.462C41.435 286.49 42.702 286.307 43.9289 286.195C44.3404 285.447 44.7409 284.761 45.276 284.094Z" fill="#F23F37"/>
<path d="M19.3498 263.626L23.0669 266.024C24.5857 267.086 26.0021 267.976 27.9137 267.635C29.7924 267.299 31.6369 266.456 33.5022 265.986C32.459 271.067 31.4051 276.28 29.3061 281.042C28.8575 282.059 28.4558 283.164 27.8769 284.111L16.7219 279.551L14.6781 278.531L14.5408 278.302L15.3724 275.009L19.3498 263.626Z" fill="#434E6C"/>
<path d="M19.3498 263.626L23.0669 266.024L22.947 266.294C22.0237 268.417 21.4438 270.706 20.4654 272.818C19.8275 274.196 19.1407 275.72 18.3566 277.013C17.8332 277.876 17.1852 278.649 16.7219 279.551L14.6781 278.531L14.5408 278.302L15.3724 275.009L19.3498 263.626Z" fill="#47859C"/>
<path d="M14.6781 278.531L16.7219 279.551L27.8769 284.111L30.7679 285.051L30.7676 287.212L30.7826 287.321C34.163 288.646 41.6846 290.058 45.0763 288.531C45.3707 288.399 45.808 288.086 45.9325 287.77L46.0024 287.504L46.1876 287.586C46.5872 287.718 46.9953 287.666 47.4077 287.642C48.1771 288.041 48.5248 289.621 48.7882 290.416L51.7856 298.356L48.6993 299.581C48.7382 302.061 48.9234 304.517 49.009 306.991C49.0605 308.477 48.6751 311.437 49.5137 312.65L50.4389 313H36.6584H21.9704H7.90965C7.86917 310.458 8.65939 307.545 9.07795 305.02C9.23097 304.098 9.55754 303.111 9.39471 302.18L5.75949 299.662L7.54936 295.775L9.35547 296.953C9.63421 296.492 9.72528 295.938 9.88933 295.427C10.28 294.209 10.6535 292.99 11.0184 291.764C11.7795 289.209 12.5979 286.67 13.3715 284.118C13.631 283.263 13.879 281.719 14.4543 281.077C14.6349 280.775 14.5972 280.901 14.6561 280.568C14.71 280.264 14.6622 280.3 14.5018 280.067L14.6781 278.531ZM48.7882 290.416C48.1958 294.764 47.8012 299.536 45.2612 303.239C44.9377 303.71 44.5183 304.413 44.0589 304.752C42.7422 305.725 40.8054 304.961 39.3882 305.442L36.6584 313H50.4389L49.5137 312.65C48.6751 311.437 49.0605 308.477 49.009 306.991C48.9234 304.517 48.7382 302.061 48.6993 299.581L51.7856 298.356L48.7882 290.416Z" fill="#9F2125"/>
<path d="M7.54936 295.775L9.35547 296.953L10.1236 297.575C12.5985 298.763 15.0338 299.965 17.5989 300.948C20.1136 301.912 22.74 302.655 25.3317 303.371C28.2415 303.886 31.1082 304.474 34.041 304.871C35.1758 305.025 36.3165 305.117 37.4579 305.205C38.0813 305.253 38.7973 305.239 39.3882 305.442L36.6584 313H21.9704H7.90965C7.86917 310.458 8.65939 307.545 9.07795 305.02C9.23097 304.098 9.55754 303.111 9.39471 302.18L5.75949 299.662L7.54936 295.775Z" fill="#253051"/>
<path d="M7.54936 295.775L9.35547 296.953L10.1236 297.575C10.0206 298.545 9.91876 299.515 9.83137 300.486C9.78476 301.004 9.8234 301.59 9.55018 302.045L9.39471 302.18L5.75949 299.662L7.54936 295.775Z" fill="#596B83"/>
<path d="M9.39471 302.18L9.55018 302.045C10.6725 303.285 12.6236 304.103 14.128 304.781C17.2061 306.168 20.1001 307.292 23.3545 308.192C22.759 309.195 22.1589 310.195 21.5309 311.18C21.2271 311.653 20.7975 312.167 20.7358 312.74L21.9704 313H7.90965C7.86917 310.458 8.65939 307.545 9.07795 305.02C9.23097 304.098 9.55754 303.111 9.39471 302.18Z" fill="#434E6C"/>
<path d="M14.6781 278.531L16.7219 279.551L27.8769 284.111L30.7679 285.051L30.7676 287.212L30.7826 287.321L30.7127 287.546C30.2849 288.957 30.1405 290.468 29.763 291.9C29.0731 294.518 28.2767 297.156 27.1909 299.638C26.6383 300.901 25.9469 302.135 25.3317 303.371C22.74 302.655 20.1136 301.912 17.5989 300.948C15.0338 299.965 12.5985 298.763 10.1236 297.575L9.35547 296.953C9.63421 296.492 9.72528 295.938 9.88933 295.427C10.28 294.209 10.6535 292.99 11.0184 291.764C11.7795 289.209 12.5979 286.67 13.3715 284.118C13.631 283.263 13.879 281.719 14.4543 281.077C14.6349 280.775 14.5972 280.901 14.6561 280.568C14.71 280.264 14.6622 280.3 14.5018 280.067L14.6781 278.531Z" fill="#CD683A"/>
<path d="M14.6781 278.531L16.7219 279.551L27.8769 284.111L30.7679 285.051L30.7676 287.212C29.5833 287.264 28.0921 286.547 26.9741 286.169C22.7477 284.739 18.413 283.16 14.4543 281.077C14.6349 280.775 14.5972 280.901 14.6561 280.568C14.71 280.264 14.6622 280.3 14.5018 280.067L14.6781 278.531Z" fill="#FDCA53"/>
<path d="M102.921 258.746C103.597 258.616 104.148 258.466 104.826 258.639L104.998 258.675C106.492 259.002 107.778 260.35 108.872 261.361L109.634 262.126L113.683 266.344C115.229 267.859 116.669 269.532 118.242 271.006C119.134 271.841 120.17 272.567 120.954 273.515C121.354 273.999 121.647 274.563 121.906 275.133L121.978 275.208C122.164 275.985 122.081 276.973 122.319 277.677L123.473 276.603L123.425 289.575L123.364 289.748L123.339 290.543C125.164 290.492 126.92 290.678 128.731 290.707C130.364 290.733 131.999 290.739 133.632 290.743C134.369 290.746 135.29 290.627 135.983 290.87L134.569 302.69C136.546 302.373 138.524 301.823 140.474 301.365C142.056 300.993 143.654 300.648 145.185 300.092C145.734 299.893 146.192 299.795 146.577 299.337C147.052 299.281 147.256 299.151 147.643 299.456C147.633 302.839 146.952 306.366 146.514 309.728C146.393 310.657 146.415 312.013 146.052 312.836L146.061 313H130.252H78.629H68.3611H50.5293H50.4389L49.5137 312.65C48.6751 311.437 49.0605 308.477 49.009 306.991C48.9234 304.517 48.7382 302.061 48.6993 299.581L51.7856 298.356L62.0121 292.653L62.7857 292.05L62.5806 291.872L61.6165 270.512L61.7646 272.807C64.6906 272.413 67.726 272.284 70.6768 272.17C71.5612 272.136 73.0429 271.963 73.8389 272.246L73.8711 272.159L89.0584 271.54L91.5928 269.055C92.5517 268.238 93.4271 267.226 94.3222 266.332C95.4798 265.176 96.6882 264.104 97.8706 262.981C99.5296 261.404 100.982 259.982 102.921 258.746Z" fill="#6F3927"/>
<path d="M86.6399 277.553L87.597 278.48C86.7982 279.524 85.7007 279.885 84.8062 280.773C80.8199 282.892 76.913 285.41 73.049 287.76C69.8097 289.73 66.4921 291.579 63.2537 293.551C61.4558 294.646 59.6292 295.688 57.8314 296.782C56.5364 297.569 55.1513 298.577 53.7472 299.122L52.2529 299.794L50.1758 300.875C50.541 303.025 50.4695 305.052 50.6002 307.211C50.6836 308.589 50.878 309.907 50.8697 311.297C50.8663 311.861 50.9307 312.418 50.6293 312.916L50.5293 313H50.4389L49.5137 312.65C48.6751 311.437 49.0605 308.477 49.009 306.991C48.9234 304.517 48.7382 302.061 48.6993 299.581L51.7856 298.356L62.0121 292.653L62.7857 292.05L73.6975 285.706L86.6399 277.553Z" fill="#18251E"/>
<path d="M73.8711 272.159L89.0584 271.54C87.6469 272.995 86.5884 274.071 85.808 275.993L86.6399 277.553L73.6975 285.706L73.8389 272.246L73.8711 272.159Z" fill="#D3D1D2"/>
<path d="M61.6165 270.512L61.7646 272.807C64.6906 272.413 67.726 272.284 70.6768 272.17C71.5612 272.136 73.0429 271.963 73.8389 272.246L73.6975 285.706L62.7857 292.05L62.5806 291.872L61.6165 270.512Z" fill="#47859C"/>
<path d="M87.597 278.48L97.2693 288.185L100.119 291.451C100.51 291.846 100.966 292.231 101.179 292.755L82.1559 305.213C80.6936 305.623 78.916 307.081 77.599 307.914C76.0667 308.88 74.5454 309.867 73.0122 310.833C72.0371 311.449 71.1138 311.889 70.3303 312.774L68.3911 312.845L68.3611 313H50.5293L50.6293 312.916C50.9307 312.418 50.8663 311.861 50.8697 311.297C50.878 309.907 50.6836 308.589 50.6002 307.211C50.4695 305.052 50.541 303.025 50.1758 300.875L52.2529 299.794L53.7472 299.122C55.8311 301.638 59.2048 302.763 62.2798 303.453L63.5064 303.675C74.8892 304.8 86.6488 298.356 95.2719 291.368L84.8062 280.773C85.7007 279.885 86.7982 279.524 87.597 278.48Z" fill="#3A1A27"/>
<path d="M50.6293 312.916C51.9485 312.746 53.3047 312.814 54.6328 312.82C56.7971 312.83 58.9616 312.845 61.1259 312.839C62.6833 312.833 64.4876 312.585 66.0092 312.79L68.3911 312.845L68.3611 313H50.5293L50.6293 312.916Z" fill="#874A57"/>
<path d="M100.119 291.451C100.51 291.846 100.966 292.231 101.179 292.755L82.1559 305.213C80.6936 305.623 78.916 307.081 77.599 307.914C76.0667 308.88 74.5454 309.867 73.0122 310.833C72.0371 311.449 71.1138 311.889 70.3303 312.774L68.3911 312.845L66.0092 312.79C66.2904 312.13 66.8209 311.79 67.4044 311.421C68.9609 310.437 70.6118 309.626 72.2073 308.712C75.2805 306.954 78.3346 305.141 81.3663 303.309C87.7034 299.481 93.8344 295.35 100.119 291.451Z" fill="#18251E"/>
<path d="M102.921 258.746C103.597 258.616 104.148 258.466 104.826 258.639L104.998 258.675C106.492 259.002 107.778 260.35 108.872 261.361L109.634 262.126L113.683 266.344C115.229 267.859 116.669 269.532 118.242 271.006C119.134 271.841 120.17 272.567 120.954 273.515C121.354 273.999 121.647 274.563 121.906 275.133L121.978 275.208C122.164 275.985 122.081 276.973 122.319 277.677L123.473 276.603L123.425 289.575L123.364 289.748C122.92 289.976 122.418 290.265 121.924 290.354C120.045 290.693 117.698 290.407 115.782 290.388C113.829 290.368 111.834 290.486 109.888 290.378C108.568 291.594 106.08 294.803 104.131 294.795C102.968 294.79 102.193 293.936 101.468 293.128L101.179 292.755C100.966 292.231 100.51 291.846 100.119 291.451L97.2693 288.185L87.597 278.48L86.6399 277.553L85.808 275.993C86.5884 274.071 87.6469 272.995 89.0584 271.54L91.5928 269.055C92.5517 268.238 93.4271 267.226 94.3222 266.332C95.4798 265.176 96.6882 264.104 97.8706 262.981C99.5296 261.404 100.982 259.982 102.921 258.746Z" fill="#E6955F"/>
<path d="M102.921 258.746C103.597 258.616 104.148 258.466 104.826 258.639L104.998 258.675C106.492 259.002 107.778 260.35 108.872 261.361L109.634 262.126L113.683 266.344L113.654 266.364C113.366 266.455 113.463 266.483 113.292 266.314C111.834 264.878 110.272 263.668 108.736 262.334C107.682 261.418 106.712 260.388 105.507 259.669C104.705 259.189 103.819 258.958 102.921 258.746Z" fill="#FDCA53"/>
<path d="M121.906 275.133L121.978 275.208C122.164 275.985 122.081 276.973 122.319 277.677C120.41 280.598 117.465 282.938 114.997 285.357C113.302 287.019 111.677 288.821 109.888 290.378C108.568 291.594 106.08 294.803 104.131 294.795C102.968 294.79 102.193 293.936 101.468 293.128L101.179 292.755C100.966 292.231 100.51 291.846 100.119 291.451L97.2693 288.185C98.4622 288.286 99.9736 288.624 100.943 289.362C101.69 289.932 102.611 291.262 103.523 291.449C104.423 291.634 105.098 291.411 105.817 290.864C108.437 288.873 110.615 286.319 112.99 284.045C114.551 282.55 116.169 281.085 117.763 279.624C119.322 278.195 120.769 276.953 121.906 275.133Z" fill="#CD683A"/>
<path d="M123.473 276.603L123.425 289.575L123.364 289.748C122.92 289.976 122.418 290.265 121.924 290.354C120.045 290.693 117.698 290.407 115.782 290.388C113.829 290.368 111.834 290.486 109.888 290.378C111.677 288.821 113.302 287.019 114.997 285.357C117.465 282.938 120.41 280.598 122.319 277.677L123.473 276.603Z" fill="#D3D1D2"/>
<path d="M103.465 263.919C105.768 266.285 108.1 268.642 110.489 270.92C112.353 272.696 114.282 274.352 115.828 276.434C113.973 278.302 112.048 280.084 110.19 281.943C109.069 283.064 107.937 284.171 106.814 285.289C106.056 286.043 105.376 286.804 104.475 287.385L104.286 287.511L104.171 287.584L91.9273 275.005L101.082 266.153C100.848 266.81 100.049 267.431 99.5657 267.92C98.2705 269.232 96.9182 270.442 96.0599 272.108C95.2081 273.761 95.6917 275.42 96.2047 277.09C96.702 278.709 98.0752 280.47 99.1668 281.752C99.4704 282.109 99.7654 282.612 100.128 282.897C101.25 283.781 103.253 284.353 104.644 284.025C105.899 283.728 107.051 282.825 108.046 282.028C109.493 280.867 111.042 279.568 112.028 277.972C109.525 275.445 107.128 272.953 104.876 270.186C103.705 268.748 102.733 267.131 101.513 265.747L103.465 263.919Z" fill="#3A1A27"/>
<path d="M101.082 266.153L101.513 265.747C102.733 267.131 103.705 268.748 104.876 270.186C107.128 272.953 109.525 275.445 112.028 277.972C111.042 279.568 109.493 280.867 108.046 282.028C107.051 282.825 105.899 283.728 104.644 284.025C103.253 284.353 101.25 283.781 100.128 282.897C99.7654 282.612 99.4704 282.109 99.1668 281.752C98.0752 280.47 96.702 278.709 96.2047 277.09C95.6917 275.42 95.2081 273.761 96.0599 272.108C96.9182 270.442 98.2705 269.232 99.5657 267.92C100.049 267.431 100.848 266.81 101.082 266.153Z" fill="#6F3927"/>
<path d="M109.888 290.378C111.834 290.486 113.829 290.368 115.782 290.388C117.698 290.407 120.045 290.693 121.924 290.354C122.418 290.265 122.92 289.976 123.364 289.748L123.339 290.543C125.164 290.492 126.92 290.678 128.731 290.707C130.364 290.733 131.999 290.739 133.632 290.743C134.369 290.746 135.29 290.627 135.983 290.87L134.569 302.69C136.546 302.373 138.524 301.823 140.474 301.365C142.056 300.993 143.654 300.648 145.185 300.092C145.734 299.893 146.192 299.795 146.577 299.337C147.052 299.281 147.256 299.151 147.643 299.456C147.633 302.839 146.952 306.366 146.514 309.728C146.393 310.657 146.415 312.013 146.052 312.836L146.061 313H130.252H78.629H68.3611L68.3911 312.845L70.3303 312.774C71.1138 311.889 72.0371 311.449 73.0122 310.833C74.5454 309.867 76.0667 308.88 77.599 307.914C78.916 307.081 80.6936 305.623 82.1559 305.213L101.179 292.755L101.468 293.128C102.193 293.936 102.968 294.79 104.131 294.795C106.08 294.803 108.568 291.594 109.888 290.378Z" fill="url(#paint2_linear_241_134)"/>
<path d="M70.3303 312.774L78.6621 312.855L78.629 313H68.3611L68.3911 312.845L70.3303 312.774Z" fill="#964E44"/>
<path d="M130.215 312.851C133.874 312.697 137.55 312.762 141.212 312.762C142.706 312.762 144.606 312.548 146.052 312.836L146.061 313H130.252L130.215 312.851Z" fill="#964E44"/>
<path d="M78.6621 312.855L130.215 312.851L130.252 312.999H78.629L78.6621 312.855Z" fill="#874A57"/>
<path d="M109.888 290.378C111.834 290.486 113.829 290.368 115.782 290.388C117.698 290.407 120.045 290.693 121.924 290.354C122.418 290.265 122.92 289.976 123.364 289.748L123.339 290.543C125.164 290.492 126.92 290.678 128.731 290.707C130.364 290.733 131.999 290.739 133.632 290.743C134.369 290.746 135.29 290.627 135.983 290.87L134.569 302.69C132.937 303.166 131.183 303.3 129.505 303.555C126.967 303.942 124.435 304.367 121.882 304.646C118.446 304.783 115.028 305.294 111.59 305.469C106.258 305.741 100.936 305.939 95.5957 305.926C93.2202 305.92 90.8397 305.75 88.4639 305.703C86.8917 305.673 85.3134 305.654 83.7446 305.539C83.2411 305.501 82.5843 305.493 82.1559 305.213L101.179 292.755L101.468 293.128C102.193 293.936 102.968 294.79 104.131 294.795C106.08 294.803 108.568 291.594 109.888 290.378Z" fill="#928A8E"/>
<path d="M123.339 290.543C125.164 290.492 126.92 290.678 128.731 290.707C130.364 290.733 131.999 290.739 133.632 290.743C134.369 290.746 135.29 290.627 135.983 290.87L134.569 302.69C132.937 303.166 131.183 303.3 129.505 303.555C126.967 303.942 124.435 304.367 121.882 304.646C122.066 304.544 122.216 304.422 122.381 304.292L123.339 290.543Z" fill="#706074"/>
<path d="M41.0161 116.107C42.7719 112.508 43.7903 108.572 45.1686 104.814C48.2016 96.5423 52.9346 88.6102 58.9717 82.2349C59.6973 83.176 60.5972 84.0301 61.4978 84.7984C61.8263 85.0789 62.0412 85.4241 62.3472 85.7157L62.583 85.8779C64.1086 86.9472 65.4765 88.1886 67.0726 89.1851C69.944 90.9775 73.0156 92.4476 76.0289 93.9723C78.6289 95.2879 81.1961 96.6742 83.7879 98.0078C87.1876 99.7569 90.6701 101.833 94.2517 103.148C102.05 98.2168 110.181 93.697 118.55 89.8314C121.537 88.4517 124.61 87.2908 127.626 85.985C130.004 88.9999 132.378 92.0049 134.894 94.9053C138.385 98.9303 142.042 102.809 145.557 106.814C146.977 108.432 148.372 110.079 149.835 111.657C150.333 112.195 151.658 113.34 151.887 114.024C151.975 114.29 151.955 115.004 151.956 115.299L152.027 115.165C152.145 114.886 152.123 114.623 152.125 114.326C152.963 114.288 153.683 114.974 154.345 115.482C158.126 118.379 163.043 119.408 167.709 118.869C166.845 122.669 165.73 126.456 164.7 130.217C164.52 130.875 163.761 132.845 163.978 133.384C167.613 134.283 170.536 137.023 172.436 140.194C173.961 142.741 175.358 146.217 175.506 149.213C175.558 150.289 175.612 151.364 175.473 152.436C174.898 156.878 172.112 162.017 169.179 165.295C166.022 168.822 160.787 172.514 155.882 172.592C153.246 172.634 151.091 171.711 149.066 170.106C148.616 173.358 147.756 176.29 146.505 179.315C145.037 181.78 143.269 183.79 141.335 185.882C137.009 189.485 132.712 192.447 127.834 195.247L116.192 199.999C113.572 200.711 111.048 201.791 108.419 202.53C104.401 203.659 100.326 204.265 96.1507 203.849C93.4814 203.583 90.8323 202.905 88.2676 202.131C85.9006 201.416 83.6017 200.51 81.244 199.772C79.9015 199.47 78.433 198.567 77.1782 197.986C74.4249 196.712 71.6759 195.429 68.9124 194.177L56.4346 185.344C55.0783 183.824 53.7199 181.966 52.1974 180.642L47.9658 170.42L47.7447 170.511C43.3628 172.28 38.3922 172.275 34.0523 170.362C30.1883 168.66 27.1707 164.734 25.6491 160.86C24.666 158.49 23.8335 155.959 23.3941 153.426C22.5198 148.386 22.9473 143.215 25.9956 138.962C28.025 136.13 30.414 135.191 33.6947 134.653C32.3869 130.522 31.4845 126.225 30.6973 121.965C29.5579 115.795 28.7106 109.457 28.3644 103.189C28.22 100.575 28.2724 97.9286 28.2687 95.3115L41.0161 116.107Z" fill="#F8C59C"/>
<path d="M94.5623 185.873L96.2733 186.49C97.7986 187.043 99.8914 187.147 101.453 186.662C101.969 186.502 102.454 186.39 102.986 186.301L103.176 186.463L102.971 186.663C102.301 187.122 101.556 187.614 100.76 187.792L100.542 187.837C100.033 187.946 99.5609 188.005 99.0405 187.983C97.0032 187.9 95.9281 187.36 94.5623 185.873Z" fill="#E6955F"/>
<path d="M104.394 156.923C104.703 157.537 105.04 158.155 105.265 158.806L105.326 158.989C105.637 159.878 105.736 161.045 105.466 161.959C104.983 163.589 103.662 165.55 102.137 166.369L101.952 166.464C101.572 166.675 101.214 166.892 100.8 167.036C99.4173 167.519 97.9749 167.475 96.6646 166.791C95.1541 166.002 94.0082 164.499 93.5467 162.846C93.0533 161.078 92.87 158.65 93.8604 157.027C94.1692 156.521 94.527 156.107 95.0931 155.953C94.2597 156.982 93.7221 157.791 93.551 159.139C93.5068 159.593 93.4694 160.118 93.559 160.566C93.6936 161.238 94.8334 162.206 95.4145 162.516L95.5803 162.6C96.9967 163.338 98.5741 163.541 100.151 163.325C101.87 163.091 103.355 162.276 104.357 160.827C105.208 159.595 104.677 158.246 104.394 156.923Z" fill="#E6955F"/>
<path d="M95.0931 155.953C96.8649 155.249 98.3226 154.897 100.227 155.311C100.839 155.444 101.227 155.568 101.778 155.871C102.31 156.162 103.074 156.471 103.317 157.054L103.389 157.215L103.481 157.428L103.977 158.519C103.305 159.804 102.47 160.765 100.993 161.124L99.3974 161.369C98.0691 161.577 96.7704 161.444 95.627 160.721C94.8548 160.233 94.1986 159.792 93.551 159.139C93.7221 157.791 94.2597 156.982 95.0931 155.953Z" fill="#FEE3C9"/>
<path d="M116.079 133.598C116.185 132.49 117.076 131.817 117.823 131.077C117.876 131.025 118.316 130.624 118.324 130.586C118.381 130.29 118.022 129.745 117.858 129.539C117.223 129.919 116.629 131.005 116.249 131.642L116.153 131.437C118.291 128.027 120.615 125.969 124.608 125.011C127.103 124.412 129.743 124.46 132.162 125.344C133.821 125.95 135.105 126.76 136.505 127.821C137.693 128.721 138.833 130.017 139.627 131.282C140.435 132.568 141.897 135.032 141.626 136.597C141.593 136.793 141.487 136.972 141.386 137.139C140.803 135.61 140.494 134.24 139.652 132.785C137.941 129.83 134.853 127.929 131.657 127.062C130.909 126.859 130.201 126.816 129.434 126.76L128.12 126.726C124.475 126.889 120.942 128.622 118.279 131.088C117.499 131.811 116.797 132.798 116.079 133.598Z" fill="#E6955F"/>
<path d="M80.9533 172.689C81.3203 172.743 81.7573 172.887 82.0581 173.117C82.5034 173.458 82.5708 174.222 82.6784 174.754C84.3214 175.719 85.8957 176.651 87.719 177.257C96.8189 180.281 106.54 179.657 115.125 175.324L115.613 174.235C115.746 174.01 115.96 173.771 116.222 173.725C116.58 173.662 117.001 173.72 117.283 173.957C117.741 174.342 117.789 175.073 117.834 175.631C116.143 177.562 112.604 178.404 110.184 178.993C102.105 180.959 93.8809 180.981 85.9347 178.406C84.4484 177.924 82.8072 177.459 81.4868 176.596C80.8849 176.203 80.2713 175.592 80.1523 174.846C80.0116 173.964 80.4915 173.38 80.9533 172.689Z" fill="#CD683A"/>
<path d="M116.079 133.598C116.797 132.798 117.499 131.811 118.279 131.088C120.942 128.622 124.475 126.889 128.12 126.726L129.434 126.76C130.201 126.816 130.909 126.859 131.657 127.062C134.853 127.929 137.941 129.83 139.652 132.785C140.494 134.24 140.803 135.61 141.386 137.139C141.752 140.457 141.244 144.516 139.061 147.182C138.875 147.41 138.682 147.618 138.465 147.816L139.657 145.228C139.332 143.974 139.551 142.412 139.491 141.111C139.301 136.98 136.633 132.643 133.141 130.484C132.204 129.904 130.895 129.603 130.117 128.829L129.909 128.613C128.879 128.439 127.75 128.503 126.704 128.486C124.173 128.92 122.116 129.667 119.973 131.112C119.565 131.388 118.959 131.718 118.67 132.121L118.598 132.247C116.182 134.811 114.635 137.505 113.971 141.014C113.697 142.462 113.633 143.957 113.419 145.418L113.314 145.327C112.912 141.124 114.402 137.342 116.079 133.598Z" fill="#1E1426"/>
<path d="M129.909 128.613C134.025 129.683 136.816 131.278 139.031 135.079C140.389 137.409 141.048 140.666 140.364 143.321L139.657 145.228C139.332 143.974 139.551 142.412 139.491 141.111C139.301 136.98 136.633 132.643 133.141 130.484C132.204 129.904 130.895 129.603 130.117 128.829L129.909 128.613Z" fill="#A9E7E8"/>
<path d="M63.2451 159.066C65.1837 159.073 66.9662 159.536 68.508 160.788C69.6177 161.688 70.4475 162.82 70.5674 164.283C70.6673 165.502 70.12 166.713 69.3497 167.63C67.83 169.441 65.3575 170.15 63.112 170.379C61.6472 170.316 60.3155 170.011 59.0144 169.299C57.8387 168.656 56.6217 167.339 56.2295 166.048L56.1801 165.877C56.1044 165.623 56.0228 165.369 55.9961 165.103C55.8793 163.923 56.4184 162.723 57.1285 161.82C58.6311 159.911 60.9665 159.315 63.2451 159.066Z" fill="#E6955F"/>
<path d="M53.4446 122.635L53.5792 122.286C54.6681 118.796 57.1101 115.81 59.3336 112.985C60.126 111.978 61.0532 110.608 62.1495 109.95C61.7459 111.022 60.9904 111.975 60.4743 113.012C59.7261 114.514 59.1978 116.103 58.6176 117.673C60.9527 117.029 63.3031 117.462 65.6528 117.623C66.4903 117.68 67.3372 117.612 68.1731 117.691C71.418 118 74.7211 118.576 77.9185 119.218C80.0512 119.647 82.0863 120.289 84.2549 120.565C84.5042 119.373 84.7391 118.172 84.9013 116.965C85.0114 116.145 85.1607 115.287 85.218 114.463C85.2502 114.004 85.188 113.438 85.4195 113.035C85.9466 114.221 86.0678 115.463 86.2287 116.739C86.5639 119.393 86.6255 121.918 86.566 124.588C83.0295 123.867 79.5053 123.081 75.9799 122.309C71.1794 121.258 66.4354 120.222 61.4893 120.684C58.7301 120.942 56.0492 121.717 53.4446 122.635Z" fill="#1E1426"/>
<path d="M57.3052 143.875C57.0896 143.686 56.8075 143.476 56.7023 143.2L55.871 139.641C55.572 138.206 55.442 136.507 55.6999 135.055L55.7413 134.842C56.1252 132.775 57.0678 130.891 58.441 129.31C60.8883 126.492 65.337 124.725 68.9845 124.552C72.4725 124.387 76.1516 125.526 78.7513 127.926C80.9505 129.957 82.9554 133.29 83.0697 136.327C83.1495 136.772 83.2191 137.187 83.2172 137.642C81.4764 133.955 79.4379 131.336 75.7432 129.534L75.312 129.265C74.3636 128.783 71.518 128.011 70.5382 128.335C67.2783 128.331 64.0893 129.619 61.7781 131.936C59.3048 134.416 57.7489 138.06 57.7529 141.609C57.7559 144.694 59.1281 147.35 60.6169 149.948L60.4994 149.91C60.1686 149.749 59.8859 149.268 59.6743 148.961C58.5863 147.381 57.9277 145.679 57.3052 143.875Z" fill="#E6955F"/>
<path d="M57.3052 143.875C57.0875 142.414 56.8087 140.891 56.8421 139.409C56.9274 135.592 58.5259 132.3 61.2789 129.73C63.4036 127.747 66.98 126.463 69.8664 126.621C70.9694 126.682 72.0205 126.778 73.0969 127.05C76.7131 127.962 79.5268 130.216 81.4798 133.38C82.0667 134.331 82.4957 135.366 83.0697 136.327C83.1495 136.772 83.2191 137.187 83.2172 137.642C81.4764 133.955 79.4379 131.336 75.7432 129.534L75.312 129.265C74.3636 128.783 71.518 128.011 70.5382 128.335C67.2783 128.331 64.0893 129.619 61.7781 131.936C59.3048 134.416 57.7489 138.06 57.7529 141.609C57.7559 144.694 59.1281 147.35 60.6169 149.948L60.4994 149.91C60.1686 149.749 59.8859 149.268 59.6743 148.961C58.5863 147.381 57.9277 145.679 57.3052 143.875Z" fill="#1E1426"/>
<path d="M133.025 158.573C134.981 158.301 136.916 158.538 138.719 159.381C140.082 160.018 141.854 161.326 142.311 162.851C142.57 163.716 142.373 164.749 141.98 165.534C140.832 167.824 138.579 168.712 136.324 169.477C134.36 169.832 132.142 169.813 130.339 168.865C128.911 168.114 127.627 167.02 127.175 165.391C126.851 164.225 127.153 162.629 127.822 161.625C129.01 159.84 130.993 158.928 133.025 158.573Z" fill="#E6955F"/>
<path d="M131.321 109.616C132.513 109.611 134.247 109.401 135.331 109.908C135.798 110.126 136.237 110.605 136.601 110.971C139.769 114.166 142.403 118.019 144.057 122.221C140.976 122.021 137.935 121.484 134.84 121.387C126.828 121.134 119.277 122.771 111.541 124.596C111.276 121.402 111.341 118.161 111.997 115.017C112.144 114.312 112.283 113.38 112.74 112.817L113.031 112.51C113.235 113.646 113.02 114.855 113.192 116.018C113.413 117.519 113.631 119.098 114.113 120.538C118.043 120.05 121.857 118.933 125.831 118.646C128.962 118.42 132.355 118.454 135.49 118.6C136.703 118.656 137.854 118.908 139.095 118.921C138.53 117.466 137.731 116.107 136.984 114.742C136.07 113.075 135.166 111.358 133.91 109.925L131.121 109.85L131.321 109.616Z" fill="#1E1426"/>
<path d="M126.704 128.486C127.75 128.503 128.879 128.439 129.909 128.613L130.117 128.829C130.895 129.603 132.204 129.904 133.141 130.484C136.633 132.643 139.301 136.98 139.491 141.111C139.551 142.412 139.332 143.974 139.657 145.228L138.465 147.816C137.315 148.83 136.48 150.178 135.265 151.203C132.145 153.837 128.346 154.767 124.34 154.366C121.248 154.057 117.682 152.357 115.741 149.869C114.983 148.898 114.399 148.079 113.998 146.893L113.419 145.418C113.633 143.957 113.697 142.462 113.971 141.014C114.635 137.505 116.182 134.811 118.598 132.247L118.552 132.753C117.619 133.874 116.746 135.502 116.321 136.91L116.27 137.087C115.589 139.325 115.985 142.195 116.753 144.369C117.84 147.447 119.649 149.518 122.595 150.863C124.805 151.872 127.163 151.719 129.383 150.85C131.992 149.829 134.101 147.42 135.144 144.826C136.34 141.853 136.335 138.218 135.11 135.253C134.257 133.19 132.237 130.76 130.138 129.948C128.894 129.467 127.744 129.114 126.474 128.736L126.704 128.486Z" fill="#FDFBFB"/>
<path d="M62.1495 109.95C62.5512 109.682 62.8701 109.531 63.3549 109.484C65.1223 109.31 66.9196 109.636 68.6739 109.821C71.985 110.17 75.3313 110.549 78.5974 111.216C79.6856 111.438 84.8593 112.34 85.3594 112.928L85.4195 113.035C85.188 113.438 85.2502 114.004 85.218 114.463C85.1607 115.287 85.0114 116.145 84.9013 116.965C84.7391 118.172 84.5042 119.373 84.2549 120.565C82.0863 120.289 80.0512 119.647 77.9185 119.218C74.7211 118.576 71.418 118 68.1731 117.691C67.3372 117.612 66.4903 117.68 65.6528 117.623C63.3031 117.462 60.9527 117.029 58.6176 117.673C59.1978 116.103 59.7261 114.514 60.4743 113.012C60.9904 111.975 61.7459 111.022 62.1495 109.95Z" fill="#434E6C"/>
<path d="M113.031 112.51C119.053 110.73 125.066 109.896 131.321 109.616L131.121 109.85L133.91 109.925C135.166 111.358 136.07 113.075 136.984 114.742C137.731 116.107 138.53 117.466 139.095 118.921C137.854 118.908 136.703 118.656 135.49 118.6C132.355 118.454 128.962 118.42 125.831 118.646C121.857 118.933 118.043 120.05 114.113 120.538C113.631 119.098 113.413 117.519 113.192 116.018C113.02 114.855 113.235 113.646 113.031 112.51Z" fill="#434E6C"/>
<path d="M60.6169 149.948C59.1281 147.35 57.7559 144.694 57.7529 141.609C57.7489 138.06 59.3048 134.416 61.7781 131.936C64.0893 129.619 67.2783 128.331 70.5382 128.335L70.3521 128.524C69.771 129.08 68.8904 129.368 68.1934 129.747C67.0628 130.364 65.8347 131.469 65.0396 132.481C65.3845 132.654 65.6942 132.597 66.065 132.645C66.9104 132.756 67.6267 133.359 68.2341 133.92C68.8628 134.792 69.0897 135.58 69.3595 136.607C69.0397 137.744 68.7349 138.849 67.646 139.479C66.7638 139.989 65.8138 139.99 64.8301 139.895C63.6781 139.393 62.9357 138.285 62.3083 137.247L61.7413 139.235C61.1667 142.191 61.7558 145.659 63.464 148.164C65.0015 150.418 67.2707 151.744 69.9458 152.164C72.4293 152.554 74.9738 151.793 76.9755 150.308C79.2386 148.629 80.6485 145.427 81.0373 142.66C81.577 138.817 80.6463 135.49 78.4263 132.366C77.9767 131.733 77.5551 131.287 76.9682 130.784C76.6073 130.474 76.0142 130.104 75.7968 129.679L75.7432 129.534C79.4379 131.336 81.4764 133.955 83.2172 137.642C84.3889 141.296 84.2957 144.608 82.5576 148.079C80.9174 151.354 78.1181 153.824 74.6396 154.908C71.3009 155.948 67.5795 155.419 64.5339 153.745C63.3917 153.117 62.1397 152.231 61.3614 151.161C61.1305 150.844 61.0321 150.474 60.8254 150.166L60.6169 149.948Z" fill="#FDFBFB"/>
<path d="M70.5382 128.335C71.518 128.011 74.3636 128.783 75.312 129.265L75.7432 129.534L75.7968 129.679C76.0142 130.104 76.6073 130.474 76.9682 130.784C77.5551 131.287 77.9767 131.733 78.4263 132.366C80.6463 135.49 81.577 138.817 81.0373 142.66C80.6485 145.427 79.2386 148.629 76.9755 150.308C74.9738 151.793 72.4293 152.554 69.9458 152.164C67.2707 151.744 65.0015 150.418 63.464 148.164C61.7558 145.659 61.1667 142.191 61.7413 139.235L62.3083 137.247C62.9357 138.285 63.6781 139.393 64.8301 139.895C65.8138 139.99 66.7638 139.989 67.646 139.479C68.7349 138.849 69.0397 137.744 69.3595 136.607C69.0897 135.58 68.8628 134.792 68.2341 133.92C67.6267 133.359 66.9104 132.756 66.065 132.645C65.6942 132.597 65.3845 132.654 65.0396 132.481C65.8347 131.469 67.0628 130.364 68.1934 129.747C68.8904 129.368 69.771 129.08 70.3521 128.524L70.5382 128.335Z" fill="#23645E"/>
<path d="M68.2341 133.92C68.8805 133.304 70.5591 132.985 71.4551 133.03C73.019 133.108 74.4752 133.908 75.4813 135.112C76.9749 136.899 77.3116 138.766 77.0801 141.047C76.8744 143.078 75.9351 145.045 74.3154 146.309C73.4645 146.973 72.6841 147.247 71.6323 147.398L71.4499 147.425C70.3337 147.574 68.5711 147.073 67.6791 146.386C66.0104 145.102 65.0393 143.272 64.8295 141.162C64.7872 140.739 64.8047 140.318 64.8301 139.895C65.8138 139.99 66.7638 139.989 67.646 139.479C68.7349 138.849 69.0397 137.744 69.3595 136.607C69.0897 135.58 68.8628 134.792 68.2341 133.92Z" fill="#1E1426"/>
<path d="M118.598 132.247L118.67 132.121C118.959 131.718 119.565 131.388 119.973 131.112C122.116 129.667 124.173 128.92 126.704 128.486L126.474 128.736C127.744 129.114 128.894 129.467 130.138 129.948C132.237 130.76 134.257 133.19 135.11 135.253C136.335 138.218 136.34 141.853 135.144 144.826C134.101 147.42 131.992 149.829 129.383 150.85C127.163 151.719 124.805 151.872 122.595 150.863C119.649 149.518 117.84 147.447 116.753 144.369C115.985 142.195 115.589 139.325 116.27 137.087L116.321 136.91C116.746 135.502 117.619 133.874 118.552 132.753L118.598 132.247Z" fill="#23645E"/>
<path d="M116.733 136.253C117.316 135.601 117.965 135.009 118.821 134.765C119.603 134.542 120.248 134.802 120.938 135.161C121.777 136.253 122.33 137.109 122.155 138.566C122.016 139.724 121.123 140.826 120.241 141.52C119.841 141.584 119.453 141.641 119.05 141.561C118.24 141.401 117.341 140.949 116.905 140.211C116.133 138.9 116.352 137.658 116.733 136.253Z" fill="#FDFBFB"/>
<path d="M120.938 135.161C122.234 133.77 123.678 132.746 125.635 132.663C126.196 132.639 126.614 132.756 127.134 132.939L127.343 133.009C128.905 133.545 130.347 134.79 131.076 136.299C131.937 138.081 132.25 140.227 131.54 142.117C130.83 144.009 129.887 145.449 127.978 146.277C126.548 146.897 124.956 146.902 123.525 146.286C122.268 145.745 121.265 144.551 120.778 143.278L120.241 141.52C121.123 140.826 122.016 139.724 122.155 138.566C122.33 137.109 121.777 136.253 120.938 135.161Z" fill="#1E1426"/>
<path d="M62.3472 85.7157L62.583 85.8779C64.1086 86.9472 65.4765 88.1886 67.0726 89.1851C69.944 90.9775 73.0156 92.4476 76.0289 93.9723C78.6289 95.2879 81.1961 96.6742 83.7879 98.0078C87.1876 99.7569 90.6701 101.833 94.2517 103.148C102.05 98.2168 110.181 93.697 118.55 89.8314C121.537 88.4517 124.61 87.2908 127.626 85.985C130.004 88.9999 132.378 92.0049 134.894 94.9053C138.385 98.9303 142.042 102.809 145.557 106.814C146.977 108.432 148.372 110.079 149.835 111.657C150.333 112.195 151.658 113.34 151.887 114.024C151.975 114.29 151.955 115.004 151.956 115.299L152.027 115.165C152.145 114.886 152.123 114.623 152.125 114.326C152.963 114.288 153.683 114.974 154.345 115.482C158.126 118.379 163.043 119.408 167.709 118.869C166.845 122.669 165.73 126.456 164.7 130.217C164.52 130.875 163.761 132.845 163.978 133.384C167.613 134.283 170.536 137.023 172.436 140.194C173.961 142.741 175.358 146.217 175.506 149.213C175.558 150.289 175.612 151.364 175.473 152.436C174.898 156.878 172.112 162.017 169.179 165.295C166.022 168.822 160.787 172.514 155.882 172.592C153.246 172.634 151.091 171.711 149.066 170.106C148.616 173.358 147.756 176.29 146.505 179.315C145.037 181.78 143.269 183.79 141.335 185.882C137.009 189.485 132.712 192.447 127.834 195.247L116.192 199.999C113.572 200.711 111.048 201.791 108.419 202.53C104.401 203.659 100.326 204.265 96.1507 203.849C93.4814 203.583 90.8323 202.905 88.2676 202.131C85.9006 201.416 83.6017 200.51 81.244 199.772C79.9015 199.47 78.433 198.567 77.1782 197.986C74.4249 196.712 71.6759 195.429 68.9124 194.177L56.4346 185.344C55.0783 183.824 53.7199 181.966 52.1974 180.642L47.9658 170.42L47.7447 170.511C43.3628 172.28 38.3922 172.275 34.0523 170.362C30.1883 168.66 27.1707 164.734 25.6491 160.86C24.666 158.49 23.8335 155.959 23.3941 153.426C22.5198 148.386 22.9473 143.215 25.9956 138.962C28.025 136.13 30.414 135.191 33.6947 134.653C36.2813 134.798 38.5709 135.763 40.8441 136.957L46.8165 153.75C47.1351 154.289 47.3583 154.802 47.9919 154.997C49.6293 162.65 50.6277 170.827 54.2412 177.873C59.141 187.426 70.0853 192.652 79.7813 195.736C85.2843 197.486 90.9896 198.653 96.7735 198.787C106.591 199.012 116.47 196.167 125.136 191.61C133.723 187.095 140.016 180.328 142.936 170.891C144.818 164.81 145.557 158.337 146.23 152.024C147.021 144.59 147.622 136.797 146.496 129.367C145.832 124.985 144.202 120.957 142.644 116.842C141.17 112.954 139.815 109.05 138.113 105.25C136.377 101.372 134.313 97.6654 132.364 93.8961L97.2727 108.111C95.8158 108.583 94.2308 109.171 92.6838 108.895C90.8084 108.561 88.9189 107.697 87.1934 106.902C83.5042 105.204 80.0631 103.107 76.5318 101.108C70.3604 97.615 64.238 93.9401 57.9552 90.6599L62.3472 85.7157Z" fill="url(#paint3_linear_241_134)"/>
<path d="M33.279 144.339L34.3755 144.442C36.8857 144.901 39.6491 147.587 41.1063 149.594C43.3426 152.675 44.7531 156.499 45.5789 160.203C45.7589 161.01 46.0429 162.002 45.9202 162.825C45.6022 163.064 45.4682 163.232 45.0629 163.282C44.1218 161.891 43.7345 159.833 43.001 158.271C41.9314 155.403 40.4246 152.776 38.4336 150.476C37.8246 149.772 37.3432 149.045 36.5407 148.545C35.8183 148.094 35.2108 147.713 34.3657 147.541C31.367 146.929 29.5545 147.975 27.1081 149.573C27.8266 148.276 28.5877 146.953 29.7293 145.988L29.9292 145.823C30.3573 145.465 30.7645 145.203 31.2662 144.956L31.4897 144.849C32.0877 144.557 32.6231 144.443 33.279 144.339Z" fill="#CD683A"/>
<path d="M164.091 144.158C164.853 144.1 165.701 144.036 166.462 144.13C168.608 144.397 170.33 145.753 172.019 147C166.831 146.279 162.821 147.146 158.237 149.626L158.599 149.901L159.178 150.325C161.273 152.16 162.055 154.299 162.262 157.014L162.223 157.47C162.17 157.933 162.152 158.42 161.785 158.712L161.707 158.447C161.129 156.898 159.778 155.585 158.258 154.999C157.345 154.646 156.068 154.46 155.164 154.872L154.962 154.97C154.32 155.274 153.741 155.615 153.15 156.011C153.295 154.025 153.581 151.92 154.681 150.214C156.97 146.669 160.082 145.014 164.091 144.158Z" fill="#CD683A"/>
<path d="M154.254 143.469C154.911 141.701 155.922 139.884 156.972 138.325C158.422 136.171 160.24 134.12 162.912 133.66C163.28 133.597 163.622 133.496 163.978 133.384C167.613 134.283 170.536 137.023 172.436 140.194C173.961 142.741 175.358 146.217 175.506 149.213C174.91 149.1 174.527 147.841 174.254 147.323C173.029 145.004 171.311 142.596 169.124 141.131C165.299 138.569 160.954 140.088 157.234 142.061C156.485 142.458 155.331 143.313 154.503 143.44L154.254 143.469Z" fill="#F8C59C"/>
<path d="M33.6947 134.653C36.2813 134.798 38.5709 135.763 40.8441 136.957L46.8165 153.75C46.6304 153.689 46.4329 153.656 46.2578 153.568C45.9625 153.419 45.5673 152.717 45.3995 152.441C44.7617 151.396 44.1159 150.293 43.372 149.323C42.4889 148.17 41.4239 147.143 40.4056 146.114C37.5483 143.226 33.7358 139.946 29.4662 142.167C27.523 143.178 26.4314 144.889 25.7874 146.951C24.8512 149.951 25.0432 153.5 25.3253 156.607C25.4259 157.716 25.961 159.874 25.6491 160.86C24.666 158.49 23.8335 155.959 23.3941 153.426C22.5198 148.386 22.9473 143.215 25.9956 138.962C28.025 136.13 30.414 135.191 33.6947 134.653Z" fill="#F8C59C"/>
<path d="M35.8817 32.8021C40.3317 21.819 48.4816 11.2595 57.9884 4.24476C59.8092 2.90129 61.6711 1.54884 63.7357 0.61084C61.4758 9.66967 61.297 20.0454 63.4073 29.1708C64.0225 31.8307 64.9411 34.3939 65.8178 36.9736C65.4474 36.6302 65.1754 36.1266 64.8973 35.7025C64.4585 35.5523 64.1632 35.3681 63.7912 35.0886L63.6597 34.988C63.3144 35.1301 63.0161 35.3239 62.6944 35.5115C62.1351 35.8374 61.7432 36.1547 61.2946 36.6278C60.5359 35.3548 60.2535 33.3089 59.9708 31.8285C59.1873 27.7289 58.6673 23.7546 58.3527 19.5909C58.2972 19.3574 58.2849 19.1279 58.2478 18.8915C58.0565 17.6716 57.388 17.0538 56.43 16.3732L56.1215 16.3852C55.4819 15.9906 55.2712 16.3643 54.6552 16.3466C54.3587 16.3381 54.1498 16.3184 53.8641 16.4115C53.6187 16.4913 53.7365 16.4838 53.5001 16.4763C53.0505 16.4619 52.6709 16.5272 52.2671 16.7324C52.0978 16.8183 51.7375 17.1106 51.5741 17.1369C51.4545 17.1562 51.3355 17.053 51.2162 17.0742C50.7842 17.1511 50.7182 17.2548 50.215 17.22C45.7862 23.5876 43.5113 31.2917 41.829 38.792C41.5457 39.8501 41.4792 40.7822 41.3001 41.8372C41.2228 42.2929 41.0652 42.7461 41.0373 43.2095C41.002 43.7968 41.0808 44.2878 40.9683 44.8784L40.7849 45.866C40.1784 45.1149 39.5863 44.2221 38.8362 43.6126C38.1549 43.0588 37.3024 42.6786 36.522 42.2873C35.795 42.3889 35.5503 42.9018 34.9091 42.4523L35.8817 32.8021Z" fill="#56A5AE"/>
<path d="M50.215 17.22C52.5771 13.0811 55.9347 9.6357 59.2931 6.32132C58.5384 10.7466 58.3668 15.1137 58.3527 19.5909C58.2972 19.3574 58.2849 19.1279 58.2478 18.8915C58.0565 17.6716 57.388 17.0538 56.43 16.3732L56.1215 16.3852C55.4819 15.9906 55.2712 16.3643 54.6552 16.3466C54.3587 16.3381 54.1498 16.3184 53.8641 16.4115C53.6187 16.4913 53.7365 16.4838 53.5001 16.4763C53.0505 16.4619 52.6709 16.5272 52.2671 16.7324C52.0978 16.8183 51.7375 17.1106 51.5741 17.1369C51.4545 17.1562 51.3355 17.053 51.2162 17.0742C50.7842 17.1511 50.7182 17.2548 50.215 17.22Z" fill="#706074"/>
<path d="M41.0161 116.107C42.7719 112.508 43.7903 108.572 45.1686 104.814C48.2016 96.5423 52.9346 88.6102 58.9717 82.2349C59.6973 83.176 60.5972 84.0301 61.4978 84.7984C61.8263 85.0789 62.0412 85.4241 62.3472 85.7157L57.9552 90.6599C56.932 92.3253 55.7423 93.8766 54.6923 95.5269C52.5428 98.9049 50.7174 102.366 48.9781 105.969C47.9981 108 46.9454 110.121 46.341 112.302C46.0687 113.284 46.2011 114.232 46.253 115.238C46.3263 116.659 46.3839 118.084 46.4081 119.507C46.5443 127.523 46.6375 135.561 47.0567 143.569C47.2563 147.384 47.707 151.189 47.9919 154.997C47.3583 154.802 47.1351 154.289 46.8165 153.75L40.8441 136.957C38.5709 135.763 36.2813 134.798 33.6947 134.653C32.3869 130.522 31.4845 126.225 30.6973 121.965C29.5579 115.795 28.7106 109.457 28.3644 103.189C28.22 100.575 28.2724 97.9286 28.2687 95.3115L41.0161 116.107Z" fill="#1E1426"/>
<path d="M151.956 115.299L152.027 115.165C152.145 114.886 152.123 114.623 152.125 114.326C152.963 114.288 153.683 114.974 154.345 115.482C158.126 118.379 163.043 119.408 167.709 118.869C166.845 122.669 165.73 126.456 164.7 130.217C164.52 130.875 163.761 132.845 163.978 133.384C163.622 133.496 163.28 133.597 162.912 133.66C160.24 134.12 158.422 136.171 156.972 138.325C155.922 139.884 154.911 141.701 154.254 143.469C152.958 145.584 152.031 148.372 151.146 150.708C150.842 151.514 150.647 152.503 150.169 153.216L149.844 153.184C149.401 152.229 150.161 145.121 150.251 143.61C150.815 134.173 151.421 124.738 151.956 115.299Z" fill="#1E1426"/>
<path d="M105.321 11.4998C106.747 11.2273 108.148 10.7488 109.562 10.4108C112.554 9.69557 115.57 9.04615 118.597 8.50056C126.837 7.01543 135.154 6.46279 143.514 6.48885C148.712 6.50507 154.027 6.68955 159.185 7.35292L157.862 8.57799C153.139 13.8904 148.816 20.4152 147.033 27.3707C146.545 29.2767 146.165 31.2802 146.276 33.2562C146.31 33.8664 146.279 34.8976 146.511 35.4378C149.093 35.6164 151.593 36.0643 154.204 36.0755C160.921 36.104 167.887 34.9276 174.205 32.6015C180.321 30.35 186.437 26.7793 191.738 22.9575C192.548 22.373 196.017 19.3674 196.74 19.2952L196.701 19.6804C193.55 34.4679 189.282 48.6391 181.63 61.75C179.284 65.7698 176.924 69.5363 173.321 72.5521C177.17 79.0999 184.21 83.0463 191.379 84.8919C195.481 85.9479 199.58 86.4698 203.815 86.2039C205.528 86.0965 207.266 85.8374 208.953 85.5244C210.103 85.3111 211.249 85.0442 212.386 84.7693C212.947 84.6337 213.742 84.3118 214.3 84.4598L214.212 84.6845C208.542 92.2538 202.14 98.9384 194.785 104.863C191.189 107.76 187.382 110.546 183.327 112.754C180.595 114.241 177.826 115.607 174.894 116.65C173.683 117.08 168.14 118.39 167.709 118.869C163.043 119.408 158.126 118.379 154.345 115.482C153.683 114.974 152.963 114.288 152.125 114.326C152.123 114.623 152.145 114.886 152.027 115.165L151.956 115.299C151.955 115.004 151.975 114.29 151.887 114.024C151.658 113.34 150.333 112.195 149.835 111.657C148.372 110.079 146.977 108.432 145.557 106.814C142.042 102.809 138.385 98.9303 134.894 94.9053C132.378 92.0049 130.004 88.9999 127.626 85.985C124.61 87.2908 121.537 88.4517 118.55 89.8314C110.181 93.697 102.05 98.2168 94.2517 103.148C90.6701 101.833 87.1876 99.7569 83.7879 98.0078C81.1961 96.6742 78.6289 95.2879 76.0289 93.9723C73.0156 92.4476 69.944 90.9775 67.0726 89.1851C65.4765 88.1886 64.1086 86.9472 62.583 85.8779L62.3472 85.7157C62.0412 85.4241 61.8263 85.0789 61.4978 84.7984C60.5972 84.0301 59.6973 83.176 58.9717 82.2349C52.9346 88.6102 48.2016 96.5423 45.1686 104.814C43.7903 108.572 42.7719 112.508 41.0161 116.107L28.2687 95.3115L29.3258 82.2169C24.23 77.1573 20.1373 71.8343 16.5578 65.5822C15.0614 62.9682 13.596 60.2795 12.5776 57.4352L12.604 57.1801C13.3958 57.3275 14.1835 57.7952 14.9244 58.1119C16.7565 58.8951 18.6218 59.7232 20.5 60.3848C23.0071 61.2677 25.5541 62.0459 28.1059 62.7855C29.549 63.2037 31.0408 63.53 32.4507 64.0526C32.428 63.1341 32.179 62.2521 32.0273 61.3497C31.7617 59.7722 31.5599 58.1797 31.4388 56.5839C30.8445 48.7415 32.6267 39.9262 35.8817 32.8021L34.9091 42.4523C35.5503 42.9018 35.795 42.3889 36.522 42.2873C37.3024 42.6786 38.1549 43.0588 38.8362 43.6126C39.5863 44.2221 40.1784 45.1149 40.7849 45.866L40.9683 44.8784C41.0808 44.2878 41.002 43.7968 41.0373 43.2095C41.0652 42.7461 41.2228 42.2929 41.3001 41.8372C41.4792 40.7822 41.5457 39.8501 41.829 38.792C43.5113 31.2917 45.7862 23.5876 50.215 17.22C50.7182 17.2548 50.7842 17.1511 51.2162 17.0742C51.3355 17.053 51.4545 17.1562 51.5741 17.1369C51.7375 17.1106 52.0978 16.8183 52.2671 16.7324C52.6709 16.5272 53.0505 16.4619 53.5001 16.4763C53.7365 16.4838 53.6187 16.4913 53.8641 16.4115C54.1498 16.3184 54.3587 16.3381 54.6552 16.3466C55.2712 16.3643 55.4819 15.9906 56.1215 16.3852L56.43 16.3732C57.388 17.0538 58.0565 17.6716 58.2478 18.8915C58.2849 19.1279 58.2972 19.3574 58.3527 19.5909C58.6673 23.7546 59.1873 27.7289 59.9708 31.8285C60.2535 33.3089 60.5359 35.3548 61.2946 36.6278C61.7432 36.1547 62.1351 35.8374 62.6944 35.5115C63.0161 35.3239 63.3144 35.1301 63.6597 34.988L63.7912 35.0886C64.1632 35.3681 64.4585 35.5523 64.8973 35.7025C65.1754 36.1266 65.4474 36.6302 65.8178 36.9736L67.1174 39.7067C75.6579 25.2132 89.4623 16.0615 105.321 11.4998Z" fill="url(#paint4_linear_241_134)"/>
<path d="M12.5776 57.4352L12.604 57.1801C13.3958 57.3275 14.1835 57.7952 14.9244 58.1119C16.7565 58.8951 18.6218 59.7232 20.5 60.3848C23.0071 61.2677 25.5541 62.0459 28.1059 62.7855C29.549 63.2037 31.0408 63.53 32.4507 64.0526C33.0741 65.3565 33.4304 67.1099 33.861 68.5076C31.4397 67.6021 28.9378 66.8028 26.5562 65.8026C22.1344 63.9455 17.9368 61.7206 14.1139 58.7868L12.5776 57.4352Z" fill="#47859C"/>
<path d="M12.5776 57.4352L14.1139 58.7868C14.1498 59.2196 14.1915 59.5969 14.4341 59.9675C15.5202 61.6274 16.9844 63.0025 18.3146 64.4522C21.2264 67.6256 24.0761 70.8653 27.0088 74.0177C28.063 75.1507 29.5361 76.3917 30.3217 77.704C29.9583 79.1454 29.4233 80.7332 29.3258 82.2169C24.23 77.1573 20.1373 71.8343 16.5578 65.5822C15.0614 62.9682 13.596 60.2795 12.5776 57.4352Z" fill="#3A1A27"/>
<path d="M40.7849 45.866L40.9683 44.8784C41.0808 44.2878 41.002 43.7968 41.0373 43.2095C41.0652 42.7461 41.2228 42.2929 41.3001 41.8372C41.4792 40.7822 41.5457 39.8501 41.829 38.792C41.6536 41.2967 41.1919 43.7482 41.0846 46.2702C40.6844 55.6744 42.1256 65.0887 44.0384 74.2647C42.6604 71.4931 40.9395 68.9255 39.6559 66.0961C36.8428 59.8951 35.2633 52.9384 34.8944 46.1492C34.8276 44.9153 34.6601 43.6727 34.9091 42.4523C35.5503 42.9018 35.795 42.3889 36.522 42.2873C37.3024 42.6786 38.1549 43.0588 38.8362 43.6126C39.5863 44.2221 40.1784 45.1149 40.7849 45.866Z" fill="#928A8E"/>
<path d="M63.6124 45.0211L64.6069 45.1815C65.0975 45.2657 65.3394 45.2412 65.8061 45.0667C66.1508 45.2908 66.2189 45.4124 66.643 45.3942C68.0618 45.3329 69.5113 46.2319 70.7887 46.7294C71.6532 47.0662 72.4652 47.5835 73.2771 48.0323C73.7543 48.2964 74.3016 48.4852 74.734 48.8248C75.3322 49.2951 75.8223 49.9006 76.3859 50.4114C77.4379 49.2409 77.7688 47.6463 78.9966 46.6801C78.0843 49.0917 76.5235 51.3831 75.4669 53.7609C73.7708 57.577 72.5305 61.5596 71.165 65.5014C69.0897 60.8089 67.2869 55.8892 65.5915 51.0411C64.9016 49.0685 64.0276 47.077 63.6124 45.0211Z" fill="#928A8E"/>
<path d="M109.017 20.483L123.469 15.4624C124.095 17.0229 124.555 18.3372 123.797 19.981C122.669 22.4295 120.925 24.5381 119.063 26.4391C118.091 27.432 117.048 28.7235 115.942 29.551C113.107 31.6722 109.532 33.403 106.183 34.5013C102.842 35.5972 98.9448 36.2547 95.461 35.6817C93.9805 35.4384 92.5559 35.135 91.582 33.8698C91.1226 33.2729 91.2916 32.4411 90.9905 31.779C91.5786 31.0255 92.6476 30.2621 93.3955 29.6411C97.0132 26.6369 101.012 24.3543 105.2 22.2687C106.461 21.6407 107.774 21.1512 109.017 20.483Z" fill="#596B83"/>
<path d="M196.701 19.6804C193.55 34.4679 189.282 48.6391 181.63 61.75C179.284 65.7698 176.924 69.5363 173.321 72.5521L172.331 70.9325L171.188 69.6595L148.753 77.0456C147.938 76.0865 147.137 75.1816 146.19 74.3542L143.855 74.1183L149.572 70.6839C156.608 66.2313 163.25 61.134 169.554 55.6865C178.521 47.9379 187.174 38.8461 192.498 28.0852C193.451 26.1596 194.753 23.9291 195.229 21.8434C195.484 21.0693 196.207 20.3254 196.701 19.6804Z" fill="#3A1A27"/>
<path d="M105.321 11.4998C105.529 12.7245 105.599 13.8649 106.033 15.0445C106.34 15.8805 106.84 16.646 107.207 17.4569C107.701 18.5485 108.15 19.6238 109.017 20.483C107.774 21.1512 106.461 21.6407 105.2 22.2687C101.012 24.3543 97.0132 26.6369 93.3955 29.6411C92.6476 30.2621 91.5786 31.0255 90.9905 31.779C88.7146 33.9534 86.3603 36.2163 84.4383 38.7208C82.4837 41.2676 80.834 44.05 78.9966 46.6801C77.7688 47.6463 77.4379 49.2409 76.3859 50.4114C75.8223 49.9006 75.3322 49.2951 74.734 48.8248C74.3016 48.4852 73.7543 48.2964 73.2771 48.0323C72.4652 47.5835 71.6532 47.0662 70.7887 46.7294C69.5113 46.2319 68.0618 45.3329 66.643 45.3942C66.2189 45.4124 66.1508 45.2908 65.8061 45.0667C65.3394 45.2412 65.0975 45.2657 64.6069 45.1815L63.6124 45.0211C63.5904 44.7973 63.5766 44.6017 63.4923 44.3909L62.2715 40.8104C62.1679 40.5602 62.1268 40.4881 62.0793 40.1962L61.8198 39.004C61.6852 38.5852 61.6678 38.1072 61.5242 37.7147C61.3712 37.2971 61.3188 37.0952 61.2946 36.6278C61.7432 36.1547 62.1351 35.8374 62.6944 35.5115C63.0161 35.3239 63.3144 35.1301 63.6597 34.988L63.7912 35.0886C64.1632 35.3681 64.4585 35.5523 64.8973 35.7025C65.1754 36.1266 65.4474 36.6302 65.8178 36.9736L67.1174 39.7067C75.6579 25.2132 89.4623 16.0615 105.321 11.4998Z" fill="#9FBCC2"/>
<path d="M172.331 70.9325L173.321 72.5521C177.17 79.0999 184.21 83.0463 191.379 84.8919C195.481 85.9479 199.58 86.4698 203.815 86.2039C205.528 86.0965 207.266 85.8374 208.953 85.5244C210.103 85.3111 211.249 85.0442 212.386 84.7693C212.947 84.6337 213.742 84.3118 214.3 84.4598L214.212 84.6845L210.502 87.4298C202.298 91.1063 193.792 93.8212 184.715 93.7481C183.232 93.7364 181.681 93.7757 180.21 93.5748C177.916 93.2615 175.641 92.9974 173.382 92.4634C167.191 90.9992 161.024 88.1372 155.999 84.1917C153.636 82.3364 151.493 80.1756 149.383 78.039C153.355 76.3203 157.271 74.9219 161.454 73.822C165.072 72.8713 168.794 72.1596 172.331 70.9325Z" fill="#596B83"/>
<path d="M105.321 11.4998C106.747 11.2273 108.148 10.7488 109.562 10.4108C112.554 9.69557 115.57 9.04615 118.597 8.50056C126.837 7.01543 135.154 6.46279 143.514 6.48885C148.712 6.50507 154.027 6.68955 159.185 7.35292L157.862 8.57799C153.139 13.8904 148.816 20.4152 147.033 27.3707C146.545 29.2767 146.165 31.2802 146.276 33.2562C146.31 33.8664 146.279 34.8976 146.511 35.4378C149.093 35.6164 151.593 36.0643 154.204 36.0755C160.921 36.104 167.887 34.9276 174.205 32.6015C180.321 30.35 186.437 26.7793 191.738 22.9575C192.548 22.373 196.017 19.3674 196.74 19.2952L196.701 19.6804C196.207 20.3254 195.484 21.0693 195.229 21.8434C193.679 23.2482 192.508 25.0582 191.093 26.6109C188.434 29.5281 185.464 32.2377 182.416 34.7338C174.427 41.2763 165.274 45.6267 155.403 48.4567C150.665 49.8151 145.838 50.8463 141.086 52.1428C134.879 53.8361 128.793 55.8465 122.629 57.6723C125.754 46.6058 128.815 35.7901 134.515 25.7156C135.913 23.2456 137.412 20.9299 139.048 18.6145C139.723 17.6589 140.686 16.6919 141.246 15.6872L141.352 15.4913C141.456 15.1647 141.4 15.3006 141.544 15.0048L141.751 14.5652L141.812 14.4205L142.006 14.4195C142.009 14.064 142.162 14.0106 142.397 13.7572C142.528 13.6156 142.575 13.541 142.611 13.3415C142.699 12.8604 142.764 12.4129 142.888 11.9359C142.3 12.0079 141.756 12.0379 141.164 12.0027L140.94 11.5387L140.574 11.6165C140.447 11.9205 140.533 11.7687 140.298 12.062C139.939 11.8242 139.667 11.7673 139.239 11.8557L138.974 11.9242L138.732 11.9821C138.442 12.0533 138.174 11.8827 137.897 11.7793L123.469 15.4624L109.017 20.483C108.15 19.6238 107.701 18.5485 107.207 17.4569C106.84 16.646 106.34 15.8805 106.033 15.0445C105.599 13.8649 105.529 12.7245 105.321 11.4998Z" fill="url(#paint5_linear_241_134)"/>
<path d="M137.897 11.7793L146.619 9.85934L141.352 15.4913C141.456 15.1647 141.4 15.3006 141.544 15.0048L141.751 14.5652L141.812 14.4205L142.006 14.4195C142.009 14.064 142.162 14.0106 142.397 13.7572C142.528 13.6156 142.575 13.541 142.611 13.3415C142.699 12.8604 142.764 12.4129 142.888 11.9359C142.3 12.0079 141.756 12.0379 141.164 12.0027L140.94 11.5387L140.574 11.6165C140.447 11.9205 140.533 11.7687 140.298 12.062C139.939 11.8242 139.667 11.7673 139.239 11.8557L138.974 11.9242L138.732 11.9821C138.442 12.0533 138.174 11.8827 137.897 11.7793Z" fill="#706074"/>
<path d="M135.266 32.2616C138.922 23.9035 145.759 16.4334 153.242 11.4205C154.742 10.416 156.25 9.38897 157.862 8.57799C153.139 13.8904 148.816 20.4152 147.033 27.3707C146.545 29.2767 146.165 31.2802 146.276 33.2562C146.31 33.8664 146.279 34.8976 146.511 35.4378L135.266 32.2616Z" fill="#3A1A27"/>
<path d="M78.2898 53.2272C77.774 55.8224 78.3017 58.7803 78.7792 61.3374C80.3826 69.9217 83.452 77.5604 87.1636 85.4021C88.1495 87.4855 89.085 89.6742 90.3174 91.6232C93.7285 85.0941 97.0798 78.6683 101.26 72.589C103.586 69.2066 106.283 66.1478 108.668 62.8211C107.431 66.1286 105.918 69.3339 104.658 72.6395C103.28 76.2531 102.182 80.0153 101.232 83.7645C100.692 85.8962 100.092 88.0994 99.9956 90.3085C102.402 88.1186 104.706 85.8587 107.274 83.8558C112.596 79.7063 118.491 76.4459 124.576 73.5926C127.421 72.2584 130.243 70.9316 133.245 69.9908C128.301 74.1102 123.493 78.6309 119.637 83.8267L137.404 76.3849C135.699 77.7774 133.593 79.3064 132.358 81.1496C134.977 84.018 137.81 86.7531 140.703 89.3389C144.001 92.2863 147.322 95.079 151.17 97.285C156.804 100.514 163.258 102.071 169.695 102.331C181.404 102.802 193.071 98.4143 203.105 92.656C205.453 91.3087 208.033 89.9704 210.036 88.1158C210.264 87.9044 210.371 87.7078 210.502 87.4298L214.212 84.6845C208.542 92.2538 202.14 98.9384 194.785 104.863C191.189 107.76 187.382 110.546 183.327 112.754C180.595 114.241 177.826 115.607 174.894 116.65C173.683 117.08 168.14 118.39 167.709 118.869C163.043 119.408 158.126 118.379 154.345 115.482C153.683 114.974 152.963 114.288 152.125 114.326C152.123 114.623 152.145 114.886 152.027 115.165L151.956 115.299C151.955 115.004 151.975 114.29 151.887 114.024C151.658 113.34 150.333 112.195 149.835 111.657C148.372 110.079 146.977 108.432 145.557 106.814C142.042 102.809 138.385 98.9303 134.894 94.9053C132.378 92.0049 130.004 88.9999 127.626 85.985C124.61 87.2908 121.537 88.4517 118.55 89.8314C110.181 93.697 102.05 98.2168 94.2517 103.148C90.6701 101.833 87.1876 99.7569 83.7879 98.0078C81.1961 96.6742 78.6289 95.2879 76.0289 93.9723C73.0156 92.4476 69.944 90.9775 67.0726 89.1851C65.4765 88.1886 64.1086 86.9472 62.583 85.8779L62.3472 85.7157C62.0412 85.4241 61.8263 85.0789 61.4978 84.7984C60.5972 84.0301 59.6973 83.176 58.9717 82.2349C58.6412 81.638 58.1413 81.1378 57.7261 80.5979C57.05 79.7187 56.4287 78.7894 55.824 77.8588C53.7518 74.669 52.2348 71.2287 50.8037 67.712C53.086 69.8013 55.2877 71.985 57.6035 74.0359C64.4581 80.1066 72.2992 85.3678 80.4292 89.5092C79.2912 87.0506 77.8559 84.7468 76.7749 82.2504C73.5782 74.8681 72.7368 66.4672 75.5128 58.8035C76.2236 56.8418 77.2122 55.0063 78.2898 53.2272Z" fill="#3A1A27"/>
<defs>
<linearGradient id="paint0_linear_241_134" x1="122.352" y1="172.261" x2="90.1269" y2="146.18" gradientUnits="userSpaceOnUse">
<stop stop-color="#202319"/>
<stop offset="1" stop-color="#12242A"/>
</linearGradient>
<linearGradient id="paint1_linear_241_134" x1="61.825" y1="166.076" x2="136.822" y2="149.143" gradientUnits="userSpaceOnUse">
<stop stop-color="#465273"/>
<stop offset="1" stop-color="#3B5F7E"/>
</linearGradient>
<linearGradient id="paint2_linear_241_134" x1="110.189" y1="146.491" x2="133.956" y2="315.282" gradientUnits="userSpaceOnUse">
<stop stop-color="#312219"/>
<stop offset="1" stop-color="#3C192C"/>
</linearGradient>
<linearGradient id="paint3_linear_241_134" x1="115.372" y1="-1.80586" x2="74.254" y2="307.991" gradientUnits="userSpaceOnUse">
<stop stop-color="#D87C57"/>
<stop offset="1" stop-color="#E99C69"/>
</linearGradient>
<linearGradient id="paint4_linear_241_134" x1="108.091" y1="291.092" x2="68.9563" y2="23.9826" gradientUnits="userSpaceOnUse">
<stop stop-color="#471D31"/>
<stop offset="1" stop-color="#5D5B6B"/>
</linearGradient>
<linearGradient id="paint5_linear_241_134" x1="185.48" y1="258.786" x2="-27.7441" y2="226.291" gradientUnits="userSpaceOnUse">
<stop stop-color="#2E8C9F"/>
<stop offset="1" stop-color="#6ACAC9"/>
</linearGradient>
</defs>
</svg>
