<svg width="559" height="133" viewBox="0 0 559 133" fill="none" xmlns="http://www.w3.org/2000/svg">
        <path d="M113.923 16.5406C118.126 15.7667 121.977 15.7797 126.004 16.8669C130.136 17.9824 133.337 19.9918 134.761 22.3771L135.028 22.8443C138.669 22.8256 141.553 22.8981 144.303 24.3596C146.112 25.3208 146.953 26.4216 147.492 27.7485C151.639 27.309 155.959 27.2543 159.616 28.5749C162.479 29.6093 164.292 31.018 166.061 32.5817L161.879 32.5591C160.366 32.3676 158.569 32.4909 157.005 32.4425C156.262 32.4194 155.615 32.2313 154.81 32.2024C150.552 32.0489 146.284 31.9473 142.023 31.8054C138.944 31.703 135.098 31.8476 132.298 31.0842L132.044 31.0135C128.734 30.121 128.445 28.0449 125.863 26.8021C122.635 25.2488 116.689 25.7114 114.388 23.43L114.284 23.3214C112.596 21.5993 112.527 19.7734 113.268 17.8943C113.439 17.4613 113.761 17.0629 113.899 16.6217L113.923 16.5406Z" fill="#F2FAFC">
            <animateMotion path="M -170 0 H 600" begin="-1s" dur="58s" repeatCount="indefinite" />
        </path>
        <path d="M101.986 24.1193C102.302 23.4091 102.615 22.7055 103.148 22.0317C105.274 19.3458 108.938 17.6088 113.863 16.5406L113.839 16.6217C113.7 17.063 113.378 17.4613 113.208 17.8943C112.466 19.7734 112.536 21.5993 114.223 23.3214L114.327 23.43C116.629 25.7114 122.574 25.2488 125.802 26.8021C128.385 28.0449 128.673 30.121 131.984 31.0135L132.238 31.0842C135.037 31.8476 138.884 31.703 141.963 31.8054C146.223 31.9473 150.491 32.0489 154.75 32.2024C155.555 32.2314 156.201 32.4194 156.945 32.4425C158.508 32.4909 160.305 32.3676 161.819 32.5591L76 32.5795L76.7564 31.3032C77.6045 30.1946 79.2863 29.2543 81.3522 28.8238C83.8594 28.3012 86.1222 28.4105 88.5425 29.0147L88.86 28.4818C89.4165 27.5282 90.3135 26.6399 91.6453 25.9387C94.6414 24.3614 97.9975 24.0846 101.986 24.1193Z" fill="#DBE8EB">
            <animateMotion path="M -170 0 H 600" begin="-1s" dur="58s" repeatCount="indefinite" />
        </path>
        <path d="M94.1616 106.744C99.9421 105.679 105.239 105.697 110.778 107.192C116.461 108.727 120.863 111.491 122.822 114.771L123.19 115.414C128.199 115.388 132.165 115.488 135.947 117.498C138.436 118.82 139.592 120.334 140.334 122.159C146.038 121.555 151.98 121.48 157.009 123.296C160.948 124.719 163.442 126.656 165.874 128.807L160.122 128.776C158.041 128.513 155.569 128.682 153.418 128.616C152.396 128.584 151.507 128.325 150.4 128.286C144.542 128.074 138.671 127.935 132.811 127.739C128.577 127.599 123.286 127.798 119.436 126.748L119.086 126.65C114.532 125.423 114.136 122.567 110.584 120.858C106.144 118.721 97.9659 119.357 94.8005 116.22L94.6571 116.07C92.3362 113.702 92.2411 111.19 93.2606 108.606C93.4955 108.01 93.9382 107.462 94.1285 106.855L94.1616 106.744Z" fill="#F2FAFC">
            <animateMotion path="M -170 0 H 600" begin="-6s" dur="52s" repeatCount="indefinite" />
        </path>
        <path d="M77.7422 117.168C78.1771 116.191 78.6073 115.223 79.341 114.296C82.265 110.602 87.3049 108.213 94.0783 106.744L94.0452 106.855C93.8549 107.462 93.4122 108.01 93.1773 108.606C92.1577 111.19 92.2529 113.702 94.5738 116.07L94.7172 116.22C97.8826 119.357 106.061 118.721 110.501 120.858C114.053 122.567 114.449 125.423 119.003 126.65L119.352 126.748C123.203 127.798 128.494 127.599 132.728 127.74C138.588 127.935 144.459 128.074 150.316 128.286C151.424 128.325 152.313 128.584 153.335 128.616C155.486 128.682 157.958 128.513 160.039 128.776L42 128.804L43.0403 127.049C44.2069 125.524 46.5202 124.231 49.3616 123.638C52.8102 122.92 55.9226 123.07 59.2516 123.901L59.6883 123.168C60.4537 121.856 61.6875 120.635 63.5193 119.67C67.6403 117.501 72.2564 117.12 77.7422 117.168Z" fill="#DBE8EB">
            <animateMotion path="M -170 0 H 600" begin="-6s" dur="52s" repeatCount="indefinite" />
        </path>
        <path d="M113.923 25.5406C118.126 24.7667 121.977 24.7797 126.004 25.8669C130.136 26.9824 133.337 28.9918 134.761 31.3771L135.028 31.8443C138.669 31.8256 141.553 31.8981 144.303 33.3596C146.112 34.3208 146.953 35.4216 147.492 36.7485C151.639 36.309 155.959 36.2543 159.616 37.5749C162.479 38.6093 164.292 40.018 166.061 41.5817L161.879 41.5591C160.366 41.3676 158.569 41.4909 157.005 41.4425C156.262 41.4194 155.615 41.2313 154.81 41.2024C150.552 41.0489 146.284 40.9473 142.023 40.8054C138.944 40.703 135.098 40.8476 132.298 40.0842L132.044 40.0135C128.734 39.121 128.445 37.0449 125.863 35.8021C122.635 34.2488 116.689 34.7114 114.388 32.43L114.284 32.3214C112.596 30.5993 112.527 28.7734 113.268 26.8943C113.439 26.4613 113.761 26.0629 113.899 25.6217L113.923 25.5406Z" fill="#F2FAFC">
            <animateMotion path="M -170 0 H 600" begin="-20s" dur="45s" repeatCount="indefinite" />
        </path>
        <path d="M101.986 33.1193C102.302 32.4091 102.615 31.7055 103.148 31.0317C105.274 28.3458 108.938 26.6088 113.863 25.5406L113.839 25.6217C113.7 26.063 113.378 26.4613 113.208 26.8943C112.466 28.7734 112.536 30.5993 114.223 32.3214L114.327 32.43C116.629 34.7114 122.574 34.2488 125.802 35.8021C128.385 37.0449 128.673 39.121 131.984 40.0135L132.238 40.0842C135.037 40.8476 138.884 40.703 141.963 40.8054C146.223 40.9473 150.491 41.0489 154.75 41.2024C155.555 41.2314 156.201 41.4194 156.945 41.4425C158.508 41.4909 160.305 41.3676 161.819 41.5591L76 41.5795L76.7564 40.3032C77.6045 39.1946 79.2863 38.2543 81.3522 37.8238C83.8594 37.3012 86.1222 37.4105 88.5425 38.0147L88.86 37.4818C89.4165 36.5282 90.3135 35.6399 91.6453 34.9387C94.6414 33.3614 97.9975 33.0846 101.986 33.1193Z" fill="#DBE8EB">
            <animateMotion path="M -170 0 H 600" begin="-20s" dur="45s" repeatCount="indefinite" />
        </path>
        <path d="M69.9004 54.9964C77.6466 53.5699 84.7454 53.594 92.1677 55.5978C99.7833 57.6539 105.683 61.3577 108.308 65.7542L108.8 66.6155C115.512 66.5809 120.827 66.7147 125.896 69.4084C129.231 71.1802 130.78 73.2091 131.774 75.6548C139.418 74.8448 147.381 74.7439 154.12 77.1782C159.399 79.0847 162.741 81.6812 166 84.5634L158.293 84.5218C155.503 84.1688 152.191 84.3961 149.309 84.3069C147.939 84.2643 146.747 83.9177 145.263 83.8644C137.414 83.5814 129.547 83.394 121.694 83.1325C116.019 82.9438 108.93 83.2103 103.769 81.8033L103.301 81.6728C97.1986 80.0278 96.6676 76.2012 91.9077 73.9105C85.9577 71.0475 74.9984 71.9 70.7566 67.695L70.5644 67.4948C67.4542 64.3207 67.3267 60.9551 68.693 57.4916C69.0078 56.6934 69.601 55.9592 69.856 55.1459L69.9004 54.9964Z" fill="#F2FAFC">
            <animateMotion path="M -170 0 H 600" begin="-28s" dur="40s" repeatCount="indefinite" />
        </path>
        <path d="M47.8972 68.9656C48.4799 67.6564 49.0565 66.3597 50.0396 65.1176C53.958 60.1669 60.7119 56.9653 69.7887 54.9964L69.7444 55.1459C69.4893 55.9592 68.8961 56.6934 68.5813 57.4917C67.215 60.9551 67.3426 64.3207 70.4528 67.4948L70.645 67.695C74.8868 71.9 85.8461 71.0475 91.7961 73.9105C96.5559 76.2013 97.0869 80.0278 103.19 81.6729L103.658 81.8033C108.818 83.2103 115.908 82.9438 121.582 83.1325C129.435 83.394 137.302 83.5814 145.152 83.8644C146.636 83.9177 147.827 84.2643 149.197 84.3069C152.079 84.3961 155.392 84.1688 158.181 84.5218L0 84.5594L1.39414 82.2069C2.95737 80.1636 6.05735 78.4303 9.86511 77.6368C14.4864 76.6736 18.6573 76.8751 23.1184 77.9888L23.7036 77.0065C24.7293 75.2488 26.3826 73.6115 28.8374 72.3191C34.3599 69.4118 40.5458 68.9015 47.8972 68.9656Z" fill="#DBE8EB">
            <animateMotion path="M -170 0 H 600" begin="-28s" dur="40s" repeatCount="indefinite" />
        </path>
        <path d="M71.7729 24.9803C79.3942 23.5768 86.3785 23.6006 93.681 25.572C101.174 27.595 106.978 31.2391 109.561 35.5646L110.045 36.412C116.649 36.378 121.878 36.5096 126.866 39.1599C130.146 40.9031 131.671 42.8993 132.649 45.3055C140.169 44.5086 148.004 44.4093 154.634 46.8043C159.828 48.6801 163.116 51.2347 166.322 54.0704L158.739 54.0295C155.995 53.6822 152.736 53.9058 149.9 53.8181C148.553 53.7762 147.38 53.4351 145.92 53.3827C138.197 53.1043 130.457 52.9199 122.731 52.6626C117.148 52.4769 110.173 52.7391 105.096 51.3548L104.635 51.2265C98.6308 49.608 98.1084 45.8431 93.4253 43.5893C87.5713 40.7725 76.7887 41.6113 72.6153 37.4741L72.4262 37.2771C69.3662 34.1542 69.2407 30.8429 70.585 27.4353C70.8947 26.65 71.4783 25.9276 71.7293 25.1274L71.7729 24.9803Z" fill="#F2FAFC">
            <animateMotion path="M -170 0 H 600" begin="-22s" dur="38s" repeatCount="indefinite" />
        </path>
        <path d="M50.1246 38.7242C50.698 37.4361 51.2652 36.1603 52.2325 34.9382C56.0877 30.0675 62.7326 26.9175 71.663 24.9803L71.6194 25.1274C71.3685 25.9276 70.7848 26.65 70.4751 27.4353C69.1309 30.8429 69.2564 34.1542 72.3164 37.2772L72.5055 37.4741C76.6789 41.6113 87.4614 40.7725 93.3154 43.5893C97.9985 45.8432 98.5209 49.608 104.525 51.2265L104.986 51.3548C110.063 52.7392 117.038 52.4769 122.621 52.6626C130.347 52.9199 138.087 53.1043 145.811 53.3827C147.271 53.4351 148.443 53.7762 149.791 53.8181C152.626 53.9058 155.885 53.6822 158.63 54.0295L3 54.0664L4.37165 51.7519C5.90967 49.7416 8.95965 48.0363 12.706 47.2555C17.2528 46.3079 21.3564 46.5061 25.7455 47.6019L26.3213 46.6354C27.3304 44.9061 28.9571 43.2951 31.3723 42.0236C36.8057 39.1632 42.8918 38.6612 50.1246 38.7242Z" fill="#DBE8EB">
            <animateMotion path="M -170 0 H 600" begin="-22s" dur="38s" repeatCount="indefinite" />
        </path>
        </svg>