<svg width="445" height="29" viewBox="0 0 445 29" fill="none" xmlns="http://www.w3.org/2000/svg">
        <rect width="445" height="29" fill="#5BD8FF" ></rect>
        <path d="M37.9233 6.52098C42.1259 5.77511 45.9773 5.78773 50.0041 6.83546C54.1358 7.91054 57.3365 9.84719 58.7605 12.146L59.0279 12.5963C62.6694 12.5783 65.5529 12.6482 68.303 14.0567C70.1121 14.9831 70.9526 16.044 71.492 17.3228C75.6391 16.8993 79.9594 16.8465 83.6155 18.1193C86.4793 19.1162 88.2924 20.4739 90.0606 21.9809L85.8791 21.9591C84.3658 21.7746 82.5688 21.8934 81.0051 21.8468C80.2618 21.8245 79.6155 21.6433 78.8104 21.6154C74.5516 21.4674 70.2835 21.3695 66.0231 21.2327C62.9444 21.134 59.0981 21.2734 56.2985 20.5377L56.0445 20.4695C52.7335 19.6093 52.4454 17.6085 49.8631 16.4107C46.635 14.9137 40.6892 15.3595 38.3879 13.1608L38.2836 13.0561C36.5962 11.3964 36.527 9.63667 37.2683 7.8257C37.4391 7.40833 37.7609 7.02443 37.8993 6.59917L37.9233 6.52098Z" fill="#F2FAFC">
            <animateMotion path="M -91 0 H 440" dur="38s" repeatCount="3" />
        </path>
        <path d="M25.9858 13.8252C26.302 13.1406 26.6148 12.4626 27.1482 11.8131C29.2741 9.22455 32.9383 7.55049 37.8627 6.52099L37.8387 6.59917C37.7003 7.02444 37.3785 7.40833 37.2077 7.82571C36.4664 9.63667 36.5356 11.3964 38.223 13.0561L38.3273 13.1608C40.6286 15.3595 46.5744 14.9137 49.8025 16.4107C52.3849 17.6085 52.6729 19.6093 55.9839 20.4695L56.2379 20.5377C59.0375 21.2734 62.8838 21.134 65.9625 21.2327C70.2229 21.3695 74.491 21.4674 78.7498 21.6154C79.5549 21.6433 80.2012 21.8245 80.9445 21.8468C82.5082 21.8934 84.3052 21.7746 85.8185 21.9591L0 21.9788L0.756368 20.7487C1.60447 19.6803 3.28632 18.7741 5.35216 18.3591C7.85938 17.8555 10.1222 17.9609 12.5425 18.5432L12.86 18.0296C13.4165 17.1105 14.3135 16.2544 15.6453 15.5786C18.6414 14.0585 21.9975 13.7917 25.9858 13.8252Z" fill="#DBE8EB">
            <animateMotion path="M -91 0 H 440" dur="38s" repeatCount="3" />
        </path>
    </svg>