<svg width="124" height="23" viewBox="0 0 124 23" fill="none" xmlns="http://www.w3.org/2000/svg">
<path d="M52.1616 0.743525C57.9421 -0.320958 63.2394 -0.302944 68.7781 1.19234C74.4611 2.72664 78.8634 5.49055 80.8221 8.77131L81.1899 9.414C86.1985 9.38823 90.1646 9.48805 93.9473 11.4982C96.4356 12.8203 97.5917 14.3344 98.3336 16.1594C104.038 15.555 109.98 15.4797 115.009 17.2962C118.948 18.7189 121.442 20.6565 123.874 22.8072L118.122 22.7762C116.041 22.5128 113.486 22.6824 111.335 22.6159C110.313 22.5841 109.507 22.3254 108.4 22.2856C102.542 22.0745 96.6714 21.9346 90.8114 21.7395C86.5768 21.5986 81.2864 21.7975 77.4357 20.7476L77.0863 20.6502C72.5323 19.4226 72.136 16.5672 68.5841 14.8578C64.144 12.7213 55.9659 13.3575 52.8005 10.2196L52.6571 10.0702C50.3362 7.70157 50.241 5.19009 51.2606 2.60556C51.4955 2.0099 51.9382 1.46202 52.1285 0.855106L52.1616 0.743525Z" fill="#F2FAFC"/>
<path d="M35.7422 11.1677C36.1771 10.1908 36.6073 9.22313 37.341 8.29624C40.265 4.60194 45.3882 2.21279 52.1616 0.743525L52.1285 0.855106C51.9382 1.46202 51.4955 2.0099 51.2606 2.60556C50.241 5.19009 50.3362 7.70157 52.6571 10.0702L52.8005 10.2196C55.9659 13.3575 64.144 12.7213 68.5841 14.8578C72.136 16.5672 72.5323 19.4226 77.0863 20.6502L77.4357 20.7476C81.2864 21.7975 86.4935 21.5987 90.7281 21.7395C96.5881 21.9346 102.553 22.0749 108.411 22.286C109.518 22.3258 110.313 22.5841 111.335 22.6159C113.486 22.6824 116.041 22.5128 118.122 22.7762L0 22.8042L1.04034 21.0488C2.20687 19.524 4.52016 18.2306 7.36162 17.6384C10.8102 16.9197 13.9226 17.07 17.2516 17.9011L17.6883 17.1681C18.4537 15.8565 19.6875 14.6346 21.5193 13.6702C25.6403 11.5007 30.2564 11.1199 35.7422 11.1677Z" fill="#DBE8EB"/>
</svg>
