<svg width="1500" height="179" viewBox="0 0 1500 179" fill="none" xmlns="http://www.w3.org/2000/svg">
<path d="M605.029 22.5988L605 23.4501C604.573 23.7382 604.069 23.9944 603.7 24.3437L601.811 23.8309L605.029 22.5988Z" fill="#F8DF92"/>
<path d="M610.233 22.0261C611.238 22.8121 612.413 23.3433 613.61 23.8203L611.35 24.8354C611.037 24.4068 610.525 23.934 610.516 23.3798C610.511 23.068 610.572 22.954 610.442 22.6439C610.35 22.4258 610.286 22.2553 610.233 22.0261Z" fill="#F8DF92"/>
<path d="M725.295 155.739C725.292 155.2 725.254 154.681 725.454 154.166L725.711 153.967L725.923 154.269L726.082 154.235L742.395 141.911C742.393 143.466 731.105 157.828 726.453 157.828C726.401 158.849 726.511 160.022 726.077 160.971C725.174 159.386 725.289 157.472 725.295 155.739Z" fill="#35A7C3" fill-opacity="0.988235"/>
<path d="M626.485 123.269C627.562 123.821 628.484 124.56 629.531 125.153C631.664 126.36 633.944 127.227 636.287 127.99L634.95 132.59C631.171 131.416 627.865 129.639 624.897 127.126C625.285 125.781 625.879 124.535 626.485 123.269Z" fill="#B0DD55"/>
<path d="M793.891 97.5771C794.68 97.8671 797.756 100.923 798.391 101.434C799.473 102.307 800.528 103.174 801.53 104.131C800.467 104.37 799.329 104.557 798.319 104.956C794.572 106.432 791.707 109 790.165 112.565L789.626 114.246L786.381 110.163C788.403 105.367 789.508 100.339 793.891 97.5771Z" fill="#D076BD"/>
<path d="M648.495 50.3013L653.08 52.9218L652.701 53.9363C651.312 57.654 649.419 61.0242 646.295 63.7128C645.553 64.3513 644.766 65.0486 643.854 65.4607L639.126 62.5196L641.227 61.4105C645.679 58.9319 647.257 54.7804 648.495 50.3013Z" fill="#F48924"/>
<path d="M605.029 22.5988C606.61 21.2076 607.152 19.8944 607.918 18.0293C608.586 19.4688 609.136 20.8213 610.233 22.0261C610.286 22.2553 610.35 22.4258 610.442 22.6439C610.572 22.954 610.511 23.068 610.516 23.3798C610.525 23.934 611.037 24.4068 611.35 24.8354C610.17 25.6133 609.263 26.426 608.749 27.7423L608.039 29.3654L606.907 26.8571C606.241 25.5869 605.102 24.7734 603.7 24.3437C604.069 23.9944 604.573 23.7382 605 23.4501L605.029 22.5988Z" fill="#F8DF92" fill-opacity="0.831373"/>
<path d="M654.746 132.59C655.139 132.715 655.138 132.842 655.305 133.193C655.752 134.134 655.9 135.183 656.365 136.136C658.146 139.786 665.153 140.933 668.45 143.302L661.048 147.845L660.444 148.119C660.246 148.093 660.233 148.103 660.02 148.011C659.365 147.725 658.519 146.727 657.982 146.224C654.846 143.281 652.26 140.616 650.885 136.551L654.746 132.59Z" fill="#F48924"/>
<path d="M791.642 65.2377C792.883 66.5337 793.929 67.9855 795.16 69.2885C797.776 72.0569 800.884 73.0857 804.676 73.635L801.908 78.583L801.45 79.0105C801.164 79.068 800.933 79.1042 800.64 79.0677C796.057 78.4984 792.059 74.7113 789.45 71.3477L791.642 65.2377Z" fill="#B0DD55"/>
<path d="M696.137 22.5247C696.895 23.0396 697.52 25.9434 697.94 26.8762C698.307 27.6901 698.783 28.5056 699.319 29.2323C701.098 31.6446 704.078 32.7502 707.026 33.2222C705.581 33.717 703.991 34.0604 702.615 34.6904C699.973 35.8985 698.187 38.3551 697.26 40.9261C696.949 41.7905 696.789 42.6955 696.466 43.556L696.316 43.5109L696.155 43.1229C695.651 41.3327 695.194 39.5335 694.162 37.9369C692.001 34.5925 687.798 33.9917 684.122 33.1282C687.527 32.5313 690.561 32.3216 692.952 29.6501L693.142 29.4356C694.892 27.4857 695.486 24.9378 696.137 22.5247Z" fill="#F48924"/>
<path d="M638.716 90.7145C640.031 90.6544 641.273 90.7303 642.479 91.2946C644.125 92.0645 645.416 93.4067 645.96 95.0737C646.549 96.8781 646.349 98.7588 645.376 100.419C644.333 102.197 642.459 102.99 640.482 103.511C639.029 103.661 637.547 103.603 636.237 102.922C634.618 102.081 633.421 100.592 632.904 98.9309C632.411 97.342 632.688 95.2214 633.597 93.8138C634.76 92.0127 636.648 91.2237 638.716 90.7145Z" fill="#7FB532"/>
<path d="M818.538 29.6093C819.868 29.5265 821.323 29.7428 822.471 30.4092C824.099 31.354 825.381 33.1289 825.801 34.8947C826.198 36.5654 825.456 38.5598 824.491 39.9395C823.382 41.5234 821.389 42.279 819.504 42.6567C817.921 42.6881 816.509 42.6364 815.116 41.8118C813.468 40.8362 812.302 39.2047 811.964 37.3975C811.646 35.701 812.083 33.5503 813.192 32.1608C814.538 30.4757 816.393 29.8697 818.538 29.6093Z" fill="#B25826"/>
<path d="M742.395 19.9247C743.153 20.4395 743.778 23.3434 744.198 24.2761C744.565 25.0901 745.041 25.9055 745.577 26.6323C747.356 29.0446 750.336 30.1501 753.284 30.6221C751.84 31.1169 750.249 31.4604 748.873 32.0903C746.231 33.2984 744.445 35.7551 743.518 38.326C743.207 39.1904 743.047 40.0954 742.724 40.9559L742.574 40.9108L742.413 40.5229C741.909 38.7326 736.572 34.8189 735.541 33.2222C733.38 29.8778 734.056 31.3917 730.38 30.5281C733.785 29.9313 736.819 29.7215 739.21 27.05L739.4 26.8356C741.15 24.8856 741.744 22.3377 742.395 19.9247Z" fill="#F48924"/>
<path d="M772.649 18.3144C773.89 19.6104 774.936 21.0622 776.167 22.3652C778.783 25.1336 781.891 26.1624 785.683 26.7116L782.915 31.6597L782.457 32.0871C782.171 32.1447 781.94 32.1809 781.647 32.1444C777.064 31.5751 771.499 29.9958 768.891 26.6323L772.649 18.3144Z" fill="#B0DD55"/>
<path d="M706.476 61.6519C706.869 61.7768 706.868 61.9039 707.035 62.2555C707.482 63.1961 707.63 64.2454 708.095 65.1982C709.876 68.8483 716.723 66.6374 720.02 69.007L712.778 76.907L712.174 77.1812C711.976 77.1551 711.962 77.1648 711.75 77.0725C711.095 76.7869 710.249 75.7893 709.712 75.2856C706.576 72.3434 703.99 69.6784 702.615 65.6135L706.476 61.6519Z" fill="#F48924"/>
<path d="M887.77 69.6734C888.163 69.7983 888.161 69.9254 888.328 70.277C888.775 71.2176 888.923 72.2669 889.388 73.2197C891.169 76.8697 894.892 79.629 898.189 81.9985L894.071 84.9285L893.468 85.2027C893.269 85.1766 893.256 85.1863 893.044 85.094C892.388 84.8084 891.542 83.8108 891.005 83.3071C887.87 80.3649 885.283 77.6999 883.908 73.635L887.77 69.6734Z" fill="#F48924"/>
<g opacity="0.38">
<path d="M905.029 22.5326L905 23.384C904.573 23.6721 904.069 23.9282 903.7 24.2776L901.811 23.7647L905.029 22.5326Z" fill="#F8DF92"/>
<path d="M910.233 21.96C911.238 22.7459 912.413 23.2772 913.61 23.7541L911.35 24.7693C911.037 24.3407 910.525 23.8679 910.516 23.3136C910.511 23.0018 910.572 22.8878 910.442 22.5777C910.35 22.3596 910.286 22.1892 910.233 21.96Z" fill="#F8DF92"/>
<path d="M1030.68 155.805C1030.68 155.266 1030.64 154.747 1030.84 154.232L1031.1 154.033L1031.31 154.335L1031.47 154.301L1060.31 141.977C1060.31 143.532 1049.02 157.894 1044.37 157.894C1044.32 158.915 1031.9 160.088 1031.46 161.037C1030.56 159.452 1030.67 157.538 1030.68 155.805Z" fill="#35A7C3" fill-opacity="0.988235"/>
<path d="M926.485 123.203C927.562 123.754 928.484 124.494 929.531 125.086C931.664 126.293 933.944 127.161 936.287 127.923L934.95 132.524C931.171 131.35 927.865 129.573 924.897 127.06C925.285 125.715 925.879 124.468 926.485 123.203Z" fill="#B0DD55"/>
<path d="M1116.87 104.463C1117.66 104.753 1120.74 107.808 1121.37 108.32C1122.45 109.193 1123.51 110.06 1124.51 111.017C1123.45 111.256 1128.67 119.052 1127.66 119.451C1123.91 120.927 1121.05 123.496 1119.5 127.06L1112.61 121.132L1109.36 117.049C1111.38 112.253 1112.49 107.225 1116.87 104.463Z" fill="#D076BD"/>
<path d="M955.664 51.4283L960.249 54.0487L959.87 55.0633C958.482 58.7809 956.588 62.1511 953.464 64.8397C952.722 65.4783 951.935 66.1755 951.023 66.5877L946.295 63.6466L948.397 62.5375C952.849 60.0589 954.427 55.9074 955.664 51.4283Z" fill="#F48924"/>
<path d="M905.029 22.5326C906.61 21.1415 907.152 19.8282 907.918 17.9631C908.586 19.4027 909.136 20.7552 910.233 21.96C910.286 22.1892 910.35 22.3596 910.442 22.5777C910.572 22.8878 910.511 23.0018 910.516 23.3136C910.525 23.8679 911.037 24.3407 911.35 24.7693C910.17 25.5472 909.263 26.3598 908.749 27.6761L908.039 29.2992L906.907 26.7909C906.241 25.5207 905.102 24.7072 903.7 24.2776C904.069 23.9282 904.573 23.6721 905 23.384L905.029 22.5326Z" fill="#F8DF92" fill-opacity="0.831373"/>
<path d="M964.306 136.07C964.699 136.195 964.697 136.322 964.864 136.674C965.311 137.614 965.459 138.664 965.924 139.616C967.705 143.266 974.712 144.413 978.009 146.782L970.607 151.325L970.004 151.599C969.805 151.573 969.792 151.583 969.58 151.491C968.924 151.205 968.078 150.207 967.541 149.704C964.406 146.762 961.819 144.097 960.444 140.032L964.306 136.07Z" fill="#F48924"/>
<path d="M1101.16 69.518C1102.4 70.814 1103.44 72.2658 1104.68 73.5688C1107.29 76.3372 1110.4 77.366 1114.19 77.9152L1111.42 82.8632L1110.97 83.2907C1110.68 83.3483 1110.45 83.3844 1110.16 83.348C1105.57 82.7787 1101.57 78.9916 1098.97 75.628L1101.16 69.518Z" fill="#B0DD55"/>
<path d="M988.43 24.7693C989.188 25.2841 989.813 28.1879 990.233 29.1207C990.6 29.9346 991.076 30.7501 991.612 31.4768C993.391 33.8892 996.371 34.9947 999.319 35.4667C997.875 35.9615 996.285 36.305 994.908 36.9349C992.266 38.143 990.48 40.5997 989.553 43.1706C989.242 44.035 989.083 44.94 988.759 45.8005L988.609 45.7554L988.448 45.3674C987.944 43.5772 987.487 41.778 986.455 40.1814C984.294 36.837 980.092 36.2363 976.415 35.3727C979.82 34.7759 982.855 34.5661 985.245 31.8946L985.435 31.6801C987.185 29.7302 987.779 27.1823 988.43 24.7693Z" fill="#F48924"/>
<path d="M936.076 81.5397C937.39 81.4796 938.632 81.5555 939.838 82.1198C941.484 82.8896 942.775 84.2319 943.32 85.8989C943.909 87.7033 943.709 89.584 942.735 91.2443C941.693 93.0221 939.819 93.8152 937.841 94.3364C936.388 94.4861 934.907 94.4279 933.597 93.7477C931.977 92.9064 930.78 91.417 930.264 89.7561C929.77 88.1672 930.048 86.0466 930.956 84.639C932.12 82.8379 934.007 82.0489 936.076 81.5397Z" fill="#7FB532"/>
<path d="M1122.93 30.3881C1124.26 30.3052 1125.71 30.5216 1126.86 31.188C1128.49 32.1327 1129.77 33.9077 1130.19 35.6735C1130.59 37.3441 1129.84 39.3385 1128.88 40.7183C1127.77 42.3021 1125.78 43.0578 1123.89 43.4355C1122.31 43.4669 1120.9 43.4152 1119.5 42.5906C1117.86 41.6149 1116.69 39.9835 1116.35 38.1762C1116.03 36.4797 1116.47 34.329 1117.58 32.9396C1118.93 31.2544 1120.78 30.6484 1122.93 30.3881Z" fill="#B25826"/>
<path d="M1047.56 24.21C1048.31 24.7248 1048.94 27.6287 1049.36 28.5615C1049.73 29.3754 1050.2 30.1908 1050.74 30.9176C1052.52 33.3299 1055.5 34.4355 1058.44 34.9074C1057 35.4022 1055.41 35.7457 1054.03 36.3756C1051.39 37.5838 1049.61 40.0404 1048.68 42.6113C1048.37 43.4757 1048.21 44.3807 1047.88 45.2412L1047.73 45.1961L1047.57 44.8082C1047.07 43.0179 1041.73 39.1042 1040.7 37.5075C1038.54 34.1631 1039.22 35.677 1035.54 34.8134C1038.95 34.2166 1041.98 34.0068 1044.37 31.3353L1044.56 31.1209C1046.31 29.1709 1046.9 26.623 1047.56 24.21Z" fill="#F48924"/>
<path d="M1079.4 22.0608C1080.64 23.3568 1081.68 24.8086 1082.91 26.1116C1085.53 28.88 1088.64 29.9087 1092.43 30.458L1089.66 35.406L1089.2 35.8335C1088.92 35.8911 1088.69 35.9272 1088.39 35.8908C1083.81 35.3215 1078.25 33.7422 1075.64 30.3786L1079.4 22.0608Z" fill="#B0DD55"/>
<path d="M976.689 75.715C977.082 75.8399 977.081 75.967 977.248 76.3185C977.695 77.2591 977.842 78.3085 978.308 79.2613C980.089 82.9113 986.936 80.7005 990.233 83.0701L982.991 90.9701L982.387 91.2443C982.189 91.2182 982.175 91.2279 981.963 91.1356C981.308 90.8499 980.462 89.8524 979.925 89.3487C976.789 86.4065 974.202 83.7415 972.828 79.6765L976.689 75.715Z" fill="#F48924"/>
<path d="M1187.77 69.6073C1188.16 69.7321 1188.16 69.8593 1188.33 70.2108C1188.78 71.1514 1188.92 72.2007 1189.39 73.1535C1191.17 76.8036 1194.89 79.5628 1198.19 81.9324L1194.07 84.8624L1193.47 85.1366C1193.27 85.1104 1193.26 85.1202 1193.04 85.0278C1192.39 84.7422 1191.54 83.7446 1191.01 83.2409C1187.87 80.2987 1185.28 77.6338 1183.91 73.5688L1187.77 69.6073Z" fill="#F48924"/>
</g>
<g opacity="0.24">
<path d="M1227.38 17.1748C1228.15 17.6959 1228.78 20.6353 1229.21 21.5795C1229.58 22.4033 1230.06 23.2287 1230.61 23.9644C1232.41 26.4062 1230.96 29.0114 1233.94 29.4891C1235.33 28.8515 1232.48 29.9899 1233.94 29.4891C1231.27 30.712 1229.46 33.1987 1228.52 35.801C1228.21 36.676 1228.04 37.592 1227.72 38.463L1227.56 38.4174L1227.4 38.0247C1226.89 36.2126 1226.43 34.3915 1225.38 32.7753C1223.2 29.39 1218.94 28.7819 1215.22 27.9078C1218.67 27.3037 1221.74 27.0913 1224.16 24.3872L1224.35 24.1701C1226.12 22.1964 1226.72 19.6173 1227.38 17.1748Z" fill="#F48924"/>
<path d="M1267.19 77.0582C1267.96 77.5793 1268.59 80.5187 1269.02 81.4628C1269.39 82.2867 1269.87 83.1121 1270.41 83.8478C1272.21 86.2896 1267.43 87.3135 1270.41 87.7912C1268.95 88.292 1275.14 88.7349 1273.75 89.3725C1271.08 90.5954 1269.27 93.0821 1268.33 95.6844C1268.01 96.5594 1267.85 97.4754 1267.53 98.3464L1267.37 98.3008L1267.21 97.9081C1266.7 96.096 1266.24 94.2748 1265.19 92.6587C1263.01 89.2734 1258.75 88.6653 1255.03 87.7912C1260.92 89.3725 1261.55 86.9747 1263.97 84.2706L1264.16 84.0535C1265.93 82.0798 1266.53 79.5007 1267.19 77.0582Z" fill="#F48924"/>
<path d="M1471.58 69.8101C1472.84 71.122 1473.9 72.5915 1475.15 73.9105C1477.79 76.7127 1480.94 77.754 1484.78 78.31L1481.98 83.3185L1481.51 83.7512C1481.22 83.8095 1480.99 83.846 1480.69 83.8092C1476.05 83.2329 1472.01 79.3995 1469.37 75.9948L1471.58 69.8101Z" fill="#B0DD55"/>
<path d="M1282.62 146.106C1283.02 146.233 1283.02 146.361 1283.19 146.717C1283.64 147.669 1283.79 148.731 1284.26 149.696C1286.06 153.39 1285.66 157.508 1289 159.906V161.548L1288.39 161.825C1288.19 161.799 1288.18 161.809 1287.96 161.715C1287.3 161.426 1286.44 160.416 1285.9 159.906C1282.72 156.928 1280.11 154.231 1278.71 150.116L1282.62 146.106Z" fill="#F48924"/>
<path d="M1267.19 77.0582C1267.96 77.5793 1268.59 80.5187 1269.02 81.4628C1269.39 82.2867 1269.87 83.1121 1270.41 83.8478C1272.21 86.2896 1267.43 87.3135 1270.41 87.7912C1268.95 88.292 1275.14 88.7349 1273.75 89.3725C1271.08 90.5954 1269.27 93.0821 1268.33 95.6844C1268.01 96.5594 1267.85 97.4754 1267.53 98.3464L1267.37 98.3008L1267.21 97.9081C1266.7 96.096 1266.24 94.2748 1265.19 92.6587C1263.01 89.2734 1258.75 88.6653 1255.03 87.7912C1260.92 89.3725 1261.55 86.9747 1263.97 84.2706L1264.16 84.0535C1265.93 82.0798 1266.53 79.5007 1267.19 77.0582Z" fill="#F48924"/>
</g>
<path d="M370.366 49.8327L370.337 50.6852C369.91 50.9737 369.405 51.2302 369.035 51.58L367.144 51.0664L370.366 49.8327Z" fill="#F8DF92"/>
<path d="M375.578 49.2593C376.584 50.0463 377.76 50.5782 378.959 51.0559L376.696 52.0723C376.382 51.6432 375.87 51.1698 375.861 50.6147C375.855 50.3025 375.916 50.1884 375.786 49.8778C375.695 49.6595 375.63 49.4888 375.578 49.2593Z" fill="#F8DF92"/>
<path d="M449.967 139.878C449.965 139.337 449.927 138.818 450.127 138.302L450.385 138.103L450.597 138.406L450.756 138.372L460.227 132.057C460.225 133.614 455.785 141.969 451.127 141.969C451.076 142.992 451.185 144.166 450.751 145.116C449.847 143.53 449.962 141.613 449.967 139.878Z" fill="#35A7C3" fill-opacity="0.988235"/>
<path d="M396.668 129.038C397.746 129.591 398.67 130.331 399.718 130.924C401.854 132.133 404.137 133.002 406.483 133.765L405.144 138.372C401.36 137.196 398.049 135.417 395.077 132.9C395.466 131.554 396.061 130.306 396.668 129.038Z" fill="#B0DD55"/>
<path d="M518.167 123.213C518.958 123.504 519.511 124.021 520.147 124.534C521.23 125.407 522.287 126.276 523.291 127.234C522.226 127.474 521.086 127.661 520.075 128.06C516.323 129.538 513.454 132.11 511.91 135.679L511.37 137.363L508.121 133.274C510.145 128.471 513.779 125.979 518.167 123.213Z" fill="#D076BD"/>
<path d="M371.791 71.6429L376.382 74.2668L376.003 75.2828C374.612 79.0054 372.716 82.3801 369.588 85.0723C368.845 85.7117 368.057 86.4099 367.144 86.8227L362.409 83.8776L364.514 82.767C368.972 80.285 370.552 76.128 371.791 71.6429Z" fill="#F48924"/>
<path d="M370.366 49.8327C371.95 48.4397 372.492 47.1247 373.259 45.2571C373.928 46.6986 374.479 48.0529 375.578 49.2593C375.63 49.4888 375.695 49.6595 375.786 49.8778C375.916 50.1884 375.855 50.3025 375.861 50.6147C375.87 51.1698 376.382 51.6432 376.696 52.0723C375.514 52.8513 374.606 53.665 374.092 54.9831L373.38 56.6084L372.247 54.0967C371.58 52.8248 370.44 52.0103 369.035 51.58C369.405 51.2302 369.91 50.9737 370.337 50.6852L370.366 49.8327Z" fill="#F8DF92" fill-opacity="0.831373"/>
<path d="M416.043 136.498C416.436 136.623 416.435 136.75 416.602 137.102C417.05 138.044 417.198 139.095 417.663 140.049C419.447 143.704 423.175 146.466 426.476 148.839L422.353 151.773L421.748 152.048C421.55 152.022 421.536 152.031 421.324 151.939C420.667 151.653 419.82 150.654 419.283 150.15C416.143 147.203 413.553 144.535 412.176 140.464L416.043 136.498Z" fill="#F48924"/>
<path d="M473.567 79.6227C474.81 80.9205 475.857 82.3742 477.09 83.679C479.709 86.4511 482.821 87.4812 486.618 88.0313L483.847 92.9859L483.388 93.414C483.102 93.4716 482.871 93.5078 482.577 93.4713C477.988 92.9013 473.984 89.109 471.373 85.741L473.567 79.6227Z" fill="#B0DD55"/>
<path d="M415.175 43.7775C415.934 44.293 416.56 47.2008 416.981 48.1348C417.348 48.9498 417.825 49.7664 418.362 50.4941C420.143 52.9096 423.127 54.0167 426.079 54.4893C424.632 54.9848 423.04 55.3287 421.662 55.9595C419.016 57.1692 417.227 59.6292 416.3 62.2036C415.988 63.0691 415.828 63.9753 415.504 64.837L415.354 64.7919L415.193 64.4034C414.689 62.6107 414.231 60.8091 413.198 59.2103C411.034 55.8614 406.825 55.2599 403.144 54.3952C406.553 53.7975 409.592 53.5875 411.986 50.9124L412.176 50.6977C413.929 48.7451 414.523 46.1938 415.175 43.7775Z" fill="#F48924"/>
<path d="M380.443 101.683C381.759 101.623 383.003 101.699 384.211 102.264C385.858 103.035 387.151 104.379 387.697 106.048C388.287 107.855 388.086 109.738 387.111 111.401C386.067 113.181 384.191 113.975 382.211 114.497C380.756 114.647 379.272 114.589 377.961 113.907C376.339 113.065 375.14 111.574 374.623 109.91C374.129 108.319 374.407 106.196 375.317 104.786C376.482 102.983 378.372 102.193 380.443 101.683Z" fill="#7FB532"/>
<path d="M500.848 49.6907C502.18 49.6077 503.637 49.8243 504.787 50.4916C506.417 51.4376 507.701 53.215 508.121 54.9831C508.519 56.656 507.775 58.6531 506.809 60.0347C505.699 61.6207 503.703 62.3774 501.816 62.7556C500.231 62.7871 498.816 62.7353 497.421 61.9095C495.771 60.9326 494.604 59.2989 494.265 57.4893C493.947 55.7905 494.384 53.6369 495.495 52.2456C496.843 50.5582 498.7 49.9513 500.848 49.6907Z" fill="#B25826"/>
<path d="M444.641 28.7131C445.399 29.2286 446.025 32.1364 446.446 33.0704C446.813 33.8854 447.29 34.7019 447.827 35.4297C449.608 37.8452 452.592 38.9523 455.544 39.4249C454.098 39.9203 452.505 40.2643 451.127 40.8951C448.482 42.1048 446.693 44.5647 445.765 47.1391C445.453 48.0047 445.294 48.9109 444.97 49.7726L444.819 49.7274L444.659 49.3389C444.154 47.5463 443.696 45.7447 442.663 44.1459C440.499 40.797 436.291 40.1955 432.609 39.3308C436.019 38.7331 439.057 38.523 441.451 35.848L441.642 35.6332C443.394 33.6807 443.988 31.1294 444.641 28.7131Z" fill="#F48924"/>
<path d="M476.339 26.9521C477.582 28.2499 478.628 29.7037 479.861 31.0084C482.481 33.7805 485.593 34.8106 489.39 35.3607L486.618 40.3153L486.159 40.7434C485.873 40.801 485.642 40.8372 485.349 40.8007C480.76 40.2307 476.756 36.4384 474.144 33.0704L476.339 26.9521Z" fill="#B0DD55"/>
<path d="M418.243 86.8227C418.637 86.9477 418.635 87.075 418.802 87.427C419.25 88.3689 419.398 89.4196 419.864 90.3737C421.647 94.0286 425.375 96.7916 428.677 99.1643L424.553 102.098L423.949 102.373C423.75 102.347 423.737 102.356 423.524 102.264C422.868 101.978 422.02 100.979 421.483 100.475C418.343 97.5285 415.753 94.8599 414.376 90.7895L418.243 86.8227Z" fill="#F48924"/>
<path d="M527.157 86.8227C527.551 86.9477 527.549 87.075 527.717 87.427C528.164 88.3688 528.312 89.4196 528.778 90.3737C530.561 94.0286 534.289 96.7916 537.591 99.1643L533.467 102.098L532.863 102.373C532.664 102.347 532.651 102.356 532.438 102.264C531.782 101.978 530.935 100.979 530.397 100.475C527.257 97.5285 524.667 94.8599 523.291 90.7895L527.157 86.8227Z" fill="#F48924"/>
<g opacity="0.22">
<path d="M149.521 95.1285L149.491 95.9809C149.064 96.2695 148.56 96.5259 148.19 96.8757L146.298 96.3622L149.521 95.1285Z" fill="#F8DF92"/>
<path d="M154.732 94.5551C155.738 95.3421 156.914 95.874 158.113 96.3516L155.85 97.3681C155.537 96.9389 155.025 96.4655 155.015 95.9105C155.01 95.5983 155.071 95.4841 154.941 95.1736C154.849 94.9553 154.785 94.7845 154.732 94.5551Z" fill="#F8DF92"/>
<path d="M154.262 115.864C154.259 115.323 154.221 114.804 154.422 114.288L154.679 114.089L154.891 114.392L155.05 114.358L164.522 108.043C164.52 109.6 160.08 117.955 155.422 117.955C155.37 118.978 155.48 120.152 155.045 121.102C154.142 119.516 154.257 117.599 154.262 115.864Z" fill="#35A7C3" fill-opacity="0.988235"/>
<path d="M135.062 107.762C136.14 108.314 137.063 109.055 138.111 109.648C140.248 110.857 142.531 111.725 144.877 112.489L143.538 117.095C139.753 115.92 136.443 114.14 133.471 111.624C133.86 110.278 134.454 109.029 135.062 107.762Z" fill="#B0DD55"/>
<path d="M170.778 95.5773C171.569 95.8677 172.122 96.3852 172.758 96.8976C173.841 97.7712 174.898 98.6401 175.902 99.5984C174.837 99.8376 173.698 100.025 172.686 100.424C168.934 101.902 166.065 104.474 164.522 108.043L163.982 109.727L160.733 105.638C162.757 100.835 166.39 98.3432 170.778 95.5773Z" fill="#D076BD"/>
<path d="M144.842 76.8943L149.433 79.5183L149.053 80.5342C147.663 84.2568 145.767 87.6316 142.639 90.3238C141.896 90.9632 141.108 91.6614 140.195 92.0741L135.46 89.1291L137.565 88.0184C142.022 85.5365 143.602 81.3795 144.842 76.8943Z" fill="#F48924"/>
<path d="M149.521 95.1285C151.104 93.7355 151.646 92.4204 152.414 90.5528C153.083 91.9943 153.633 93.3486 154.732 94.5551C154.785 94.7845 154.849 94.9553 154.941 95.1736C155.071 95.4841 155.01 95.5983 155.015 95.9105C155.025 96.4655 155.537 96.9389 155.85 97.3681C154.669 98.147 153.761 98.9608 153.246 100.279L152.535 101.904L151.401 99.3924C150.735 98.1206 149.594 97.306 148.19 96.8757C148.56 96.5259 149.064 96.2695 149.491 95.9809L149.521 95.1285Z" fill="#F8DF92" fill-opacity="0.831373"/>
<path d="M144.501 98.033C144.894 98.158 144.893 98.2853 145.06 98.6373C145.508 99.5792 145.656 100.63 146.121 101.584C147.905 105.239 151.633 108.002 154.934 110.375L150.811 113.309L150.206 113.583C150.008 113.557 149.994 113.567 149.782 113.474C149.125 113.188 148.278 112.189 147.741 111.685C144.601 108.739 142.011 106.07 140.634 102L144.501 98.033Z" fill="#F48924"/>
<path d="M155.824 78.3202C157.067 79.618 158.114 81.0717 159.347 82.3765C161.966 85.1486 165.078 86.1787 168.875 86.7287L166.104 91.6834L165.645 92.1115C165.359 92.1691 165.127 92.2053 164.834 92.1688C160.245 91.5987 156.241 87.8065 153.629 84.4384L155.824 78.3202Z" fill="#B0DD55"/>
<path d="M136.232 65.3398C136.991 65.8553 137.617 68.7631 138.038 69.6971C138.405 70.5121 138.882 71.3287 139.419 72.0564C141.2 74.4719 144.184 75.579 147.136 76.0516C145.689 76.547 144.097 76.891 142.719 77.5218C140.073 78.7315 138.284 81.1915 137.357 83.7659C137.045 84.6314 136.885 85.5376 136.561 86.3993L136.411 86.3541L136.25 85.9657C135.746 84.173 135.288 82.3714 134.255 80.7726C132.091 77.4237 127.882 76.8222 124.201 75.9575C127.61 75.3598 130.649 75.1498 133.043 72.4747L133.233 72.26C134.986 70.3074 135.58 67.7561 136.232 65.3398Z" fill="#F48924"/>
<path d="M128.213 94.7827C129.53 94.7225 130.773 94.7986 131.981 95.3636C133.629 96.1345 134.922 97.4785 135.467 99.1478C136.057 100.955 135.857 102.838 134.881 104.5C133.838 106.281 131.961 107.075 129.981 107.597C128.526 107.746 127.042 107.688 125.731 107.007C124.109 106.165 122.911 104.673 122.394 103.01C121.899 101.419 122.177 99.2956 123.087 97.8862C124.252 96.0827 126.142 95.2926 128.213 94.7827Z" fill="#7FB532"/>
<path d="M168.281 67.848C169.613 67.765 171.07 67.9817 172.22 68.6489C173.85 69.595 175.134 71.3723 175.554 73.1405C175.952 74.8134 175.208 76.8104 174.242 78.192C173.132 79.778 171.136 80.5347 169.249 80.9129C167.663 80.9444 166.249 80.8926 164.854 80.0669C163.204 79.0899 162.037 77.4563 161.698 75.6466C161.38 73.9478 161.817 71.7942 162.928 70.4029C164.275 68.7155 166.133 68.1087 168.281 67.848Z" fill="#B25826"/>
<path d="M146.537 59.6048C147.295 60.1203 147.921 63.0281 148.342 63.9621C148.71 64.7771 149.186 65.5937 149.723 66.3214C151.504 68.737 154.488 69.844 157.44 70.3166C155.994 70.8121 154.401 71.156 153.023 71.7868C150.378 72.9966 148.589 75.4565 147.661 78.0309C147.349 78.8964 147.19 79.8027 146.866 80.6643L146.715 80.6192L146.555 80.2307C146.05 78.438 145.592 76.6365 144.559 75.0376C142.395 71.6888 138.187 71.0872 134.505 70.2225C137.915 69.6249 140.953 69.4148 143.347 66.7397L143.538 66.525C145.29 64.5724 145.884 62.0211 146.537 59.6048Z" fill="#F48924"/>
<path d="M155.824 57.8975C157.067 59.1952 158.114 60.649 159.347 61.9537C161.966 64.7258 165.078 65.756 168.875 66.306L166.104 71.2606L165.645 71.6887C165.359 71.7463 165.127 71.7825 164.834 71.7461C160.245 71.176 156.241 67.3838 153.629 64.0157L155.824 57.8975Z" fill="#B0DD55"/>
<path d="M130.802 84.381C131.195 84.5061 131.194 84.6333 131.361 84.9854C131.809 85.9272 131.957 86.978 132.422 87.9321C134.206 91.587 137.933 94.3499 141.235 96.7227L137.112 99.6566L136.507 99.9312C136.309 99.905 136.295 99.9148 136.083 99.8223C135.426 99.5363 134.579 98.5374 134.042 98.033C130.902 95.0868 128.312 92.4183 126.935 88.3479L130.802 84.381Z" fill="#F48924"/>
<path d="M167.415 81.8179C167.809 81.943 167.807 82.0702 167.975 82.4222C168.422 83.3641 168.57 84.4149 169.036 85.369C170.819 89.0239 174.547 91.7868 177.849 94.1596L173.725 97.0935L173.121 97.3681C172.922 97.3419 172.909 97.3517 172.696 97.2592C172.04 96.9732 171.193 95.9743 170.655 95.4699C167.515 92.5237 164.925 89.8552 163.549 85.7848L167.415 81.8179Z" fill="#F48924"/>
</g>
</svg>
