<svg width="42" height="42" viewBox="0 0 42 42" fill="none" xmlns="http://www.w3.org/2000/svg">
<path d="M10.6231 3.37555L10.5173 3.28932C10.2447 3.05584 10.0188 2.74504 9.99844 2.37378C9.97675 1.97633 10.0543 1.65968 10.3336 1.36311C10.5674 1.11487 10.929 0.975284 11.2688 0.980097C11.5995 0.984807 11.9291 1.13837 12.1622 1.36616C12.3891 1.58784 12.5414 1.95154 12.5345 2.27197C12.5246 2.73665 12.3207 3.03773 11.9928 3.34155C11.7461 3.44988 11.4929 3.56706 11.2174 3.5271C11.0492 3.50272 10.9067 3.47757 10.7463 3.41955L10.6231 3.37555Z" fill="#F38922"/>
<path d="M26.1187 23.1748C26.306 23.0813 26.4841 22.9683 26.6702 22.8719C29.4683 21.4246 32.097 19.7858 34.5601 17.8167C35.5209 17.0485 36.4508 16.2274 37.3557 15.395C37.7961 14.9898 38.2212 14.5628 38.6676 14.1651C38.7289 14.1105 38.7652 14.0885 38.8457 14.0714C38.3061 14.7934 37.6987 15.4282 37.0862 16.0872C35.1328 18.1887 32.9381 20.0774 30.5858 21.7191C29.8495 22.2329 29.1093 22.7371 28.337 23.196C27.3621 23.7752 26.3416 24.294 25.3188 24.7827C25.4971 24.2518 25.789 23.7198 26.0577 23.2288L26.1187 23.1748Z" fill="#8C8C8C"/>
<path d="M12.0181 36.9119C14.5728 36.9908 17.0741 37.7767 19.3951 38.806C20.3327 39.2218 21.2521 39.7013 22.1709 40.158L18.6768 41.0477C15.2074 41.7956 11.6136 42.0114 8.08117 41.6935C6.45002 41.5467 4.82949 41.2949 3.25605 40.8336C2.82915 40.7085 2.40396 40.57 1.98555 40.4189C1.63199 40.2913 1.28666 40.1652 0.969238 39.9604C1.60032 39.6016 2.2167 39.2336 2.869 38.9119C5.3289 37.6986 7.91767 37.0751 10.6494 36.922L10.6479 37.7773C9.93638 37.782 9.22419 37.848 8.51749 37.9259C6.98877 38.0942 5.49582 38.3861 4.02828 38.8478C3.43834 39.0334 2.8688 39.2176 2.31338 39.4934C3.40956 39.7604 4.47386 40.0818 5.58675 40.2869C6.89136 40.5273 8.21196 40.651 9.53489 40.7281C12.3112 40.89 15.1286 40.6902 17.8625 40.1916C18.7755 40.0251 19.6668 39.7891 20.5684 39.5755C20.1009 39.3551 19.5848 39.2122 19.0918 39.0585C18.6241 38.9127 18.1611 38.7635 17.6867 38.6382C16.438 38.3082 15.1598 38.0954 13.8777 37.9491C13.2682 37.8795 12.6452 37.8801 12.0404 37.7998L12.0264 37.4319L12.0181 36.9119Z" fill="#6FA138"/>
<path d="M12.0264 37.4319L12.0404 37.7998C12.6452 37.8801 13.2682 37.8795 13.8777 37.9491C15.1598 38.0954 16.438 38.3082 17.6867 38.6382C18.1611 38.7635 18.6241 38.9127 19.0918 39.0585C19.5848 39.2122 20.1009 39.3551 20.5684 39.5755C19.6668 39.7891 18.7755 40.0251 17.8625 40.1916C15.1286 40.6902 12.3112 40.89 9.53489 40.7281C8.21196 40.651 6.89136 40.5273 5.58675 40.2869C4.47386 40.0818 3.40956 39.7604 2.31338 39.4934C2.8688 39.2176 3.43834 39.0334 4.02828 38.8478C5.49582 38.3861 6.98877 38.0942 8.51749 37.9259C9.22419 37.848 9.93638 37.782 10.6479 37.7773C10.6468 38.1194 10.6461 38.4615 10.647 38.8036C10.6475 39.0306 10.6356 39.2553 10.6891 39.4776C10.8908 39.742 11.0299 39.8185 11.3494 39.8825C11.4357 39.8582 11.5349 39.8369 11.6132 39.7926C11.7815 39.6975 11.9832 39.5163 12.02 39.3158L12.0278 39.2659C12.07 39.0163 12.0293 38.754 12.0256 38.5024C12.0203 38.1459 12.0254 37.7885 12.0264 37.4319Z" fill="#54811F"/>
<path d="M22.3951 17.9288L23.8199 17.6935C23.8488 17.8736 23.9435 18.0314 24.0175 18.1959C24.1352 18.4578 24.2442 18.7243 24.3587 18.9877C24.7425 19.8697 25.1254 20.753 25.5023 21.6378C25.6631 22.0155 25.8133 22.3984 25.9681 22.7787C26.0207 22.9083 26.0586 23.0496 26.1187 23.1748L26.0577 23.2288C25.789 23.7198 25.4971 24.2518 25.3188 24.7827C25.1865 24.7816 24.5145 24.2784 24.3552 24.1767C23.3982 23.5655 22.4514 22.964 21.4432 22.4375C19.2224 21.2779 16.6178 20.419 14.0959 20.4184C13.4624 20.4182 12.6295 20.4313 12 20.5C12.211 20.2817 12.8001 20.2546 13.0811 20.1452C14.1108 19.7442 15.1554 19.4139 16.2269 19.1444L21.8955 17.9958L22.3742 17.9312L22.3951 17.9288Z" fill="#A3A3A3"/>
<path d="M21.8955 17.9958L22.3742 17.9312L22.5241 21.1959C21.1405 20.5196 19.7315 19.947 18.2382 19.5616C17.5751 19.3905 16.8854 19.3227 16.2269 19.1444L21.8955 17.9958Z" fill="#C9C9C9"/>
<path d="M22.3951 17.9288L23.8199 17.6935C23.8488 17.8736 23.9435 18.0314 24.0175 18.1959C24.1352 18.4578 24.2442 18.7243 24.3587 18.9877C24.7425 19.8697 25.1254 20.753 25.5023 21.6378C25.6631 22.0155 25.8133 22.3984 25.9681 22.7787C26.0207 22.9083 26.0586 23.0496 26.1187 23.1748L26.0577 23.2288C25.6948 22.9601 25.2409 22.7427 24.8452 22.5195C24.07 22.0822 23.2908 21.6475 22.5241 21.1959L22.3742 17.9312L22.3951 17.9288Z" fill="#B6B6B6"/>
<path d="M10.6231 3.37555L10.7463 3.41955C10.9067 3.47757 11.0492 3.50272 11.2174 3.5271C11.4929 3.56706 11.7461 3.44988 11.9928 3.34155L12.0042 3.96999L11.9944 5.38614C11.9916 8.88331 11.9933 12.3805 11.9938 15.8776C11.9939 16.9518 11.9942 18.026 11.994 19.1001C11.9939 19.5856 12.038 20.1177 11.984 20.5988L12.0031 20.6415L12.0181 36.9119L12.0264 37.4319C12.0254 37.7885 12.0203 38.1459 12.0256 38.5024C12.0293 38.754 12.07 39.0163 12.0278 39.2659L12.02 39.3158C11.9832 39.5163 11.7815 39.6975 11.6132 39.7926C11.5349 39.8369 11.4357 39.8582 11.3494 39.8825C11.0299 39.8185 10.8908 39.742 10.6891 39.4776C10.6356 39.2553 10.6475 39.0306 10.647 38.8036C10.6461 38.4615 10.6468 38.1194 10.6479 37.7773L10.6494 36.922L10.6231 3.37555Z" fill="#653225"/>
<path d="M35.8527 14.3109C36.5218 13.9526 37.2526 13.714 37.9241 13.3499C38.3967 13.0935 38.8566 12.8228 39.3141 12.5403C39.6695 12.3208 40.0405 12.0518 40.4254 11.8944C40.0878 12.4205 39.7012 12.9116 39.3289 13.4129C39.1688 13.6284 39.0261 13.8744 38.8457 14.0714C38.7652 14.0885 38.7289 14.1105 38.6676 14.1651C38.2212 14.5628 37.7961 14.9898 37.3557 15.395C36.4508 16.2274 35.5209 17.0485 34.5601 17.8167C32.097 19.7858 29.4683 21.4246 26.6702 22.8719C26.4841 22.9683 26.306 23.0813 26.1187 23.1748C26.0586 23.0496 26.0207 22.9083 25.9681 22.7787C25.8133 22.3984 25.6631 22.0155 25.5023 21.6378C25.1254 20.753 24.7425 19.8697 24.3587 18.9877C24.2442 18.7243 24.1352 18.4578 24.0175 18.1959C23.9435 18.0314 23.8488 17.8736 23.8199 17.6935C24.6209 17.5411 25.4321 17.4497 26.2338 17.2941C28.7341 16.8088 31.1794 16.1589 33.5783 15.3013C34.022 15.1427 34.4611 14.9803 34.8962 14.7991C35.2402 14.6559 35.5475 14.5273 35.8527 14.3109Z" fill="#CBCBCB"/>
<path d="M12.0031 20.6415C11.9946 13.5155 11.9633 15.6769 12.0031 20.6415Z" fill="#6FA138"/>
<path d="M12.0042 3.96999C12.7932 3.79816 13.5958 3.64402 14.4001 3.56731C16.9025 3.32861 19.4056 3.69091 21.7506 4.59341C22.4058 4.84558 23.0408 5.15385 23.6687 5.4675C24.6064 5.93606 25.5239 6.43196 26.4064 6.99927C27.9164 7.97004 29.3673 9.04541 30.9264 9.9372C32.8068 11.0128 34.874 11.7294 37.0595 11.7234C37.8627 11.7211 38.6794 11.6107 39.4634 11.4412L41.1694 10.908L40.741 11.4425L40.4254 11.8944C40.0405 12.0518 39.6695 12.3208 39.3141 12.5403C38.8566 12.8228 38.3967 13.0935 37.9241 13.3499C37.2526 13.714 36.5218 13.9526 35.8527 14.3109C35.5475 14.5273 35.2402 14.6559 34.8962 14.7991C34.4611 14.9803 34.022 15.1427 33.5783 15.3013C31.1794 16.1589 28.7341 16.8088 26.2338 17.2941C25.4321 17.4497 24.6209 17.5411 23.8199 17.6935L22.3951 17.9288L22.3983 14.978L22.3976 12.9665L22.4158 9.82546L22.3668 9.79093C22.1674 9.99533 21.9985 10.2296 21.8205 10.4524C21.4022 10.9762 21.0148 11.5041 20.6227 12.047L17.2463 10.5391L11.9944 5.38614L12.0042 3.96999Z" fill="#F0F0F0"/>
<path d="M22 9.5C22.2371 9.62546 22.774 10.3597 23 10.5C23.3826 10.7375 24.6067 11.7784 25 12C27.1336 13.2017 28.6896 13.7752 31.1151 14.3555C32.0871 14.588 33.0731 14.7131 34.0743 14.7549C34.5194 14.7734 34.9869 14.7151 35.4262 14.6486C35.6134 14.6203 35.8107 14.5643 36.0002 14.5662C35.6918 14.7716 35.3811 14.8936 35.0336 15.0296C34.5939 15.2015 34.1501 15.3557 33.7016 15.5062C31.2772 16.3202 28.8059 16.937 26.279 17.3976C25.4687 17.5453 24.6489 17.6321 23.8394 17.7767L22.3994 18L22 9.5Z" fill="#DADADA"/>
<path d="M12.0042 3.96999C12.7932 3.79816 13.5958 3.64402 14.4001 3.56731C16.9025 3.32861 19.4056 3.69091 21.7506 4.59341C22.4058 4.84558 23.0408 5.15385 23.6687 5.4675C24.6064 5.93606 25.5239 6.43196 26.4064 6.99927C27.9164 7.97004 29.3673 9.04541 30.9264 9.9372C32.8068 11.0128 34.874 11.7294 37.0595 11.7234C37.8627 11.7211 38.6794 11.6107 39.4634 11.4412L41.1694 10.908L40.741 11.4425C40.2769 11.5901 39.8162 11.9114 39.3788 12.1283C39.002 12.3152 38.5905 12.4569 38.1908 12.5873C37.4929 12.8148 36.7929 12.9846 36.0597 13.0529C32.0823 13.4233 28.7553 10.5785 25.663 8.51303C25.01 8.07682 24.3281 7.66871 23.6425 7.2857C23.1397 7.00481 22.6091 6.77506 22.0819 6.54753C21.4838 6.28946 20.8837 6.03104 20.2643 5.82727C19.018 5.41719 17.6805 5.15964 16.3709 5.07606C15.0817 4.99381 13.8122 5.10768 12.5371 5.29163C13.468 5.63763 14.4289 5.89704 15.3576 6.25779C17.8058 7.20858 19.8437 8.12909 22.0819 9.5C21.8825 9.70439 22.5448 17.7772 22.3668 18C21.9485 18.5238 15.8923 18.9571 15.5003 19.5L12.0042 20.5L11.9944 5.38614L12.0042 3.96999Z" fill="white"/>
<path d="M13.0002 6H15.0002V8H13.0002V6Z" fill="#4B4B4B"/>
<path d="M13.0002 6H15.0002V8H13.0002V6Z" fill="#4B4B4B"/>
<path d="M15.0002 8H17.0002V10H15.0002V8Z" fill="#4B4B4B"/>
<path d="M17.0002 6H19.0002V8H17.0002V6Z" fill="#4B4B4B"/>
<path d="M15.0002 4L17.0002 4.5V6H15.0002V4Z" fill="#4B4B4B"/>
<path d="M21.0002 6H22.5002L23.0002 8H21.0002V6Z" fill="#4B4B4B"/>
<path d="M19.0002 8L21.0002 8V10H19.0002V8Z" fill="#4B4B4B"/>
<path d="M21.0002 10H23.0002V12H21.0002V10Z" fill="#4B4B4B"/>
<path d="M23.0002 8L24.5002 8.5L25.0002 10H23.0002V8Z" fill="#4B4B4B"/>
<path d="M25.0002 10L26.5002 10.5L27.0002 12H25L25.0002 10Z" fill="#4B4B4B"/>
<path d="M26.0002 9H27.5002L29.0002 10L26.5002 10.5L26.0002 9Z" fill="#4B4B4B"/>
<path d="M27.0002 12H29.0002V14H27.0002V12Z" fill="#4B4B4B"/>
<path d="M29.0002 10C29.0002 10 30.0002 10.5 30.5002 10.5C31.0002 10.5 32.0002 12 32.0002 12H29.0002V10Z" fill="#4B4B4B"/>
<path d="M29.0002 14H31.5002L31.0002 16H29.0002V14Z" fill="#4B4B4B"/>
<path d="M29.0002 18H31.0002C31.0002 18 30.5002 19.5 30.5002 20C30.5002 20.5 29.0002 20 29.0002 20V18Z" fill="#4B4B4B"/>
<path d="M31.0002 16H34.0002L32.5002 17.5L31.0002 18V16Z" fill="#4B4B4B"/>
<path d="M32.0002 12L34.0005 12.5V14H31.5002L32.0002 12Z" fill="#4B4B4B"/>
<path d="M34.0005 14L37.0004 13.5L35.5004 16L34.0002 16L34.0005 14Z" fill="#4B4B4B"/>
<path d="M17.0002 10H19.0002V12H17.0002V10Z" fill="#4B4B4B"/>
<path d="M17.0002 14H19.0002V16H17.0002V14Z" fill="#4B4B4B"/>
<path d="M19.0002 12H21.0002V14H19.0002V12Z" fill="#4B4B4B"/>
<path d="M19.0002 16H21.0002V18H19.0002V16Z" fill="#4B4B4B"/>
<path d="M21.0002 14H23.0002V16H21.0002V14Z" fill="#4B4B4B"/>
<path d="M23.0002 12H25L25.0002 14H23.0002V12Z" fill="#4B4B4B"/>
<path d="M23.0002 16H25.0002V18H23.0002V16Z" fill="#4B4B4B"/>
<path d="M25.0002 14H27.0002V16H25.0002V14Z" fill="#4B4B4B"/>
<path d="M27.0002 16H29.0002V18H27.0002V16Z" fill="#4B4B4B"/>
<path d="M25.0002 18H27.0002V20H25.0002V18Z" fill="#4B4B4B"/>
<path d="M23.0002 20H25.0002V22H23.0002V20Z" fill="#4B4B4B"/>
<path d="M27.0002 20H29.0002C29.0002 20 29.0002 21.5 28.5002 21.5C28.0002 21.5 27.0002 22 27.0002 22V20Z" fill="#4B4B4B"/>
<path d="M21.0002 18H23.0002V20H21.0002V18Z" fill="#4B4B4B"/>
<path d="M17.0002 18H19.0002L18.5002 19.5L17.0002 20V18Z" fill="#4B4B4B"/>
<path d="M15.0002 12H17.0002V14H15.0002V12Z" fill="#4B4B4B"/>
<path d="M15.0002 16H17.0002V18H15.0002V16Z" fill="#4B4B4B"/>
<path d="M13.0002 10H15.0002V12H13.0002V10Z" fill="#4B4B4B"/>
<path d="M13.0002 14H15.0002V16H13.0002V14Z" fill="#4B4B4B"/>
<path d="M13.0002 18H15.0002C15.0002 18 15.0002 20 14.5002 20C14.0002 20 13.0002 20 13.0002 20V18Z" fill="#4B4B4B"/>
</svg>
