<svg width="72" height="65" viewBox="0 0 72 65" fill="none" xmlns="http://www.w3.org/2000/svg">
<path d="M39.0067 10.7276L39.7796 11.2135L40.1774 11.4707L41.0213 12.0435L41.4384 12.3349L42.2452 12.9253L43.3056 13.753L43.6419 14.0294L44.3622 14.594L44.7329 14.8784L45.5426 15.4705L45.9593 15.7694L46.883 16.407L47.3606 16.7288L48.4277 17.4285L48.982 17.7863L59.2459 23.9546L59.7636 24.2605L60.6312 24.7848L61.0416 25.0336L61.7179 25.4569L62.0368 25.6614L62.548 26.0062L62.7888 26.1703L63.167 26.4551L63.3413 26.5929L63.6155 26.8418L64.1973 27.5408L64.3497 27.7786L64.6362 28.3408L64.7749 28.6367L65.0292 29.2968L65.2809 29.9749L65.6691 31.5134L65.8399 32.2928L66.041 33.8801L66.078 36.0912L66.06 36.3756L65.5498 39.016L65.1689 39.8228L65.0578 40.0387L64.7914 40.5346L64.311 41.3934L64.1228 41.7244L63.8051 42.2764L63.6539 42.5355L63.3927 42.9607L63.2674 43.1608L63.0385 43.4881L62.9293 43.6392L62.7166 43.8904L62.5017 44.1248L62.0242 44.4658L61.0586 44.9751L60.7935 45.0996L60.1901 45.4776L59.8738 45.6854L59.19 46.2115L58.8384 46.4883L58.1043 47.137L56.9739 48.2232L56.3416 48.8638L55.0691 50.0087L54.431 50.557L53.144 51.5154L52.4957 51.9724L51.18 52.7556L50.5167 53.1227L49.1666 53.7274L48.4837 54.0059L47.0882 54.4375L46.387 54.632L44.9399 54.8946L44.2083 55.0059L42.7004 55.1022L40.3604 55.0627L39.6492 55.0151L38.2413 54.8465L37.5401 54.7541L36.1717 54.4956L35.4941 54.3546L34.1815 54.0115L33.5348 53.8299L32.3033 53.4128L31.6979 53.1927L30.5636 52.7068L30.0114 52.4548L28.9954 51.9044L28.5037 51.621L27.6266 51.0177L27.2073 50.7095L26.49 50.0576L26.198 49.7714L25.664 48.9406L25.4092 48.4934L24.9774 47.4417L24.7805 46.8995L24.5034 45.7535L24.3158 44.0808L24.3146 43.8437L24.2298 43.2683L24.179 42.9681L24.0182 42.3146L23.3127 40.3979L23.1352 40.0334L22.8676 39.3696L22.7455 39.0444L22.5857 38.4302L22.5185 38.1246L22.4579 37.5203L22.4662 36.5831L22.4944 36.2464L22.4959 35.6697L22.4904 35.3991L22.4157 34.9496L22.3693 34.7372L21.7501 33.9742L21.6565 33.9133L21.2419 33.7745L21.0181 33.7171L20.4573 33.6579L20.1574 33.6386L19.4309 33.652L13.7947 33.8745L13.3922 33.8511L12.6525 33.7717L11.9286 33.678L10.6679 33.3257L8.90709 32.534L8.52955 32.3233L7.86475 31.8523L7.54782 31.6101L7.0064 31.093L6.75262 30.8285L6.33458 30.2653L6.14102 29.9769L5.85056 29.3738L5.72016 29.0632L5.55855 28.4248L5.49258 28.0965L5.45983 27.4228L5.46083 27.0862L5.56113 26.3834L5.85953 25.3049L6.05377 24.7719L6.61471 23.8193L6.92307 23.3589L7.73313 22.5287L8.17443 22.1283L9.26495 21.3993L11.2473 20.3866L11.7394 20.1702L12.8348 19.7812L13.4012 19.5915L14.6362 19.2509L15.2662 19.0858L16.6207 18.8014L17.3129 18.6639L21.8391 18.0701L23.4538 17.9569L28.4941 17.8531L28.8672 17.8598L29.397 17.7617L29.6292 17.6883L29.9104 17.3713L29.9653 17.2747L30.0387 17.0295L30.0697 16.8998L30.0958 16.5736L30.1019 16.3987L30.0859 15.9826L30.0216 15.2483L29.9793 14.8716L30.0146 14.1396L30.0486 13.7791L30.2256 13.085L30.3296 12.7449L30.6365 12.1093L30.8039 11.8013L31.225 11.2383L31.4494 10.9666L31.9729 10.4967L32.2477 10.2731L32.8596 9.90765L33.1752 9.74208L33.8607 9.49996L34.9584 9.29834L35.2392 9.27584L35.7326 9.29659L35.9793 9.32055L36.4935 9.46172L36.7668 9.55508L37.4177 9.85919L37.596 9.9489L37.9961 10.1609L38.6807 10.5423M41.6725 44.4162L41.3881 44.3902L41.0892 44.4374L40.8947 44.4858L40.0388 44.7473L39.5609 44.9524L38.2433 45.3973L37.2596 45.6171L36.731 45.6926L35.6527 45.8123L35.0934 45.8393L33.9641 45.864L33.3967 45.8438L32.2663 45.7749L31.718 45.7073L30.6333 45.5443L30.1221 45.4319L29.1285 45.1772L28.6816 45.02L27.8255 44.6806L27.4643 44.4753L26.4877 43.9239L26.6138 45.1237L26.746 45.7182L26.9117 46.1923L27.0222 46.4489L27.531 47.5018L27.8298 47.9469L28.441 48.806L28.7473 49.1352L29.3673 49.7397L29.7181 49.9701L30.4611 50.3925L30.9164 50.5621L31.8901 50.8792L32.5011 51.0211L33.2933 51.1381L33.8888 51.1705L34.2096 51.1668L35.5501 51.0916L36.2348 50.9808L37.5931 50.7102L38.1942 50.5209L38.7731 50.3228L39.0269 50.2113L39.5077 49.9807L39.7003 49.8538L40.3221 49.3273L40.7084 48.8802L40.8822 48.6224L41.528 47.5204L41.7364 46.9489L41.9217 46.3837L41.9765 46.1164L42.0628 45.5956L42.0625 45.3706L42.0334 44.9432L41.9693 44.7827L41.8075 44.493M37.7073 12.5279L36.8328 12.0773L36.2928 11.8517L36.0459 11.7733L35.5627 11.6459L35.3419 11.6173L34.9126 11.5865L34.7163 11.6105L34.3317 11.6787L34.1556 11.7492L33.8141 11.9194L33.6596 12.0409L33.3522 12.3081L33.2117 12.4801L32.9382 12.8518L32.8116 13.0745L32.5074 13.9171L32.4274 14.55L32.444 14.8967L32.5159 15.6042L32.6037 15.9759L32.8139 16.7272L32.9663 17.1084L33.3071 17.8759L33.5215 18.2575L33.9795 19.0101L34.2478 19.372L34.8108 20.0836L35.1276 20.4148L35.7833 21.059L36.1448 21.3458L36.82 21.7917L37.3657 22.0826L37.679 22.2219L39.0324 22.7665L39.8199 23.001L41.4452 23.4365L42.2987 23.5961L44.0139 23.8735L44.844 23.9306L45.8702 24.0256L46.4575 24.0998L46.6866 24.1409L47.0935 24.2249L47.2138 24.2662L47.3866 24.345L47.3666 24.3802L46.927 24.7776L46.4633 24.9985L46.1609 25.0863L45.5086 25.2426L45.1248 25.2958L44.3278 25.3854L43.8882 25.4068L42.9888 25.4305L42.5148 25.4168L41.5541 25.3707L41.0652 25.3215L40.0842 25.2018L39.6032 25.1183L38.647 24.9274L38.194 24.8017L37.5025 24.6101L37.1081 24.4905L36.9358 24.4314L36.2972 24.1808L36.0082 24.0126L35.4228 23.641L35.0731 23.3608L34.7121 23.0664L34.4992 22.8872L34.0579 22.5084L33.7975 22.2829L31.5866 20.3554L28.9205 20.2197L26.3054 20.1789L24.4774 20.2367L23.5472 20.3009L21.6748 20.4575L20.7481 20.5702L18.9119 20.8133L18.0301 20.9632L16.2942 21.2827L15.4909 21.4656L13.9378 21.8463L13.2526 22.0537L11.9509 22.4844L11.4156 22.715L10.9076 22.9456L10.6882 23.0651L10.269 23.3035L10.0994 23.4242L9.00679 24.4234L8.41801 25.1856L8.2112 25.5836L7.86414 26.3786L7.79626 26.7509L7.74972 27.1198L7.75573 27.2938L7.79115 27.6279L7.84064 27.7801L8.25137 28.8005L8.57103 29.366L8.76401 29.6075L9.18298 30.0666L9.44157 30.2679L9.99684 30.665L10.3375 30.8586L11.4747 31.3462L12.3531 31.5781L12.865 31.6481L13.9419 31.7564L14.5721 31.762L15.8902 31.7399L16.6538 31.6817L18.2554 31.5301L19.1753 31.4019L20.1137 31.2686L20.6184 31.1873L21.6463 31.0196L22.1941 30.9241L23.3131 30.7191L23.9073 30.6034L25.1234 30.3644L25.7699 30.2319L27.0905 29.9593L27.7864 29.8083L29.2132 29.4993L29.9689 29.3319L31.3665 29.0333L32.2035 28.8734L32.5483 28.8136L33.1781 28.7104L33.3895 28.6872L33.5796 28.6673L33.6415 28.6676L33.7487 28.6704L33.7664 28.6805L33.7815 28.8247L33.6543 28.9733L33.5361 29.0651L33.2578 29.2674L33.0735 29.3797L32.674 29.6177L32.4374 29.7468L31.4028 30.275L30.8053 30.54L29.5838 31.055L28.9803 31.2623L28.2684 31.5166L27.8674 31.6685L27.7018 31.741L27.1127 32.0186L26.8988 32.1761L26.5122 32.5145L26.3429 32.7439L26.0033 33.2524L25.8001 33.6098L25.1053 35.2421L24.8697 36.3331L24.8627 36.8718L24.9264 37.9352L25.0705 38.4474L25.4351 39.4532L25.7297 39.9191L26.2672 40.6278L26.702 41.0727L26.951 41.284L28.031 42.084L28.6643 42.4053L29.9731 42.9943L30.6722 43.1863L32.086 43.5016L32.7875 43.5322L34.542 43.5489L35.6276 43.4916L36.1236 43.4325L37.0912 43.2887L37.5306 43.1857L38.3803 42.9555L38.7612 42.8116L39.493 42.495L39.8127 42.3085L40.4219 41.9067L40.682 41.6747L41.167 41.1907L41.3659 40.9161L41.7313 40.3486L41.8642 40.0327L42.1374 39.3197L42.2566 38.8913L42.2895 38.6968L42.3318 38.3216L42.3212 38.1489L42.2812 37.816L42.2258 37.6605L42.0997 37.3562L42.0012 37.215L41.7801 36.9342L41.636 36.798L41.3206 36.5257L41.1297 36.39L40.7159 36.1199L40.4722 35.9813L39.539 35.5245L38.8817 35.2865L38.5041 35.192L37.7042 35.0202L37.2136 34.9467L36.1668 34.8129L35.5154 34.7488L33.1137 34.3874L31.585 34.0417L30.9513 33.8442L30.3434 33.6421L30.0931 33.5424L29.6197 33.3431L29.4494 33.2462L29.1524 33.058L29.0784 32.9694L28.9874 32.8014L29.0319 32.7298L29.1544 32.6715L29.3118 32.6408L29.426 32.6244L29.9686 32.5723L30.3475 32.5551L31.1685 32.5257L31.6496 32.5201L32.6508 32.5156L33.1842 32.5204L35.3743 32.5638L36.3531 32.6124L37.295 32.6711L37.6879 32.7045L38.4125 32.7831L38.6568 32.8251L39.3981 33.0178L39.9791 33.2125L40.2886 33.338L41.5558 33.8839L42.0785 34.1811L42.6654 34.5225L42.9922 34.7199L43.1265 34.8118L43.597 35.1529L43.7512 35.3259L44.0196 35.6877L44.1208 35.9197L44.3 36.4247L44.3979 36.7788L44.5831 37.9772L44.5821 38.8333L44.5215 39.2679L44.3673 40.1338L44.2338 40.5464L43.9316 41.3514L43.7284 41.7088L43.5845 42.1192L43.5495 42.4405L43.5643 42.6194L43.6095 42.9979L43.668 43.2094L43.7963 43.6467L43.8925 43.8875L44.197 44.9444L44.289 45.6712L44.2864 46.0379L44.2402 46.7753L44.1727 47.1401L43.9971 47.8659L43.8668 48.2182L43.5718 48.9149L43.3806 49.2442L42.9703 49.8909L42.728 50.1873L42.211 50.7617L41.9179 51.0175L41.2998 51.5034L40.9596 51.7054L39.9115 52.3461L39.6579 52.512L39.5793 52.5681L39.4456 52.6666L39.4373 52.6812L39.4133 52.7645L39.4402 52.7992L39.517 52.8622L39.5883 52.8872L39.9633 52.9725L40.2573 52.9885L40.914 53.009L41.3168 52.9977L42.1671 52.9578L42.6364 52.9183L44.6083 52.7098L45.5587 52.5485L46.4886 52.3755L46.9049 52.2789L47.6911 52.0784L48.0022 51.9685L50.0786 51.0364L51.5218 50.2133L52.2258 49.7336L53.6136 48.7278L54.242 48.1896L55.4423 47.0967L55.9263 46.5461L57.1496 44.9274L57.7733 43.8439L57.988 43.2954L58.3542 42.1934L58.4424 41.6349L58.5539 40.5161L58.5156 39.9478L58.4956 39.32L58.5142 38.9934L58.5352 38.8813L58.589 38.6909L58.6303 38.6524L58.7236 38.6046L58.7823 38.638L59.0271 38.8431L59.2011 39.0428L59.2911 39.1715L59.6472 39.7344L59.807 40.0617L60.1089 40.7334L60.2042 41.0511L60.3615 41.6561L60.3547 41.8732L60.3327 42.6979L61.2115 42.2866L61.9439 41.7843L62.3963 41.3166L62.6005 41.0257L62.9946 40.4008L63.1693 40.0389L63.5018 39.2899L63.6416 38.8732L63.901 38.0205L63.9991 37.5608L64.1778 36.6313L64.2336 36.1436L64.32 35.1577L64.3297 34.6554L64.3176 33.6446L64.2716 33.1378L63.9454 31.5995L63.5588 30.5231L63.3084 30.0203L62.7827 29.0586L62.5014 28.6854L62.2189 28.3349L62.0765 28.1958L61.7976 27.9481L60.855 27.4122L60.7924 28.6364L60.7081 29.2358L60.6011 29.6906L60.5278 29.9357L60.1714 30.9658L59.9303 31.4993L59.4116 32.5689L59.1201 33.0544L58.5197 33.9806L58.2185 34.3327L57.3717 35.3165L58.0494 33.2016L58.4824 31.5173L58.6465 30.4632L58.6662 29.9705L58.6593 29.0053L58.5908 28.5516L58.4134 27.6677L58.2596 27.2547L57.9057 26.4488L57.6637 26.0747L57.1366 25.341L56.8051 25.0014L56.102 24.3381L55.6827 24.0299L54.8006 23.4354L54.2905 23.1571L53.7658 22.8704L53.3585 22.6504L53.129 22.5277L52.1617 22.0011L51.6206 21.709L49.3639 20.4842L48.3404 19.9333L46.4857 18.8829L45.3999 18.2229L44.9077 17.8927L43.0542 16.5599L42.1531 15.7802L41.0355 14.8618L40.229 14.2367L39.8257 13.9415L39.027 13.3712L38.6678 13.1282L37.9775 12.6815M43.7702 28.6423L43.8458 28.7279L44.0181 28.9306L44.1313 29.0802L44.3723 29.4149L44.5258 29.6301L44.8431 30.0973L45.0353 30.381L45.6091 31.1762L46.0527 31.7424L46.2847 32.0177L46.7534 32.5671L46.9782 32.8073L47.4139 33.2643L47.6012 33.4406L48.2041 33.9384L48.6818 34.2875L48.9478 34.462L50.0811 35.1683L50.6784 35.4846L51.8729 36.09L52.4075 36.3047L52.9261 36.5066L53.1537 36.5778L53.5846 36.6948L53.7572 36.7193L54.1276 36.8058L54.23 36.8718L54.2175 36.9074L54.1562 36.981L54.0772 37.0175L53.8861 37.0872L53.7513 37.1191L53.119 37.2403L52.7259 37.2688L51.9016 37.3041L51.5028 37.2673L50.6386 37.1403L50.2157 37.0162L49.3752 36.7245L48.9671 36.5196L48.1663 36.076L47.786 35.8017L47.0421 35.2237L46.6968 34.8879L46.0242 34.1915L45.724 33.8037L45.1431 33.0006L44.8921 32.5672L44.4169 31.6807L44.2269 31.2084L43.878 30.2502L43.7545 29.7498L43.6266 29.1887L43.5692 28.9002L43.5609 28.7985L43.5545 28.6321L43.5702 28.5907L43.6166 28.5434L43.6623 28.5655L43.7702 28.6423Z" fill="#0C0C0C"/>
<path d="M31.8899 50.8793L30.9162 50.5622L30.4609 50.3925L29.7532 49.9902L30.4802 50.3996L30.943 50.5697L31.9348 50.8893M29.7268 49.9751L29.718 49.9701L29.5996 49.8912M29.3701 49.7414L29.3672 49.7397L29.1038 49.4853M27.5309 47.5019L27.5237 47.4939ZM27.0507 46.5079L27.022 46.449L26.9115 46.1923L26.9064 46.1739M41.9691 44.7827L42.0333 44.9432L42.0623 45.3706L42.0626 45.5956L41.9764 46.1164L41.9215 46.3837L41.7362 46.9489L41.5279 47.5205L40.882 48.6224L40.7082 48.8802L40.3219 49.3274L39.7001 49.8538L39.5075 49.9807L39.0267 50.2113L38.7729 50.3229L38.194 50.521L37.5929 50.7103L36.2346 50.9808L35.5499 51.0916L35.4984 51.0933L35.6022 51.0748L36.4052 50.8995L36.8729 50.7739L37.7678 50.519L38.2501 50.3745L38.4333 50.312L38.7658 50.1987L38.877 50.1534L39.0614 50.0683L39.0932 50.0398L39.1277 49.9858L39.0846 49.9729L38.9647 49.9513L38.8513 49.9527L38.58 49.9651L38.3887 49.9804L37.9646 50.0223L37.6967 50.0561L35.9431 50.1949L34.9498 50.1651L34.499 50.0833L33.6165 49.8723L33.1708 49.6925L32.2612 49.2762L31.7519 48.9828L30.755 48.3579L30.2001 47.9533L29.9619 47.7366L29.5045 47.2904L29.291 47.0372L28.8671 46.4978L28.6467 46.1748L27.6849 44.9071L27.3999 44.5745L27.2806 44.4563L27.0631 44.2512L26.9926 44.2111L26.7177 44.1479L26.5969 44.2304L26.5679 44.3225L26.5428 44.4555L26.4875 43.924L27.4641 44.4753L27.8253 44.6806L28.6814 45.0201L29.1283 45.1772L30.122 45.432L30.6332 45.5443L31.7178 45.7074L32.2661 45.7749L33.3965 45.8438L33.964 45.8641L35.0932 45.8393L35.6525 45.8123L36.7308 45.6927L37.2594 45.6172L38.2431 45.3973L39.5607 44.9524L40.0386 44.7474L40.8945 44.4858L41.0891 44.4375L41.3879 44.3903L41.6723 44.4163L41.8074 44.4931M26.8117 45.903L26.7458 45.7183L26.702 45.5151M39.4467 52.7875L39.5219 52.8535L39.5915 52.8814L39.9619 52.968L40.2559 52.9839L40.9079 53.0057L41.3107 52.9944L41.7926 52.9737L41.3166 52.9977L40.9138 53.0091L40.2572 52.9885L39.9632 52.9726L39.5881 52.8873L39.5169 52.8623L39.44 52.7992L39.4131 52.7645L39.4371 52.6813L39.4438 52.6695L39.4198 52.7528M34.8472 11.6192L34.3305 11.7557L34.1174 11.871L34.0561 11.9719L33.9606 12.2083L33.9353 12.4032L33.9011 12.8528L33.8863 13.1933L33.9236 14.2417L34.0235 14.9342L34.1129 15.2757L34.3178 15.9543L34.4562 16.2849L34.7573 16.9445L34.9418 17.2626L35.3349 17.8969L35.567 18.1995L36.0526 18.8011L36.3266 19.0848L36.8974 19.6458L37.2148 19.9076L37.8697 20.4233L38.2277 20.6617L39.1091 21.1822L39.7722 21.5127L40.1299 21.6695L41.6367 22.2586L42.4499 22.4961L44.1027 22.924L44.9239 23.0653L46.5484 23.2833L47.2901 23.2979L48.0096 23.331L48.4355 23.3677L48.6081 23.3922L48.9215 23.4424L49.0242 23.4736L49.186 23.5307L49.1949 23.5629L49.1306 23.7512L49.009 23.9651L48.9157 24.1019L48.4629 24.7206L48.1618 25.0727L47.5666 25.8119L47.3296 26.1811L47.2799 26.3505L47.2232 26.6827L47.2493 26.8759L47.3315 27.2986L47.4133 27.5854L47.6128 28.164L47.7955 28.6012L47.9001 28.8273L48.3574 29.7385L48.5838 30.0921L49.2138 30.9386L49.6476 31.317L50.1015 31.6874L50.3671 31.8695L50.9286 32.2352L51.2574 32.4221L53.0964 33.2815L54.419 33.7504L55.038 33.9124L55.6456 34.0601L55.9213 34.1083L56.4521 34.193L56.6795 34.2099L57.0992 34.2236L57.2561 34.2004L57.5318 34.1324L57.6032 34.0683L57.7916 33.7916L57.9292 33.5016L58.0007 33.3213L58.067 33.1226L58.0493 33.2016L57.3715 35.3165L58.2184 34.3327L58.3068 34.2318L58.075 34.6737L57.9532 34.9495L57.7397 35.4754L57.6793 35.7047L57.5836 36.1464L57.5821 36.3472L57.6115 36.7399L57.6695 36.9318L57.8185 37.3189L57.9394 37.5232L58.2079 37.9395L58.3891 38.1743L58.744 38.6163L58.7234 38.6047L58.6302 38.6524L58.5889 38.691L58.535 38.8813L58.514 38.9934L58.4954 39.3201L58.5155 39.9478L58.5541 40.5086L58.5202 40.3769L58.4604 40.277L58.3296 40.0902L58.2339 40.0125L57.777 39.7295L57.4294 39.6095L56.3196 39.2925L55.7013 39.2046L55.4145 39.2238L54.8461 39.3077L54.5408 39.4209L53.9086 39.6856L53.5244 39.8897L52.1435 40.8219L51.1849 41.6607L50.687 42.1878L49.6815 43.314L49.1595 43.9863L48.1072 45.3999L47.5596 46.2127L46.897 47.1733L46.4751 47.7514L46.2728 48.0046L45.487 48.9495L45.1155 49.3158L44.3828 49.9691L44.0196 50.2046L43.2936 50.6136L42.918 50.7412L42.5366 50.8926L42.2206 51.0386L42.0437 51.1241L41.2979 51.5064L41.2871 51.5118L41.2996 51.5035L41.9177 51.0176L42.2109 50.7617L42.7278 50.1873L42.9701 49.8909L43.3805 49.2443L43.5716 48.9149L43.8666 48.2182L43.997 47.8659L44.1726 47.1401L44.2401 46.7754L44.2862 46.038L44.2888 45.6712L44.1969 44.9444L43.8924 43.8875L43.7961 43.6468L43.6678 43.2095L43.6093 42.9979L43.5641 42.6195L43.5493 42.4405L43.5843 42.1193L43.7283 41.7088L43.9314 41.3514L44.2337 40.5464L44.3671 40.1339L44.5214 39.268L44.5819 38.8334L44.5829 37.9773L44.3977 36.7789L44.2998 36.4248L44.1206 35.9198L44.0194 35.6878L43.7511 35.3259L43.5968 35.153L43.1263 34.8118L42.992 34.72L42.6652 34.5226L42.0783 34.1811L41.5556 33.884L40.2884 33.338L39.979 33.2125L39.398 33.0179L38.6566 32.8251L38.4124 32.7832L37.6877 32.7046L37.2948 32.6712L36.3529 32.6125L35.3742 32.5639L33.1841 32.5204L32.6506 32.5156L31.6494 32.5202L31.1683 32.5257L30.3473 32.5552L29.9684 32.5723L29.4259 32.6244L29.3116 32.6409L29.1543 32.6716L29.0318 32.7298L28.9872 32.8014L29.0782 32.9694L29.1522 33.058L29.4493 33.2463L29.6196 33.3431L30.093 33.5425L30.3433 33.6421L30.9511 33.8442L31.5849 34.0417L33.1135 34.3875L35.5153 34.7489L36.1666 34.8129L37.2134 34.9468L37.704 35.0202L38.5039 35.192L38.8815 35.2865L39.5389 35.5245L40.472 35.9814L40.7158 36.1199L41.1295 36.39L41.3205 36.5257L41.6358 36.798L41.7799 36.9342L42.001 37.215L42.0995 37.3562L42.2257 37.6606L42.281 37.8161L42.3211 38.1489L42.3317 38.3216L42.2893 38.6968L42.2565 38.8913L42.1373 39.3197L41.8641 40.0327L41.7311 40.3486L41.3657 40.9162L41.1669 41.1907L40.6819 41.6748L40.4218 41.9068L39.8126 42.3086L39.4928 42.4951L38.7611 42.8117L38.3801 42.9556L37.5304 43.1858L37.0911 43.2887L36.1234 43.4325L35.6274 43.4916L34.5418 43.549L32.7873 43.5322L32.6168 43.5245L33.2721 43.5132L33.7136 43.427L33.8139 43.3599L33.8932 43.2888L33.8968 43.2482L33.8828 43.1704L33.8395 43.1303L33.7245 43.0455L33.6268 43.0055L33.4042 42.9255L33.2504 42.8884L31.3548 42.2449L30.2232 41.6792L29.7301 41.3368L28.7986 40.6173L28.4133 40.2083L27.6954 39.3661L27.4259 38.9105L26.9426 37.9768L26.7974 37.4872L26.5681 36.4963L26.5538 35.9882L26.5983 34.9669L26.7293 34.4561L27.0623 33.4398L27.3454 32.9418L27.6388 32.3915L27.7331 32.1505L27.7291 32.0823L27.6907 31.9791L27.6203 31.9662L27.4452 31.9597L27.3063 31.9854L26.9705 32.1317L26.7671 32.2913L26.8986 32.1761L27.1125 32.0186L27.7016 31.7411L27.8672 31.6685L28.2683 31.5167L28.9801 31.2624L29.5837 31.0551L30.8051 30.5401L31.4026 30.275L32.4373 29.7469L32.6738 29.6178L33.0734 29.3797L33.2577 29.2674L33.5359 29.0651L33.6541 28.9734L33.7813 28.8248L33.7662 28.6805L33.7486 28.6705L33.6414 28.6677L33.5794 28.6673L33.3894 28.6872L33.178 28.7105L32.5481 28.8137L32.2033 28.8735L31.3663 29.0334L29.9688 29.332L29.2131 29.4993L27.7862 29.8084L27.0903 29.9593L25.7697 30.2319L25.1232 30.3644L23.9071 30.6034L23.3129 30.7191L22.1939 30.9241L21.6461 31.0197L20.6182 31.1874L20.1135 31.2687L19.1751 31.4019L18.2552 31.5302L16.6536 31.6818L15.89 31.74L14.5719 31.762L13.9417 31.7565L12.8648 31.6482L12.3529 31.5781L11.4745 31.3462L10.3373 30.8586L9.99667 30.665L9.4414 30.2679L9.18281 30.0666L8.76385 29.6075L8.57086 29.366L8.25121 28.8005L7.84047 27.7802L7.79098 27.628L7.75556 27.2939L7.74955 27.1199L7.78185 26.8785L7.86346 26.9947L7.99276 27.0953L8.30039 27.3129L8.51564 27.4469L8.99096 27.7248L9.27033 27.8759L9.85588 28.1855L10.1729 28.3386L12.2067 29.115L13.6403 29.4571L14.4161 29.5415L16.0039 29.6533L16.8747 29.6251L18.6707 29.5143L19.6606 29.3793L20.9516 29.1519L21.9642 28.9291L22.5278 28.792L23.6893 28.4988L24.3059 28.3299L25.5534 27.9809L26.1939 27.7907L28.7607 26.9939L29.951 26.5814L31.1142 26.1689L31.6449 25.9667L32.6607 25.5673L33.0939 25.3795L34.0886 24.9488L34.6121 24.7114L34.8019 24.61L35.1388 24.4139L35.236 24.318L35.3853 24.1238L35.3908 24.0184L35.3553 23.8005L35.2699 23.6705L35.0517 23.3914L34.8748 23.2172L34.7278 23.0794L35.0729 23.3609L35.4227 23.6411L36.008 24.0126L36.2971 24.1808L36.9356 24.4314L37.1079 24.4906L37.5023 24.6102L38.1938 24.8017L38.6469 24.9275L39.603 25.1183L40.084 25.2018L41.0651 25.3215L41.5539 25.3707L42.5146 25.4168L42.9887 25.4305L43.888 25.4069L44.3276 25.3854L45.1246 25.2958L45.5084 25.2427L46.1607 25.0863L46.4631 24.9986L46.9268 24.7776L47.3664 24.3802L47.3864 24.345L47.2136 24.2662L47.0933 24.2249L46.6865 24.1409L46.4573 24.0998L45.87 24.0256L44.8438 23.9307L44.0137 23.8735L42.2985 23.5962L41.445 23.4366L39.8198 23.001L39.0322 22.7665L37.6788 22.2219L37.3655 22.0826L36.8198 21.7917L36.1446 21.3459L35.7832 21.059L35.1274 20.4149L34.8106 20.0836L34.2477 19.372L33.9793 19.0102L33.5213 18.2575L33.3069 17.8759L32.9661 17.1085L32.8137 16.7272L32.6036 15.9759L32.5157 15.6043L32.4439 14.8967L32.4273 14.55L32.5073 13.9172L32.8115 13.0745L32.938 12.8519L33.2115 12.4802L33.3521 12.3081L33.6594 12.0409L33.8139 11.9195L34.1555 11.7493L34.3315 11.6788L34.7161 11.6106L34.9124 11.5865L34.9711 11.5927M30.672 43.1863L29.9729 42.9944L28.6642 42.4054L28.0308 42.0841L27.75 41.8741L28.3117 42.1779L28.7688 42.399L30.687 43.16L31.0814 43.2795M24.8609 36.8747L24.9275 37.9399L25.0732 38.4491L25.4349 39.4532L25.0703 38.4474L24.9263 37.9353L24.8625 36.8718L24.8651 36.505M24.8679 36.3361L24.8696 36.3331L24.9414 36.0018M18.0299 20.9633L16.2941 21.2828L15.4907 21.4656L13.9376 21.8464L13.2524 22.0538L11.9507 22.4844L11.4155 22.7151L10.9075 22.9457L10.688 23.0651L10.2688 23.3036L10.0992 23.4242L9.23373 24.2153L8.6823 24.8709L8.45269 25.2132L8.18526 25.6426L8.21103 25.5836L8.41785 25.1857L9.00662 24.4234L10.0992 23.4242L10.2688 23.3036L10.688 23.0651L10.9075 22.9457L11.4155 22.7151L11.9507 22.4844L13.2524 22.0538L13.9376 21.8464L15.4907 21.4656L16.2941 21.2828L18.0299 20.9633L18.9117 20.8133ZM26.601 32.4605L26.3432 32.7636L26.2074 32.9615L25.9315 33.3784L25.7999 33.6098L26.0031 33.2524L26.3427 32.7439L26.512 32.5145L26.7132 32.3382M53.6134 48.7278L53.4689 48.8317L53.6878 48.6654M55.9261 46.5462L55.4422 47.0967L54.2419 48.1897L54.1199 48.2948L54.2197 48.2081L55.1107 47.3928L55.5108 46.9691L56.0741 46.3473M57.7731 43.844L57.6766 44.0139L57.8014 43.767M58.354 42.1934L58.3304 42.2691L58.3585 42.165M43.6164 28.5434L43.5701 28.5907L43.5543 28.6321L43.5607 28.7986L43.569 28.9002L43.6265 29.1887L43.7543 29.7498L43.8778 30.2503L44.2268 31.2084L44.4167 31.6808L44.8919 32.5673L45.1429 33.0007L45.7238 33.8038L46.024 34.1915L46.6967 34.8879L47.042 35.2238L47.7858 35.8017L48.1661 36.076L48.9669 36.5196L49.375 36.7245L50.2155 37.0163L50.6384 37.1404L51.5026 37.2673L51.9014 37.3041L52.7258 37.2688L53.1189 37.2403L53.7512 37.1192L53.8859 37.0872L54.077 37.0176L54.1561 36.9811L54.2174 36.9074L54.2298 36.8718L54.1274 36.8059L53.757 36.7193L53.5844 36.6949L53.1536 36.5778L52.926 36.5066L52.4073 36.3048L51.8727 36.09L50.6782 35.4846L50.0809 35.1683L48.9476 34.462L48.6816 34.2875L48.204 33.9385L47.601 33.4406L47.4137 33.2644L46.978 32.8074L46.7532 32.5672L46.2845 32.0177L46.0525 31.7424L45.6089 31.1762L45.0352 30.3811L44.8429 30.0973L44.5256 29.6301L44.3721 29.4149L44.1311 29.0802L44.018 28.9306L43.8456 28.728L43.77 28.6423L43.6621 28.5655M61.2113 42.2866L60.3325 42.698L60.3513 42.0497L60.4224 42.656L61.213 42.2837M32.0261 20.7372L31.5819 20.3567L28.9174 20.2181L26.3053 20.179L28.9204 20.2198L31.5865 20.3555M64.3174 33.6447L64.3295 34.6555L64.3199 35.1578L64.2334 36.1436L64.1777 36.6313L63.999 37.5608L63.9008 38.0206L63.6414 38.8732L63.5017 39.2899L63.2992 39.7485L63.5071 39.2736L63.6439 38.8552L63.9003 38.0009L63.9985 37.5412L64.1742 36.61L64.233 36.124L64.3206 35.1427L64.3257 34.6417L64.3162 33.6401M58.4822 31.5174L58.4554 31.6261L58.6032 30.7372M58.6463 30.4633L58.6344 30.5457L58.6539 30.2311M58.6591 29.0053L58.6589 29.0672L58.6446 28.9079M56.1019 24.3381L56.1724 24.4053L56.0742 24.3185M55.0678 23.6145L54.7564 23.4104L54.8005 23.4354M38.0096 12.6999L37.7336 12.543L37.6409 12.4942L37.7072 12.528L37.9773 12.6816M61.6653 27.873L60.8548 27.4123L60.8069 28.6448L60.6929 29.3785L60.6084 29.6638L60.7079 29.2359L60.7922 28.6365L60.8548 27.4123L61.7975 27.9481L61.6653 27.873Z" fill="#C2C2C2"/>
<path d="M27.8298 47.9468L27.5311 47.5018L27.0615 46.5371L26.8565 46.0639L26.6167 45.2144L26.5725 45.0187L26.5367 44.6921L26.5278 44.5437L26.5681 44.3224L26.5972 44.2303L26.7179 44.1478L26.9928 44.211L27.0633 44.2511L27.2808 44.4562L27.4002 44.5744L27.6851 44.907L28.6469 46.1747L28.8673 46.4977L29.2912 47.0372L29.5047 47.2904L29.9622 47.7365L30.2003 47.9532L30.7552 48.3578L31.7521 48.9827L32.2614 49.2762L33.171 49.6925L33.6167 49.8722L34.4992 50.0832L34.95 50.165L35.9433 50.1948L37.697 50.056L37.9648 50.0222L38.3889 49.9803L38.5802 49.965L38.8515 49.9526L38.965 49.9512L39.0848 49.9728L39.128 49.9857L39.0934 50.0397L39.0616 50.0682L38.8773 50.1533L38.766 50.1986L38.4335 50.3119L38.2503 50.3744L37.768 50.5189L36.8731 50.7738L36.4054 50.8994L35.6024 51.0747L35.2162 51.1459L34.5246 51.214L34.1864 51.2349L33.5456 51.2001L32.5623 51.0365L31.935 50.8892L30.9432 50.5696L30.4804 50.3995L29.7299 49.9767L29.3732 49.7429L28.7486 49.1398L28.444 48.8077M39.444 52.6695L39.4623 52.6372L39.6014 52.5225L39.6879 52.4592L39.9323 52.2958L40.1997 52.1261L40.9245 51.7125L41.2982 51.5063L42.0439 51.124L42.2208 51.0385L42.5369 50.8926L42.9183 50.7411L43.2939 50.6136L44.0199 50.2045L44.383 49.9691L45.1157 49.3158L45.4872 48.9494L46.273 48.0045L46.4753 47.7513L46.8972 47.1732L47.5598 46.2126L48.1074 45.3998L49.1597 43.9862L49.6818 43.3139L50.6872 42.1877L51.1851 41.6606L52.1438 40.8218L53.5246 39.8896L53.9088 39.6855L54.5411 39.4209L54.8464 39.3076L55.4147 39.2237L55.7015 39.2045L56.3198 39.2924L57.4297 39.6094L57.7772 39.7294L58.2341 40.0125L58.3298 40.0901L58.4606 40.2769L58.5204 40.3768L58.5819 40.6172L58.6024 40.7452L58.5938 41.0542L58.5822 41.2182L58.5056 41.6127L58.4569 41.8214L58.3178 42.3121L58.0363 43.1832L57.899 43.5819L57.4666 44.4176L57.2268 44.8395L56.609 45.6938L56.2813 46.1199L55.5111 46.969L55.1109 47.3927L54.22 48.208L53.759 48.6088L52.7757 49.3678L52.2711 49.736L51.226 50.4055L50.6966 50.7286L49.621 51.2878L48.0023 51.9685L47.6865 52.0797L46.8941 52.2843L46.4778 52.381L45.545 52.5523L44.5929 52.7165L42.6272 52.9208L42.1596 52.9573L41.3109 52.9943L40.9082 53.0057L40.2561 52.9838L39.9621 52.9679L39.5917 52.8813L39.5221 52.8534L39.4469 52.7874L39.42 52.7527M25.7298 39.9191L25.4352 39.4531L25.0735 38.449L24.9278 37.9398L24.8611 36.8746L24.8665 36.3389L25.1003 35.2508L25.7885 33.6303L25.9317 33.3783L26.2076 32.9615L26.3434 32.7635L26.6012 32.4604L26.731 32.321L26.9707 32.1316L27.3065 31.9853L27.4454 31.9596L27.6205 31.9661L27.6909 31.979L27.7293 32.0822L27.7333 32.1504L27.639 32.3914L27.3456 32.9417L27.0625 33.4397L26.7296 34.456L26.5985 34.9668L26.5541 35.9881L26.5683 36.4962L26.7976 37.4871L26.9428 37.9767L27.4261 38.9104L27.6956 39.366L28.4135 40.2083L28.7988 40.6172L29.7303 41.3367L30.2235 41.6791L31.355 42.2449L33.2506 42.8884L33.4044 42.9254L33.627 43.0054L33.7247 43.0455L33.8397 43.1302L33.883 43.1703L33.8971 43.2481L33.8934 43.2887L33.8141 43.3599L33.7138 43.4269L33.2723 43.5131L32.3039 43.5285L32.1095 43.5149L31.5887 43.4127L31.3138 43.3494L30.6872 43.1599L28.769 42.3989L28.3119 42.1778L27.634 41.8118L27.3228 41.6348L26.8569 41.2924L26.6394 41.1145L26.2784 40.7039L26.0963 40.4841M7.77659 26.8676L7.75498 26.7894L7.78149 26.5719L7.80581 26.4539L7.91253 26.1774L8.03344 25.8895L8.45291 25.2132L8.68252 24.8708L9.23395 24.2152L10.0994 23.4242L10.269 23.3035L10.6882 23.065L10.9077 22.9456L11.4157 22.715L11.9509 22.4843L13.2526 22.0537L13.9378 21.8463L15.4909 21.4655L16.2943 21.2827L18.0301 20.9632L18.9119 20.8133L20.7481 20.5702L21.6748 20.4574L23.5473 20.3009L24.4775 20.2367L26.3055 20.1789L28.9177 20.218L31.5821 20.3567L33.2777 21.8168L33.6337 22.12L34.2094 22.6178L34.4786 22.8483L34.8751 23.2172L35.0519 23.3913L35.2701 23.6705L35.3556 23.8004L35.391 24.0183L35.3855 24.1237L35.2362 24.3179L35.139 24.4138L34.8021 24.6099L34.6123 24.7113L34.0889 24.9487L33.0941 25.3794L32.6609 25.5672L31.6451 25.9666L31.1144 26.1688L29.9512 26.5813L28.7609 26.9938L26.1941 27.7906L25.5537 27.9808L24.3061 28.3298L23.6895 28.4987L22.528 28.792L21.9644 28.929L20.9518 29.1518L19.6608 29.3792L18.6709 29.5142L16.8749 29.625L16.0041 29.6533L14.4163 29.5414L13.6405 29.457L12.2069 29.1149L10.1732 28.3386L9.8561 28.1855L9.27054 27.8758L8.99118 27.7248L8.51585 27.4468L8.30061 27.3128L7.99297 27.0953L7.86368 26.9946M60.2797 41.4583L60.2569 41.2865L60.1375 40.8814L60.0623 40.6719L59.8544 40.2243L59.0174 38.9421L58.7782 38.6589L58.3893 38.1742L58.2081 37.9394L57.9396 37.5231L57.8188 37.3188L57.6697 36.9317L57.6117 36.7398L57.5824 36.3471L57.5838 36.1464L57.6795 35.7046L57.7399 35.4754L57.9534 34.9494L58.0752 34.6737L58.4131 34.0246L59.0542 32.8696L59.3706 32.3129L59.8555 31.3986L60.076 30.9696L60.3911 30.265L60.5295 29.9327L60.6931 29.3784L60.8071 28.6447L60.855 27.4122L61.6655 27.8729L61.7977 27.9481L62.0765 28.1957L62.2189 28.3348L62.5014 28.6854L62.7828 29.0585L63.3085 30.0202L63.5588 30.523L63.9455 31.5995L64.2716 33.1377L64.3164 33.64L64.3259 34.6416L64.3209 35.1426L64.2332 36.1239L64.1745 36.6099L63.9987 37.5411L63.9005 38.0008L63.6441 38.8551L63.5073 39.2735L63.1777 40.0242L63.0076 40.3849L62.6181 41.0085L62.4168 41.3011L61.9719 41.7692L61.255 42.2648L60.4226 42.6559L60.2797 41.4583ZM48.584 30.092L48.3576 29.7384L47.9003 28.8272L47.7957 28.6011L47.613 28.1639L47.4135 27.5853L47.3317 27.2985L47.2496 26.8758L47.2234 26.6826L47.2801 26.3504L47.3298 26.181L47.5669 25.8119L48.162 25.0726L48.4632 24.7205L48.9159 24.1018L49.0092 23.965L49.1308 23.7511L49.1951 23.5628L49.1862 23.5307L49.0244 23.4735L48.9217 23.4423L48.6083 23.3921L48.4357 23.3676L48.0098 23.3309L47.2903 23.2979L46.5487 23.2833L44.9241 23.0652L44.1029 22.924L42.4501 22.496L41.637 22.2586L40.1301 21.6694L39.7724 21.5126L39.1094 21.1821L38.2279 20.6616L37.87 20.4233L37.2151 19.9075L36.8977 19.6457L36.3268 19.0847L36.0528 18.801L35.5673 18.1994L35.3351 17.8969L34.942 17.2625L34.7575 16.9444L34.4564 16.2848L34.318 15.9542L34.1131 15.2757L34.0237 14.9341L33.9239 14.2416L33.8865 13.1932L33.9013 12.8527L33.9355 12.4031L33.9608 12.2082L34.0563 11.9718L34.1176 11.8709L34.3307 11.7557L34.8474 11.6191L34.9989 11.5851L35.3758 11.6055L35.5756 11.63L36.0421 11.7595L36.2873 11.8408L36.8345 12.0743L37.1164 12.2074L37.7338 12.5429L38.051 12.7232L38.7299 13.1557L39.0748 13.3828L39.808 13.9043L40.1778 14.1765L40.9519 14.7833L42.1532 15.7801L43.0543 16.5599L44.9077 17.8927L45.4 18.2229L46.4858 18.8828L48.3404 19.9333L49.3639 20.4841L51.6177 21.7073L52.1559 21.9977L53.1232 22.5244L53.3527 22.6471L53.76 22.867L54.2818 23.152L54.7537 23.4087L55.5854 23.9551L55.9791 24.2332L56.6539 24.83L56.9706 25.1341L57.4915 25.783L57.7342 26.1148L58.1067 26.8266L58.2737 27.189L58.4977 27.9637L58.5903 28.3613L58.6713 29.2097L58.6941 29.6413L58.6335 30.5682L58.3849 32.0511L58.2813 32.4999L58.0009 33.3212L57.9295 33.5016L57.7918 33.7915L57.6034 34.0682L57.532 34.1323L57.2563 34.2004L57.0994 34.2235L56.6798 34.2098L56.4523 34.1929L55.9215 34.1083L55.6458 34.0601L55.0382 33.9123L54.4192 33.7504L53.0966 33.2814L51.2577 32.4221L50.9288 32.2351L50.3673 31.8694L50.1017 31.6874L49.6478 31.3169L49.214 30.9385L48.584 30.092Z" fill="#FEFEFE"/>
</svg>
