<svg width="134" height="123" viewBox="0 0 134 123" fill="none" xmlns="http://www.w3.org/2000/svg">
<path d="M15.0001 55L63.46 19.587C65.5686 18.0461 68.4316 18.0461 70.5402 19.587L119 55V117C119 120.314 116.314 123 113 123H88.0001C84.6864 123 82.0001 120.314 82.0001 117V83H52.0001V117C52.0001 120.314 49.3138 123 46.0001 123H21.0001C17.6864 123 15.0001 120.314 15.0001 117V55Z" fill="#00A1D3"/>
<path d="M2.49741 47.377C0.5197 48.8603 0.00683272 51.6108 1.31707 53.7071C2.77134 56.034 5.88668 56.6524 8.11951 55.0576L63.5127 15.491C65.5989 14.0009 68.4014 14.0009 70.4875 15.491L125.881 55.0576C128.114 56.6525 131.229 56.034 132.683 53.7071C133.993 51.6108 133.481 48.8603 131.503 47.377L114 34.25V6H97.0001V21.5L70.6001 1.7C68.4668 0.099998 65.5334 0.100002 63.4001 1.7L2.49741 47.377Z" fill="#00A1D3"/>
</svg>
