

<svg  viewBox="0 0 445 29" fill="none" xmlns="http://www.w3.org/2000/svg">
        <rect  fill="#5BD8FF" ></rect>
        <!--<path d="M37.9233 6.52098C42.1259 5.77511 45.9773 5.78773 50.0041 6.83546C54.1358 7.91054 57.3365 9.84719 58.7605 12.146L59.0279 12.5963C62.6694 12.5783 65.5529 12.6482 68.303 14.0567C70.1121 14.9831 70.9526 16.044 71.492 17.3228C75.6391 16.8993 79.9594 16.8465 83.6155 18.1193C86.4793 19.1162 88.2924 20.4739 90.0606 21.9809L85.8791 21.9591C84.3658 21.7746 82.5688 21.8934 81.0051 21.8468C80.2618 21.8245 79.6155 21.6433 78.8104 21.6154C74.5516 21.4674 70.2835 21.3695 66.0231 21.2327C62.9444 21.134 59.0981 21.2734 56.2985 20.5377L56.0445 20.4695C52.7335 19.6093 52.4454 17.6085 49.8631 16.4107C46.635 14.9137 40.6892 15.3595 38.3879 13.1608L38.2836 13.0561C36.5962 11.3964 36.527 9.63667 37.2683 7.8257C37.4391 7.40833 37.7609 7.02443 37.8993 6.59917L37.9233 6.52098Z" fill="#F2FAFC">
            <animateMotion path="M -91 0 H 440" dur="8s" repeatCount="3" />
        </path>
        <path d="M25.9858 13.8252C26.302 13.1406 26.6148 12.4626 27.1482 11.8131C29.2741 9.22455 32.9383 7.55049 37.8627 6.52099L37.8387 6.59917C37.7003 7.02444 37.3785 7.40833 37.2077 7.82571C36.4664 9.63667 36.5356 11.3964 38.223 13.0561L38.3273 13.1608C40.6286 15.3595 46.5744 14.9137 49.8025 16.4107C52.3849 17.6085 52.6729 19.6093 55.9839 20.4695L56.2379 20.5377C59.0375 21.2734 62.8838 21.134 65.9625 21.2327C70.2229 21.3695 74.491 21.4674 78.7498 21.6154C79.5549 21.6433 80.2012 21.8245 80.9445 21.8468C82.5082 21.8934 84.3052 21.7746 85.8185 21.9591L0 21.9788L0.756368 20.7487C1.60447 19.6803 3.28632 18.7741 5.35216 18.3591C7.85938 17.8555 10.1222 17.9609 12.5425 18.5432L12.86 18.0296C13.4165 17.1105 14.3135 16.2544 15.6453 15.5786C18.6414 14.0585 21.9975 13.7917 25.9858 13.8252Z" fill="#DBE8EB">
            <animateMotion path="M -91 0 H 440" dur="8s" repeatCount="3" />
        </path>-->
        <g id="hair">
            <path d="M23.8817 32.802C28.3317 21.8189 36.4816 11.2594 45.9884 4.2447C47.8092 2.90123 49.6711 1.54878 51.7357 0.610779C49.4758 9.66961 49.297 20.0454 51.4073 29.1708C52.0224 31.8306 52.9411 34.3938 53.8178 36.9735C53.4474 36.6302 53.1754 36.1265 52.8973 35.7024C52.4585 35.5523 52.1632 35.3681 51.7912 35.0885L51.6597 34.9879C51.3144 35.13 51.016 35.3238 50.6944 35.5114C50.1351 35.8374 49.7432 36.1547 49.2946 36.6277C48.5359 35.3548 48.2535 33.3088 47.9708 31.8284C47.1873 27.7288 46.6673 23.7545 46.3527 19.5908C46.2972 19.3573 46.2849 19.1279 46.2478 18.8914C46.0564 17.6715 45.388 17.0537 44.43 16.3732L44.1215 16.3852C43.4819 15.9905 43.2712 16.3642 42.6552 16.3466C42.3587 16.3381 42.1498 16.3183 41.864 16.4114C41.6187 16.4912 41.7365 16.4837 41.5001 16.4762C41.0505 16.4618 40.6709 16.5272 40.2671 16.7323C40.0978 16.8182 39.7375 17.1106 39.5741 17.1369C39.4545 17.1561 39.3355 17.053 39.2162 17.0742C38.7842 17.151 38.7182 17.2547 38.215 17.2199C33.7862 23.5876 31.5113 31.2916 29.829 38.7919C29.5457 39.85 29.4791 40.7821 29.3001 41.8372C29.2228 42.2928 29.0652 42.7461 29.0373 43.2095C29.002 43.7967 29.0808 44.2877 28.9683 44.8784L28.7849 45.8659C28.1784 45.1149 27.5862 44.2221 26.8362 43.6125C26.1549 43.0587 25.3024 42.6786 24.522 42.2873C23.7949 42.3888 23.5502 42.9018 22.9091 42.4523L23.8817 32.802Z" fill="#56A5AE"/>
            <path d="M38.215 17.2199C40.577 13.081 43.9347 9.63564 47.2931 6.32126C46.5384 10.7465 46.3667 15.1136 46.3526 19.5908C46.2971 19.3573 46.2848 19.1278 46.2477 18.8914C46.0564 17.6715 45.3879 17.0537 44.43 16.3732L44.1215 16.3851C43.4818 15.9905 43.2712 16.3642 42.6551 16.3466C42.3586 16.3381 42.1498 16.3183 41.864 16.4114C41.6187 16.4912 41.7364 16.4837 41.5 16.4762C41.0505 16.4618 40.6708 16.5271 40.267 16.7323C40.0977 16.8182 39.7374 17.1106 39.574 17.1369C39.4544 17.1561 39.3354 17.0529 39.2162 17.0742C38.7841 17.151 38.7182 17.2547 38.215 17.2199Z" fill="#706074"/>
            <path d="M29.0161 116.107C30.772 112.508 31.7903 108.572 33.1687 104.814C36.2017 96.5422 40.9347 88.6101 46.9718 82.2348C47.6973 83.1759 48.5973 84.03 49.4979 84.7984C49.8263 85.0789 50.0413 85.424 50.3473 85.7156L45.9553 90.6598C44.932 92.3253 43.7423 93.8765 42.6923 95.5269C40.5428 98.9049 38.7173 102.366 36.9781 105.969C35.9981 108 34.9453 110.121 34.341 112.302C34.0687 113.284 34.2011 114.232 34.253 115.238C34.3262 116.659 34.3839 118.084 34.4081 119.507C34.5443 127.523 34.6375 135.561 35.0567 143.569C35.2563 147.384 35.707 151.189 35.9919 154.997C35.3584 154.802 35.1352 154.289 34.8166 153.75L28.8441 136.957C26.571 135.763 24.2813 134.798 21.6948 134.653C20.387 130.522 19.4845 126.225 18.6974 121.964C17.5579 115.795 16.7107 109.457 16.3645 103.189C16.22 100.575 16.2725 97.9285 16.2688 95.3114L29.0161 116.107Z" fill="#1E1426"/>
            <path d="M139.956 115.299L140.027 115.165C140.145 114.886 140.123 114.623 140.126 114.326C140.963 114.287 141.683 114.974 142.345 115.482C146.126 118.379 151.043 119.408 155.709 118.869C154.845 122.669 153.73 126.456 152.7 130.217C152.52 130.875 151.761 132.845 151.978 133.384C151.622 133.496 151.28 133.597 150.913 133.66C148.24 134.12 146.422 136.171 144.972 138.325C143.922 139.884 142.911 141.701 142.254 143.469C140.958 145.584 140.031 148.372 139.146 150.708C138.842 151.514 138.647 152.503 138.169 153.216L137.844 153.184C137.401 152.229 138.161 145.121 138.251 143.61C138.815 134.08 138.818 124.471 138.836 114.905C138.837 114.784 138.883 114.667 139.003 114.621C139.072 114.596 139.155 114.597 139.235 114.607C139.294 114.619 139.353 114.637 139.413 114.652C139.546 114.681 139.679 114.709 139.813 114.741C139.864 114.753 139.916 114.759 139.956 114.781V115.299Z" fill="#D17D60"/>
        </g>
    </svg>