<svg width="942" height="181" viewBox="0 0 942 181" fill="none" xmlns="http://www.w3.org/2000/svg">
<rect y="104" width="942" height="75" fill="#A9D04E"/>
<path d="M559.234 95.302C565.464 90.8064 573.176 86.1062 582.872 83.0631C598.425 78.1816 617.222 79.4859 634.57 81.2878C638.829 81.7297 642.947 82.3392 647.251 82.7045C644.087 84.2299 640.294 86.5494 635.896 87.233L635.311 87.3294C629.27 88.2949 622.053 88.68 615.762 89.2844C598.085 90.9815 580.689 92.5144 563.944 95.7204L559.234 95.302Z" fill="#AAD5A2"/>
<path d="M806.832 25.1842L808.552 23.5751C819.259 13.9062 836.06 6.65541 858.801 3.2899C880.444 0.086866 904.082 1.01325 924.319 5.70963C930.087 4.24785 935.781 2.82733 942 1.78308V35.5332L941.595 35.4318C940.74 34.0247 935.358 32.7271 932.764 32.0482C915.912 27.649 895.935 25.808 876.969 28.29C860.757 30.4117 844.728 35.3704 835.798 41.97C831.137 45.4155 828.541 48.68 826.751 52.6217L819.403 51.9937C803.839 50.9003 787.687 53.3516 775.208 57.5879C762.328 61.961 754.177 68.8844 751.884 76.0914C750.942 79.0554 751.298 82.6314 752.8 85.533C754.165 88.1683 756.531 90.3372 758.787 92.8129C754.591 93.1172 750.378 93.3697 746.183 93.6762C742.793 93.9241 738.685 94.4376 735.298 94.0272C727.943 93.1357 720.73 91.9947 713.478 90.9429C709.926 90.4281 706.329 89.7786 702.64 89.5093C693.835 88.8661 684.791 88.8935 675.895 88.8375C672.292 85.145 668.239 81.46 662.98 78.1984C675.307 72.4317 694.7 69.7649 711.508 68.3869C708.618 63.7886 707.841 59.0215 709.708 54.2944C713.487 44.7215 724.7 36.6802 742.194 31.1386C761.216 25.1135 784.266 23.3007 806.832 25.1842Z" fill="#47C6A9"/>
<path d="M826.751 52.6216C828.541 48.6799 831.137 45.4154 835.798 41.9699C844.728 35.3702 860.757 30.4116 876.969 28.2899C895.935 25.8078 915.912 27.6488 932.764 32.0481C935.358 32.727 940.74 34.0246 941.595 35.4317L942 35.5331V67.9011V107.027L868.892 96.6762C862.48 91.3506 855.47 83.1856 842.486 80.8908C838.629 80.4901 835.157 81.0373 831.84 81.9746C825.906 83.6507 822.016 86.2257 818.325 88.8555L758.787 92.8128C756.531 90.337 754.165 88.1681 752.8 85.5329C751.298 82.6312 750.943 79.0553 751.885 76.0913C754.177 68.8843 762.328 61.9609 775.208 57.5878C787.687 53.3514 803.839 50.9001 819.403 51.9936L826.751 52.6216Z" fill="#37B89B"/>
<path d="M886.565 79.182C888.107 75.9992 888.921 73.2027 893.231 70.4652C898.881 66.8783 907.255 64.7574 916.705 64.033C925.92 63.3268 933.85 64.7456 941.264 67.1856L942 67.9011V107.027L868.892 96.6762C862.48 91.3506 855.469 83.1856 842.486 80.8909C842.734 80.4611 842.974 80.222 843.619 79.8765C848.608 77.2092 857.68 75.1969 865.416 75.093C873.653 74.9819 880.657 76.6907 886.565 79.182Z" fill="#47C6A9"/>
<path d="M41.9587 157.261C43.3967 150.422 48.5552 145.711 60.1795 141.275C68.9248 137.937 81.6125 136.379 92.8459 136.95L96.1576 137.228L96.957 137.303C108.062 138.372 118.197 141.935 124.269 146.249C128.634 149.349 130.422 152.606 131.159 156.246C137.515 152.825 143.698 150.762 153.767 150.381C156.929 150.261 160.217 150.351 163.286 150.714L163.986 150.794C170.609 151.584 176.496 153.77 179.943 156.467C183.294 159.09 183.579 161.726 183.563 164.692C187.399 162.222 192.247 160.463 198.948 159.882C201.837 159.632 205.154 159.761 207.902 160.204L208.609 160.316C212.814 161.005 216.435 162.394 218.32 164.264C220.679 166.604 220.187 169.301 219.432 171.783C226.541 168.835 232.908 167.377 242.717 167.56C248.767 167.672 253.857 168.712 258.421 170.487C257.767 168.183 258.887 166.037 262.03 164.174C265.213 162.286 269.895 161.065 275.057 160.748C280.85 160.392 286.991 161.53 291.463 163.162C296.045 164.834 299.766 167.347 300.266 170.063C300.501 171.333 300.019 172.667 299.631 173.926C304.801 171.813 311.428 170.338 318.523 170.418C324.781 170.489 331.221 171.956 335.307 174.103C338.204 175.626 339.761 177.419 340.415 179.393L340.849 180.656H0V161.848C1.46219 161.383 2.20191 160.919 3.16797 160.24L3.64624 160.242L3.72062 159.937C4.41681 157.323 6.71149 155.224 11.2324 153.551C15.4072 152.006 21.0647 151.186 26.4006 151.535C31.4443 151.864 35.9262 153.26 38.9927 155.086L40.8919 156.454L41.9587 157.261Z" fill="#23776F"/>
<path d="M99.8492 86.6281L104.614 82.9562C106.524 81.6409 108.451 80.5802 111.987 80.2599C115.916 86.2691 117.041 92.9496 118.095 99.1982C138.462 102.966 159.663 105.856 180.305 109.296C224.913 116.729 269.812 123.826 314.473 131.202C320.831 132.253 327.261 133.312 333.503 134.499C337.672 135.292 341.626 136.263 345.723 137.121C347.419 137.476 349.634 138.033 351.492 138.127C354.964 138.302 358.779 137.915 362.194 137.675C367.716 137.288 373.251 136.918 378.782 136.56C401.33 135.096 423.871 133.69 446.392 132.135C476.126 130.082 505.966 128.298 535.679 126.206C590.769 122.329 645.758 118.054 700.736 113.859C726.296 111.908 751.773 109.73 777.277 107.636C795.708 106.122 814.341 104.452 832.956 103.52L832.651 109.524C827.533 111.028 820.782 111.824 815.09 112.845C800.097 115.535 785.007 118.118 769.973 120.76C763.026 121.981 755.123 123.073 748.642 124.732L607.284 145.422L556.189 134.801C549.87 135.704 543.71 137.159 537.662 138.387C528.905 140.166 520.099 141.889 511.353 143.681C484.55 149.175 457.627 154.622 430.693 159.976L334.057 136.33L249.613 144.83L0 106.181V104.116C7.98107 103.953 16.2656 103.109 24.1817 102.55C44.3791 101.124 64.4465 99.4318 84.5742 97.8265L99.8492 86.6281Z" fill="#6FAA29"/>
<path d="M842.486 80.8909C855.469 83.1856 862.48 91.3506 868.892 96.6762L942 107.027V115.248V150.913V152.387V180.656H605.705C605.696 179.654 605.534 178.543 605.924 177.558C606.793 175.37 610.07 173.114 614.017 171.863C618.649 170.398 624.492 169.923 629.973 170.426C635.305 170.916 638.47 172.528 641.267 174.502C639.922 171.106 640.581 167.915 644.953 165.026C649.062 162.31 655.498 160.386 662.639 159.817C669.302 159.286 676.313 160.146 681.74 161.97C687.446 163.887 689.917 166.212 691.074 169.351C694.418 168.356 698.232 168.109 702.164 168.194C707.154 168.301 710.504 169.39 713.75 171.009L713.775 170.832C714.337 167.387 716.311 164.137 722.47 161.862C726.753 160.279 732.975 159.428 738.467 159.835C742.788 160.155 746.187 161.398 748.695 162.981C749.464 159.316 750.593 156.681 756.753 154.062C761.276 152.139 768.177 150.73 774.421 150.885C781.527 151.061 786.065 152.569 790.683 154.87C791.466 153.348 792.516 151.781 793.905 150.351C799.589 144.505 809.48 140.519 822.466 138.254C810.092 135.924 797.568 133.764 785.015 131.641C772.784 129.572 760.224 127.493 748.642 124.732C755.123 123.073 763.026 121.981 769.973 120.76C785.007 118.118 800.096 115.535 815.09 112.845C820.782 111.824 827.533 111.028 832.651 109.524L832.956 103.52C832.727 98.0648 835.545 92.1137 838.742 86.8744C839.942 84.9092 841.844 82.8998 842.486 80.8909Z" fill="#23776F"/>
<path d="M941.384 115.531L942 115.248V150.913V152.387C940.142 151.829 938.44 151.326 936.287 151.023L935.561 150.924L934.135 150.717C929.351 150.12 925.717 150.839 921.661 151.948C922.305 149.981 922.167 148.36 919.88 146.583C917.305 144.585 913.196 143.221 908.304 142.646C903.147 142.039 897.204 142.534 892.761 143.866C886.866 145.632 885.348 148.456 884.07 151.41C880.351 148.857 877.029 146.129 872.457 143.864C862.992 139.176 850.318 137.258 836.677 136.999L838.013 136.672C848.122 134.113 859.448 132.169 870.015 129.998C893.758 125.118 917.507 120.276 941.384 115.531Z" fill="#37B89B"/>
<path d="M344.451 84.8696C348.233 84.3674 352.773 83.8939 356.083 82.9065C358.21 82.2722 359.992 81.2642 361.741 80.4245C367.548 77.6368 373.715 73.9999 382.5 73.377C383.959 73.467 385.766 73.5213 387.103 73.7928C390.291 74.4406 393.226 76.2197 395.649 77.37C398.465 78.7072 401.561 80.0246 404.876 81.0992C409.862 82.715 415.75 83.7062 421.35 84.7795L423.194 85.0249L433.376 85.9037L483.064 89.8656L559.234 95.302L563.944 95.7203C580.689 92.5143 598.085 90.9815 615.762 89.2844C622.053 88.68 629.27 88.2948 635.311 87.3293L635.896 87.2329C640.294 86.5494 644.087 84.2298 647.251 82.7045C651.862 80.6829 655.193 78.9366 661.776 78.3759L662.98 78.1983C668.239 81.4599 672.292 85.1448 675.895 88.8374C684.791 88.8934 693.835 88.866 702.64 89.5091C706.329 89.7785 709.926 90.428 713.478 90.9427C720.73 91.9946 727.942 93.1356 735.298 94.0271C738.684 94.4375 742.793 93.9239 746.183 93.676C750.378 93.3696 754.591 93.1171 758.787 92.8128L818.325 88.8555C822.016 86.2257 825.906 83.6507 831.839 81.9746C835.157 81.0373 838.629 80.4901 842.486 80.8908C841.844 82.8998 839.942 84.9091 838.742 86.8743C835.545 92.1137 832.727 98.0648 832.956 103.52C814.341 104.452 795.708 106.122 777.277 107.636C751.773 109.73 726.296 111.908 700.736 113.859C645.758 118.054 590.769 122.329 535.679 126.206C505.966 128.298 476.126 130.082 446.392 132.135C423.871 133.69 401.33 135.096 378.782 136.56C373.251 136.918 367.716 137.288 362.194 137.675C358.779 137.915 354.964 138.302 351.492 138.127C349.634 138.033 347.419 137.476 345.723 137.121C341.626 136.263 337.672 135.292 333.503 134.499C327.261 133.312 320.831 132.253 314.473 131.202C269.812 123.826 224.913 116.729 180.305 109.296C159.663 105.856 138.462 102.966 118.095 99.1982C117.041 92.9496 115.916 86.2691 111.987 80.2599L112.614 80.3504C121.455 81.656 128.842 84.4727 137.068 86.3941C152.167 89.9204 171.208 92.2269 188.072 92.652C196.537 92.865 205.132 92.6208 213.598 92.4912C231.538 92.197 249.485 91.7614 267.357 91.0037C279.249 90.4999 291.631 89.9263 303.257 88.6699L344.451 84.8696Z" fill="url(#paint0_linear_188_948)"/>
<path d="M0.479163 4.69099C3.57555 3.61391 7.36754 2.94974 10.995 2.32975C22.4684 0.368786 34.446 -0.474701 46.6771 0.26608C64.5885 1.35116 81.4668 5.64728 92.4696 12.2667C96.8043 14.8742 99.8713 17.7359 102.979 20.6687C124.95 18.5714 147.387 20.0294 166.329 25.6917C185.202 31.3334 199.023 39.9619 203.643 50.1375L205.695 57.2191C209.842 57.0234 214.082 56.7688 218.251 56.8113C231.939 56.9514 246.311 59.2491 257 63.2001C269.002 67.6368 275.978 74.0555 277.98 80.973C278.683 83.4036 278.611 86.2199 277.351 88.6026C283.099 88.6535 288.841 88.6703 294.589 88.64C297.394 88.6253 300.533 88.3719 303.257 88.6699C291.631 89.9263 279.249 90.5 267.357 91.0038C249.485 91.7614 231.538 92.197 213.599 92.4912C205.132 92.6209 196.537 92.865 188.072 92.652C171.208 92.2269 152.167 89.9204 137.068 86.3941C128.842 84.4727 121.455 81.6561 112.614 80.3504L111.987 80.2599C108.451 80.5802 106.524 81.6409 104.614 82.9562L99.8492 86.6281L84.5742 97.8266C64.4465 99.4319 44.3791 101.124 24.1817 102.55C16.2656 103.109 7.98107 103.953 0 104.116V103.525V74.1034V42.909V4.79706L0.479163 4.69099Z" fill="#47C6A9"/>
<path d="M0.778211 42.3689C14.9474 38.4521 30.858 36.3379 47.376 38.237C60.018 39.6908 71.7315 43.0483 79.4926 47.8625C82.8385 49.938 85.1159 52.0492 87.4711 54.381C103.872 51.9393 120.777 52.3072 136.228 55.9316C151.325 59.473 162.658 65.6535 167.681 73.0663C169.475 75.7121 169.795 78.2139 170.093 80.9662C180.65 81.0192 189.747 81.8113 198.689 84.511L199.361 84.7118C205.967 86.7236 209.716 89.4207 213.598 92.4912C205.132 92.6208 196.537 92.865 188.072 92.652C171.208 92.2269 152.167 89.9204 137.068 86.3941C128.841 84.4727 121.455 81.656 112.614 80.3504L111.987 80.2599C108.451 80.5802 106.524 81.6409 104.614 82.9562L99.8492 86.6281L84.5742 97.8265C64.4465 99.4318 44.379 101.124 24.1817 102.55C16.2656 103.109 7.98107 103.953 0 104.116V103.525V74.1034V42.909L0.473928 42.821L0.778211 42.3689Z" fill="#37B89B"/>
<defs>
<linearGradient id="paint0_linear_188_948" x1="498.204" y1="132.873" x2="490.593" y2="47.3223" gradientUnits="userSpaceOnUse">
<stop stop-color="#B0D752"/>
<stop offset="1" stop-color="#91B341"/>
</linearGradient>
</defs>
</svg>
