<svg width="942" height="180" viewBox="0 0 942 180" fill="none" xmlns="http://www.w3.org/2000/svg">
<path d="M23 104.595L942 102.595V177.595H0L23 104.595Z" fill="#A9D04E"/>
<path d="M559.234 93.897C565.464 89.4014 573.176 84.7012 582.872 81.6581C598.425 76.7765 617.222 78.0809 634.57 79.8827C638.829 80.3247 642.947 80.9342 647.251 81.2995C644.087 82.8248 640.294 85.1444 635.896 85.8279L635.311 85.9243C629.27 86.8899 622.053 87.275 615.762 87.8794C598.085 89.5765 580.689 91.1094 563.944 94.3153L559.234 93.897Z" fill="#AAD5A2"/>
<path d="M806.832 23.7792L808.552 22.1701C819.259 12.5012 836.06 5.25038 858.801 1.88487C880.444 -1.31816 904.082 -0.391782 924.319 4.3046C930.087 2.84282 935.781 1.4223 942 0.37805V34.1282L941.595 34.0268C940.74 32.6197 935.358 31.3221 932.764 30.6432C915.912 26.2439 895.935 24.4029 876.969 26.885C860.757 29.0067 844.728 33.9653 835.798 40.565C831.137 44.0105 828.541 47.275 826.751 51.2167L819.403 50.5887C803.839 49.4952 787.687 51.9465 775.208 56.1829C762.328 60.556 754.177 67.4794 751.884 74.6864C750.942 77.6504 751.298 81.2263 752.8 84.128C754.165 86.7633 756.531 88.9321 758.787 91.4079C754.591 91.7122 750.378 91.9647 746.183 92.2711C742.793 92.519 738.685 93.0325 735.298 92.6222C727.943 91.7307 720.73 90.5897 713.478 89.5378C709.926 89.0231 706.329 88.3736 702.64 88.1042C693.835 87.4611 684.791 87.4885 675.895 87.4325C672.292 83.7399 668.239 80.055 662.98 76.7934C675.307 71.0267 694.7 68.3599 711.508 66.9819C708.618 62.3835 707.841 57.6165 709.708 52.8893C713.487 43.3164 724.7 35.2752 742.194 29.7336C761.216 23.7085 784.266 21.8957 806.832 23.7792Z" fill="#47C6A9"/>
<path d="M826.751 51.2166C828.541 47.2749 831.137 44.0104 835.798 40.5649C844.728 33.9652 860.757 29.0066 876.969 26.8848C895.935 24.4028 915.912 26.2438 932.764 30.643C935.358 31.322 940.74 32.6196 941.595 34.0267L942 34.1281V66.496V105.622L868.892 95.2712C862.48 89.9455 855.47 81.7805 842.486 79.4858C838.629 79.0851 835.157 79.6323 831.84 80.5696C825.906 82.2456 822.016 84.8207 818.325 87.4504L758.787 91.4077C756.531 88.932 754.165 86.7631 752.8 84.1279C751.298 81.2262 750.943 77.6502 751.885 74.6863C754.177 67.4792 762.328 60.5559 775.208 56.1828C787.687 51.9464 803.839 49.4951 819.403 50.5886L826.751 51.2166Z" fill="#37B89B"/>
<path d="M886.565 77.777C888.107 74.5941 888.921 71.7977 893.231 69.0602C898.881 65.4733 907.255 63.3524 916.705 62.628C925.92 61.9217 933.85 63.3406 941.264 65.7805L942 66.4961V105.622L868.892 95.2712C862.48 89.9456 855.469 81.7806 842.486 79.4858C842.734 79.0561 842.974 78.817 843.619 78.4714C848.608 75.8042 857.68 73.7919 865.416 73.6879C873.653 73.5768 880.657 75.2857 886.565 77.777Z" fill="#47C6A9"/>
<path d="M41.9587 155.856C43.3967 149.017 48.5552 144.306 60.1795 139.87C68.9248 136.532 81.6124 134.974 92.8459 135.545L96.1576 135.823L96.957 135.898C108.062 136.967 118.197 140.53 124.269 144.844C128.634 147.944 130.422 151.201 131.159 154.841C137.515 151.42 143.698 149.357 153.767 148.976C156.929 148.856 160.217 148.946 163.286 149.309L163.986 149.389C170.609 150.179 176.496 152.365 179.943 155.062C183.294 157.685 183.579 160.321 183.563 163.287C187.399 160.817 192.247 159.058 198.948 158.477C201.837 158.227 205.154 158.356 207.902 158.799L208.609 158.911C212.814 159.6 216.435 160.989 218.32 162.859C220.679 165.199 220.187 167.895 219.432 170.378C226.541 167.43 232.908 165.972 242.717 166.155C248.767 166.267 253.857 167.307 258.421 169.082C257.767 166.778 258.887 164.632 262.03 162.769C265.213 160.881 269.895 159.66 275.057 159.343C280.85 158.987 286.991 160.125 291.463 161.757C296.045 163.429 299.766 165.942 300.266 168.658C300.501 169.928 300.019 171.262 299.631 172.521C304.801 170.408 311.428 168.933 318.523 169.013C324.781 169.084 331.221 170.551 335.307 172.698C338.204 174.221 339.761 176.014 340.415 177.988L340.849 179.251H0C3.16797 179.251 28 161.757 28 161.757L38.9927 153.681L40.8919 155.049L41.9587 155.856Z" fill="#23776F"/>
<path d="M99.8492 85.2231L104.614 81.5511C106.524 80.2358 108.451 79.1752 111.987 78.8549C115.916 84.864 117.041 91.5445 118.095 97.7932C138.462 101.561 159.663 104.451 180.305 107.891C224.913 115.324 269.812 122.421 314.473 129.797C320.831 130.848 327.261 131.907 333.503 133.094C337.672 133.887 341.626 134.857 345.723 135.716C347.419 136.071 349.634 136.628 351.492 136.722C354.964 136.897 358.779 136.51 362.194 136.27C367.716 135.883 373.251 135.513 378.782 135.155C401.33 133.691 423.871 132.285 446.392 130.73C476.126 128.677 505.966 126.893 535.679 124.801C590.769 120.924 645.758 116.649 700.736 112.454C726.296 110.503 751.773 108.325 777.277 106.231C795.708 104.717 814.341 103.047 832.956 102.115L832.651 108.119C827.533 109.623 820.782 110.419 815.09 111.44C800.097 114.13 785.007 116.713 769.973 119.355C763.026 120.576 755.123 121.668 748.642 123.327L607.284 144.017L556.189 133.396C549.87 134.299 543.71 135.754 537.662 136.982C528.905 138.761 520.099 140.484 511.353 142.276C484.55 147.77 457.627 153.217 430.693 158.571L334.057 134.925L249.613 143.425L30 125.595L32.5 119.095C40.4811 118.932 37.5839 114.154 45.5 113.595C65.6973 112.169 64.4465 98.0268 84.5742 96.4215L99.8492 85.2231Z" fill="#6FAA29"/>
<path d="M842.486 79.4858C855.469 81.7806 862.48 89.9456 868.892 95.2712L942 105.622V113.843V149.508V150.982V179.251H605.705C605.696 178.249 605.534 177.138 605.924 176.153C606.793 173.965 610.07 171.708 614.017 170.458C618.649 168.993 624.492 168.518 629.973 169.021C635.305 169.511 638.47 171.123 641.267 173.097C639.922 169.701 640.581 166.51 644.953 163.621C649.062 160.905 655.498 158.981 662.639 158.412C669.302 157.881 676.313 158.741 681.74 160.565C687.446 162.482 689.917 164.807 691.074 167.946C694.418 166.951 698.232 166.704 702.164 166.789C707.154 166.896 710.504 167.985 713.75 169.604L713.775 169.427C714.337 165.982 716.311 162.732 722.47 160.457C726.753 158.874 732.975 158.023 738.467 158.43C742.788 158.75 746.187 159.993 748.695 161.576C749.464 157.911 750.593 155.276 756.753 152.657C761.276 150.734 768.177 149.325 774.421 149.48C781.527 149.656 786.065 151.164 790.683 153.465C791.466 151.943 792.516 150.376 793.905 148.946C799.589 143.1 809.48 139.114 822.466 136.849C810.092 134.519 797.568 132.359 785.015 130.236C772.784 128.167 760.224 126.088 748.642 123.327C755.123 121.668 763.026 120.576 769.973 119.355C785.007 116.713 800.096 114.13 815.09 111.44C820.782 110.419 827.533 109.623 832.651 108.119L832.956 102.115C832.727 96.6598 835.545 90.7087 838.742 85.4693C839.942 83.5042 841.844 81.4948 842.486 79.4858Z" fill="#23776F"/>
<path d="M941.384 114.126L942 113.843V149.508V150.982C940.142 150.424 938.44 149.921 936.287 149.618L935.561 149.519L934.135 149.312C929.351 148.715 925.717 149.434 921.661 150.543C922.305 148.576 922.167 146.955 919.88 145.178C917.305 143.18 913.196 141.816 908.304 141.241C903.147 140.634 897.204 141.129 892.761 142.461C886.866 144.227 885.348 147.051 884.07 150.005C880.351 147.452 877.029 144.724 872.457 142.459C862.992 137.771 850.318 135.853 836.677 135.594L838.013 135.267C848.122 132.708 859.448 130.764 870.015 128.592C893.758 123.713 917.507 118.871 941.384 114.126Z" fill="#37B89B"/>
<path d="M344.451 83.4646C348.233 82.9624 352.773 82.4889 356.083 81.5015C358.21 80.8672 359.992 79.8591 361.741 79.0194C367.548 76.2318 373.715 72.5949 382.5 71.9719C383.959 72.062 385.766 72.1163 387.103 72.3878C390.291 73.0355 393.226 74.8147 395.649 75.965C398.465 77.3022 401.561 78.6196 404.876 79.6941C409.862 81.31 415.75 82.3012 421.35 83.3745L423.194 83.6199L433.376 84.4987L483.064 88.4606L559.234 93.8969L563.944 94.3153C580.689 91.1093 598.085 89.5764 615.762 87.8794C622.053 87.275 629.27 86.8898 635.311 85.9243L635.896 85.8279C640.294 85.1444 644.087 82.8248 647.251 81.2995C651.862 79.2779 655.193 77.5316 661.776 76.9709L662.98 76.7933C668.239 80.0548 672.292 83.7398 675.895 87.4324C684.791 87.4883 693.835 87.461 702.64 88.1041C706.329 88.3735 709.926 89.0229 713.478 89.5377C720.73 90.5895 727.942 91.7306 735.298 92.622C738.684 93.0324 742.793 92.5189 746.183 92.271C750.378 91.9646 754.591 91.7121 758.787 91.4078L818.325 87.4504C822.016 84.8207 825.906 82.2456 831.839 80.5696C835.157 79.6323 838.629 79.0851 842.486 79.4858C841.844 81.4947 839.942 83.5041 838.742 85.4693C835.545 90.7086 832.727 96.6597 832.956 102.115C814.341 103.047 795.708 104.717 777.277 106.231C751.773 108.325 726.296 110.503 700.736 112.454C645.758 116.649 590.769 120.924 535.679 124.801C505.966 126.893 476.126 128.677 446.392 130.73C423.871 132.285 401.33 133.691 378.782 135.155C373.251 135.513 367.716 135.883 362.194 136.27C358.779 136.51 354.964 136.897 351.492 136.722C349.634 136.628 347.419 136.071 345.723 135.716C341.626 134.857 337.672 133.887 333.503 133.094C327.261 131.907 320.831 130.848 314.473 129.797C269.812 122.421 224.913 115.324 180.305 107.891C159.663 104.451 138.462 101.561 118.095 97.7932C117.041 91.5445 115.916 84.864 111.987 78.8549L112.614 78.9454C121.455 80.251 128.842 83.0676 137.068 84.989C152.167 88.5153 171.208 90.8219 188.072 91.247C196.537 91.4599 205.132 91.2158 213.598 91.0862C231.538 90.792 249.485 90.3563 267.357 89.5987C279.249 89.0949 291.631 88.5212 303.257 87.2648L344.451 83.4646Z" fill="url(#paint0_linear_189_1835)"/>
<path d="M28 70.595C45.4265 37.478 85.7952 17.8268 107.5 17.095C122.821 16.5784 137.393 29.1622 140.5 32.095C162.471 29.9977 162.558 15.9327 181.5 21.595C200.373 27.2367 206.38 27.4194 211 37.595L215.5 55.8141C219.646 55.6184 230.331 55.7716 234.5 55.8141C248.188 55.9543 246.311 57.8441 257 61.7951C269.002 66.2318 275.977 72.6505 277.98 79.568C278.683 81.9986 278.611 84.8149 277.351 87.1976C283.099 87.2485 288.841 87.2653 294.589 87.235C297.394 87.2203 300.533 86.9669 303.257 87.2649C291.631 88.5213 279.249 89.095 267.357 89.5988C249.485 90.3564 231.538 90.792 213.599 91.0862C205.132 91.2159 196.537 91.46 188.072 91.247C171.208 90.8219 152.167 88.5154 137.068 84.9891C128.842 83.0677 121.455 80.2511 112.614 78.9454L111.987 78.8549C108.451 79.1752 106.524 80.2359 104.614 81.5512L99.8492 85.2231L84.5742 96.4216C64.4465 98.0269 56.1973 128.169 36 129.595C28.0839 130.154 8.46022 177.432 0.479156 177.595C0.479156 177.595 18 89.5988 28 70.595Z" fill="#47C6A9"/>
<path d="M0.473923 178.095C14.6432 174.178 16.899 95.6223 57.5 71.5949C72.5992 62.6593 99.8492 56.5949 99.8492 56.5949C99.8492 56.5949 134.549 45.4706 150 49.095C165.097 52.6364 167.976 55.1821 173 62.595C174.794 65.2407 182 80.042 170.093 79.5612C180.65 79.6142 189.747 80.4063 198.689 83.106L199.361 83.3067C205.967 85.3186 209.716 88.0157 213.598 91.0862C205.132 91.2158 196.537 91.4599 188.072 91.247C171.208 90.8219 152.167 88.5153 137.068 84.9891C128.841 83.0677 121.454 80.251 112.614 78.9454L111.987 78.8549C108.451 79.1752 106.524 80.2358 104.614 81.5512L99.8492 85.2231L84.5742 96.4215C64.4465 98.0268 82.1973 119.169 62 120.595C54.0839 121.154 8.45499 177.932 0.473923 178.095Z" fill="#37B89B"/>
<defs>
<linearGradient id="paint0_linear_189_1835" x1="498.204" y1="131.468" x2="490.593" y2="45.9173" gradientUnits="userSpaceOnUse">
<stop stop-color="#B0D752"/>
<stop offset="1" stop-color="#91B341"/>
</linearGradient>
</defs>
</svg>
