<svg width="942" height="180" viewBox="0 0 942 180" fill="none" xmlns="http://www.w3.org/2000/svg">
<path d="M109.5 47.5C109.5 47.5 94.2397 8.07514 71.4992 4.70963C49.8562 1.5066 37.9177 0.0132496 17.6803 4.70963C11.9124 3.24785 6.21811 1.82733 -0.000564575 0.783081V34.5332L0.40419 34.4318C1.25972 33.0248 6.64125 31.7271 9.23543 31.0482C26.0875 26.649 62.9997 38.5 62.9997 38.5L107.5 179.5H179C181.89 174.902 176.724 100.766 130 74C106.403 60.4825 109.5 47.5 109.5 47.5Z" fill="#47C6A9"/>
<path d="M68.5 37C48.0891 25.7775 9.23599 30.2733 9.23599 30.2733C9.23599 30.2733 1.26028 32.2498 0.404755 33.6569L-1.52588e-05 33.7583V66.1262V105.253L43.0004 123.725L71.5004 179.225H141.5C141.5 179.225 124.508 129.924 109 100.5C95.286 74.4801 94.2738 51.1711 68.5 37Z" fill="#37B89B"/>
<path d="M55.4352 78.182C53.8924 74.9992 53.0792 72.2027 48.7685 69.4652C43.1183 65.8783 34.7452 63.7574 25.2948 63.033C16.08 62.3268 8.1502 63.7456 0.735626 66.1856L-0.000297546 66.9011V106.027L78 130C78 130 73 90 67 85C62.0113 82.3328 55.4352 78.182 55.4352 78.182Z" fill="#47C6A9"/>
<path d="M-3.05176e-05 106.027L43 100C43 100 60.5001 123 74.5001 127.5C92.5001 140 93.0001 130.5 97.0001 179.656H-3.05176e-05V151.387V149.913V114.248V106.027Z" fill="#23776F"/>
<path d="M0.616043 114.531L-0.000293732 114.248V149.913V151.387C1.85795 150.829 3.55982 150.326 5.71244 150.023L6.43916 149.924L7.86502 149.717C12.6486 149.12 16.2823 149.839 20.3392 150.948C19.6952 148.981 19.8332 147.36 22.1202 145.583C24.695 143.585 28.608 146.158 33.5002 145.583C38.6572 144.976 42.5569 148.386 47.0002 149.717C52.895 151.484 29 131.5 29 131.5C5.25682 126.621 24.4926 119.276 0.616043 114.531Z" fill="#37B89B"/>
<path d="M861 65.5C824.6 104.359 783.5 180 783.5 180H942V20.5C942 20.5 897.4 26.6407 861 65.5Z" fill="#47C6A9"/>
<path d="M881.82 140.275C893.445 144.711 898.603 149.422 900.041 156.261L901.108 155.454L903.007 154.086C906.074 152.26 910.556 150.864 915.599 150.535C920.935 150.186 926.593 151.006 930.767 152.551C935.288 154.224 937.583 156.323 938.279 158.937L938.354 159.242L938.832 159.24C939.798 159.919 940.538 160.383 942 160.848V180H800C800.736 176.36 810.576 156.125 823.5 147C842.229 133.776 870.196 135.838 881.82 140.275Z" fill="#23776F"/>
<path d="M942 55V82.5C929 89.5 887.5 142.5 887.5 142.5C887.5 142.5 895.49 76.4367 942 55Z" fill="#37B89B"/>
</svg>
