<svg width="943" height="179" viewBox="0 0 943 179" fill="none" xmlns="http://www.w3.org/2000/svg">
<path d="M108.424 88.7378L444.669 88.7379L806.084 105.475H942.26V113.683V150.77V179H605.872H340.943H0V160.218V155.653V99.3162L63.2476 101.977L108.424 88.7378Z" fill="url(#paint0_linear_213_1125)"/>
<path d="M559.389 93.7655C565.62 89.2762 573.334 84.5826 583.033 81.5438C598.59 76.6691 617.392 77.9716 634.746 79.7709C639.005 80.2122 643.125 80.8209 647.429 81.1857C644.265 82.7089 640.471 85.0252 636.072 85.7078L635.486 85.804C629.443 86.7682 622.225 87.1528 615.932 87.7564C598.25 89.4511 580.849 90.9818 564.1 94.1833L559.389 93.7655Z" fill="#AAD5A2"/>
<path d="M807.055 23.7459L808.775 22.139C819.485 12.4837 836.291 5.24302 859.037 1.88223C880.686 -1.31632 904.331 -0.391232 924.574 4.29857C930.344 2.83884 936.04 1.42031 942.26 0.37752V34.0804L941.855 33.9791C940.999 32.574 935.616 31.2782 933.021 30.6003C916.165 26.2072 896.182 24.3687 877.211 26.8473C860.995 28.9661 844.961 33.9178 836.028 40.5082C831.366 43.9489 828.769 47.2088 826.979 51.145L819.629 50.5179C804.061 49.4259 787.904 51.8738 775.422 56.1042C762.539 60.4712 754.385 67.3848 752.092 74.5818C751.15 77.5416 751.505 81.1125 753.007 84.0101C754.373 86.6417 756.74 88.8076 758.996 91.2798C754.799 91.5837 750.585 91.8359 746.389 92.1419C742.998 92.3894 738.888 92.9022 735.501 92.4924C728.143 91.6022 720.929 90.4627 713.675 89.4124C710.122 88.8983 706.524 88.2498 702.834 87.9808C694.026 87.3386 684.98 87.3659 676.082 87.31C672.477 83.6226 668.423 79.9428 663.163 76.6858C675.493 70.9272 694.892 68.2641 711.704 66.8881C708.813 62.2962 708.037 57.5358 709.904 52.8153C713.684 43.2558 724.9 35.2258 742.399 29.692C761.426 23.6752 784.482 21.865 807.055 23.7459Z" fill="#47C6A9"/>
<path d="M826.979 51.145C828.769 47.2088 831.366 43.9489 836.028 40.5082C844.961 33.9178 860.995 28.9661 877.211 26.8473C896.182 24.3687 916.165 26.2072 933.021 30.6003C935.616 31.2782 940.999 32.574 941.855 33.9791L942.26 34.0804L942.26 66.403V105.475L869.132 95.1378C862.718 89.8196 855.705 81.6661 842.718 79.3746C838.861 78.9744 835.387 79.5208 832.069 80.4569C826.134 82.1305 822.242 84.702 818.551 87.3281L758.996 91.2798C756.74 88.8076 754.373 86.6417 753.007 84.0101C751.505 81.1125 751.15 77.5416 752.092 74.5818C754.385 67.3848 762.539 60.4712 775.422 56.1042C787.904 51.8738 804.061 49.4259 819.629 50.5179L826.979 51.145Z" fill="#37B89B"/>
<path d="M886.809 77.6681C888.352 74.4898 889.166 71.6972 893.478 68.9635C899.129 65.3817 907.505 63.2637 916.958 62.5404C926.175 61.8351 934.107 63.252 941.524 65.6885L942.26 66.403V105.475L869.132 95.1378C862.718 89.8196 855.705 81.6661 842.718 79.3746C842.966 78.9454 843.207 78.7067 843.852 78.3616C848.842 75.6981 857.916 73.6886 865.655 73.5848C873.894 73.4738 880.9 75.1803 886.809 77.6681Z" fill="#47C6A9"/>
<path d="M0 155.653L3.16885 158.613C2.20251 159.29 1.46259 159.754 0 160.218V155.653Z" fill="#158184"/>
<path d="M41.9702 155.638C43.4086 148.809 48.5686 144.104 60.1961 139.674C68.9438 136.341 81.635 134.785 92.8715 135.355L96.1841 135.633L96.9838 135.708C108.092 136.776 118.23 140.334 124.303 144.641C128.669 147.737 130.458 150.989 131.195 154.624C137.552 151.208 143.738 149.148 153.809 148.767C156.972 148.647 160.261 148.737 163.331 149.1L164.031 149.18C170.656 149.968 176.545 152.151 179.993 154.845C183.345 157.465 183.629 160.097 183.614 163.058C187.451 160.592 192.3 158.835 199.003 158.256C201.893 158.006 205.21 158.135 207.96 158.577L208.666 158.688C212.873 159.377 216.494 160.764 218.38 162.631C220.74 164.968 220.248 167.66 219.492 170.14C226.603 167.196 232.972 165.74 242.784 165.922C248.836 166.034 253.927 167.072 258.492 168.846C257.838 166.545 258.959 164.402 262.102 162.541C265.286 160.656 269.969 159.436 275.133 159.12C280.928 158.765 287.07 159.901 291.543 161.53C296.126 163.201 299.848 165.709 300.349 168.422C300.584 169.69 300.102 171.022 299.713 172.279C304.885 170.169 311.514 168.696 318.611 168.776C324.871 168.847 331.312 170.312 335.399 172.456C338.297 173.977 339.855 175.768 340.509 177.739L340.943 179H0V160.218C1.46259 159.754 2.20251 159.29 3.16885 158.613L3.64725 158.615L3.72165 158.31C4.41803 155.7 6.71335 153.604 11.2355 151.933C15.4115 150.39 21.0706 149.571 26.4078 149.92C31.453 150.249 35.9361 151.642 39.0035 153.466L40.9032 154.832L41.9702 155.638Z" fill="#23776F"/>
<path d="M99.8768 85.1038L104.643 81.437C106.554 80.1235 108.481 79.0643 112.018 78.7445C115.948 84.7452 117.073 91.4164 118.128 97.6563C138.5 101.418 159.707 104.305 180.354 107.739C224.975 115.163 269.887 122.25 314.56 129.616C320.919 130.664 327.352 131.723 333.595 132.908C337.765 133.699 341.72 134.669 345.819 135.526C347.514 135.88 349.73 136.437 351.589 136.531C355.062 136.705 358.878 136.319 362.294 136.08C367.817 135.693 373.354 135.323 378.887 134.965C401.44 133.504 423.987 132.1 446.515 130.547C476.257 128.497 506.106 126.715 535.826 124.627C590.932 120.755 645.936 116.486 700.929 112.296C726.496 110.348 751.98 108.174 777.491 106.082C795.927 104.57 814.565 102.903 833.186 101.972L832.88 107.967C827.761 109.469 821.008 110.265 815.315 111.284C800.317 113.971 785.223 116.549 770.185 119.188C763.237 120.408 755.332 121.498 748.849 123.155L607.451 143.815L556.343 133.209C550.022 134.111 543.86 135.564 537.81 136.79C529.051 138.567 520.242 140.287 511.494 142.077C484.683 147.563 457.753 153.002 430.811 158.349L334.149 134.736L249.682 143.224L78.7368 109.223L0 155.653C7.98327 155.49 41.1309 105.378 49.0491 104.82C69.2521 103.396 64.4643 97.8896 84.5975 96.2865L99.8768 85.1038Z" fill="#EE8642"/>
<path d="M842.718 79.3746C855.705 81.6661 862.718 89.8196 869.132 95.1378L942.26 105.475V113.683V150.77V179H605.872C605.863 178 605.701 176.89 606.091 175.907C606.961 173.721 610.238 171.468 614.187 170.22C618.82 168.756 624.664 168.282 630.147 168.785C635.481 169.274 638.646 170.884 641.444 172.855C640.098 169.463 640.758 166.277 645.13 163.392C649.241 160.68 655.678 158.758 662.822 158.19C669.487 157.66 676.499 158.519 681.928 160.34C687.635 162.255 690.107 164.577 691.264 167.711C694.609 166.717 698.424 166.471 702.358 166.556C707.349 166.663 710.7 167.75 713.947 169.367L713.972 169.19C714.534 165.75 716.508 162.505 722.669 160.232C726.953 158.652 733.178 157.802 738.671 158.208C742.993 158.528 746.393 159.769 748.901 161.35C749.671 157.69 750.8 155.058 756.962 152.443C761.486 150.523 768.389 149.116 774.635 149.27C781.743 149.446 786.282 150.952 790.901 153.25C791.684 151.73 792.735 150.166 794.124 148.738C799.809 142.9 809.703 138.919 822.693 136.657C810.316 134.33 797.788 132.173 785.232 130.053C772.997 127.988 760.434 125.911 748.849 123.155C755.332 121.498 763.237 120.408 770.185 119.188C785.223 116.549 800.317 113.971 815.315 111.284C821.008 110.265 827.761 109.469 832.88 107.967L833.186 101.972C832.957 96.5244 835.775 90.5817 838.974 85.3497C840.174 83.3873 842.077 81.3807 842.718 79.3746Z" fill="#23776F"/>
<path d="M941.643 113.966L942.26 113.683V150.77C940.401 150.213 938.699 149.711 936.546 149.408L935.819 149.31L934.392 149.103C929.608 148.507 925.973 149.225 921.915 150.332C922.559 148.368 922.421 146.749 920.133 144.975C917.558 142.979 913.448 141.617 908.555 141.043C903.396 140.438 897.452 140.931 893.008 142.261C887.111 144.025 885.593 146.846 884.314 149.795C880.594 147.246 877.271 144.521 872.697 142.26C863.23 137.579 850.553 135.663 836.908 135.404L838.244 135.078C848.356 132.522 859.685 130.581 870.255 128.413C894.005 123.54 917.76 118.704 941.643 113.966Z" fill="#C86D2D"/>
<path d="M842.718 79.3746C855.705 81.6661 862.718 89.8196 869.132 95.1378L942.26 105.475V113.683L941.643 113.966C917.76 118.704 894.005 123.54 870.255 128.413C859.685 130.581 848.356 132.522 838.244 135.078L836.908 135.404C831.976 135.666 827.47 136.015 822.693 136.657C810.316 134.33 797.788 132.173 785.232 130.053C772.997 127.988 760.434 125.911 748.849 123.155C755.332 121.498 763.237 120.408 770.185 119.188C785.223 116.549 800.317 113.971 815.315 111.284C821.008 110.265 827.761 109.469 832.88 107.967L833.186 101.972C832.957 96.5244 835.775 90.5817 838.974 85.3497C840.174 83.3873 842.077 81.3807 842.718 79.3746Z" fill="#D57E35"/>
<path d="M344.546 83.3477C348.329 82.8463 352.871 82.3734 356.182 81.3874C358.309 80.754 360.091 79.7473 361.841 78.9088C367.65 76.1251 373.818 72.4933 382.605 71.8712C384.065 71.9611 385.872 72.0153 387.21 72.2864C390.398 72.9333 393.335 74.71 395.758 75.8587C398.575 77.194 401.671 78.5095 404.988 79.5826C409.975 81.1962 415.864 82.186 421.466 83.2578L423.311 83.5028L433.496 84.3804L483.197 88.3368L559.389 93.7655L564.1 94.1833C580.849 90.9818 598.25 89.4511 615.932 87.7564C622.225 87.1528 629.443 86.7682 635.486 85.804L636.072 85.7078C640.471 85.0252 644.265 82.7089 647.429 81.1857C652.042 79.1669 655.374 77.423 661.959 76.8632L663.163 76.6858C668.423 79.9428 672.477 83.6226 676.082 87.31C684.98 87.3659 694.026 87.3386 702.834 87.9808C706.524 88.2498 710.122 88.8983 713.675 89.4124C720.929 90.4627 728.143 91.6022 735.501 92.4924C738.888 92.9022 742.998 92.3894 746.389 92.1419C750.585 91.8359 754.799 91.5837 758.996 91.2798L818.551 87.3281C822.242 84.702 826.134 82.1305 832.069 80.4569C835.387 79.5208 838.861 78.9744 842.718 79.3746C842.077 81.3807 840.174 83.3873 838.974 85.3497C835.775 90.5817 832.957 96.5244 833.186 101.972C814.565 102.903 795.927 104.57 777.491 106.082C751.98 108.174 726.496 110.348 700.929 112.296C645.936 116.486 590.932 120.755 535.826 124.627C506.106 126.715 476.257 128.497 446.515 130.547C423.987 132.1 401.44 133.504 378.887 134.965C373.354 135.323 367.817 135.693 362.294 136.08C358.878 136.319 355.062 136.705 351.589 136.531C349.73 136.437 347.514 135.88 345.819 135.526C341.72 134.669 337.765 133.699 333.595 132.908C327.352 131.723 320.919 130.664 314.56 129.616C269.887 122.25 224.975 115.163 180.354 107.739C159.707 104.305 138.5 101.418 118.128 97.6563C117.073 91.4164 115.948 84.7452 112.018 78.7445L112.645 78.8349C121.488 80.1387 128.877 82.9514 137.106 84.8701C152.209 88.3914 171.255 90.6947 188.123 91.1192C196.591 91.3319 205.188 91.0881 213.657 90.9587C231.602 90.6649 249.554 90.2298 267.431 89.4733C279.326 88.9702 291.711 88.3973 303.341 87.1427L344.546 83.3477Z" fill="url(#paint1_linear_213_1125)"/>
<path d="M661.959 76.8632L663.163 76.6858C668.423 79.9428 672.477 83.6226 676.082 87.31C671.859 87.3159 667.679 87.1099 663.958 86.1419L663.434 85.7451L662.839 85.3135C659.681 82.911 660.547 79.467 661.959 76.8632Z" fill="#E8785A"/>
<path d="M382.605 71.8712C384.065 71.9611 385.872 72.0153 387.21 72.2864C390.398 72.9333 393.335 74.71 395.758 75.8587C398.575 77.194 401.671 78.5095 404.988 79.5826C409.975 81.1962 415.864 82.186 421.466 83.2578L420.794 83.4435C416.145 84.5544 389.266 83.9719 384.113 83.1653C382.384 82.8942 381.379 82.534 380.577 81.7787L380.344 81.5467C377.92 79.2232 381.173 74.3014 382.605 71.8712Z" fill="#E8785A"/>
<path d="M0 19.5C0 19.5 9 3.5 47.389 0.798389C66.034 -0.513741 79.5145 5.20139 92.4951 10.8466C96.831 13.4504 99.8989 16.3081 103.007 19.2368C124.985 17.1424 147.428 18.5984 166.375 24.2528C185.253 29.8866 199.078 38.503 203.699 48.6643L205.752 55.736C209.899 55.5406 214.141 55.2863 218.312 55.3287C232.003 55.4687 246.379 57.7632 257.07 61.7086C269.076 66.1391 276.054 72.5488 278.057 79.4566C278.76 81.8838 278.688 84.6961 277.427 87.0755C283.177 87.1264 288.92 87.1432 294.671 87.1129C297.476 87.0982 300.616 86.8451 303.341 87.1427C291.711 88.3973 279.326 88.9702 267.431 89.4733C249.554 90.2298 231.602 90.6649 213.657 90.9587C205.188 91.0881 196.591 91.3319 188.123 91.1192C171.255 90.6947 152.209 88.3914 137.106 84.8701C128.877 82.9514 121.488 80.1387 112.645 78.8349L112.018 78.7445C108.481 79.0643 106.554 80.1235 104.643 81.437L99.8768 85.1038L84.5975 96.2865C64.4643 97.8896 69.2521 103.396 49.0491 104.82C41.1309 105.378 7.98327 155.49 0 155.653V99.3162V81.2369V54V19.5Z" fill="#47C6A9"/>
<path d="M0 54C2 53 30.046 41.238 50 43C59.8124 43.8665 66.7368 44.1925 74.5 49C77.8469 51.0725 82.1442 54.1715 84.5 56.5C100.905 54.0618 120.811 50.8311 136.266 54.4503C151.367 57.9868 162.703 64.1586 167.728 71.5611C169.522 74.2031 169.842 76.7015 170.14 79.4499C180.699 79.5028 189.799 80.2938 198.744 82.9897L199.416 83.1902C206.024 85.1993 209.774 87.8925 213.657 90.9587C205.188 91.0881 196.591 91.3319 188.123 91.1192C171.255 90.6947 152.209 88.3914 137.106 84.8701C128.877 82.9514 121.488 80.1387 112.645 78.8349L112.018 78.7445C108.481 79.0643 106.554 80.1235 104.643 81.437L99.8768 85.1038L84.5975 96.2865C64.4643 97.8896 69.2521 103.396 49.0491 104.82C41.1309 105.378 7.98327 155.49 0 155.653V99.3162V81.2369V54Z" fill="#37B89B"/>
<path d="M0 81.2369C2.76914 79.4649 21.1393 63.8413 36.6973 65.2918C44.9224 66.0587 52.2843 69.0544 56.5636 72.5568C58.2407 73.9296 59.2797 75.4233 59.8157 76.9701L59.9455 77.3214C60.9638 80.2859 59.7381 83.1604 59.0301 86.0941C64.6065 84.3087 69.5563 82.9103 76.1679 81.9852C81.9875 81.1707 88.178 81.8158 93.3969 83.1125C95.7369 83.6938 97.9554 84.2539 99.8768 85.1038L84.5975 96.2865C64.4643 97.8896 69.2521 103.396 49.0491 104.82C41.1309 105.378 7.98327 155.49 0 155.653V99.3162V81.2369Z" fill="#47C6A9"/>
<defs>
<linearGradient id="paint0_linear_213_1125" x1="463.528" y1="-455.665" x2="444.177" y2="104.661" gradientUnits="userSpaceOnUse">
<stop stop-color="#59A6B1"/>
<stop offset="0.535991" stop-color="#93A493"/>
<stop offset="1" stop-color="#E7A069"/>
</linearGradient>
<linearGradient id="paint1_linear_213_1125" x1="498.176" y1="164.364" x2="454.376" y2="-65.5029" gradientUnits="userSpaceOnUse">
<stop stop-color="#F5994F"/>
<stop offset="1" stop-color="#F9BB5F"/>
</linearGradient>
</defs>
</svg>
