<svg width="80" height="153" viewBox="0 0 80 153" fill="none" xmlns="http://www.w3.org/2000/svg">
<g filter="url(#filter0_di_421_92)">
<rect x="6" y="1.90161" width="4.5" height="114.098" fill="#FF9C66"/>
</g>
<g filter="url(#filter1_d_421_92)">
<path d="M6 0C19.158 3.02041 26.0001 6.04082 39.158 6.04082C52.3158 6.04082 57.579 12.0816 66 20.3878C33.8948 17.3673 35.9999 37 6 37V0Z" fill="url(#paint0_linear_421_92)"/>
<path d="M6.5 36.4982V0.628831C9.65957 1.36493 12.4624 2.10081 15.0912 2.79098C23.0255 4.87407 29.3739 6.54082 39.158 6.54082C45.6481 6.54082 50.1593 8.0272 54.0873 10.5216C57.5785 12.7386 60.6166 15.7532 64.1904 19.2994C64.3482 19.456 64.507 19.6136 64.667 19.7723C57.284 19.2092 51.7343 19.8758 47.1575 21.2297C42.3027 22.6658 38.5706 24.8677 34.9452 27.1374C34.5704 27.3721 34.1968 27.6074 33.8234 27.8425C30.5783 29.8865 27.3419 31.9249 23.3321 33.5148C18.9721 35.2435 13.6854 36.4449 6.5 36.4982Z" stroke="#A57C25" stroke-opacity="0.56"/>
</g>
<g filter="url(#filter2_di_421_92)">
<path d="M7.41568 110.181C11.2796 105.593 65.084 106.719 70.5966 108.888C77.1674 111.473 78.1461 128.178 75.9346 131.671C72.3965 134.903 63.8039 139.608 60.0646 140.073C42.5753 144.412 32.9719 143.513 18.8194 140.073C13.4096 138.484 7.55319 135.548 3.85823 132.641C2.20176 131.337 3.36605 126.827 3.85823 121.976C4.34222 117.206 5.66149 112.264 7.41568 110.181Z" fill="#747271"/>
</g>
<g filter="url(#filter3_di_421_92)">
<path d="M10.9749 107.271C18.5978 103.522 24.4294 103.021 36.9032 103.021C47.8729 103.021 54.6849 102.713 61.3356 104.438C66.5963 105.802 69.9472 107.462 72.8038 109.981C79.2347 115.652 70.0307 122.156 64.5459 124.49C57.6977 127.405 33.1327 131.243 13.6866 123.156C5.90694 119.921 2.44107 111.469 10.9749 107.271Z" fill="#CDC2B6"/>
</g>
<g filter="url(#filter4_i_421_92)">
<path d="M11.2647 109.338C17 107.5 11.2647 111.638 15.5 114.26C16.9043 115.129 15.2492 116.887 13.6176 117.213C11.5806 117.62 7.49998 116.992 7.5 114.588C7.50001 112.912 9.07808 110.039 11.2647 109.338Z" fill="#2E2A30" fill-opacity="0.09"/>
</g>
<path d="M11.4173 109.814C12.1248 109.587 12.6315 109.461 12.9909 109.409C13.3109 109.363 13.4541 109.386 13.5047 109.401C13.5067 109.411 13.5089 109.424 13.5106 109.443C13.5221 109.566 13.5003 109.75 13.4516 110.045C13.4444 110.088 13.4368 110.133 13.429 110.179C13.3382 110.713 13.212 111.456 13.368 112.226C13.5452 113.1 14.0708 113.963 15.2369 114.685C15.4763 114.833 15.5228 114.971 15.5286 115.071C15.5361 115.201 15.4791 115.398 15.2974 115.64C14.9326 116.126 14.2207 116.582 13.5196 116.723C12.5861 116.909 11.1427 116.86 9.94687 116.478C8.71739 116.086 7.99999 115.44 8 114.588C8 113.879 8.34594 112.836 8.98012 111.872C9.61218 110.911 10.4718 110.117 11.4173 109.814Z" stroke="#443D44" stroke-opacity="0.01"/>
<g filter="url(#filter5_i_421_92)">
<path d="M60.9924 122.138C49.9826 127.546 60.3044 117.53 50.9843 113.553C47.894 112.235 50.7042 108.216 53.895 107.071C57.8788 105.642 66.2911 105.673 67.0101 110.489C67.5112 113.846 65.19 120.077 60.9924 122.138Z" fill="#B0B0B0" fill-opacity="0.18"/>
</g>
<path d="M60.772 121.689C59.4046 122.361 58.3907 122.782 57.6405 123.006C56.8719 123.235 56.4621 123.232 56.2518 123.163C56.1054 123.114 56.0016 123.016 55.9305 122.727C55.852 122.408 55.8447 121.966 55.8547 121.373C55.8561 121.285 55.858 121.195 55.8599 121.103C55.8825 119.997 55.9119 118.563 55.4015 117.162C54.835 115.607 53.6261 114.137 51.1805 113.093C50.5281 112.815 50.2577 112.434 50.1761 112.043C50.0881 111.622 50.1971 111.085 50.5233 110.486C51.1767 109.287 52.5777 108.075 54.0638 107.542C55.9746 106.857 58.9883 106.514 61.5978 106.932C64.2437 107.356 66.208 108.502 66.5156 110.563C66.747 112.113 66.3266 114.408 65.3101 116.588C64.2955 118.764 62.732 120.727 60.772 121.689Z" stroke="#443D44" stroke-opacity="0.01"/>
<g filter="url(#filter6_f_421_92)">
<path d="M25.5503 105.373C25.8553 106.83 22.1135 108.27 19.9165 108.858C17.705 109.45 16.3423 109.697 15.5366 109.15C14.5306 108.467 14.45 106.582 17.6693 105.721C19.9133 105.121 25.3387 104.362 25.5503 105.373Z" fill="#D2D5FF" fill-opacity="0.35"/>
<path d="M24.5727 105.368C24.7939 105.392 24.9406 105.425 25.027 105.455C25.0288 105.628 24.9328 105.852 24.6667 106.124C24.3644 106.432 23.8983 106.744 23.3305 107.043C22.1979 107.638 20.7493 108.133 19.6737 108.421C18.5653 108.717 17.7121 108.915 17.0471 108.978C16.3695 109.041 16.0258 108.95 15.8273 108.815C15.5735 108.643 15.3329 108.236 15.5359 107.71C15.7361 107.192 16.3872 106.566 17.9121 106.158C19.0012 105.867 20.8859 105.532 22.5181 105.397C23.3385 105.328 24.0603 105.313 24.5727 105.368Z" stroke="#443D44" stroke-opacity="0.01"/>
</g>
<g filter="url(#filter7_di_421_92)">
<path d="M18.5086 128.464C19.5018 129.715 20 131.232 23.5 130.232C26.7619 131.773 29.5 133.642 29.5 133.642C29.5 133.642 23.4643 136.161 20 136.5C15.6746 136.923 13.6059 136.656 13 134.232C9 131.732 14.0765 129.453 18.5086 128.464Z" fill="#585559"/>
<path d="M28.4221 133.536C28.3893 133.549 28.3557 133.562 28.3214 133.575C27.7057 133.815 26.8491 134.138 25.8856 134.472C23.9443 135.143 21.6188 135.839 19.9513 136.002C17.7815 136.215 16.2715 136.241 15.2398 135.952C14.7384 135.812 14.3727 135.603 14.1009 135.321C13.8286 135.039 13.6206 134.653 13.4851 134.111L13.4361 133.915L13.265 133.808C12.3067 133.209 12.0594 132.723 12.0497 132.4C12.0399 132.07 12.269 131.655 12.8949 131.179C14.0696 130.286 16.202 129.519 18.3064 129.023C18.357 129.092 18.4078 129.162 18.4599 129.234L18.4624 129.237C18.576 129.394 18.6964 129.56 18.8243 129.72C19.0831 130.045 19.3915 130.372 19.8075 130.621C20.6344 131.116 21.7467 131.223 23.4539 130.764C24.9998 131.503 26.4191 132.311 27.4646 132.943C27.8349 133.167 28.1578 133.368 28.4221 133.536Z" stroke="#837A86" stroke-opacity="0.04"/>
</g>
<g filter="url(#filter8_di_421_92)">
<path d="M58 130.5C60.3387 129.668 63.9401 131.475 65.5 130.5C66.9537 132.003 66.5598 134.326 66.5598 134.326C66.5598 134.326 63.8699 136.783 62.326 137.113C60.3983 137.526 56.27 138.364 56 136C54.2173 133.561 50.3387 133.225 58 130.5Z" fill="#7D7B7D"/>
<path d="M56.4817 135.812L56.4968 135.943C56.5441 136.358 56.7448 136.613 57.0701 136.79C57.424 136.983 57.9335 137.082 58.5545 137.098C59.7926 137.131 61.2498 136.833 62.2212 136.624C62.5277 136.559 62.9298 136.376 63.3848 136.108C63.8317 135.844 64.2959 135.518 64.72 135.197C65.143 134.877 65.5198 134.566 65.7911 134.334C65.9131 134.23 66.0135 134.143 66.0866 134.078C66.0911 134.031 66.0957 133.975 66.0995 133.91C66.1125 133.69 66.116 133.381 66.078 133.03C66.0115 132.417 65.8225 131.711 65.3707 131.116C64.9397 131.275 64.4572 131.31 63.9827 131.294C63.3529 131.274 62.6523 131.16 61.9692 131.049L61.9617 131.047C61.2623 130.933 60.5714 130.821 59.9123 130.785C59.2529 130.75 58.664 130.794 58.1676 130.971L56.4817 135.812ZM56.4817 135.812L56.4036 135.705M56.4817 135.812L56.4036 135.705M56.4036 135.705C55.9358 135.065 55.3405 134.564 54.8642 134.162M56.4036 135.705L54.8642 134.162M54.8642 134.162C54.8444 134.146 54.8248 134.129 54.8054 134.113M54.8642 134.162L54.8054 134.113M54.8054 134.113C54.5543 133.901 54.348 133.725 54.1896 133.56M54.8054 134.113L54.1896 133.56M54.1896 133.56C54.0274 133.392 53.9581 133.278 53.9345 133.204M54.1896 133.56L53.9345 133.204M53.9345 133.204C53.9206 133.161 53.9163 133.125 53.9609 133.049M53.9345 133.204L53.9609 133.049M53.9609 133.049C54.0204 132.948 54.1642 132.792 54.4802 132.583M53.9609 133.049L54.4802 132.583M54.4802 132.583C55.111 132.167 56.2542 131.652 58.1676 130.971L54.4802 132.583Z" stroke="#837A86" stroke-opacity="0.04"/>
</g>
<g filter="url(#filter9_dif_421_92)">
<path d="M38.9997 127.952C48.2438 127.728 59.7597 127.353 67.4997 122.724C71.324 120.437 73.9998 118.477 74.4992 113.249C74.9992 115.209 75.4992 116.19 75.9992 117.17C62.4997 130.566 51.0382 128.812 38.9998 128.605C20 128.279 9.50002 123.862 5.00004 116.674C4.94899 116.283 5 115.572 5.5 114.592C5.96344 120.343 12.1089 123.021 18.4997 125.011C25.9069 127.319 34.437 127.777 38.9997 127.952Z" fill="#BCC6C0"/>
<path d="M56.8176 127.502C52.7901 128.306 48.8513 128.351 44.8598 128.261C47.834 128.126 50.9096 127.903 53.9198 127.482C58.6425 126.821 63.2362 125.667 67.0455 123.576C63.5352 125.651 60.1451 126.837 56.8176 127.502ZM75.389 117.044C74.2891 118.123 73.2035 119.1 72.1307 119.984C72.308 119.803 72.4787 119.617 72.6423 119.423C73.5622 118.336 74.2479 117.051 74.6554 115.407C74.9008 116.051 75.1459 116.562 75.389 117.044Z" stroke="#837A86" stroke-opacity="0.04"/>
</g>
<path d="M4.72453 119.803C5.59748 118.647 6.80597 118.338 6.77634 119.821C6.74651 121.313 5.89332 128.334 5.39644 128.625C4.77605 128.988 3.98441 131.949 4.02783 129.776C4.05811 128.262 4.0792 120.658 4.72453 119.803Z" fill="#CA39D7" fill-opacity="0.12"/>
<path d="M5.12241 120.102C5.3146 119.847 5.51792 119.649 5.70532 119.515C5.89877 119.377 6.04519 119.328 6.12782 119.32C6.17958 119.316 6.18528 119.325 6.18977 119.333C6.19037 119.334 6.19095 119.335 6.19162 119.335C6.21862 119.371 6.2827 119.499 6.27636 119.817C6.26211 120.529 6.0455 122.631 5.76637 124.609C5.6274 125.594 5.475 126.533 5.32792 127.24C5.25402 127.595 5.18394 127.879 5.12082 128.077C5.09445 128.16 5.07235 128.218 5.05567 128.255C4.9291 128.351 4.82889 128.474 4.75418 128.577C4.67921 128.68 4.60757 128.796 4.54053 128.913C4.5548 127.847 4.57886 126.182 4.6452 124.557C4.68991 123.462 4.75346 122.397 4.84483 121.558C4.89061 121.137 4.9423 120.783 4.99961 120.514C5.02827 120.379 5.05659 120.275 5.08315 120.198C5.10804 120.126 5.12419 120.1 5.12391 120.1C5.12386 120.1 5.12338 120.1 5.12241 120.102Z" stroke="#837A86" stroke-opacity="0.04"/>
<g filter="url(#filter10_f_421_92)">
<path d="M20 140.264C18.3198 139.678 20.9999 140.264 22 139.918C22.9111 139.602 29.6073 141.891 37.5001 141.999C46.2664 142.119 53.2753 140.086 53.5 140.265C54.0332 140.689 57 140.265 55.5001 140.758C54.499 141.087 46.0738 142.765 37.5001 142.693C29.1911 142.623 20.6113 140.478 20 140.264Z" fill="#F36AFF" fill-opacity="0.2"/>
<path d="M23.0911 140.49C23.2459 140.517 23.4163 140.549 23.6023 140.585C23.9578 140.654 24.3616 140.739 24.812 140.833C24.187 140.715 23.6103 140.599 23.0911 140.49Z" stroke="#837A86" stroke-opacity="0.04"/>
</g>
<g filter="url(#filter11_f_421_92)">
<path d="M7.54939 123.361C9.80024 121.815 21.2652 127.712 21.5 129.51C21.7364 131.32 16.3604 135.665 15 136.101C13.3014 136.646 7.89346 134.92 7.54934 132.285C7.30948 130.449 5.88542 124.505 7.54939 123.361Z" fill="#211391" fill-opacity="0.11"/>
<path d="M7.85689 123.776C8.01662 123.666 8.31719 123.589 8.80601 123.604C9.28255 123.619 9.87435 123.72 10.5509 123.896C11.9022 124.248 13.5201 124.882 15.0902 125.626C16.6592 126.37 18.1582 127.213 19.2718 127.975C19.8301 128.356 20.2774 128.708 20.5859 129.007C20.7403 129.157 20.8493 129.284 20.9193 129.385C20.9885 129.486 20.9998 129.534 21.0007 129.538C21.0008 129.538 21.0008 129.538 21.0008 129.538C21.014 129.639 20.9913 129.814 20.8792 130.072C20.7704 130.323 20.595 130.613 20.3606 130.932C19.8921 131.569 19.2224 132.273 18.4912 132.947C17.7621 133.618 16.984 134.247 16.3075 134.733C15.6122 135.233 15.0747 135.544 14.8135 135.628C14.5014 135.728 13.9418 135.738 13.2167 135.616C12.5089 135.497 11.7044 135.263 10.9394 134.933C10.1719 134.602 9.46766 134.186 8.94405 133.714C8.41901 133.242 8.1128 132.749 8.04857 132.257C8.00584 131.93 7.92638 131.475 7.83549 130.954C7.79535 130.723 7.75297 130.48 7.71055 130.23C7.5699 129.4 7.42383 128.464 7.33658 127.553C7.24891 126.637 7.22319 125.772 7.3131 125.078C7.40628 124.359 7.60846 123.946 7.85689 123.776Z" stroke="#837A86" stroke-opacity="0.04"/>
</g>
<g filter="url(#filter12_f_421_92)">
<path d="M66.0276 127.5C68.1017 126.351 73.5 121.536 73.5 123C73.5 124.474 70.5102 133.781 69.3117 134.073C67.8153 134.436 66.0276 137.367 66.0276 135.222C66.0276 133.726 64.4943 128.349 66.0276 127.5Z" fill="#656167"/>
<path d="M66.2699 127.937C66.8218 127.632 67.574 127.095 68.3676 126.508C68.6755 126.281 68.9903 126.045 69.3065 125.808C69.8203 125.423 70.3376 125.035 70.8348 124.675C71.6417 124.091 72.3491 123.615 72.8439 123.373C72.8883 123.351 72.9296 123.332 72.9678 123.315C72.9483 123.442 72.9195 123.598 72.8801 123.783C72.7988 124.166 72.68 124.642 72.5321 125.178C72.2364 126.25 71.8288 127.55 71.3837 128.814C70.9378 130.08 70.4586 131.297 70.0208 132.211C69.8011 132.669 69.599 133.036 69.4239 133.29C69.3362 133.418 69.264 133.504 69.2093 133.556C69.1886 133.576 69.1743 133.588 69.1663 133.594C68.6931 133.716 68.2404 134.019 67.8613 134.312C67.6621 134.466 67.4688 134.629 67.2904 134.781C67.2607 134.807 67.2315 134.832 67.2028 134.856C67.0558 134.982 66.9216 135.097 66.7951 135.198C66.6943 135.28 66.6074 135.345 66.533 135.395C66.5297 135.347 66.5276 135.289 66.5276 135.222C66.5276 134.797 66.4223 134.133 66.3054 133.422C66.292 133.341 66.2784 133.259 66.2647 133.176C66.154 132.507 66.033 131.776 65.9493 131.06C65.8546 130.251 65.8123 129.499 65.8777 128.91C65.9472 128.285 66.1178 128.022 66.2699 127.937ZM72.9999 122.996C72.9999 122.996 72.9999 122.996 73 122.997L72.9999 122.996Z" stroke="#837A86" stroke-opacity="0.04"/>
</g>
<g filter="url(#filter13_di_421_92)">
<path d="M40.6034 130.077C43.0016 129.631 45 131.235 45 131.804C45 132.376 44.787 132.863 43.4012 132.976C41.6711 133.117 39.0047 132.636 39.0047 131.804C39.0047 131.223 38.8306 130.407 40.6034 130.077Z" fill="#2E2A30" fill-opacity="0.32" shape-rendering="crispEdges"/>
<path d="M40.6948 130.569C41.7618 130.371 42.7476 130.627 43.4701 131.004C43.8314 131.192 44.1136 131.403 44.2979 131.586C44.3905 131.678 44.4497 131.754 44.4825 131.808C44.4905 131.821 44.496 131.832 44.4996 131.839C44.4954 132.04 44.4541 132.127 44.3826 132.193C44.2802 132.287 44.0181 132.424 43.3606 132.477C42.5494 132.543 41.5024 132.463 40.6681 132.268C40.2485 132.17 39.9148 132.05 39.6983 131.925C39.5636 131.847 39.5181 131.795 39.5046 131.776C39.5044 131.715 39.5037 131.66 39.5029 131.61C39.4994 131.364 39.4975 131.23 39.5754 131.091C39.647 130.963 39.8685 130.723 40.6948 130.569Z" stroke="#66466D" stroke-opacity="0.02" shape-rendering="crispEdges"/>
</g>
<g filter="url(#filter14_ddi_421_92)">
<path d="M64.5008 124.358C64.834 125.011 59.0546 126.868 57.0007 127.298C54.9334 127.732 50.5008 127.679 50.5008 127.298C50.5008 126.917 53.491 125.642 56.5006 125.011C58.5984 124.572 64.1676 123.704 64.5008 124.358Z" fill="#2E2A30" fill-opacity="0.55" shape-rendering="crispEdges"/>
</g>
<defs>
<filter id="filter0_di_421_92" x="2" y="1.90161" width="12.5" height="122.098" filterUnits="userSpaceOnUse" color-interpolation-filters="sRGB">
<feFlood flood-opacity="0" result="BackgroundImageFix"/>
<feColorMatrix in="SourceAlpha" type="matrix" values="0 0 0 0 0 0 0 0 0 0 0 0 0 0 0 0 0 0 127 0" result="hardAlpha"/>
<feOffset dy="4"/>
<feGaussianBlur stdDeviation="2"/>
<feComposite in2="hardAlpha" operator="out"/>
<feColorMatrix type="matrix" values="0 0 0 0 0 0 0 0 0 0 0 0 0 0 0 0 0 0 0.25 0"/>
<feBlend mode="normal" in2="BackgroundImageFix" result="effect1_dropShadow_421_92"/>
<feBlend mode="normal" in="SourceGraphic" in2="effect1_dropShadow_421_92" result="shape"/>
<feColorMatrix in="SourceAlpha" type="matrix" values="0 0 0 0 0 0 0 0 0 0 0 0 0 0 0 0 0 0 127 0" result="hardAlpha"/>
<feOffset/>
<feGaussianBlur stdDeviation="2"/>
<feComposite in2="hardAlpha" operator="arithmetic" k2="-1" k3="1"/>
<feColorMatrix type="matrix" values="0 0 0 0 0 0 0 0 0 0 0 0 0 0 0 0 0 0 0.73 0"/>
<feBlend mode="normal" in2="shape" result="effect2_innerShadow_421_92"/>
</filter>
<filter id="filter1_d_421_92" x="2" y="0" width="68" height="45" filterUnits="userSpaceOnUse" color-interpolation-filters="sRGB">
<feFlood flood-opacity="0" result="BackgroundImageFix"/>
<feColorMatrix in="SourceAlpha" type="matrix" values="0 0 0 0 0 0 0 0 0 0 0 0 0 0 0 0 0 0 127 0" result="hardAlpha"/>
<feOffset dy="4"/>
<feGaussianBlur stdDeviation="2"/>
<feComposite in2="hardAlpha" operator="out"/>
<feColorMatrix type="matrix" values="0 0 0 0 0 0 0 0 0 0 0 0 0 0 0 0 0 0 0.25 0"/>
<feBlend mode="normal" in2="BackgroundImageFix" result="effect1_dropShadow_421_92"/>
<feBlend mode="normal" in="SourceGraphic" in2="effect1_dropShadow_421_92" result="shape"/>
</filter>
<filter id="filter2_di_421_92" x="1" y="107" width="78" height="46" filterUnits="userSpaceOnUse" color-interpolation-filters="sRGB">
<feFlood flood-opacity="0" result="BackgroundImageFix"/>
<feColorMatrix in="SourceAlpha" type="matrix" values="0 0 0 0 0 0 0 0 0 0 0 0 0 0 0 0 0 0 127 0" result="hardAlpha"/>
<feOffset dy="8"/>
<feGaussianBlur stdDeviation="1"/>
<feComposite in2="hardAlpha" operator="out"/>
<feColorMatrix type="matrix" values="0 0 0 0 0 0 0 0 0 0 0 0 0 0 0 0 0 0 0.25 0"/>
<feBlend mode="normal" in2="BackgroundImageFix" result="effect1_dropShadow_421_92"/>
<feBlend mode="normal" in="SourceGraphic" in2="effect1_dropShadow_421_92" result="shape"/>
<feColorMatrix in="SourceAlpha" type="matrix" values="0 0 0 0 0 0 0 0 0 0 0 0 0 0 0 0 0 0 127 0" result="hardAlpha"/>
<feOffset dy="4"/>
<feGaussianBlur stdDeviation="2"/>
<feComposite in2="hardAlpha" operator="arithmetic" k2="-1" k3="1"/>
<feColorMatrix type="matrix" values="0 0 0 0 1 0 0 0 0 1 0 0 0 0 1 0 0 0 0.25 0"/>
<feBlend mode="normal" in2="shape" result="effect2_innerShadow_421_92"/>
</filter>
<filter id="filter3_di_421_92" x="4" y="102" width="73" height="29" filterUnits="userSpaceOnUse" color-interpolation-filters="sRGB">
<feFlood flood-opacity="0" result="BackgroundImageFix"/>
<feColorMatrix in="SourceAlpha" type="matrix" values="0 0 0 0 0 0 0 0 0 0 0 0 0 0 0 0 0 0 127 0" result="hardAlpha"/>
<feOffset dy="1"/>
<feGaussianBlur stdDeviation="1"/>
<feComposite in2="hardAlpha" operator="out"/>
<feColorMatrix type="matrix" values="0 0 0 0 0 0 0 0 0 0 0 0 0 0 0 0 0 0 0.1 0"/>
<feBlend mode="normal" in2="BackgroundImageFix" result="effect1_dropShadow_421_92"/>
<feBlend mode="normal" in="SourceGraphic" in2="effect1_dropShadow_421_92" result="shape"/>
<feColorMatrix in="SourceAlpha" type="matrix" values="0 0 0 0 0 0 0 0 0 0 0 0 0 0 0 0 0 0 127 0" result="hardAlpha"/>
<feOffset/>
<feGaussianBlur stdDeviation="1"/>
<feComposite in2="hardAlpha" operator="arithmetic" k2="-1" k3="1"/>
<feColorMatrix type="matrix" values="0 0 0 0 1 0 0 0 0 1 0 0 0 0 1 0 0 0 0.38 0"/>
<feBlend mode="normal" in2="shape" result="effect2_innerShadow_421_92"/>
</filter>
<filter id="filter4_i_421_92" x="7.5" y="107.882" width="8.52924" height="9.44629" filterUnits="userSpaceOnUse" color-interpolation-filters="sRGB">
<feFlood flood-opacity="0" result="BackgroundImageFix"/>
<feBlend mode="normal" in="SourceGraphic" in2="BackgroundImageFix" result="shape"/>
<feColorMatrix in="SourceAlpha" type="matrix" values="0 0 0 0 0 0 0 0 0 0 0 0 0 0 0 0 0 0 127 0" result="hardAlpha"/>
<feOffset dy="-1"/>
<feGaussianBlur stdDeviation="2.5"/>
<feComposite in2="hardAlpha" operator="arithmetic" k2="-1" k3="1"/>
<feColorMatrix type="matrix" values="0 0 0 0 0 0 0 0 0 0 0 0 0 0 0 0 0 0 0.05 0"/>
<feBlend mode="normal" in2="shape" result="effect1_innerShadow_421_92"/>
</filter>
<filter id="filter5_i_421_92" x="49.6467" y="105.25" width="17.4308" height="18.4543" filterUnits="userSpaceOnUse" color-interpolation-filters="sRGB">
<feFlood flood-opacity="0" result="BackgroundImageFix"/>
<feBlend mode="normal" in="SourceGraphic" in2="BackgroundImageFix" result="shape"/>
<feColorMatrix in="SourceAlpha" type="matrix" values="0 0 0 0 0 0 0 0 0 0 0 0 0 0 0 0 0 0 127 0" result="hardAlpha"/>
<feOffset dy="-1"/>
<feGaussianBlur stdDeviation="2.5"/>
<feComposite in2="hardAlpha" operator="arithmetic" k2="-1" k3="1"/>
<feColorMatrix type="matrix" values="0 0 0 0 0 0 0 0 0 0 0 0 0 0 0 0 0 0 0.05 0"/>
<feBlend mode="normal" in2="shape" result="effect1_innerShadow_421_92"/>
</filter>
<filter id="filter6_f_421_92" x="11.9203" y="101.879" width="16.6476" height="10.5752" filterUnits="userSpaceOnUse" color-interpolation-filters="sRGB">
<feFlood flood-opacity="0" result="BackgroundImageFix"/>
<feBlend mode="normal" in="SourceGraphic" in2="BackgroundImageFix" result="shape"/>
<feGaussianBlur stdDeviation="1.5" result="effect1_foregroundBlur_421_92"/>
</filter>
<filter id="filter7_di_421_92" x="9.54941" y="126.464" width="21.9506" height="12.2013" filterUnits="userSpaceOnUse" color-interpolation-filters="sRGB">
<feFlood flood-opacity="0" result="BackgroundImageFix"/>
<feColorMatrix in="SourceAlpha" type="matrix" values="0 0 0 0 0 0 0 0 0 0 0 0 0 0 0 0 0 0 127 0" result="hardAlpha"/>
<feOffset/>
<feGaussianBlur stdDeviation="1"/>
<feComposite in2="hardAlpha" operator="out"/>
<feColorMatrix type="matrix" values="0 0 0 0 1 0 0 0 0 1 0 0 0 0 1 0 0 0 0.09 0"/>
<feBlend mode="normal" in2="BackgroundImageFix" result="effect1_dropShadow_421_92"/>
<feBlend mode="normal" in="SourceGraphic" in2="effect1_dropShadow_421_92" result="shape"/>
<feColorMatrix in="SourceAlpha" type="matrix" values="0 0 0 0 0 0 0 0 0 0 0 0 0 0 0 0 0 0 127 0" result="hardAlpha"/>
<feOffset dy="1"/>
<feGaussianBlur stdDeviation="1"/>
<feComposite in2="hardAlpha" operator="arithmetic" k2="-1" k3="1"/>
<feColorMatrix type="matrix" values="0 0 0 0 0 0 0 0 0 0 0 0 0 0 0 0 0 0 0.5 0"/>
<feBlend mode="normal" in2="shape" result="effect2_innerShadow_421_92"/>
</filter>
<filter id="filter8_di_421_92" x="51.425" y="128.274" width="17.1835" height="11.3265" filterUnits="userSpaceOnUse" color-interpolation-filters="sRGB">
<feFlood flood-opacity="0" result="BackgroundImageFix"/>
<feColorMatrix in="SourceAlpha" type="matrix" values="0 0 0 0 0 0 0 0 0 0 0 0 0 0 0 0 0 0 127 0" result="hardAlpha"/>
<feOffset/>
<feGaussianBlur stdDeviation="1"/>
<feComposite in2="hardAlpha" operator="out"/>
<feColorMatrix type="matrix" values="0 0 0 0 1 0 0 0 0 1 0 0 0 0 1 0 0 0 0.09 0"/>
<feBlend mode="normal" in2="BackgroundImageFix" result="effect1_dropShadow_421_92"/>
<feBlend mode="normal" in="SourceGraphic" in2="effect1_dropShadow_421_92" result="shape"/>
<feColorMatrix in="SourceAlpha" type="matrix" values="0 0 0 0 0 0 0 0 0 0 0 0 0 0 0 0 0 0 127 0" result="hardAlpha"/>
<feOffset dy="1"/>
<feGaussianBlur stdDeviation="1"/>
<feComposite in2="hardAlpha" operator="arithmetic" k2="-1" k3="1"/>
<feColorMatrix type="matrix" values="0 0 0 0 0 0 0 0 0 0 0 0 0 0 0 0 0 0 0.5 0"/>
<feBlend mode="normal" in2="shape" result="effect2_innerShadow_421_92"/>
</filter>
<filter id="filter9_dif_421_92" x="0.984375" y="112.249" width="79.0148" height="24.5419" filterUnits="userSpaceOnUse" color-interpolation-filters="sRGB">
<feFlood flood-opacity="0" result="BackgroundImageFix"/>
<feColorMatrix in="SourceAlpha" type="matrix" values="0 0 0 0 0 0 0 0 0 0 0 0 0 0 0 0 0 0 127 0" result="hardAlpha"/>
<feOffset dy="4"/>
<feGaussianBlur stdDeviation="2"/>
<feComposite in2="hardAlpha" operator="out"/>
<feColorMatrix type="matrix" values="0 0 0 0 0 0 0 0 0 0 0 0 0 0 0 0 0 0 0.25 0"/>
<feBlend mode="normal" in2="BackgroundImageFix" result="effect1_dropShadow_421_92"/>
<feBlend mode="normal" in="SourceGraphic" in2="effect1_dropShadow_421_92" result="shape"/>
<feColorMatrix in="SourceAlpha" type="matrix" values="0 0 0 0 0 0 0 0 0 0 0 0 0 0 0 0 0 0 127 0" result="hardAlpha"/>
<feOffset dy="1"/>
<feGaussianBlur stdDeviation="0.5"/>
<feComposite in2="hardAlpha" operator="arithmetic" k2="-1" k3="1"/>
<feColorMatrix type="matrix" values="0 0 0 0 0.130556 0 0 0 0 0.188009 0 0 0 0 0.333333 0 0 0 0.25 0"/>
<feBlend mode="normal" in2="shape" result="effect2_innerShadow_421_92"/>
<feGaussianBlur stdDeviation="0.5" result="effect3_foregroundBlur_421_92"/>
</filter>
<filter id="filter10_f_421_92" x="18.4592" y="138.888" width="38.4601" height="4.80762" filterUnits="userSpaceOnUse" color-interpolation-filters="sRGB">
<feFlood flood-opacity="0" result="BackgroundImageFix"/>
<feBlend mode="normal" in="SourceGraphic" in2="BackgroundImageFix" result="shape"/>
<feGaussianBlur stdDeviation="0.5" result="effect1_foregroundBlur_421_92"/>
</filter>
<filter id="filter11_f_421_92" x="4.7536" y="121.106" width="18.754" height="17.0963" filterUnits="userSpaceOnUse" color-interpolation-filters="sRGB">
<feFlood flood-opacity="0" result="BackgroundImageFix"/>
<feBlend mode="normal" in="SourceGraphic" in2="BackgroundImageFix" result="shape"/>
<feGaussianBlur stdDeviation="1" result="effect1_foregroundBlur_421_92"/>
</filter>
<filter id="filter12_f_421_92" x="63.3462" y="120.725" width="12.1538" height="17.2745" filterUnits="userSpaceOnUse" color-interpolation-filters="sRGB">
<feFlood flood-opacity="0" result="BackgroundImageFix"/>
<feBlend mode="normal" in="SourceGraphic" in2="BackgroundImageFix" result="shape"/>
<feGaussianBlur stdDeviation="1" result="effect1_foregroundBlur_421_92"/>
</filter>
<filter id="filter13_di_421_92" x="38" y="129" width="8" height="5" filterUnits="userSpaceOnUse" color-interpolation-filters="sRGB">
<feFlood flood-opacity="0" result="BackgroundImageFix"/>
<feColorMatrix in="SourceAlpha" type="matrix" values="0 0 0 0 0 0 0 0 0 0 0 0 0 0 0 0 0 0 127 0" result="hardAlpha"/>
<feOffset/>
<feGaussianBlur stdDeviation="0.5"/>
<feComposite in2="hardAlpha" operator="out"/>
<feColorMatrix type="matrix" values="0 0 0 0 1 0 0 0 0 1 0 0 0 0 1 0 0 0 0.09 0"/>
<feBlend mode="normal" in2="BackgroundImageFix" result="effect1_dropShadow_421_92"/>
<feBlend mode="normal" in="SourceGraphic" in2="effect1_dropShadow_421_92" result="shape"/>
<feColorMatrix in="SourceAlpha" type="matrix" values="0 0 0 0 0 0 0 0 0 0 0 0 0 0 0 0 0 0 127 0" result="hardAlpha"/>
<feOffset dy="1"/>
<feGaussianBlur stdDeviation="0.5"/>
<feComposite in2="hardAlpha" operator="arithmetic" k2="-1" k3="1"/>
<feColorMatrix type="matrix" values="0 0 0 0 0 0 0 0 0 0 0 0 0 0 0 0 0 0 0.27 0"/>
<feBlend mode="normal" in2="shape" result="effect2_innerShadow_421_92"/>
</filter>
<filter id="filter14_ddi_421_92" x="48.5008" y="123.122" width="18.0138" height="7.48181" filterUnits="userSpaceOnUse" color-interpolation-filters="sRGB">
<feFlood flood-opacity="0" result="BackgroundImageFix"/>
<feColorMatrix in="SourceAlpha" type="matrix" values="0 0 0 0 0 0 0 0 0 0 0 0 0 0 0 0 0 0 127 0" result="hardAlpha"/>
<feOffset/>
<feGaussianBlur stdDeviation="0.5"/>
<feComposite in2="hardAlpha" operator="out"/>
<feColorMatrix type="matrix" values="0 0 0 0 0 0 0 0 0 0 0 0 0 0 0 0 0 0 0.25 0"/>
<feBlend mode="normal" in2="BackgroundImageFix" result="effect1_dropShadow_421_92"/>
<feColorMatrix in="SourceAlpha" type="matrix" values="0 0 0 0 0 0 0 0 0 0 0 0 0 0 0 0 0 0 127 0" result="hardAlpha"/>
<feOffset dy="1"/>
<feGaussianBlur stdDeviation="1"/>
<feComposite in2="hardAlpha" operator="out"/>
<feColorMatrix type="matrix" values="0 0 0 0 0 0 0 0 0 0 0 0 0 0 0 0 0 0 0.25 0"/>
<feBlend mode="normal" in2="effect1_dropShadow_421_92" result="effect2_dropShadow_421_92"/>
<feBlend mode="normal" in="SourceGraphic" in2="effect2_dropShadow_421_92" result="shape"/>
<feColorMatrix in="SourceAlpha" type="matrix" values="0 0 0 0 0 0 0 0 0 0 0 0 0 0 0 0 0 0 127 0" result="hardAlpha"/>
<feOffset dx="-1" dy="1"/>
<feGaussianBlur stdDeviation="0.5"/>
<feComposite in2="hardAlpha" operator="arithmetic" k2="-1" k3="1"/>
<feColorMatrix type="matrix" values="0 0 0 0 0 0 0 0 0 0 0 0 0 0 0 0 0 0 0.13 0"/>
<feBlend mode="normal" in2="shape" result="effect3_innerShadow_421_92"/>
</filter>
<linearGradient id="paint0_linear_421_92" x1="4.50018" y1="17.619" x2="68.2502" y2="17.619" gradientUnits="userSpaceOnUse">
<stop stop-color="#DE3737"/>
<stop offset="0.19" stop-color="#D87373"/>
<stop offset="0.375" stop-color="#E44444"/>
<stop offset="0.6" stop-color="#D27070"/>
<stop offset="1" stop-color="#D04545"/>
</linearGradient>
</defs>
</svg>
