<svg width="30" height="20" viewBox="0 0 30 20" fill="none" xmlns="http://www.w3.org/2000/svg">
<path d="M29.95 11C29.95 13.4608 28.2873 15.6972 25.5809 17.3211C22.8754 18.9443 19.1346 19.95 15 19.95C10.8654 19.95 7.12458 18.9443 4.41912 17.3211C1.71267 15.6972 0.05 13.4608 0.05 11C0.05 8.53916 1.71267 6.30276 4.41912 4.67888C7.12458 3.05561 10.8654 2.04997 15 2.04997C19.1346 2.04997 22.8754 3.05561 25.5809 4.67888C28.2873 6.30276 29.95 8.53916 29.95 11Z" fill="#565656" stroke="#272727" stroke-width="0.1"/>
<path d="M29.95 9.00001C29.95 11.4608 28.2873 13.6972 25.5809 15.3211C22.8754 16.9444 19.1346 17.95 15 17.95C10.8654 17.95 7.12458 16.9444 4.41912 15.3211C1.71267 13.6972 0.05 11.4608 0.05 9.00001C0.05 6.53919 1.71267 4.30279 4.41912 2.67892C7.12458 1.05564 10.8654 0.05 15 0.05C19.1346 0.05 22.8754 1.05564 25.5809 2.67892C28.2873 4.30279 29.95 6.53919 29.95 9.00001Z" fill="url(#paint0_linear_80_6364)" stroke="black" stroke-width="0.1"/>
<defs>
<linearGradient id="paint0_linear_80_6364" x1="15" y1="18" x2="23" y2="-1.94131e-06" gradientUnits="userSpaceOnUse">
<stop stop-color="#F4F4F4"/>
<stop offset="1" stop-color="#BEBEBE"/>
</linearGradient>
</defs>
</svg>
