<svg width="125" height="125" viewBox="0 0 125 125" fill="none" xmlns="http://www.w3.org/2000/svg">
<circle cx="62.5" cy="62.5" r="62.5" fill="white" fill-opacity="0.08"/>
<circle cx="62.5" cy="62.5" r="62" stroke="white" stroke-opacity="0.32"/>
<path d="M66.2534 94.5C86.4295 94.5 90.4645 80.5 89.9597 67L84.9162 67C84.9162 72.4785 86.4183 89.863 63.5 89.5051C40.5817 89.863 42.0838 72.4785 42.0838 67L37.0403 67C36.5355 80.5 40.5705 94.5 60.7466 94.5V102.5H47.6321C45.1094 102.5 45.1094 108 47.6321 108H63.2282H63.7718H79.3679C81.8906 108 81.8906 102.5 79.3679 102.5H66.2534V94.5Z" fill="#1083B3"/>
<circle cx="39.5" cy="61.5" r="6.5" fill="#1083B3"/>
<circle cx="87.5" cy="61.5" r="6.5" fill="#1083B3"/>
<path d="M47.0001 36.5C47 24.6686 57.5335 24.0163 63.4942 24.0003C69.4527 24.0155 80 24.661 79.9999 36.5C79.9998 46.9 80.0001 63.3334 79.9999 71.5C79.9997 79.6011 73.6993 83.9301 63.5023 83.9992C53.3025 83.9314 47.0003 79.6022 47.0001 71.5C46.9999 63.3333 47.0001 46.9 47.0001 36.5Z" fill="#D9D9D9"/>
<path d="M47.0001 60H79.9999C79.9999 60 80.0001 63.3333 79.9999 71.5C79.9997 79.601 73.6994 83.9301 63.5023 83.9991C53.3025 83.9314 47.0003 79.6022 47.0001 71.5C46.9999 63.3333 47.0001 60 47.0001 60Z" fill="url(#paint0_linear_263_75)"/>
<path fill-rule="evenodd" clip-rule="evenodd" d="M47.6265 32C47.2244 33.2836 47 34.7726 47 36.5V37H58C59.1045 37 60 36.1046 60 35V34C60 32.8954 59.1045 32 58 32H47.6265ZM79.3735 32H69C67.8955 32 67 32.8954 67 34V35C67 36.1046 67.8955 37 69 37H80V36.5C80 34.7727 79.7756 33.2836 79.3735 32ZM80 40H69C67.8955 40 67 40.8954 67 42V43C67 44.1046 67.8955 45 69 45H80V40ZM80 49H69C67.8955 49 67 49.8954 67 51V52C67 53.1046 67.8955 54 69 54H80V49ZM47 54H58C59.1045 54 60 53.1046 60 52V51C60 49.8954 59.1045 49 58 49H47V54ZM47 45H58C59.1045 45 60 44.1046 60 43V42C60 40.8954 59.1045 40 58 40H47V45Z" fill="#575757"/>
<rect x="47" y="59" width="16" height="3" fill="#C8C8C8"/>
<rect x="63" y="59" width="17" height="3" fill="#A0A0A0"/>
<defs>
<linearGradient id="paint0_linear_263_75" x1="80" y1="69" x2="47" y2="69" gradientUnits="userSpaceOnUse">
<stop offset="0.512173" stop-color="#197394"/>
<stop offset="0.519202" stop-color="#43B1E0"/>
</linearGradient>
</defs>
</svg>
