<svg width="40" height="45" viewBox="0 0 40 45" fill="none" xmlns="http://www.w3.org/2000/svg">
<g filter="url(#filter0_d_290_28)">
<path fill-rule="evenodd" clip-rule="evenodd" d="M20 0.5C26.6274 0.5 31.5 4.17509 31.5 10V11H33.5C33.5 11 39 15.365 39 25.5001C39 35.7173 30.4934 42 20 42C9.50659 42 1 35.7173 1 25.5001C1 15.2828 6.5 11 6.5 11H8.5V10C8.5 4.17509 13.3726 0.5 20 0.5ZM20 5.5C23.8199 5.5 25.9488 7.47681 25.9991 11H14.0009C14.0512 7.47681 16.1801 5.5 20 5.5ZM24.5 21C24.5 23 22.9176 23.8266 21.5 24.5L23.5 32H16.4331L18.5 24.5C17.0824 23.8266 15.5 23 15.5 21C15.5 18.7909 17.5147 16.5 20 16.5C22.4853 16.5 24.5 18.7909 24.5 21Z" fill="#D9D9D9"/>
</g>
<defs>
<filter id="filter0_d_290_28" x="0" y="0.5" width="40" height="44.5" filterUnits="userSpaceOnUse" color-interpolation-filters="sRGB">
<feFlood flood-opacity="0" result="BackgroundImageFix"/>
<feColorMatrix in="SourceAlpha" type="matrix" values="0 0 0 0 0 0 0 0 0 0 0 0 0 0 0 0 0 0 127 0" result="hardAlpha"/>
<feOffset dy="2"/>
<feGaussianBlur stdDeviation="0.5"/>
<feComposite in2="hardAlpha" operator="out"/>
<feColorMatrix type="matrix" values="0 0 0 0 0 0 0 0 0 0 0 0 0 0 0 0 0 0 0.39 0"/>
<feBlend mode="normal" in2="BackgroundImageFix" result="effect1_dropShadow_290_28"/>
<feBlend mode="normal" in="SourceGraphic" in2="effect1_dropShadow_290_28" result="shape"/>
</filter>
</defs>
</svg>
