<svg width="54" height="74" viewBox="0 0 54 74" fill="none" xmlns="http://www.w3.org/2000/svg">
<g filter="url(#filter0_d_449_398)">
<path d="M48.5452 21.7096C48.5747 24.3974 47.8337 26.8697 46.3224 29.1264C44.8103 31.3191 42.8113 32.8771 40.3253 33.8004L33.1562 36.6632C33.0282 36.6646 32.8693 36.7623 32.6794 36.9564C32.5556 37.3418 32.4937 37.5345 32.4937 37.5345L32.5569 43.2942C32.5702 44.5101 32.1335 45.5389 31.2466 46.3807C30.4238 47.2218 29.4044 47.649 28.1885 47.6623L25.5967 47.6907C24.3807 47.7041 23.3202 47.2997 22.4152 46.4775C21.5741 45.6547 21.1469 44.6353 21.1336 43.4194L21.0683 37.4677C21.0417 35.0359 21.7527 32.756 23.2015 30.628C24.7142 28.4992 26.586 27.0066 28.8167 26.1501L36.1778 23.2853C36.8156 23.0863 37.1303 22.6028 37.1219 21.8348L37.0261 13.0993C37.0226 12.7794 36.8915 12.4928 36.6327 12.2396C36.3732 11.9224 36.0835 11.7656 35.7635 11.7691L17.3326 11.9712C17.0126 11.9747 16.6944 12.1382 16.3779 12.4617C16.1247 12.7205 15.9999 13.0098 16.0034 13.3298L16.0802 20.3374C16.0936 21.5533 15.6568 22.5822 14.77 23.424C13.9465 24.201 12.9587 24.5959 11.8068 24.6085L9.11895 24.638C7.90303 24.6513 6.84288 24.2789 5.93851 23.5208C5.09744 22.6979 4.67024 21.6786 4.65691 20.4626L4.58009 13.4551C4.55483 11.1512 5.10764 9.03301 6.23853 7.1005C7.36941 5.16798 8.88848 3.61523 10.7957 2.44225C12.767 1.26857 14.9045 0.669105 17.2084 0.643847L35.6393 0.441789C37.9432 0.416531 40.0613 0.969344 41.9939 2.10023C43.9264 3.23111 45.4791 4.75018 46.6521 6.65744C47.8251 8.56469 48.4242 10.6703 48.4495 12.9741L48.5452 21.7096ZM34.2559 58.1564C34.2777 60.1403 33.5923 61.8439 32.1998 63.2673C30.8073 64.6906 29.1192 65.4132 27.1353 65.4349C25.1514 65.4567 23.4158 64.7717 21.9284 63.3799C20.5051 61.9874 19.7825 60.2992 19.7608 58.3153C19.739 56.3315 20.4244 54.6278 21.8169 53.2045C23.2734 51.7804 24.9935 51.0575 26.9774 51.0358C28.9613 51.014 30.6649 51.6994 32.0883 53.0919C33.5116 54.4844 34.2342 56.1725 34.2559 58.1564Z" fill="white"/>
</g>
<defs>
<filter id="filter0_d_449_398" x="0.441162" y="0.302872" width="52.5808" height="73.373" filterUnits="userSpaceOnUse" color-interpolation-filters="sRGB">
<feFlood flood-opacity="0" result="BackgroundImageFix"/>
<feColorMatrix in="SourceAlpha" type="matrix" values="0 0 0 0 0 0 0 0 0 0 0 0 0 0 0 0 0 0 127 0" result="hardAlpha"/>
<feOffset dy="4"/>
<feGaussianBlur stdDeviation="2"/>
<feComposite in2="hardAlpha" operator="out"/>
<feColorMatrix type="matrix" values="0 0 0 0 0 0 0 0 0 0 0 0 0 0 0 0 0 0 0.25 0"/>
<feBlend mode="normal" in2="BackgroundImageFix" result="effect1_dropShadow_449_398"/>
<feBlend mode="normal" in="SourceGraphic" in2="effect1_dropShadow_449_398" result="shape"/>
</filter>
</defs>
</svg>
