<svg width="33" height="32" viewBox="0 0 33 32" fill="none" xmlns="http://www.w3.org/2000/svg">
<path d="M16.9755 1.08156L20.1779 10.9377C20.3787 11.5557 20.9547 11.9742 21.6045 11.9742H31.9679C32.4522 11.9742 32.6536 12.594 32.2618 12.8787L23.8776 18.9701C23.3519 19.3521 23.1319 20.0291 23.3327 20.6472L26.5352 30.5033C26.6849 30.9639 26.1576 31.347 25.7658 31.0623L17.3816 24.9709C16.8559 24.5889 16.144 24.5889 15.6183 24.9709L7.23414 31.0623C6.84229 31.347 6.31505 30.9639 6.46472 30.5033L9.66717 20.6472C9.86798 20.0291 9.648 19.3521 9.12227 18.9701L0.738138 12.8787C0.34628 12.594 0.54767 11.9742 1.03203 11.9742H11.3954C12.0452 11.9742 12.6212 11.5557 12.822 10.9377L16.0244 1.08156C16.1741 0.620903 16.8258 0.620906 16.9755 1.08156Z" fill="url(#paint0_linear_277_2)" stroke="#D78D0F"/>
<defs>
<linearGradient id="paint0_linear_277_2" x1="19.5" y1="37" x2="15" y2="-4" gradientUnits="userSpaceOnUse">
<stop offset="0.467682" stop-color="#FFC35C"/>
<stop offset="0.494375" stop-color="#F3B244"/>
</linearGradient>
</defs>
</svg>
