<svg width="67" height="95" viewBox="0 0 67 95" fill="none" xmlns="http://www.w3.org/2000/svg">
<path d="M29.6421 77.3562C29.8878 77.8549 29.7683 78.735 29.7656 79.2955L28.8521 79.2934L29.6421 77.3562Z" fill="#B25826"/>
<path d="M33.7336 73.447C34.1232 73.3975 34.5134 73.4159 34.9047 73.4256L37.0394 79.282L35.1075 79.2799C34.8619 78.0566 34.5709 76.8344 34.293 75.6175C34.1277 74.8934 34.0404 74.1265 33.7336 73.447Z" fill="#B25826"/>
<path d="M31.018 73.429L33.7336 73.4468C34.0403 74.1263 34.1277 74.8933 34.293 75.6173C34.5709 76.8343 34.8618 78.0564 35.1074 79.2798L33.319 79.2733C32.9512 79.3068 32.5898 79.2813 32.2222 79.2611C31.4305 79.1643 30.5575 79.2267 29.7656 79.2955C29.7683 78.735 29.8878 77.8548 29.6421 77.3561L31.018 73.429Z" fill="#F48924"/>
<path d="M32.2221 79.2612C32.5897 79.2815 32.9511 79.307 33.3188 79.2734C33.057 80.7251 32.8934 82.1986 32.6972 83.6605C32.4863 85.2324 32.2896 86.7793 32.2182 88.3648C32.184 89.1273 32.1321 89.9083 32.2649 90.6634C32.31 90.9192 32.3339 91.1749 32.4452 91.4132C32.4427 92.2771 32.8135 94.0217 32.8135 94.0217L31.7681 94.1887C31.7681 94.1887 31.1826 91.9408 31.0664 90.8387C31.0188 90.3869 31.0642 89.9061 31.0528 89.45C31.0166 88.0027 31.0485 86.5208 31.2237 85.0818C31.4615 83.1273 31.9312 81.2072 32.2221 79.2612Z" fill="#693427"/>
<path d="M66.5 34.0071C66.5 54.1655 49.5 73.5 33 73.5C17 73.5 0 54.1655 0 34.0071C0 13.8487 16 0 32.4998 0C50 0 66.5 13.8487 66.5 34.0071Z" fill="url(#paint0_radial_995_1608)"/>
<defs>
<radialGradient id="paint0_radial_995_1608" cx="0" cy="0" r="1" gradientUnits="userSpaceOnUse" gradientTransform="translate(23 27.5) rotate(69.5196) scale(44.3001 40.0811)">
<stop stop-color="#FFB46C"/>
<stop offset="0.538078" stop-color="#E18229"/>
<stop offset="1" stop-color="#B77333"/>
</radialGradient>
</defs>
</svg>
