<svg width="149" height="209" viewBox="0 0 149 209" fill="none" xmlns="http://www.w3.org/2000/svg">
<rect x="0.704102" y="1.44727" width="147.19" height="206.466" rx="1.5" fill="#DBF2E5" stroke="black"/>
<path d="M9.17139 180.606V29.3936C20.297 27.9157 29.3738 19.2995 31.3486 8.1709H117.017C119.005 19.3772 128.195 28.0359 139.427 29.4235V180.576C128.409 181.937 119.357 190.294 117.138 201.19H31.2269C29.0242 190.371 20.0833 182.055 9.17139 180.606Z" fill="#50D36D" stroke="#090319" stroke-width="0.5"/>
<path d="M12.4082 6.98675L13.7361 11.0737L13.7923 11.2464H13.9739L18.2712 11.2464L14.7946 13.7723L14.6477 13.879L14.7038 14.0518L16.0317 18.1387L12.5552 15.6128L12.4082 15.5061L12.2613 15.6128L8.78474 18.1387L10.1127 14.0518L10.1688 13.879L10.0218 13.7723L6.54531 11.2464L10.8425 11.2464H11.0242L11.0803 11.0737L12.4082 6.98675Z" fill="#FAE56D" stroke="black" stroke-width="0.5"/>
<path d="M137.062 5.2431L138.39 9.33002L138.446 9.50276H138.628L142.925 9.50276L139.448 12.0286L139.301 12.1354L139.358 12.3081L140.686 16.395L137.209 13.8692L137.062 13.7624L136.915 13.8692L133.439 16.395L134.766 12.3081L134.823 12.1354L134.676 12.0286L131.199 9.50276L135.496 9.50276H135.678L135.734 9.33002L137.062 5.2431Z" fill="#FAE56D" stroke="black" stroke-width="0.5"/>
<path d="M12.4082 190.917L13.7361 195.004L13.7923 195.177H13.9739L18.2712 195.177L14.7946 197.702L14.6477 197.809L14.7038 197.982L16.0317 202.069L12.5552 199.543L12.4082 199.436L12.2613 199.543L8.78474 202.069L10.1127 197.982L10.1688 197.809L10.0218 197.702L6.54531 195.177L10.8425 195.177H11.0242L11.0803 195.004L12.4082 190.917Z" fill="#FAE56D" stroke="black" stroke-width="0.5"/>
<path d="M137.062 189.174L138.39 193.261L138.446 193.433H138.628L142.925 193.433L139.448 195.959L139.301 196.066L139.358 196.239L140.686 200.326L137.209 197.8L137.062 197.693L136.915 197.8L133.439 200.326L134.766 196.239L134.823 196.066L134.676 195.959L131.199 193.433L135.496 193.433H135.678L135.734 193.261L137.062 189.174Z" fill="#FAE56D" stroke="black" stroke-width="0.5"/>
</svg>
