<svg width="194" height="61" viewBox="0 0 194 61" fill="none" xmlns="http://www.w3.org/2000/svg">
<ellipse cx="11.5418" cy="34.4917" rx="11.1709" ry="9.30909" fill="#D5844C"/>
<ellipse cx="11.5418" cy="34.4917" rx="11.1709" ry="9.30909" fill="#D5844C"/>
<ellipse cx="11.5418" cy="34.4917" rx="11.1709" ry="9.30909" fill="#D5844C"/>
<ellipse cx="22.7127" cy="37.2842" rx="11.1709" ry="9.30909" fill="#D5844C"/>
<ellipse cx="22.7127" cy="37.2842" rx="11.1709" ry="9.30909" fill="#D5844C"/>
<ellipse cx="22.7127" cy="37.2842" rx="11.1709" ry="9.30909" fill="#D5844C"/>
<ellipse cx="37.6072" cy="42.8696" rx="11.1709" ry="9.30909" fill="#D5844C"/>
<ellipse cx="37.6072" cy="42.8696" rx="11.1709" ry="9.30909" fill="#D5844C"/>
<ellipse cx="37.6072" cy="42.8696" rx="11.1709" ry="9.30909" fill="#D5844C"/>
<ellipse cx="54.3635" cy="45.6626" rx="11.1709" ry="9.30909" fill="#D5844C"/>
<ellipse cx="54.3635" cy="45.6626" rx="11.1709" ry="9.30909" fill="#D5844C"/>
<ellipse cx="54.3635" cy="45.6626" rx="11.1709" ry="9.30909" fill="#D5844C"/>
<ellipse cx="70.189" cy="49.3862" rx="11.1709" ry="9.30909" fill="#D5844C"/>
<ellipse cx="70.189" cy="49.3862" rx="11.1709" ry="9.30909" fill="#D5844C"/>
<ellipse cx="70.189" cy="49.3862" rx="11.1709" ry="9.30909" fill="#D5844C"/>
<ellipse cx="85.0835" cy="51.2481" rx="11.1709" ry="9.30909" fill="#D5844C"/>
<ellipse cx="85.0835" cy="51.2481" rx="11.1709" ry="9.30909" fill="#D5844C"/>
<ellipse cx="85.0835" cy="51.2481" rx="11.1709" ry="9.30909" fill="#D5844C"/>
<ellipse cx="98.1162" cy="51.2481" rx="11.1709" ry="9.30909" fill="#D5844C"/>
<ellipse cx="98.1162" cy="51.2481" rx="11.1709" ry="9.30909" fill="#D5844C"/>
<ellipse cx="98.1162" cy="51.2481" rx="11.1709" ry="9.30909" fill="#D5844C"/>
<ellipse cx="114.873" cy="50.3169" rx="11.1709" ry="9.30909" fill="#D5844C"/>
<ellipse cx="114.873" cy="50.3169" rx="11.1709" ry="9.30909" fill="#D5844C"/>
<ellipse cx="114.873" cy="50.3169" rx="11.1709" ry="9.30909" fill="#D5844C"/>
<ellipse cx="134.422" cy="50.3169" rx="11.1709" ry="9.30909" fill="#D5844C"/>
<ellipse cx="134.422" cy="50.3169" rx="11.1709" ry="9.30909" fill="#D5844C"/>
<ellipse cx="134.422" cy="50.3169" rx="11.1709" ry="9.30909" fill="#D5844C"/>
<ellipse cx="153.971" cy="45.6626" rx="11.1709" ry="9.30909" fill="#D5844C"/>
<ellipse cx="153.971" cy="45.6626" rx="11.1709" ry="9.30909" fill="#D5844C"/>
<ellipse cx="153.971" cy="45.6626" rx="11.1709" ry="9.30909" fill="#D5844C"/>
<ellipse cx="168.865" cy="41.0078" rx="11.1709" ry="9.30909" fill="#D5844C"/>
<ellipse cx="168.865" cy="41.0078" rx="11.1709" ry="9.30909" fill="#D5844C"/>
<ellipse cx="168.865" cy="41.0078" rx="11.1709" ry="9.30909" fill="#D5844C"/>
<ellipse cx="178.175" cy="34.4917" rx="11.1709" ry="9.30909" fill="#D5844C"/>
<ellipse cx="178.175" cy="34.4917" rx="11.1709" ry="9.30909" fill="#D5844C"/>
<ellipse cx="178.175" cy="34.4917" rx="11.1709" ry="9.30909" fill="#D5844C"/>
<ellipse cx="182.829" cy="26.1133" rx="11.1709" ry="9.30909" fill="#D5844C"/>
<ellipse cx="182.829" cy="26.1133" rx="11.1709" ry="9.30909" fill="#D5844C"/>
<ellipse cx="182.829" cy="26.1133" rx="11.1709" ry="9.30909" fill="#D5844C"/>
<path d="M48.6368 25.8897L33.174 24.3306H31.6277L30.468 20.4325L23.8963 19.2635H16.1649L13.4589 25.8897L10.7529 24.3306L6.88721 26.669L7.66035 29.3977C8.6912 30.3072 11.0622 32.1262 12.2992 32.1262H16.1649C17.0927 32.1262 17.84 33.9451 18.0977 34.8546L19.644 39.5317L23.8963 40.701C24.6694 41.0908 26.6023 41.8703 28.1486 41.8703H31.6277C33.0451 41.4806 36.0346 40.701 36.6531 40.701C37.2716 40.701 38.4571 43.2995 38.9725 44.5988C39.7457 44.9886 41.5239 45.7681 42.4516 45.7681C43.6114 45.7681 45.1576 47.3272 46.7039 48.1068C47.9409 48.7304 50.0542 47.847 50.9562 47.3272L54.4353 45.7681L58.301 49.6659C59.3319 50.0557 61.8575 50.8353 63.713 50.8353C65.5685 50.8353 67.321 51.355 67.9653 51.6148C69.7693 50.4455 73.6092 47.9509 74.537 47.3272C75.4647 46.7036 74.9235 48.3667 74.537 49.2761C75.6967 50.1856 78.3253 52.2385 79.5624 53.1739C80.7994 54.1094 81.3664 54.863 81.4952 55.1228C82.7838 55.3827 85.8248 55.7465 87.6803 55.1228C89.5359 54.4992 90.7729 54.863 91.1595 55.1228L94.6386 50.8353L98.1177 53.1739C99.0197 53.8236 101.056 55.1228 101.983 55.1228H105.076L112.421 55.9024L116.673 53.1739L122.085 49.2761L124.404 50.8353L127.884 53.1739H132.136C133.682 52.3944 136.697 50.6014 136.388 49.6659C136.079 48.7304 138.063 49.2761 139.094 49.6659L143.733 50.8353L147.212 49.6659C148.63 49.0163 151.464 47.3272 151.464 45.7681C151.464 43.8192 153.397 46.9375 155.33 45.7681C157.263 44.5988 158.809 46.5477 161.902 45.7681C164.376 45.1445 165.767 44.7287 166.154 44.5988C167.443 43.0397 169.942 39.6876 169.633 38.7521C169.324 37.8166 171.308 38.3623 172.339 38.7521L179.684 39.5317C182.003 37.9727 186.874 34.4649 187.802 32.9057C188.962 30.9568 188.189 29.3977 187.802 27.0591C187.415 24.7204 187.029 24.3306 185.096 21.6021C183.163 18.8737 183.55 19.2635 182.003 17.7044C180.457 16.1452 178.524 16.9248 174.659 17.7044C171.566 18.328 170.793 19.0036 170.793 19.2635L168.087 21.6021L163.448 25.8897L158.809 24.3306H155.33L151.464 28.6182L149.532 32.1262L147.212 30.9568H142.96L141.027 32.9057H137.934V30.9568L132.136 27.0591C129.559 27.5788 124.095 28.6182 122.858 28.6182C121.621 28.6182 118.219 32.7758 116.673 34.8546L108.942 29.3977H105.463L94.6386 34.8546L87.6803 30.9568L79.5624 32.9057L69.8981 28.6182L61.3936 32.1262L55.9816 25.8897H48.6368Z" fill="#E59751"/>
<circle cx="22.2472" cy="26.5787" r="6.05091" fill="#EEB370"/>
<ellipse cx="26.4363" cy="30.7681" rx="4.65455" ry="5.58545" fill="#EEB370"/>
<circle cx="6.05091" cy="6.05091" r="6.05091" transform="matrix(-1 0 0 1 55.2944 27.9751)" fill="#EEB370"/>
<ellipse cx="4.65455" cy="5.58545" rx="4.65455" ry="5.58545" transform="matrix(-1 0 0 1 49.709 32.6299)" fill="#EEB370"/>
<circle cx="3.72364" cy="3.72364" r="3.72364" transform="matrix(1 0 0 -1 63.6726 49.3862)" fill="#EEB370"/>
<ellipse cx="2.79273" cy="3.72364" rx="2.79273" ry="3.72364" transform="matrix(1 0 0 -1 67.3962 46.5933)" fill="#EEB370"/>
<circle cx="6.05091" cy="6.05091" r="6.05091" transform="matrix(-1 0 0 1 183.76 20.5278)" fill="#EEB370"/>
<ellipse cx="4.65455" cy="5.58545" rx="4.65455" ry="5.58545" transform="matrix(-1 0 0 1 178.175 25.1826)" fill="#EEB370"/>
<ellipse cx="10.7055" cy="5.12" rx="10.7055" ry="5.12" transform="matrix(-1 0 0 1 171.658 28.9062)" fill="#EEB370"/>
<circle cx="6.05091" cy="6.05091" r="6.05091" transform="matrix(-1 0 0 1 95.3235 34.4917)" fill="#EEB370"/>
<ellipse cx="6.05091" cy="3.25818" rx="6.05091" ry="3.25818" transform="matrix(-1 0 0 1 113.011 49.3862)" fill="#EEB370"/>
<circle cx="6.05091" cy="6.05091" r="6.05091" transform="matrix(-1 0 0 1 129.767 27.9751)" fill="#EEB370"/>
<ellipse cx="4.65455" cy="5.58545" rx="4.65455" ry="5.58545" transform="matrix(-1 0 0 1 124.182 32.6299)" fill="#EEB370"/>
<ellipse cx="3.72364" cy="3.25818" rx="3.72364" ry="3.25818" transform="matrix(-1 0 0 1 107.425 35.4224)" fill="#EEB370"/>
<ellipse cx="3.25818" cy="2.32727" rx="3.25818" ry="2.32727" transform="matrix(-1 0 0 1 138.146 42.8696)" fill="#EEB370"/>
<circle cx="60.4144" cy="41.4735" r="3.25818" fill="#EEB370"/>
<ellipse cx="62.7417" cy="44.266" rx="2.79273" ry="3.25818" fill="#EEB370"/>
<ellipse cx="8.37818" cy="4.65455" rx="8.37818" ry="4.65455" transform="matrix(-1 0 0 1 157.695 35.4224)" fill="#EEB370"/>
</svg>
