<svg width="195" height="61" viewBox="0 0 195 61" fill="none" xmlns="http://www.w3.org/2000/svg">
<ellipse cx="22.0581" cy="23.3608" rx="11.1709" ry="9.30909" fill="#D5844C"/>
<ellipse cx="22.0581" cy="23.3608" rx="11.1709" ry="9.30909" fill="#D5844C"/>
<ellipse cx="22.0581" cy="23.3608" rx="11.1709" ry="9.30909" fill="#D5844C"/>
<ellipse cx="40.6763" cy="17.7749" rx="11.1709" ry="9.30909" fill="#D5844C"/>
<ellipse cx="40.6763" cy="17.7749" rx="11.1709" ry="9.30909" fill="#D5844C"/>
<ellipse cx="40.6763" cy="17.7749" rx="11.1709" ry="9.30909" fill="#D5844C"/>
<ellipse cx="52.7781" cy="16.8442" rx="11.1709" ry="9.30909" fill="#D5844C"/>
<ellipse cx="52.7781" cy="16.8442" rx="11.1709" ry="9.30909" fill="#D5844C"/>
<ellipse cx="52.7781" cy="16.8442" rx="11.1709" ry="9.30909" fill="#D5844C"/>
<ellipse cx="66.7417" cy="11.2583" rx="11.1709" ry="9.30909" fill="#D5844C"/>
<ellipse cx="66.7417" cy="11.2583" rx="11.1709" ry="9.30909" fill="#D5844C"/>
<ellipse cx="66.7417" cy="11.2583" rx="11.1709" ry="9.30909" fill="#D5844C"/>
<ellipse cx="78.8435" cy="12.1899" rx="11.1709" ry="9.30909" fill="#D5844C"/>
<ellipse cx="78.8435" cy="12.1899" rx="11.1709" ry="9.30909" fill="#D5844C"/>
<ellipse cx="78.8435" cy="12.1899" rx="11.1709" ry="9.30909" fill="#D5844C"/>
<ellipse cx="103.978" cy="9.39698" rx="11.1709" ry="9.30909" fill="#D5844C"/>
<ellipse cx="103.978" cy="9.39698" rx="11.1709" ry="9.30909" fill="#D5844C"/>
<ellipse cx="103.978" cy="9.39698" rx="11.1709" ry="9.30909" fill="#D5844C"/>
<ellipse cx="90.0144" cy="14.0513" rx="11.1709" ry="9.30909" fill="#D5844C"/>
<ellipse cx="90.0144" cy="14.0513" rx="11.1709" ry="9.30909" fill="#D5844C"/>
<ellipse cx="90.0144" cy="14.0513" rx="11.1709" ry="9.30909" fill="#D5844C"/>
<ellipse cx="118.873" cy="14.0513" rx="11.1709" ry="9.30909" fill="#D5844C"/>
<ellipse cx="118.873" cy="14.0513" rx="11.1709" ry="9.30909" fill="#D5844C"/>
<ellipse cx="118.873" cy="14.0513" rx="11.1709" ry="9.30909" fill="#D5844C"/>
<ellipse cx="135.629" cy="11.2583" rx="11.1709" ry="9.30909" fill="#D5844C"/>
<ellipse cx="135.629" cy="11.2583" rx="11.1709" ry="9.30909" fill="#D5844C"/>
<ellipse cx="135.629" cy="11.2583" rx="11.1709" ry="9.30909" fill="#D5844C"/>
<ellipse cx="151.455" cy="13.1206" rx="11.1709" ry="9.30909" fill="#D5844C"/>
<ellipse cx="151.455" cy="13.1206" rx="11.1709" ry="9.30909" fill="#D5844C"/>
<ellipse cx="151.455" cy="13.1206" rx="11.1709" ry="9.30909" fill="#D5844C"/>
<ellipse cx="171.935" cy="18.7066" rx="11.1709" ry="9.30909" fill="#D5844C"/>
<ellipse cx="171.935" cy="18.7066" rx="11.1709" ry="9.30909" fill="#D5844C"/>
<ellipse cx="171.935" cy="18.7066" rx="11.1709" ry="9.30909" fill="#D5844C"/>
<ellipse cx="103.513" cy="24.757" rx="77.7309" ry="17.2218" fill="#663C28"/>
<ellipse cx="11.8181" cy="34.5317" rx="11.1709" ry="9.30909" fill="#D5844C"/>
<ellipse cx="11.8181" cy="34.5317" rx="11.1709" ry="9.30909" fill="#D5844C"/>
<ellipse cx="11.8181" cy="34.5317" rx="11.1709" ry="9.30909" fill="#D5844C"/>
<ellipse cx="22.989" cy="37.3247" rx="11.1709" ry="9.30909" fill="#D5844C"/>
<ellipse cx="22.989" cy="37.3247" rx="11.1709" ry="9.30909" fill="#D5844C"/>
<ellipse cx="22.989" cy="37.3247" rx="11.1709" ry="9.30909" fill="#D5844C"/>
<ellipse cx="37.8836" cy="42.9097" rx="11.1709" ry="9.30909" fill="#D5844C"/>
<ellipse cx="37.8836" cy="42.9097" rx="11.1709" ry="9.30909" fill="#D5844C"/>
<ellipse cx="37.8836" cy="42.9097" rx="11.1709" ry="9.30909" fill="#D5844C"/>
<ellipse cx="54.6399" cy="45.7026" rx="11.1709" ry="9.30909" fill="#D5844C"/>
<ellipse cx="54.6399" cy="45.7026" rx="11.1709" ry="9.30909" fill="#D5844C"/>
<ellipse cx="54.6399" cy="45.7026" rx="11.1709" ry="9.30909" fill="#D5844C"/>
<ellipse cx="70.4653" cy="49.4263" rx="11.1709" ry="9.30909" fill="#D5844C"/>
<ellipse cx="70.4653" cy="49.4263" rx="11.1709" ry="9.30909" fill="#D5844C"/>
<ellipse cx="70.4653" cy="49.4263" rx="11.1709" ry="9.30909" fill="#D5844C"/>
<ellipse cx="85.3599" cy="51.2876" rx="11.1709" ry="9.30909" fill="#D5844C"/>
<ellipse cx="85.3599" cy="51.2876" rx="11.1709" ry="9.30909" fill="#D5844C"/>
<ellipse cx="85.3599" cy="51.2876" rx="11.1709" ry="9.30909" fill="#D5844C"/>
<ellipse cx="98.3926" cy="51.2876" rx="11.1709" ry="9.30909" fill="#D5844C"/>
<ellipse cx="98.3926" cy="51.2876" rx="11.1709" ry="9.30909" fill="#D5844C"/>
<ellipse cx="98.3926" cy="51.2876" rx="11.1709" ry="9.30909" fill="#D5844C"/>
<ellipse cx="115.149" cy="50.3569" rx="11.1709" ry="9.30909" fill="#D5844C"/>
<ellipse cx="115.149" cy="50.3569" rx="11.1709" ry="9.30909" fill="#D5844C"/>
<ellipse cx="115.149" cy="50.3569" rx="11.1709" ry="9.30909" fill="#D5844C"/>
<ellipse cx="134.698" cy="50.3569" rx="11.1709" ry="9.30909" fill="#D5844C"/>
<ellipse cx="134.698" cy="50.3569" rx="11.1709" ry="9.30909" fill="#D5844C"/>
<ellipse cx="134.698" cy="50.3569" rx="11.1709" ry="9.30909" fill="#D5844C"/>
<ellipse cx="154.247" cy="45.7026" rx="11.1709" ry="9.30909" fill="#D5844C"/>
<ellipse cx="154.247" cy="45.7026" rx="11.1709" ry="9.30909" fill="#D5844C"/>
<ellipse cx="154.247" cy="45.7026" rx="11.1709" ry="9.30909" fill="#D5844C"/>
<ellipse cx="169.142" cy="41.0483" rx="11.1709" ry="9.30909" fill="#D5844C"/>
<ellipse cx="169.142" cy="41.0483" rx="11.1709" ry="9.30909" fill="#D5844C"/>
<ellipse cx="169.142" cy="41.0483" rx="11.1709" ry="9.30909" fill="#D5844C"/>
<ellipse cx="178.451" cy="34.5317" rx="11.1709" ry="9.30909" fill="#D5844C"/>
<ellipse cx="178.451" cy="34.5317" rx="11.1709" ry="9.30909" fill="#D5844C"/>
<ellipse cx="178.451" cy="34.5317" rx="11.1709" ry="9.30909" fill="#D5844C"/>
<ellipse cx="183.105" cy="26.1538" rx="11.1709" ry="9.30909" fill="#D5844C"/>
<ellipse cx="183.105" cy="26.1538" rx="11.1709" ry="9.30909" fill="#D5844C"/>
<ellipse cx="183.105" cy="26.1538" rx="11.1709" ry="9.30909" fill="#D5844C"/>
<path d="M48.9131 25.9302L33.4503 24.3711H31.9041L30.7443 20.473L24.1727 19.304H16.4413L13.7353 25.9302L11.0293 24.3711L7.16357 26.7095L7.93671 29.4383C8.96757 30.3477 11.3385 32.1667 12.5756 32.1667H16.4413C17.369 32.1667 18.1164 33.9857 18.3741 34.8952L19.9204 39.5722L24.1727 40.7415C24.9458 41.1313 26.8786 41.9109 28.4249 41.9109H31.9041C33.3215 41.5211 36.311 40.7415 36.9295 40.7415C37.548 40.7415 38.7335 43.3401 39.2489 44.6393C40.022 45.0291 41.8002 45.8087 42.728 45.8087C43.8877 45.8087 45.434 47.3678 46.9803 48.1473C48.2173 48.771 50.3306 47.8875 51.2326 47.3678L54.7117 45.8087L58.5774 49.7064C59.6082 50.0962 62.1338 50.8758 63.9894 50.8758C65.8449 50.8758 67.5974 51.3955 68.2416 51.6553C70.0456 50.486 73.8856 47.9914 74.8133 47.3678C75.7411 46.7441 75.1999 48.4072 74.8133 49.3167C75.973 50.2262 78.6017 52.279 79.8387 53.2145C81.0758 54.1499 81.6427 54.9035 81.7716 55.1634C83.0602 55.4232 86.1012 55.787 87.9567 55.1634C89.8122 54.5397 91.0493 54.9035 91.4358 55.1634L94.915 50.8758L98.3941 53.2145C99.2961 53.8641 101.332 55.1634 102.26 55.1634H105.352L112.697 55.9429L116.949 53.2145L122.361 49.3167L124.681 50.8758L128.16 53.2145H132.412C133.959 52.4349 136.974 50.6419 136.665 49.7064C136.355 48.771 138.34 49.3167 139.371 49.7064L144.009 50.8758L147.488 49.7064C148.906 49.0568 151.741 47.3678 151.741 45.8087C151.741 43.8598 153.674 46.978 155.606 45.8087C157.539 44.6393 159.086 46.5882 162.178 45.8087C164.652 45.185 166.044 44.7692 166.43 44.6393C167.719 43.0802 170.219 39.7281 169.91 38.7926C169.6 37.8572 171.585 38.4029 172.616 38.7926L179.96 39.5722C182.28 38.0132 187.151 34.5054 188.078 32.9463C189.238 30.9974 188.465 29.4383 188.078 27.0996C187.692 24.7609 187.305 24.3711 185.372 21.6427C183.439 18.9142 183.826 19.304 182.28 17.7449C180.734 16.1858 178.801 16.9653 174.935 17.7449C171.842 18.3685 171.069 19.0441 171.069 19.304L168.363 21.6427L163.724 25.9302L159.086 24.3711H155.606L151.741 28.6587L149.808 32.1667L147.488 30.9974H143.236L141.303 32.9463H138.211V30.9974L132.412 27.0996C129.835 27.6193 124.372 28.6587 123.135 28.6587C121.898 28.6587 118.496 32.8163 116.949 34.8952L109.218 29.4383H105.739L94.915 34.8952L87.9567 30.9974L79.8387 32.9463L70.1745 28.6587L61.6699 32.1667L56.258 25.9302H48.9131Z" fill="#E59751"/>
<circle cx="22.5236" cy="26.6193" r="6.05091" fill="#EEB370"/>
<ellipse cx="26.7127" cy="30.8081" rx="4.65455" ry="5.58545" fill="#EEB370"/>
<circle cx="6.05091" cy="6.05091" r="6.05091" transform="matrix(-1 0 0 1 55.5708 28.0156)" fill="#EEB370"/>
<ellipse cx="4.65455" cy="5.58545" rx="4.65455" ry="5.58545" transform="matrix(-1 0 0 1 49.9854 32.6699)" fill="#EEB370"/>
<circle cx="3.72364" cy="3.72364" r="3.72364" transform="matrix(1 0 0 -1 63.949 49.4258)" fill="#EEB370"/>
<ellipse cx="2.79273" cy="3.72364" rx="2.79273" ry="3.72364" transform="matrix(1 0 0 -1 67.6726 46.6338)" fill="#EEB370"/>
<circle cx="6.05091" cy="6.05091" r="6.05091" transform="matrix(-1 0 0 1 184.036 20.5684)" fill="#EEB370"/>
<ellipse cx="4.65455" cy="5.58545" rx="4.65455" ry="5.58545" transform="matrix(-1 0 0 1 178.451 25.2227)" fill="#EEB370"/>
<ellipse cx="10.7055" cy="5.12" rx="10.7055" ry="5.12" transform="matrix(-1 0 0 1 171.935 28.9463)" fill="#EEB370"/>
<circle cx="6.05091" cy="6.05091" r="6.05091" transform="matrix(-1 0 0 1 95.5999 34.5312)" fill="#EEB370"/>
<ellipse cx="6.05091" cy="3.25818" rx="6.05091" ry="3.25818" transform="matrix(-1 0 0 1 113.287 49.4258)" fill="#EEB370"/>
<circle cx="6.05091" cy="6.05091" r="6.05091" transform="matrix(-1 0 0 1 130.043 28.0156)" fill="#EEB370"/>
<ellipse cx="4.65455" cy="5.58545" rx="4.65455" ry="5.58545" transform="matrix(-1 0 0 1 124.458 32.6699)" fill="#EEB370"/>
<ellipse cx="3.72364" cy="3.25818" rx="3.72364" ry="3.25818" transform="matrix(-1 0 0 1 107.702 35.4629)" fill="#EEB370"/>
<ellipse cx="3.25818" cy="2.32727" rx="3.25818" ry="2.32727" transform="matrix(-1 0 0 1 138.422 42.9102)" fill="#EEB370"/>
<circle cx="60.6908" cy="41.5131" r="3.25818" fill="#EEB370"/>
<ellipse cx="63.0181" cy="44.306" rx="2.79273" ry="3.25818" fill="#EEB370"/>
<ellipse cx="8.37818" cy="4.65455" rx="8.37818" ry="4.65455" transform="matrix(-1 0 0 1 157.971 35.4629)" fill="#EEB370"/>
</svg>
