<svg width="1146" height="226" viewBox="0 0 1146 226" fill="none" xmlns="http://www.w3.org/2000/svg">
<!-- <rect x="1.5" y="0.5" width="1143" height="225" stroke="black"/> -->
<path fill="#B9EAF8" d="M579.176 5.14261L578.644 5.64604C563.805 19.6753 544.776 28.4473 524.484 30.6119L467.053 36.7383L411.273 36.7383L453.681 40.2035C463.878 41.0368 474.127 41.0861 484.335 40.3509L534.5 36.7383L575.731 31.2825C577.224 31.085 578.741 31.2305 580.168 31.7081C590.046 35.0145 600.572 35.9318 610.881 34.3849L662.654 26.6167C676.182 24.5869 689.881 23.9496 703.534 24.7149L737.5 26.6186L824.731 19.8136C826.22 19.6975 827.713 19.9577 829.073 20.5703C837.89 24.5421 847.549 26.2939 857.207 25.6728L877.927 24.3403C885.961 23.8237 894.024 23.9871 902.028 24.8287L931.5 27.9277L976.5 26.6186L1041 21.2529L1014.42 18.1396C1007.67 17.3496 1000.86 17.2492 994.091 17.8399L965.973 20.2939C958.756 20.9236 951.498 19.7809 944.831 16.965C931.433 11.3073 916.846 9.02711 902.35 10.3247L863.562 13.7967C853.587 14.6895 843.822 10.3624 837.749 2.41175C837.709 2.35921 837.643 2.33182 837.577 2.34043L751.07 13.6988C744.673 14.5387 741.443 6.25072 746.715 2.5259C746.755 2.49774 746.722 2.43597 746.676 2.45397L735.728 6.79708C721.784 12.3288 706.669 14.2297 691.801 12.3216C684.631 11.4013 677.35 11.8071 670.322 13.5189L638.568 21.2529L621.995 23.554C605.534 25.8395 589.189 18.7543 579.622 5.18672C579.518 5.03939 579.307 5.01856 579.176 5.14261Z">
    <animateMotion path="M 1000 0 H -1100" begin="200ms" dur="5100ms" repeatCount="indefinite" />
</path>
<path stroke-width="3" stroke="#116D78" d="M467.053 36.7383L410.873 36.7383H411.273M467.053 36.7383L524.484 30.6119C544.776 28.4473 563.805 19.6753 578.644 5.64604L579.176 5.14261C579.307 5.01856 579.518 5.03939 579.622 5.18672C589.189 18.7543 605.534 25.8395 621.995 23.554L638.568 21.2529L670.322 13.5189C677.35 11.8071 684.631 11.4013 691.801 12.3216C706.669 14.2297 721.784 12.3288 735.728 6.79708L746.676 2.45397C746.722 2.43597 746.755 2.49774 746.715 2.5259C741.443 6.25072 744.673 14.5387 751.07 13.6988L837.577 2.34043C837.643 2.33182 837.709 2.35921 837.749 2.41175C843.822 10.3624 853.587 14.6895 863.562 13.7967L902.35 10.3247C916.846 9.02711 931.433 11.3073 944.831 16.965C951.498 19.7809 958.756 20.9236 965.973 20.2939M467.053 36.7383L411.273 36.7383M965.973 20.2939L994.204 17.83C1000.9 17.2458 1007.63 17.3376 1014.31 18.1039L1041.73 21.2529M965.973 20.2939L994.091 17.8399C1000.86 17.2492 1007.67 17.3496 1014.42 18.1396L1041 21.2529L976.5 26.6186L931.5 27.9277L902.028 24.8287C894.024 23.9871 885.961 23.8237 877.927 24.3403L857.207 25.6728C847.549 26.2939 837.89 24.5421 829.073 20.5703C827.713 19.9577 826.22 19.6975 824.731 19.8136L737.5 26.6186L703.534 24.7149C689.881 23.9496 676.182 24.5869 662.654 26.6167L610.888 34.3849C600.572 35.9318 590.046 35.0145 580.168 31.7081C578.741 31.2305 577.224 31.085 575.731 31.2825L534.5 36.7383L484.335 40.3509C474.127 41.0861 463.878 41.0368 453.681 40.2035L411.273 36.7383">
    <animateMotion path="M 1000 0 H -1100" begin="200ms" dur="5100ms" repeatCount="indefinite" />
</path>

<path fill="#B9EAF8" d="M133.24 202.139L132.913 202.448C123.813 211.052 112.142 216.432 99.6971 217.76L64.4746 221.517L30.2646 221.517L50.3494 223.158C60.5472 223.991 70.7953 224.041 81.0033 223.306L105.84 221.517L131.127 218.171C132.042 218.05 132.973 218.139 133.848 218.432C139.906 220.46 146.361 221.022 152.684 220.074L180.779 215.858C191.508 214.249 202.372 213.743 213.199 214.35L230.339 215.311L283.838 211.137C284.751 211.066 285.667 211.226 286.501 211.601C291.909 214.037 297.832 215.112 303.756 214.731L316.463 213.913C321.391 213.597 326.335 213.697 331.244 214.213L349.319 216.114L376.918 215.311L416.476 212.02L402.736 210.411C396.894 209.727 390.995 209.64 385.133 210.151L370.462 211.432C366.036 211.818 361.585 211.117 357.495 209.39C349.279 205.92 340.332 204.522 331.442 205.318L307.653 207.447C301.536 207.995 295.547 205.341 291.822 200.465C291.797 200.432 291.757 200.416 291.717 200.421L238.662 207.387C234.739 207.902 232.758 202.819 235.991 200.535C236.016 200.517 235.995 200.479 235.967 200.491L229.253 203.154C220.701 206.547 211.431 207.713 202.312 206.542C197.915 205.978 193.45 206.227 189.139 207.277L169.665 212.02L159.5 213.431C149.405 214.833 139.38 210.488 133.513 202.167C133.449 202.076 133.32 202.063 133.29 202.139Z">
    <animateMotion path="M 1289 0 H -399" begin="110ms" dur="5200ms" repeatCount="indefinite" />
</path>
<path stroke-width="3" stroke="#116D78" d="M64.4746 221.517L30.0195 221.517L30.2646 221.517M64.4746 221.517L99.6971 217.76C112.142 216.432 123.813 211.052 132.913 202.448L133.24 202.139C133.32 202.063 133.449 202.076 133.513 202.167C139.38 210.488 149.405 214.833 159.5 213.431L169.665 212.02L189.139 207.277C193.45 206.227 197.915 205.978 202.312 206.542C211.431 207.713 220.701 206.547 229.253 203.154L235.967 200.491C235.995 200.479 236.016 200.517 235.991 200.535C232.758 202.819 234.739 207.902 238.662 207.387L291.717 200.421C291.757 200.416 291.797 200.432 291.822 200.465C295.547 205.341 301.536 207.995 307.653 207.447L331.442 205.318C340.332 204.522 349.279 205.92 357.495 209.39C361.585 211.117 366.036 211.818 370.462 211.432M64.4746 221.517L30.2646 221.517M370.462 211.432L385.203 210.145C391.019 209.638 396.871 209.717 402.669 210.383L416.922 212.02M370.462 211.432L385.133 210.151C390.995 209.64 396.894 209.727 402.736 210.411L416.476 212.02L376.918 215.311L349.319 216.114L331.244 214.213C326.335 213.697 321.391 213.597 316.463 213.913L303.756 214.731C297.832 215.112 291.909 214.037 286.501 211.601C285.667 211.226 284.751 211.066 283.838 211.137L230.339 215.311L213.199 214.35C202.372 213.743 191.508 214.249 180.779 215.858L152.684 220.074C146.361 221.022 139.906 220.46 133.848 218.432C132.973 218.139 132.042 218.05 131.127 218.171L105.84 221.517L81.0033 223.306C70.7953 224.041 60.5472 223.991 50.3494 223.158L30.2646 221.517">
    <animateMotion path="M 1289 0 H -399" begin="110ms" dur="5200ms" repeatCount="indefinite" />
</path>

<path fill="#B9EAF8" d="M682.334 98.5264L681.802 99.0298C666.964 113.059 647.934 121.831 627.642 123.996L570.211 130.122L514.431 130.122L556.839 133.587C567.037 134.421 577.285 134.47 587.493 133.735L637.658 130.122L678.889 124.666C680.382 124.469 681.899 124.614 683.326 125.092C693.204 128.398 703.73 129.316 714.039 127.769L765.813 120C779.341 117.971 793.039 117.333 806.692 118.099L840.658 120.002L927.89 113.197C929.378 113.081 930.871 113.342 932.231 113.954C941.048 117.926 950.707 119.678 960.365 119.057L981.085 117.724C989.119 117.207 997.182 117.371 1005.19 118.212L1034.66 121.311L1079.66 120.002L1144.16 114.637L1117.57 111.523C1110.83 110.733 1104.02 110.633 1097.25 111.224L1069.13 113.678C1061.91 114.307 1054.66 113.165 1047.99 110.349C1034.59 104.691 1020 102.411 1005.51 103.708L966.721 107.18C956.746 108.073 946.98 103.746 940.907 95.7955C940.867 95.743 940.801 95.7156 940.736 95.7242L854.228 107.083C847.832 107.922 844.601 99.6345 849.873 95.9097C849.913 95.8815 849.88 95.8198 849.835 95.8378L838.886 100.181C824.942 105.713 809.827 107.614 794.959 105.705C787.789 104.785 780.508 105.191 773.48 106.903L741.726 114.637L725.153 116.938C708.692 119.223 692.347 112.138 682.78 98.5705C682.676 98.4232 682.466 98.4023 682.334 98.5264Z">
    <animateMotion path="M 1000 0 H -1200" begin="500ms" dur="5300ms" repeatCount="indefinite" />
</path>
<path stroke-width="3" stroke="#116D78" d="M570.211 130.122L514.031 130.122H514.431M570.211 130.122L627.642 123.996C647.934 121.831 666.964 113.059 681.802 99.0298L682.334 98.5264C682.466 98.4023 682.676 98.4232 682.78 98.5705C692.347 112.138 708.692 119.223 725.153 116.938L741.726 114.637L773.48 106.903C780.508 105.191 787.789 104.785 794.959 105.705C809.827 107.614 824.942 105.713 838.886 100.181L849.835 95.8378C849.88 95.8198 849.913 95.8815 849.873 95.9097C844.601 99.6345 847.832 107.922 854.228 107.083L940.736 95.7242C940.801 95.7156 940.867 95.743 940.907 95.7955C946.98 103.746 956.746 108.073 966.721 107.18L1005.51 103.708C1020 102.411 1034.59 104.691 1047.99 110.349C1054.66 113.165 1061.91 114.307 1069.13 113.678M570.211 130.122L514.431 130.122M1069.13 113.678L1097.36 111.214C1104.06 110.63 1110.79 110.721 1117.46 111.488L1144.89 114.637M1069.13 113.678L1097.25 111.224C1104.02 110.633 1110.83 110.733 1117.57 111.523L1144.16 114.637L1079.66 120.002L1034.66 121.311L1005.19 118.212C997.182 117.371 989.119 117.207 981.085 117.724L960.365 119.057C950.707 119.678 941.048 117.926 932.231 113.954C930.871 113.342 929.378 113.081 927.89 113.197L840.658 120.002L806.692 118.099C793.039 117.333 779.341 117.971 765.813 120L714.039 127.769C703.73 129.316 693.204 128.398 683.326 125.092C681.899 124.614 680.382 124.469 678.889 124.666L637.658 130.122L587.493 133.735C577.285 134.47 567.037 134.421 556.839 133.587L514.431 130.122">
    <animateMotion path="M 1000 0 H -1200" begin="500ms" dur="5300ms" repeatCount="indefinite" />
</path>

<path fill="#B9EAF8" d="M756.193 45.3528L738.09 51.1836C723.118 56.0056 706.787 54.0388 693.389 45.8003L693.079 45.6097C692.738 45.4003 692.299 45.4479 692.011 45.7255C680.331 56.992 664.104 62.2353 648.04 59.9336L640 58.7815L649.136 60.7173C663.813 63.8271 679.033 63.2205 693.416 58.9528C695.444 58.3511 697.584 58.234 699.665 58.611L700.907 58.8359C715.519 61.4827 730.486 61.5121 745.109 58.9228L754.132 57.3248C756.368 56.9289 758.646 56.8222 760.909 57.0074L787.891 59.2151C799.608 60.1738 811.386 60.0975 823.089 58.9873L849.725 56.4605C850.894 56.3496 852.073 56.496 853.18 56.8894C860.955 59.654 869.263 60.587 877.458 59.616V59.616C878.646 59.4752 878.731 57.571 877.575 57.2656C868.575 54.8888 860.021 51.0115 852.28 45.7812L851.5 45.2539L841.864 49.5992C829.278 55.2743 814.557 53.7047 803.413 45.5556C803.16 45.3707 802.824 45.3406 802.543 45.4788L796.139 48.6288C783.425 54.883 768.305 53.6589 756.763 45.4409C756.597 45.3232 756.386 45.2906 756.193 45.3528Z">
    <animateMotion path="M 700 0 H -901" begin="1300ms" dur="5400ms" repeatCount="indefinite" />
</path>
<path stroke-width="3" stroke="#116D78" d="M851.5 45.2539L841.864 49.5992C829.278 55.2743 814.557 53.7047 803.413 45.5556C803.16 45.3707 802.824 45.3406 802.543 45.4788L796.139 48.6288C783.425 54.883 768.305 53.6589 756.763 45.4409C756.597 45.3232 756.386 45.2906 756.193 45.3528L738.09 51.1836C723.118 56.0056 706.787 54.0388 693.389 45.8003L693.079 45.6097C692.738 45.4003 692.299 45.4479 692.011 45.7255C680.331 56.992 664.104 62.2353 648.04 59.9336L640 58.7815L649.136 60.7173C663.813 63.8271 679.033 63.2205 693.416 58.9528C695.444 58.3511 697.584 58.234 699.665 58.611L700.907 58.8359C715.519 61.4827 730.486 61.5121 745.109 58.9228L754.132 57.3248C756.368 56.9289 758.646 56.8222 760.909 57.0074L787.891 59.2151C799.608 60.1738 811.386 60.0975 823.089 58.9873L849.725 56.4605C850.894 56.3496 852.073 56.496 853.18 56.8894C860.955 59.654 869.263 60.587 877.458 59.616V59.616C878.646 59.4752 878.731 57.571 877.575 57.2656C868.575 54.8888 860.021 51.0115 852.28 45.7812L851.5 45.2539ZM851.5 45.2539L851.872 45.5054C861.842 52.2418 873.137 56.7683 885 58.7815">
    <animateMotion path="M 700 0 H -901" begin="1300ms" dur="5400ms" repeatCount="indefinite" />
</path>

<path fill="#B9EAF8" d="M283.193 124.029L265.09 129.859C250.118 134.681 233.787 132.715 220.389 124.476L220.079 124.286C219.738 124.076 219.299 124.124 219.011 124.401C207.331 135.668 191.104 140.911 175.04 138.609L167 137.457L176.136 139.393C190.813 142.503 206.033 141.896 220.416 137.629C222.444 137.027 224.584 136.91 226.665 137.287L227.907 137.512C242.519 140.159 257.486 140.188 272.109 137.599L281.132 136.001C283.368 135.605 285.646 135.498 287.909 135.683L314.891 137.891C326.608 138.85 338.386 138.773 350.089 137.663L376.725 135.136C377.894 135.025 379.073 135.172 380.18 135.565C387.955 138.33 396.263 139.263 404.458 138.292V138.292C405.646 138.151 405.731 136.247 404.575 135.941C395.575 133.565 387.021 129.687 379.28 124.457L378.5 123.93L368.864 128.275C356.278 133.95 341.557 132.38 330.413 124.231C330.16 124.046 329.824 124.016 329.543 124.155L323.139 127.305C310.425 133.559 295.305 132.335 283.763 124.117C283.597 123.999 283.386 123.966 283.193 124.029Z">
    <animateMotion path="M 1289 0 H -399" begin="1400ms" dur="5500ms" repeatCount="indefinite" />
</path>
<path stroke-width="3" stroke="#116D78" d="M378.5 123.93L368.864 128.275C356.278 133.95 341.557 132.38 330.413 124.231C330.16 124.046 329.824 124.016 329.543 124.155L323.139 127.305C310.425 133.559 295.305 132.335 283.763 124.117C283.597 123.999 283.386 123.966 283.193 124.029L265.09 129.859C250.118 134.681 233.787 132.715 220.389 124.476L220.079 124.286C219.738 124.076 219.299 124.124 219.011 124.401C207.331 135.668 191.104 140.911 175.04 138.609L167 137.457L176.136 139.393C190.813 142.503 206.033 141.896 220.416 137.629C222.444 137.027 224.584 136.91 226.665 137.287L227.907 137.512C242.519 140.159 257.486 140.188 272.109 137.599L281.132 136.001C283.368 135.605 285.646 135.498 287.909 135.683L314.891 137.891C326.608 138.85 338.386 138.773 350.089 137.663L376.725 135.136C377.894 135.025 379.073 135.172 380.18 135.565C387.955 138.33 396.263 139.263 404.458 138.292V138.292C405.646 138.151 405.731 136.247 404.575 135.941C395.575 133.565 387.021 129.687 379.28 124.457L378.5 123.93ZM378.5 123.93L378.872 124.181C388.842 130.918 400.137 135.444 412 137.457">
    <animateMotion path="M 1289 0 H -399" begin="1400ms" dur="5500ms" repeatCount="indefinite" />
</path>

<path fill="#B9EAF8" d="M974.193 192.976L956.09 198.807C941.118 203.629 924.787 201.662 911.389 193.423L911.079 193.233C910.738 193.023 910.299 193.071 910.011 193.349C898.331 204.615 882.104 209.858 866.04 207.557L858 206.405L867.136 208.34C881.813 211.45 897.033 210.844 911.416 206.576C913.444 205.974 915.584 205.857 917.665 206.234L918.907 206.459C933.519 209.106 948.486 209.135 963.109 206.546L972.132 204.948C974.368 204.552 976.646 204.445 978.909 204.63L1005.89 206.838C1017.61 207.797 1029.39 207.721 1041.09 206.61L1067.73 204.084C1068.89 203.973 1070.07 204.119 1071.18 204.512C1078.96 207.277 1087.26 208.21 1095.46 207.239V207.239C1096.65 207.098 1096.73 205.194 1095.57 204.889C1086.57 202.512 1078.02 198.635 1070.28 193.404L1069.5 192.877L1059.86 197.222C1047.28 202.897 1032.56 201.328 1021.41 193.179C1021.16 192.994 1020.82 192.964 1020.54 193.102L1014.14 196.252C1001.43 202.506 986.305 201.282 974.763 193.064C974.597 192.946 974.386 192.914 974.193 192.976Z">
    <animateMotion path="M 289 0 H -1199" begin="1160ms" dur="5600ms" repeatCount="indefinite" />
</path>
<path stroke-width="3" stroke="#116D78" d="M1069.5 192.877L1059.86 197.222C1047.28 202.897 1032.56 201.328 1021.41 193.179C1021.16 192.994 1020.82 192.964 1020.54 193.102L1014.14 196.252C1001.43 202.506 986.305 201.282 974.763 193.064C974.597 192.946 974.386 192.914 974.193 192.976L956.09 198.807C941.118 203.629 924.787 201.662 911.389 193.423L911.079 193.233C910.738 193.023 910.299 193.071 910.011 193.349C898.331 204.615 882.104 209.858 866.04 207.557L858 206.405L867.136 208.34C881.813 211.45 897.033 210.844 911.416 206.576C913.444 205.974 915.584 205.857 917.665 206.234L918.907 206.459C933.519 209.106 948.486 209.135 963.109 206.546L972.132 204.948C974.368 204.552 976.646 204.445 978.909 204.63L1005.89 206.838C1017.61 207.797 1029.39 207.721 1041.09 206.61L1067.73 204.084C1068.89 203.973 1070.07 204.119 1071.18 204.512C1078.96 207.277 1087.26 208.21 1095.46 207.239V207.239C1096.65 207.098 1096.73 205.194 1095.57 204.889C1086.57 202.512 1078.02 198.635 1070.28 193.404L1069.5 192.877ZM1069.5 192.877L1069.87 193.128C1079.84 199.865 1091.14 204.391 1103 206.405">
    <animateMotion path="M 289 0 H -1199" begin="1160ms" dur="5600ms" repeatCount="indefinite" />
</path>

<path fill="#B4E8F7" d="M439.096 87.5827H407L435.447 90.38C455.697 92.3713 476.132 91.2607 496.048 87.0865L512.441 83.6504C513.793 83.3671 515.194 83.4177 516.522 83.798C538.611 90.1232 561.754 91.902 584.55 89.0269L596 87.5827L570.865 85.4734C553.151 83.9869 535.944 78.81 520.351 70.2755C516.686 68.2697 512.271 68.1882 508.535 70.0572L504.269 72.1912C484.035 82.313 461.721 87.5827 439.096 87.5827Z">
    <animateMotion path="M 1089 0 H -599" begin="1570ms" dur="5700ms" repeatCount="indefinite" />
</path>
<path stroke-width="3" stroke="#116D78" d="M504.269 72.1912L508.553 70.048C512.278 68.1847 516.68 68.266 520.333 70.2656C535.937 78.8059 553.161 83.9732 570.889 85.4328L597 87.5827M504.269 72.1912C484.035 82.313 461.721 87.5827 439.096 87.5827H407L435.447 90.38C455.697 92.3713 476.132 91.2607 496.048 87.0865L512.441 83.6504C513.793 83.3671 515.194 83.4177 516.522 83.798C538.611 90.1232 561.754 91.902 584.55 89.0269L596 87.5827L570.865 85.4734C553.151 83.9869 535.944 78.81 520.351 70.2755C516.686 68.2697 512.271 68.1882 508.535 70.0572L504.269 72.1912Z">
    <animateMotion path="M 1089 0 H -599" begin="1570ms" dur="5700ms" repeatCount="indefinite" />
</path>

<path fill="#B4E8F7" d="M33.0965 88.5836H1L29.4469 91.381C49.697 93.3723 70.1325 92.2617 90.0475 88.0875L106.441 84.6514C107.793 84.368 109.194 84.4187 110.522 84.799C132.611 91.1242 155.754 92.903 178.55 90.0278L190 88.5836L164.865 86.4743C147.151 84.9878 129.944 79.811 114.351 71.2765C110.686 69.2707 106.271 69.1891 102.535 71.0582L98.2686 73.1922C78.0345 83.3139 55.721 88.5836 33.0965 88.5836Z">
    <animateMotion path="M 1289 0 H -399" begin="2080ms" dur="5800ms" repeatCount="indefinite" />
</path>
<path stroke-width="3" stroke="#116D78" d="M98.2686 73.1922L102.553 71.049C106.278 69.1857 110.68 69.267 114.333 71.2666C129.937 79.8069 147.161 84.9742 164.889 86.4338L191 88.5836M98.2686 73.1922C78.0345 83.3139 55.721 88.5836 33.0965 88.5836H1L29.4469 91.381C49.697 93.3723 70.1325 92.2617 90.0475 88.0875L106.441 84.6514C107.793 84.368 109.194 84.4187 110.522 84.799C132.611 91.1242 155.754 92.903 178.55 90.0278L190 88.5836L164.865 86.4743C147.151 84.9878 129.944 79.811 114.351 71.2765C110.686 69.2707 106.271 69.1891 102.535 71.0582L98.2686 73.1922Z">
    <animateMotion path="M 1289 0 H -399" begin="2080ms" dur="5800ms" repeatCount="indefinite" />
</path>

<path fill="#B4E8F7" d="M414.096 195.931H382L410.447 198.729C430.697 200.72 451.132 199.609 471.048 195.435L487.441 191.999C488.793 191.716 490.194 191.766 491.522 192.147C513.611 198.472 536.754 200.251 559.55 197.375L571 195.931L545.865 193.822C528.151 192.336 510.944 187.159 495.351 178.624C491.686 176.618 487.271 176.537 483.535 178.406L479.269 180.54C459.035 190.662 436.721 195.931 414.096 195.931Z">
    <animateMotion path="M 1289 0 H -599" begin="1705ms" dur="5250ms" repeatCount="indefinite" />
</path>
<path stroke-width="3" stroke="#116D78" d="M479.269 180.54L483.553 178.397C487.278 176.533 491.68 176.615 495.333 178.614C510.937 187.155 528.161 192.322 545.889 193.781L572 195.931M479.269 180.54C459.035 190.662 436.721 195.931 414.096 195.931H382L410.447 198.729C430.697 200.72 451.132 199.609 471.048 195.435L487.441 191.999C488.793 191.716 490.194 191.766 491.522 192.147C513.611 198.472 536.754 200.251 559.55 197.375L571 195.931L545.865 193.822C528.151 192.336 510.944 187.159 495.351 178.624C491.686 176.618 487.271 176.537 483.535 178.406L479.269 180.54Z">
    <animateMotion path="M 1289 0 H -599" begin="1705ms" dur="5250ms" repeatCount="indefinite" />
</path>

<path fill="#B4E8F7" d="M945.096 65.8922H913L941.447 68.6896C961.697 70.6809 982.132 69.5702 1002.05 65.3961L1018.44 61.96C1019.79 61.6766 1021.19 61.7273 1022.52 62.1076C1044.61 68.4328 1067.75 70.2116 1090.55 67.3364L1102 65.8922L1076.86 63.7829C1059.15 62.2964 1041.94 57.1196 1026.35 48.5851C1022.69 46.5793 1018.27 46.4977 1014.53 48.3668L1010.27 50.5008C990.035 60.6225 967.721 65.8922 945.096 65.8922Z">
    <animateMotion path="M 289 0 H -1399" begin="1806ms" dur="5160ms" repeatCount="indefinite" />
</path>
<path stroke-width="3" stroke="#116D78" d="M1010.27 50.5008L1014.55 48.3575C1018.28 46.4943 1022.68 46.5756 1026.33 48.5752C1041.94 57.1154 1059.16 62.2828 1076.89 63.7424L1103 65.8922M1010.27 50.5008C990.035 60.6225 967.721 65.8922 945.096 65.8922H913L941.447 68.6896C961.697 70.6809 982.132 69.5702 1002.05 65.3961L1018.44 61.96C1019.79 61.6766 1021.19 61.7273 1022.52 62.1076C1044.61 68.4328 1067.75 70.2116 1090.55 67.3364L1102 65.8922L1076.86 63.7829C1059.15 62.2964 1041.94 57.1196 1026.35 48.5851C1022.69 46.5793 1018.27 46.4977 1014.53 48.3668L1010.27 50.5008Z">
    <animateMotion path="M 289 0 H -1399" begin="1806ms" dur="5160ms" repeatCount="indefinite" />
</path>

<path fill="#B4E8F7" d="M703.096 158.404H671L699.447 161.201C719.697 163.193 740.132 162.082 760.048 157.908L776.441 154.472C777.793 154.188 779.194 154.239 780.522 154.619C802.611 160.944 825.754 162.723 848.55 159.848L860 158.404L834.865 156.295C817.151 154.808 799.944 149.631 784.351 141.097C780.686 139.091 776.271 139.009 772.535 140.879L768.269 143.013C748.035 153.134 725.721 158.404 703.096 158.404Z">
    <animateMotion path="M 589 0 H -1199" begin="2907ms" dur="4070ms" repeatCount="indefinite" />
</path>
<path stroke-width="3" stroke="#116D78" d="M768.269 143.013L772.553 140.869C776.278 139.006 780.68 139.087 784.333 141.087C799.937 149.627 817.161 154.794 834.889 156.254L861 158.404M768.269 143.013C748.035 153.134 725.721 158.404 703.096 158.404H671L699.447 161.201C719.697 163.193 740.132 162.082 760.048 157.908L776.441 154.472C777.793 154.188 779.194 154.239 780.522 154.619C802.611 160.944 825.754 162.723 848.55 159.848L860 158.404L834.865 156.295C817.151 154.808 799.944 149.631 784.351 141.097C780.686 139.091 776.271 139.009 772.535 140.879L768.269 143.013Z">
    <animateMotion path="M 589 0 H -1199" begin="2907ms" dur="4070ms" repeatCount="indefinite" />
</path>

</svg>
