<svg width="69" height="98" viewBox="0 0 69 98" fill="none" xmlns="http://www.w3.org/2000/svg">
<g filter="url(#filter0_d_777_1053)">
<path d="M63.694 29.971C63.7333 33.5548 62.7454 36.8511 60.7303 39.8601C58.7142 42.7837 56.0488 44.861 52.7341 46.0921L43.1754 49.9091C43.0047 49.911 42.7928 50.0413 42.5396 50.3001C42.3746 50.8139 42.2921 51.0709 42.2921 51.0709L42.3762 58.7504C42.394 60.3716 41.8117 61.7434 40.6293 62.8658C39.5322 63.9872 38.173 64.5568 36.5517 64.5746L33.0959 64.6125C31.4747 64.6303 30.0607 64.0911 28.854 62.9949C27.7325 61.8978 27.1629 60.5386 27.1452 58.9174L27.0582 50.9818C27.0226 47.7394 27.9707 44.6995 29.9024 41.8621C31.9194 39.0238 34.415 37.0337 37.3894 35.8917L47.2041 32.0719C48.0545 31.8065 48.4742 31.1619 48.4629 30.1379L48.3353 18.4906C48.3306 18.064 48.1557 17.6819 47.8107 17.3443C47.4647 16.9214 47.0784 16.7123 46.6517 16.717L22.0772 16.9864C21.6505 16.9911 21.2262 17.2091 20.8043 17.6404C20.4667 17.9855 20.3003 18.3713 20.3049 18.7979L20.4074 28.1414C20.4251 29.7626 19.8428 31.1344 18.6604 32.2568C17.5623 33.2929 16.2454 33.8193 14.7095 33.8362L11.1257 33.8755C9.50444 33.8933 8.09091 33.3967 6.88509 32.3859C5.76366 31.2888 5.19406 29.9296 5.17629 28.3084L5.07386 18.9649C5.04018 15.8931 5.77726 13.0689 7.28511 10.4922C8.79295 7.91549 10.8184 5.84516 13.3614 4.28118C15.9897 2.71628 18.8398 1.91698 21.9116 1.88331L46.4861 1.6139C49.558 1.58022 52.3822 2.3173 54.9589 3.82515C57.5356 5.33299 59.6059 7.35842 61.1699 9.90143C62.7338 12.4444 63.5327 15.2518 63.5663 18.3237L63.694 29.971ZM44.6416 78.5667C44.6706 81.2119 43.7568 83.4834 41.9002 85.3812C40.0435 87.279 37.7926 88.2424 35.1474 88.2714C32.5023 88.3004 30.1881 87.3871 28.205 85.5313C26.3072 83.6747 25.3438 81.4238 25.3148 78.7786C25.2858 76.1335 26.1996 73.862 28.0562 71.9642C29.9982 70.0654 32.2918 69.1016 34.937 69.0726C37.5821 69.0436 39.8536 69.9574 41.7514 71.814C43.6492 73.6707 44.6126 75.9216 44.6416 78.5667Z" fill="white"/>
<path d="M61.1419 40.1439L61.1419 40.1439L61.1457 40.1383C63.2164 37.0464 64.2344 33.6513 64.194 29.9655L64.0663 18.3182C64.0317 15.1585 63.2086 12.262 61.5958 9.6395C59.9888 7.02658 57.8589 4.9429 55.2114 3.39361C52.5542 1.83862 49.6403 1.07929 46.4807 1.11393L21.9061 1.38334C18.7465 1.41798 15.81 2.24134 13.1056 3.85157L13.1056 3.85152L13.0995 3.85528C10.4865 5.46225 8.40286 7.59212 6.85357 10.2396C5.29858 12.8969 4.53925 15.8107 4.57389 18.9704L4.67632 28.3138C4.69549 30.0627 5.31573 31.55 6.53544 32.7433L6.54916 32.7567L6.56388 32.769C7.86416 33.8591 9.39454 34.3945 11.1312 34.3754L14.7149 34.3362C16.3741 34.318 17.8123 33.7445 19.0035 32.6204L19.0046 32.6194C20.2872 31.4019 20.9267 29.897 20.9073 28.1359L20.8049 18.7925C20.8019 18.5163 20.9036 18.2539 21.1617 17.9901C21.5298 17.6138 21.8354 17.4891 22.0827 17.4864L46.6572 17.217C46.891 17.2144 47.1445 17.3197 47.4237 17.6609L47.4412 17.6824L47.461 17.7017C47.7248 17.9598 47.8323 18.2199 47.8353 18.4961L47.963 30.1434C47.9679 30.5888 47.8784 30.9003 47.7376 31.1166C47.6011 31.3263 47.3878 31.4908 47.0552 31.5946L47.0387 31.5997L47.0227 31.6059L37.2101 35.4249C37.2099 35.425 37.2098 35.4251 37.2096 35.4251C34.1351 36.6057 31.5632 38.6619 29.4948 41.5725L29.4947 41.5724L29.489 41.5807C27.5034 44.4974 26.5215 47.6365 26.5582 50.9873L26.6452 58.9229C26.6644 60.6717 27.2846 62.159 28.5043 63.3523L28.5109 63.3588L28.5178 63.365C29.8174 64.5455 31.3532 65.1316 33.1014 65.1124L36.5572 65.0746C38.3029 65.0554 39.788 64.4374 40.9801 63.2221C42.2583 62.0057 42.8955 60.503 42.8762 58.7449L42.7929 51.1465L42.83 51.0311L42.9778 50.5709C43.0491 50.5047 43.1066 50.4611 43.1504 50.4341C43.1748 50.4191 43.1905 50.412 43.1984 50.4089L43.2742 50.408L43.3608 50.3734L52.914 46.5586C56.3228 45.2913 59.069 43.15 61.1419 40.1439ZM27.8553 85.8888L27.8552 85.8888L27.8633 85.8964C29.9377 87.8375 32.3752 88.8018 35.1529 88.7714C37.9312 88.7409 40.3086 87.7231 42.2576 85.7309C44.2066 83.7387 45.172 81.3396 45.1416 78.5613C45.1111 75.783 44.0933 73.4056 42.1011 71.4566C40.1089 69.5076 37.7098 68.5421 34.9315 68.5726C32.1538 68.603 29.738 69.6206 27.7067 71.6067L27.7066 71.6066L27.6988 71.6145C25.7498 73.6067 24.7843 76.0058 24.8148 78.7841C24.8453 81.5624 25.8631 83.9398 27.8553 85.8888Z" stroke="black"/>
</g>
<defs>
<filter id="filter0_d_777_1053" x="0.0727539" y="0.612793" width="68.6226" height="96.6592" filterUnits="userSpaceOnUse" color-interpolation-filters="sRGB">
<feFlood flood-opacity="0" result="BackgroundImageFix"/>
<feColorMatrix in="SourceAlpha" type="matrix" values="0 0 0 0 0 0 0 0 0 0 0 0 0 0 0 0 0 0 127 0" result="hardAlpha"/>
<feOffset dy="4"/>
<feGaussianBlur stdDeviation="2"/>
<feComposite in2="hardAlpha" operator="out"/>
<feColorMatrix type="matrix" values="0 0 0 0 0 0 0 0 0 0 0 0 0 0 0 0 0 0 0.25 0"/>
<feBlend mode="normal" in2="BackgroundImageFix" result="effect1_dropShadow_777_1053"/>
<feBlend mode="normal" in="SourceGraphic" in2="effect1_dropShadow_777_1053" result="shape"/>
</filter>
</defs>
</svg>
