<svg width="96" height="115" viewBox="0 0 96 115" fill="none" xmlns="http://www.w3.org/2000/svg">
<path d="M43.0436 111.4C43.3967 112.117 43.2249 113.381 43.2211 114.186L41.9087 114.183L43.0436 111.4Z" fill="#B25826"/>
<path d="M48.9214 105.784C49.481 105.713 50.0416 105.74 50.6038 105.753L53.6706 114.167L50.8951 114.164C50.5422 112.406 50.1243 110.651 49.725 108.902C49.4876 107.862 49.3621 106.76 48.9214 105.784Z" fill="#B25826"/>
<path d="M45.0201 105.758L48.9214 105.784C49.3621 106.76 49.4876 107.862 49.725 108.902C50.1243 110.651 50.5422 112.406 50.8951 114.164L48.3257 114.155C47.7974 114.203 47.2782 114.166 46.7501 114.137C45.6128 113.998 44.3587 114.088 43.2211 114.186C43.2249 113.381 43.3967 112.117 43.0436 111.4L45.0201 105.758Z" fill="#F48924"/>
<path d="M3.96672 30.7917C4.23328 30.9759 4.51278 31.1512 4.75403 31.3676L4.7616 31.5814L4.5327 32.3312C4.14482 33.9672 3.55613 35.5566 3.181 37.1991C2.7738 38.9821 2.60805 40.7934 2.24826 42.5742L2.00302 44.773C1.8564 45.5623 1.92632 46.4361 1.80958 47.2527C1.66156 48.2886 2.08828 49.9812 1.5482 50.84C1.22128 50.5225 0.829023 50.2695 0.459473 50.0037C0.552309 43.3847 1.4219 36.936 3.96672 30.7917Z" fill="#6F9628"/>
<path d="M3.96672 30.7917C7.79909 21.3351 14.7249 13.2937 23.2636 7.77433C29.8085 3.54392 37.4868 0.880126 45.279 0.406085C46.5052 0.331478 48.0834 0.142002 49.2841 0.400408L49.165 0.726569C49.3702 0.978163 49.5832 1.1428 49.8475 1.32958L49.7107 1.35967C48.1966 1.67686 46.5522 1.49597 45.0119 1.5411C43.7381 1.57843 42.4637 1.79109 41.2036 1.97169C31.6555 3.34012 22.1858 8.3929 15.4227 15.2277C10.8431 20.0199 7.46201 25.3428 4.75403 31.3676C4.51278 31.1512 4.23328 30.9759 3.96672 30.7917Z" fill="#B25826"/>
<path d="M0.459473 50.0037C0.829023 50.2695 1.22128 50.5225 1.5482 50.84C2.82719 52.2734 4.6865 53.0418 6.38504 53.8644L6.497 53.9578C7.59987 54.2044 8.66988 54.5915 9.75004 54.9214C10.4439 55.1334 11.3683 55.2992 11.9751 55.687C11.8094 56.7811 11.8221 57.8697 11.7697 58.9711C11.6239 62.0381 11.6524 65.0987 11.8737 68.1621C11.9646 69.4218 12.2791 70.6615 12.2465 71.9295L11.6482 71.6972C8.85595 70.8547 6.11848 69.6925 3.54458 68.3342C2.75029 66.4833 2.30424 64.4897 1.89345 62.5244C1.04259 58.4538 0.560078 54.1632 0.459473 50.0037Z" fill="#F48924"/>
<path d="M6.497 53.9578C7.59987 54.2044 8.66988 54.5915 9.75004 54.9214C10.4439 55.1334 11.3683 55.2992 11.9751 55.687C11.8094 56.7811 11.8221 57.8697 11.7697 58.9711C11.6239 62.0381 11.6524 65.0987 11.8737 68.1621C11.9646 69.4218 12.2791 70.6615 12.2465 71.9295L11.6482 71.6972C8.54238 66.4636 7.39746 59.9027 6.497 53.9578Z" fill="#F8DF92"/>
<path d="M4.7616 31.5814L7.99134 33.8993L8.08797 33.8748C10.3292 35.0617 12.9583 36.276 15.5485 36.1765L15.5967 36.1939C14.5847 38.4506 14.3201 41.0759 13.9438 43.498C13.638 45.4661 13.3139 47.4314 13.0075 49.3995C12.6829 51.4853 12.2154 53.5659 12.0195 55.6695L11.9751 55.687C11.3683 55.2992 10.4439 55.1334 9.75004 54.9214C8.66988 54.5915 7.59987 54.2044 6.497 53.9578L6.38504 53.8644C4.6865 53.0418 2.82719 52.2734 1.5482 50.84C2.08828 49.9812 1.66156 48.2886 1.80958 47.2527C1.92632 46.4361 1.8564 45.5623 2.00302 44.773L2.24826 42.5742C2.60805 40.7934 2.7738 38.9821 3.181 37.1991C3.55613 35.5566 4.14482 33.9672 4.5327 32.3312L4.7616 31.5814Z" fill="#B0DD55"/>
<path d="M4.7616 31.5814L7.99134 33.8993C7.07274 37.2119 6.40197 40.484 6.1916 43.9269C6.04557 46.314 6.06868 48.8502 6.18562 51.2431C6.22846 52.1188 6.34619 52.9864 6.38504 53.8644C4.6865 53.0418 2.82719 52.2734 1.5482 50.84C2.08828 49.9812 1.66156 48.2886 1.80958 47.2527C1.92632 46.4361 1.8564 45.5623 2.00302 44.773L2.24826 42.5742C2.60805 40.7934 2.7738 38.9821 3.181 37.1991C3.55613 35.5566 4.14482 33.9672 4.5327 32.3312L4.7616 31.5814Z" fill="#7FB532"/>
<path d="M49.2841 0.400408C51.056 0.238344 52.7556 0.426142 54.5111 0.64855C63.2773 1.75915 71.4196 5.95367 78.1624 11.5535C80.607 13.5837 83.0128 15.9788 84.9782 18.4835L84.8444 19.0346C84.8011 19.2551 84.7342 19.4589 84.6621 19.6709L83.8744 22.0406L82.7599 24.0927L82.5834 24.5948C81.577 26.6744 80.1922 28.6507 78.7835 30.4751C77.653 28.8497 76.8605 26.9489 75.853 25.2406C74.2143 22.4617 72.2641 19.8689 70.2627 17.3446C69.22 16.0294 68.1164 14.6079 66.9101 13.4387L66.8541 13.4572C66.4403 12.5841 65.2843 11.8199 64.5774 11.1698C62.6853 9.43023 60.8029 7.67033 58.7832 6.07818C57.6783 5.20719 56.4985 4.44339 55.4034 3.55826L55.4206 3.46582L53.3535 1.89012C52.2434 1.53089 50.9988 1.51914 49.8475 1.32958C49.5832 1.1428 49.3702 0.978163 49.165 0.726569L49.2841 0.400408Z" fill="#757424"/>
<path d="M53.3535 1.89012C54.2697 1.86653 55.2414 1.88787 56.1401 2.07667L56.1875 2.23704L55.4206 3.46582L53.3535 1.89012Z" fill="#B25826"/>
<path d="M56.1401 2.07667C57.3828 2.31015 58.608 2.52929 59.8241 2.88629C62.9313 3.79872 65.9598 5.1799 68.9224 6.48438C68.8895 7.57769 68.8837 9.0053 68.3297 9.97888C66.0485 8.52976 63.7915 7.0402 61.4971 5.6122C59.7235 4.50853 57.7301 3.65727 56.1875 2.23704L56.1401 2.07667Z" fill="#A68741"/>
<path d="M56.1875 2.23704C57.7301 3.65727 59.7235 4.50853 61.4971 5.6122C63.7915 7.0402 66.0485 8.52976 68.3297 9.97888C67.8506 10.9718 67.0241 12.3404 66.9101 13.4387L66.8541 13.4572C66.4403 12.5841 65.2843 11.8199 64.5774 11.1698C62.6853 9.43023 60.8029 7.67033 58.7832 6.07818C57.6783 5.20719 56.4985 4.44339 55.4034 3.55826L55.4206 3.46582L56.1875 2.23704Z" fill="#B0DD55"/>
<path d="M68.3297 9.97888C69.5123 10.3938 70.6022 11.379 71.5784 12.1464C74.4794 14.4266 77.0419 16.8463 79.3499 19.7316C80.495 21.1628 81.5093 22.7604 82.7599 24.0927L82.5834 24.5948C81.577 26.6744 80.1922 28.6507 78.7835 30.4751C77.653 28.8497 76.8605 26.9489 75.853 25.2406C74.2143 22.4617 72.2641 19.8689 70.2627 17.3446C69.22 16.0294 68.1164 14.6079 66.9101 13.4387C67.0241 12.3404 67.8506 10.9718 68.3297 9.97888Z" fill="#6F9628"/>
<path d="M78.6688 76.9534C80.1404 75.7747 81.7091 74.7286 83.1831 73.5558C85.8327 71.4476 88.1753 69.0138 90.3167 66.396C90.9923 65.5705 91.665 64.7264 92.2429 63.8291C92.9085 62.7959 93.4907 61.6265 94.3296 60.7227L94.3925 60.6563C94.0702 63.5319 93.1215 66.4793 92.1252 69.1865C88.2602 79.6897 81.7003 89.048 72.9462 96.0541C67.7928 100.179 61.7033 103.545 55.242 105.042C53.7091 105.397 52.1671 105.587 50.6038 105.753C50.0416 105.74 49.481 105.713 48.9214 105.784L45.0201 105.758C42.8683 105.356 40.6594 105.03 38.5607 104.407C28.6571 101.467 19.7986 94.7241 13.6019 86.538C14.9329 86.8948 16.2739 87.2616 17.5287 87.8401C18.2457 88.9103 19.5285 89.8584 20.5065 90.6918C25.6407 95.0668 31.4476 98.8032 37.8738 100.951C44.4595 103.152 51.0778 102.544 57.2699 99.4534C64.5858 95.8019 70.395 89.8347 75.0882 83.2452C76.4891 81.2785 77.8978 79.2596 78.6688 76.9534Z" fill="#693427"/>
<path d="M78.6688 76.9534C77.8978 79.2596 76.4891 81.2785 75.0882 83.2452C70.395 89.8347 64.5858 95.8019 57.2699 99.4534C51.0778 102.544 44.4595 103.152 37.8738 100.951C31.4476 98.8032 25.6407 95.0668 20.5065 90.6918C19.5285 89.8584 18.2457 88.9103 17.5287 87.8401C19.6142 88.1412 21.6568 88.6571 23.7248 89.0508C26.1352 89.5096 28.6085 89.8198 31.0545 90.022C32.9668 90.1802 34.9118 90.1373 36.8293 90.1088C47.8574 89.9447 58.7943 87.2915 68.7361 82.521C72.1734 80.8715 75.4038 78.9098 78.6688 76.9534Z" fill="#B25826"/>
<path d="M49.8475 1.32958C50.9988 1.51914 52.2434 1.53089 53.3535 1.89012L55.4206 3.46582L55.4034 3.55826C56.4985 4.44339 57.6783 5.20719 58.7832 6.07818C60.8029 7.67033 62.6853 9.43023 64.5774 11.1698C65.2843 11.8199 66.4403 12.5841 66.8541 13.4572C63.3789 20.1669 57.1784 25.1693 50.6985 28.8315C47.2285 30.7929 43.5559 32.4553 39.7556 33.6668C34.1083 35.4671 28.1238 36.6208 22.1773 36.564C19.9801 36.5429 17.7895 36.1572 15.5967 36.1939L15.5485 36.1765C12.9583 36.276 10.3292 35.0617 8.08797 33.8748L7.99134 33.8993L4.7616 31.5814L4.75403 31.3676C7.46201 25.3428 10.8431 20.0199 15.4227 15.2277C22.1858 8.3929 31.6555 3.34012 41.2036 1.97169C42.4637 1.79109 43.7381 1.57843 45.0119 1.5411C46.5522 1.49597 48.1966 1.67686 49.7107 1.35967L49.8475 1.32958Z" fill="#F8DF92"/>
<path d="M15.4227 15.2277C16.2606 15.6431 17.3913 16.0347 18.1292 16.5872L18.1515 16.6593C19.1111 17.1466 20.3072 17.1603 21.3619 17.3191C22.2478 17.4524 23.1449 17.6755 24.0414 17.6934C22.9497 19.3171 22.0006 21.1003 21.1051 22.8398C18.892 27.1392 17.0544 31.582 15.5485 36.1765C12.9583 36.276 10.3292 35.0617 8.08797 33.8748L7.99134 33.8993L4.7616 31.5814L4.75403 31.3676C7.46201 25.3428 10.8431 20.0199 15.4227 15.2277Z" fill="#FEFEDA"/>
<path d="M15.4227 15.2277C16.2606 15.6431 17.3913 16.0347 18.1292 16.5872L18.1515 16.6593C16.6526 18.1403 15.5162 19.8073 14.3365 21.5449C12.8581 23.723 11.4615 25.9469 10.362 28.3439C9.5307 30.1564 8.90795 32.0657 8.08797 33.8748L7.99134 33.8993L4.7616 31.5814L4.75403 31.3676C7.46201 25.3428 10.8431 20.0199 15.4227 15.2277Z" fill="#F8DF92"/>
<path d="M49.8475 1.32958C50.9988 1.51914 52.2434 1.53089 53.3535 1.89012L55.4206 3.46582L55.4034 3.55826C50.5084 9.66093 44.1103 13.7057 36.5948 15.8696C34.6558 16.4278 32.5745 16.9292 30.5684 17.148L24.3064 17.5649L24.0414 17.6934C23.1449 17.6755 22.2478 17.4524 21.3619 17.3191C20.3072 17.1603 19.1111 17.1466 18.1515 16.6593L18.1292 16.5872C17.3913 16.0347 16.2606 15.6431 15.4227 15.2277C22.1858 8.3929 31.6555 3.34012 41.2036 1.97169C42.4637 1.79109 43.7381 1.57843 45.0119 1.5411C46.5522 1.49597 48.1966 1.67686 49.7107 1.35967L49.8475 1.32958Z" fill="#F48924"/>
<path d="M18.1292 16.5872C18.4732 16.484 18.7079 16.2935 18.9771 16.0658C19.8136 15.3578 20.5347 14.5249 21.3364 13.7796C23.0246 12.2099 24.8787 10.712 26.7595 9.38202C29.8243 7.21512 33.1588 5.34027 36.6725 4.00491C38.2288 3.41323 39.8542 2.97873 41.4563 2.53069C39.798 3.55348 38.0485 4.4145 36.4089 5.46219C32.5452 7.93111 29.2169 11.1869 26.3519 14.7478C25.7427 15.5048 24.6265 16.5969 24.3167 17.5157L24.3064 17.5649L24.0414 17.6934C23.1449 17.6755 22.2478 17.4524 21.3619 17.3191C20.3072 17.1603 19.1111 17.1466 18.1515 16.6593L18.1292 16.5872Z" fill="#F9BF87"/>
<path d="M92.9276 34.0808C93.3902 36.209 93.9883 38.3092 94.3724 40.4546C94.7868 42.7695 94.9696 45.0764 95.1115 47.4193C95.3794 51.8527 95.4211 56.2998 94.3925 60.6563L94.3296 60.7227C93.4907 61.6265 92.9085 62.7959 92.2429 63.8291C91.665 64.7264 90.9923 65.5705 90.3167 66.396C88.1753 69.0138 85.8327 71.4476 83.1831 73.5558C81.7091 74.7286 80.1404 75.7747 78.6688 76.9534C75.4038 78.9098 72.1734 80.8715 68.7361 82.521C58.7943 87.2915 47.8574 89.9447 36.8293 90.1088C34.9118 90.1373 32.9668 90.1802 31.0545 90.022C28.6085 89.8198 26.1352 89.5096 23.7248 89.0508C21.6568 88.6571 19.6142 88.1412 17.5287 87.8401C16.2739 87.2616 14.9329 86.8948 13.6019 86.538C9.17909 81.0514 5.87643 74.9798 3.54458 68.3342C6.11848 69.6925 8.85595 70.8547 11.6482 71.6972L12.2465 71.9295C16.44 72.9661 20.8182 73.6064 25.1397 73.7215C32.8174 73.9257 40.7423 72.6047 48.1224 70.5489C58.9696 67.5276 69.5754 62.2951 78.3622 55.2284C80.8775 53.2054 83.301 51.0594 85.4028 48.6006C87.1648 46.5393 88.5936 44.2762 89.9228 41.92C90.5759 41.013 90.956 39.8286 91.3018 38.7757L92.2666 35.6436C92.437 35.1043 92.5738 34.5326 92.9276 34.0808Z" fill="#11734B"/>
<path d="M66.9101 13.4387C68.1164 14.6079 69.22 16.0294 70.2627 17.3446C72.2641 19.8689 74.2143 22.4617 75.853 25.2406C76.8605 26.9489 77.653 28.8497 78.7835 30.4751C80.1922 28.6507 81.577 26.6744 82.5834 24.5948L82.7599 24.0927L83.8744 22.0406L84.6621 19.6709C84.7342 19.4589 84.8011 19.2551 84.8444 19.0346L84.9782 18.4835C88.0568 21.843 90.0233 26.0742 91.6539 30.2823C92.1288 31.5079 92.6629 32.7932 92.9276 34.0808C92.5738 34.5326 92.437 35.1043 92.2666 35.6436L91.3018 38.7757C90.956 39.8286 90.5759 41.013 89.9228 41.92C88.5936 44.2762 87.1648 46.5393 85.4028 48.6006C83.301 51.0594 80.8775 53.2054 78.3622 55.2284C69.5754 62.2951 58.9696 67.5276 48.1224 70.5489C40.7423 72.6047 32.8174 73.9257 25.1397 73.7215C20.8182 73.6064 16.44 72.9661 12.2465 71.9295C12.2791 70.6615 11.9646 69.4218 11.8737 68.1621C11.6524 65.0987 11.6239 62.0381 11.7697 58.9711C11.8221 57.8697 11.8094 56.7811 11.9751 55.687L12.0195 55.6695C12.2154 53.5659 12.6829 51.4853 13.0075 49.3995C13.3139 47.4314 13.638 45.4661 13.9438 43.498C14.3201 41.0759 14.5847 38.4506 15.5967 36.1939C17.7895 36.1572 19.9801 36.5429 22.1773 36.564C28.1238 36.6208 34.1083 35.4671 39.7556 33.6668C43.5559 32.4553 47.2285 30.7929 50.6985 28.8315C57.1784 25.1693 63.3789 20.1669 66.8541 13.4572L66.9101 13.4387Z" fill="#F48924"/>
<path d="M83.8744 22.0406C84.7177 23.0158 85.3061 24.1258 85.9291 25.2492C87.4535 27.9976 88.7407 30.9184 89.669 33.9224C90.1667 35.5323 90.3635 37.3438 91.3018 38.7757C90.956 39.8286 90.5759 41.013 89.9228 41.92C89.5599 41.4297 89.4087 40.8016 89.2511 40.2185C88.9558 39.1258 88.7656 38.0095 88.4456 36.9222C87.5673 33.9363 86.3714 31.0407 84.9103 28.2937C84.224 27.0033 83.5219 25.7192 82.5834 24.5948L82.7599 24.0927L83.8744 22.0406Z" fill="#B25826"/>
<path d="M84.9782 18.4835C88.0568 21.843 90.0233 26.0742 91.6539 30.2823C92.1288 31.5079 92.6629 32.7932 92.9276 34.0808C92.5738 34.5326 92.437 35.1043 92.2666 35.6436L91.3018 38.7757C90.3635 37.3438 90.1667 35.5323 89.669 33.9224C88.7407 30.9184 87.4535 27.9976 85.9291 25.2492C85.3061 24.1258 84.7177 23.0158 83.8744 22.0406L84.6621 19.6709C84.7342 19.4589 84.8011 19.2551 84.8444 19.0346L84.9782 18.4835Z" fill="#F48924"/>
<path d="M84.9782 18.4835C88.0568 21.843 90.0233 26.0742 91.6539 30.2823C92.1288 31.5079 92.6629 32.7932 92.9276 34.0808C92.5738 34.5326 92.437 35.1043 92.2666 35.6436C91.8186 34.9884 91.6773 34.1867 91.4666 33.4333C91.2638 32.7081 91.0177 31.977 90.7663 31.2672C89.317 27.1778 87.3784 23.0769 84.6621 19.6709C84.7342 19.4589 84.8011 19.2551 84.8444 19.0346L84.9782 18.4835Z" fill="#B25826"/>
<path d="M66.9101 13.4387C68.1164 14.6079 69.22 16.0294 70.2627 17.3446C72.2641 19.8689 74.2143 22.4617 75.853 25.2406C76.8605 26.9489 77.653 28.8497 78.7835 30.4751C75.6401 34.5368 71.7595 37.94 67.6231 40.9582C56.6571 48.9598 43.6672 54.3668 30.1767 56.0851C26.8546 56.5082 23.4336 56.7582 20.0871 56.5819C17.3755 56.4389 14.7092 56.0116 12.0195 55.6695C12.2154 53.5659 12.6829 51.4853 13.0075 49.3995C13.3139 47.4314 13.638 45.4661 13.9438 43.498C14.3201 41.0759 14.5847 38.4506 15.5967 36.1939C17.7895 36.1572 19.9801 36.5429 22.1773 36.564C28.1238 36.6208 34.1083 35.4671 39.7556 33.6668C43.5559 32.4553 47.2285 30.7929 50.6985 28.8315C57.1784 25.1693 63.3789 20.1669 66.8541 13.4572L66.9101 13.4387Z" fill="#7FB532"/>
</svg>
