<svg width="165" height="165" viewBox="0 0 165 165" fill="none" xmlns="http://www.w3.org/2000/svg">
<g filter="url(#filter0_ii_483_152)">
<circle cx="54" cy="43" r="43" fill="url(#paint0_radial_483_152)" fill-opacity="0.37"/>
</g>
<circle cx="54" cy="43" r="42.5" stroke="#C1EFFF" stroke-opacity="0.12"/>
<path d="M80.513 17.0765C80.513 18.7196 78.9698 20.0517 77.2993 20.0517C75.6288 20.0517 74.2747 18.7196 74.2747 17.0765C74.2747 15.4333 75.6288 13.8134 77.2993 13.8134C78.9698 13.8134 80.513 15.4333 80.513 17.0765Z" fill="#92EBFF" fill-opacity="0.74"/>
<path d="M87.1972 25.6456C87.1972 28.4624 85.3576 30.7459 82.5243 30.7459C79.6909 30.7459 77.394 28.4624 77.394 25.6456C77.394 22.8287 79.6909 20.0516 82.5243 20.0516C85.3576 20.0516 87.1972 22.8287 87.1972 25.6456Z" fill="#92EBFF" fill-opacity="0.74"/>
<path d="M76.9483 23.0408C76.9483 24.0972 76.076 24.9535 75.1318 24.9535C74.1877 24.9535 73.8291 24.0972 73.8291 23.0408C73.8291 21.9845 74.1877 20.9431 75.1318 20.9431C76.076 20.9431 76.9483 21.9845 76.9483 23.0408Z" fill="#92EBFF" fill-opacity="0.74"/>
<g filter="url(#filter1_ii_483_152)">
<circle cx="132.5" cy="57.5" r="32.5" fill="url(#paint1_radial_483_152)" fill-opacity="0.37"/>
</g>
<circle cx="132.5" cy="57.5" r="32" stroke="#C1EFFF" stroke-opacity="0.12"/>
<path d="M152.539 37.9066C152.539 39.1486 151.373 40.1553 150.11 40.1553C148.847 40.1553 147.824 39.1486 147.824 37.9066C147.824 36.6647 148.847 35.4403 150.11 35.4403C151.373 35.4403 152.539 36.6647 152.539 37.9066Z" fill="#92EBFF" fill-opacity="0.74"/>
<path d="M157.591 44.3833C157.591 46.5123 156.2 48.2382 154.059 48.2382C151.917 48.2382 150.181 46.5123 150.181 44.3833C150.181 42.2542 151.917 40.1553 154.059 40.1553C156.2 40.1553 157.591 42.2542 157.591 44.3833Z" fill="#92EBFF" fill-opacity="0.74"/>
<path d="M149.845 42.4145C149.845 43.2129 149.186 43.8601 148.472 43.8601C147.758 43.8601 147.487 43.2129 147.487 42.4145C147.487 41.6161 147.758 40.829 148.472 40.829C149.186 40.829 149.845 41.6161 149.845 42.4145Z" fill="#92EBFF" fill-opacity="0.74"/>
<g filter="url(#filter2_ii_483_152)">
<circle cx="27" cy="113" r="27" fill="url(#paint2_radial_483_152)" fill-opacity="0.37"/>
</g>
<circle cx="27" cy="113" r="26.5" stroke="#C1EFFF" stroke-opacity="0.12"/>
<path d="M43.6478 96.7224C43.6478 97.7542 42.6788 98.5906 41.6299 98.5906C40.581 98.5906 39.7307 97.7542 39.7307 96.7224C39.7307 95.6907 40.581 94.6735 41.6299 94.6735C42.6788 94.6735 43.6478 95.6907 43.6478 96.7224Z" fill="#92EBFF" fill-opacity="0.74"/>
<path d="M47.8446 102.103C47.8446 103.872 46.6896 105.306 44.9105 105.306C43.1314 105.306 41.6892 103.872 41.6892 102.103C41.6892 100.334 43.1314 98.5906 44.9105 98.5906C46.6896 98.5906 47.8446 100.334 47.8446 102.103Z" fill="#92EBFF" fill-opacity="0.74"/>
<path d="M41.4095 100.467C41.4095 101.131 40.8618 101.668 40.2689 101.668C39.6761 101.668 39.4509 101.131 39.4509 100.467C39.4509 99.8042 39.6761 99.1503 40.2689 99.1503C40.8618 99.1503 41.4095 99.8042 41.4095 100.467Z" fill="#92EBFF" fill-opacity="0.74"/>
<g filter="url(#filter3_ii_483_152)">
<circle cx="96.5" cy="128.5" r="36.5" fill="url(#paint3_radial_483_152)" fill-opacity="0.37"/>
</g>
<circle cx="96.5" cy="128.5" r="36" stroke="#C1EFFF" stroke-opacity="0.12"/>
<path d="M119.005 106.495C119.005 107.89 117.695 109.021 116.277 109.021C114.859 109.021 113.71 107.89 113.71 106.495C113.71 105.1 114.859 103.725 116.277 103.725C117.695 103.725 119.005 105.1 119.005 106.495Z" fill="#92EBFF" fill-opacity="0.74"/>
<path d="M124.679 113.769C124.679 116.16 123.117 118.098 120.712 118.098C118.307 118.098 116.358 116.16 116.358 113.769C116.358 111.378 118.307 109.021 120.712 109.021C123.117 109.021 124.679 111.378 124.679 113.769Z" fill="#92EBFF" fill-opacity="0.74"/>
<path d="M115.979 111.558C115.979 112.454 115.239 113.181 114.438 113.181C113.636 113.181 113.332 112.454 113.332 111.558C113.332 110.661 113.636 109.777 114.438 109.777C115.239 109.777 115.979 110.661 115.979 111.558Z" fill="#92EBFF" fill-opacity="0.74"/>
<defs>
<filter id="filter0_ii_483_152" x="7.9" y="-5.9" width="92.1" height="95" filterUnits="userSpaceOnUse" color-interpolation-filters="sRGB">
<feFlood flood-opacity="0" result="BackgroundImageFix"/>
<feBlend mode="normal" in="SourceGraphic" in2="BackgroundImageFix" result="shape"/>
<feColorMatrix in="SourceAlpha" type="matrix" values="0 0 0 0 0 0 0 0 0 0 0 0 0 0 0 0 0 0 127 0" result="hardAlpha"/>
<feMorphology radius="2" operator="erode" in="SourceAlpha" result="effect1_innerShadow_483_152"/>
<feOffset dx="3" dy="-7"/>
<feGaussianBlur stdDeviation="1.95"/>
<feComposite in2="hardAlpha" operator="arithmetic" k2="-1" k3="1"/>
<feColorMatrix type="matrix" values="0 0 0 0 0 0 0 0 0 0.308333 0 0 0 0 0.4625 0 0 0 0.1 0"/>
<feBlend mode="plus-darker" in2="shape" result="effect1_innerShadow_483_152"/>
<feColorMatrix in="SourceAlpha" type="matrix" values="0 0 0 0 0 0 0 0 0 0 0 0 0 0 0 0 0 0 127 0" result="hardAlpha"/>
<feOffset dx="-7" dy="4"/>
<feGaussianBlur stdDeviation="1.55"/>
<feComposite in2="hardAlpha" operator="arithmetic" k2="-1" k3="1"/>
<feColorMatrix type="matrix" values="0 0 0 0 1 0 0 0 0 1 0 0 0 0 1 0 0 0 0.18 0"/>
<feBlend mode="normal" in2="effect1_innerShadow_483_152" result="effect2_innerShadow_483_152"/>
</filter>
<filter id="filter1_ii_483_152" x="96.9" y="19.1" width="71.1" height="74" filterUnits="userSpaceOnUse" color-interpolation-filters="sRGB">
<feFlood flood-opacity="0" result="BackgroundImageFix"/>
<feBlend mode="normal" in="SourceGraphic" in2="BackgroundImageFix" result="shape"/>
<feColorMatrix in="SourceAlpha" type="matrix" values="0 0 0 0 0 0 0 0 0 0 0 0 0 0 0 0 0 0 127 0" result="hardAlpha"/>
<feMorphology radius="2" operator="erode" in="SourceAlpha" result="effect1_innerShadow_483_152"/>
<feOffset dx="3" dy="-7"/>
<feGaussianBlur stdDeviation="1.95"/>
<feComposite in2="hardAlpha" operator="arithmetic" k2="-1" k3="1"/>
<feColorMatrix type="matrix" values="0 0 0 0 0 0 0 0 0 0.308333 0 0 0 0 0.4625 0 0 0 0.1 0"/>
<feBlend mode="plus-darker" in2="shape" result="effect1_innerShadow_483_152"/>
<feColorMatrix in="SourceAlpha" type="matrix" values="0 0 0 0 0 0 0 0 0 0 0 0 0 0 0 0 0 0 127 0" result="hardAlpha"/>
<feOffset dx="-7" dy="4"/>
<feGaussianBlur stdDeviation="1.55"/>
<feComposite in2="hardAlpha" operator="arithmetic" k2="-1" k3="1"/>
<feColorMatrix type="matrix" values="0 0 0 0 1 0 0 0 0 1 0 0 0 0 1 0 0 0 0.18 0"/>
<feBlend mode="normal" in2="effect1_innerShadow_483_152" result="effect2_innerShadow_483_152"/>
</filter>
<filter id="filter2_ii_483_152" x="-3.1" y="80.1" width="60.1" height="63" filterUnits="userSpaceOnUse" color-interpolation-filters="sRGB">
<feFlood flood-opacity="0" result="BackgroundImageFix"/>
<feBlend mode="normal" in="SourceGraphic" in2="BackgroundImageFix" result="shape"/>
<feColorMatrix in="SourceAlpha" type="matrix" values="0 0 0 0 0 0 0 0 0 0 0 0 0 0 0 0 0 0 127 0" result="hardAlpha"/>
<feMorphology radius="2" operator="erode" in="SourceAlpha" result="effect1_innerShadow_483_152"/>
<feOffset dx="3" dy="-7"/>
<feGaussianBlur stdDeviation="1.95"/>
<feComposite in2="hardAlpha" operator="arithmetic" k2="-1" k3="1"/>
<feColorMatrix type="matrix" values="0 0 0 0 0 0 0 0 0 0.308333 0 0 0 0 0.4625 0 0 0 0.1 0"/>
<feBlend mode="plus-darker" in2="shape" result="effect1_innerShadow_483_152"/>
<feColorMatrix in="SourceAlpha" type="matrix" values="0 0 0 0 0 0 0 0 0 0 0 0 0 0 0 0 0 0 127 0" result="hardAlpha"/>
<feOffset dx="-7" dy="4"/>
<feGaussianBlur stdDeviation="1.55"/>
<feComposite in2="hardAlpha" operator="arithmetic" k2="-1" k3="1"/>
<feColorMatrix type="matrix" values="0 0 0 0 1 0 0 0 0 1 0 0 0 0 1 0 0 0 0.18 0"/>
<feBlend mode="normal" in2="effect1_innerShadow_483_152" result="effect2_innerShadow_483_152"/>
</filter>
<filter id="filter3_ii_483_152" x="56.9" y="86.1" width="79.1" height="82" filterUnits="userSpaceOnUse" color-interpolation-filters="sRGB">
<feFlood flood-opacity="0" result="BackgroundImageFix"/>
<feBlend mode="normal" in="SourceGraphic" in2="BackgroundImageFix" result="shape"/>
<feColorMatrix in="SourceAlpha" type="matrix" values="0 0 0 0 0 0 0 0 0 0 0 0 0 0 0 0 0 0 127 0" result="hardAlpha"/>
<feMorphology radius="2" operator="erode" in="SourceAlpha" result="effect1_innerShadow_483_152"/>
<feOffset dx="3" dy="-7"/>
<feGaussianBlur stdDeviation="1.95"/>
<feComposite in2="hardAlpha" operator="arithmetic" k2="-1" k3="1"/>
<feColorMatrix type="matrix" values="0 0 0 0 0 0 0 0 0 0.308333 0 0 0 0 0.4625 0 0 0 0.1 0"/>
<feBlend mode="plus-darker" in2="shape" result="effect1_innerShadow_483_152"/>
<feColorMatrix in="SourceAlpha" type="matrix" values="0 0 0 0 0 0 0 0 0 0 0 0 0 0 0 0 0 0 127 0" result="hardAlpha"/>
<feOffset dx="-7" dy="4"/>
<feGaussianBlur stdDeviation="1.55"/>
<feComposite in2="hardAlpha" operator="arithmetic" k2="-1" k3="1"/>
<feColorMatrix type="matrix" values="0 0 0 0 1 0 0 0 0 1 0 0 0 0 1 0 0 0 0.18 0"/>
<feBlend mode="normal" in2="effect1_innerShadow_483_152" result="effect2_innerShadow_483_152"/>
</filter>
<radialGradient id="paint0_radial_483_152" cx="0" cy="0" r="1" gradientUnits="userSpaceOnUse" gradientTransform="translate(54 43) rotate(90) scale(43)">
<stop stop-color="#74EAFF" stop-opacity="0.55"/>
<stop offset="1" stop-color="#B1F1FF"/>
</radialGradient>
<radialGradient id="paint1_radial_483_152" cx="0" cy="0" r="1" gradientUnits="userSpaceOnUse" gradientTransform="translate(132.5 57.5) rotate(90) scale(32.5)">
<stop stop-color="#74EAFF" stop-opacity="0.55"/>
<stop offset="1" stop-color="#B1F1FF"/>
</radialGradient>
<radialGradient id="paint2_radial_483_152" cx="0" cy="0" r="1" gradientUnits="userSpaceOnUse" gradientTransform="translate(27 113) rotate(90) scale(27)">
<stop stop-color="#74EAFF" stop-opacity="0.55"/>
<stop offset="1" stop-color="#B1F1FF"/>
</radialGradient>
<radialGradient id="paint3_radial_483_152" cx="0" cy="0" r="1" gradientUnits="userSpaceOnUse" gradientTransform="translate(96.5 128.5) rotate(90) scale(36.5)">
<stop stop-color="#74EAFF" stop-opacity="0.55"/>
<stop offset="1" stop-color="#B1F1FF"/>
</radialGradient>
</defs>
</svg>
