<svg width="473" height="104" viewBox="0 0 473 104" fill="none" xmlns="http://www.w3.org/2000/svg">
<path d="M33.8898 50.4839C33.9007 51.443 33.3618 52.3238 32.5029 52.7509C28.1029 54.9384 24.3022 55.141 21.3472 52.8432C18.7531 50.826 17.5068 47.3111 16.6569 44.1933C16.2742 42.7894 15.9356 41.307 15.6093 39.8787C15.5557 39.644 15.5024 39.4107 15.4493 39.1795C15.0661 37.5109 14.6887 35.9288 14.2423 34.4787C13.4832 32.0126 12.6445 30.3633 11.6656 29.4144C10.7141 29.6596 9.9395 29.9596 9.35886 30.2967C8.75318 30.6483 8.4735 30.9685 8.34326 31.2173C7.32294 48.3321 10.9459 57.6466 15.3692 62.4703C19.784 67.2849 25.3857 68.0496 29.3099 67.2733C29.9927 67.1383 30.7009 67.294 31.2641 67.703C31.8272 68.112 32.1944 68.7372 32.2772 69.4283L35.5282 96.5536L57.824 97.0611L58.5666 89.0146C58.6345 88.278 59.0253 87.6093 59.6337 87.1884C60.2421 86.7675 61.0057 86.6377 61.719 86.8339C66.9629 88.2762 71.1221 87.568 74.3512 85.6766C77.6357 83.7529 80.207 80.4557 81.911 76.3213C85.2199 68.2935 84.9607 57.85 81.097 50.5461C81.0658 50.5449 81.0335 50.5441 81 50.5436C80.5791 50.5372 80.0831 50.5889 79.5736 50.6832C79.2901 50.7356 79.0209 50.7978 78.7812 50.8615C76.7866 58.3793 74.7671 63.6754 72.8036 67.3722C70.7486 71.2411 68.6399 73.5766 66.4693 74.7472C64.167 75.9889 62.0701 75.7739 60.5559 75.1375C59.8389 74.8362 59.2836 74.4565 58.905 74.1521C58.7134 73.998 58.5601 73.8576 58.4467 73.7468C58.3898 73.6912 58.3424 73.6424 58.3046 73.6024C58.2857 73.5823 58.2691 73.5644 58.255 73.5489L58.2355 73.5273L58.2272 73.5178L58.2233 73.5134C58.2215 73.5114 58.2197 73.5093 60.099 71.8607L58.2197 73.5093C57.767 72.9933 57.5464 72.314 57.6096 71.6305L57.8129 71.6493C57.6096 71.6305 57.6096 71.6305 57.6096 71.6304L57.6098 71.629L57.6104 71.6226L57.6129 71.5947L57.6231 71.4807C57.6322 71.3792 57.6455 71.2272 57.6625 71.028C57.6965 70.6297 57.745 70.0429 57.8027 69.2943C57.9181 67.7967 58.0701 65.6528 58.2161 63.0752C58.5083 57.9144 58.7744 51.0398 58.6759 44.1434C58.5769 37.213 58.1103 30.4028 56.985 25.3096C56.4193 22.7487 55.7237 20.7996 54.9413 19.5145C54.1597 18.2305 53.5281 17.9664 53.1433 17.9266C52.7313 17.884 52.3387 17.7401 51.9992 17.5104C51.8991 17.4746 51.7325 17.4233 51.4937 17.3661C50.9498 17.2358 50.1728 17.1084 49.2465 17.0449C47.4676 16.9229 45.336 17.0495 43.3861 17.6879C41.2725 19.2358 39.5271 21.8117 38.1339 25.1094C36.6969 28.5105 35.7314 32.4489 35.0914 36.2503C34.4535 40.0385 34.1521 43.6091 34.011 46.2384C33.9405 47.5504 33.9103 48.6217 33.8977 49.3607C33.8914 49.73 33.8895 50.0159 33.8891 50.2069C33.8889 50.3024 33.8891 50.3742 33.8893 50.4207L33.8897 50.4714L33.8898 50.4822L33.8898 50.4832L33.8898 50.4839ZM33.8898 50.4839C33.8898 50.4836 33.8898 50.4832 31.3899 50.5123L33.8898 50.4839ZM52.106 17.554C52.105 17.5543 52.0904 17.5483 52.0652 17.5354C52.0945 17.5473 52.107 17.5537 52.106 17.554Z" fill="#37982C" stroke="#215133" stroke-width="5" stroke-linejoin="round"/>
<path d="M49.5723 21.8444C55.7915 43.0228 54.6761 77.9602 54.6761 77.9602C79.2382 87.7194 80.8331 55.6968 80.8331 55.6968C80.8331 55.6968 83.704 90.4642 54.9951 83.4498L55.3141 96.5638H51.4862C51.4862 96.5638 51.4862 57.2217 49.5723 21.8444Z" fill="#83C060"/>
<path d="M41.9166 21.5394C36.8128 37.3982 36.8128 58.1367 36.8128 58.1367C13.2077 68.5059 10.9748 32.8236 10.9748 32.8236C10.9748 32.8236 8.42285 70.3358 36.8128 64.2362C36.8128 64.2362 36.8128 80.4 38.7268 96.5638H43.8306C43.8306 96.5638 39.3647 43.1928 41.9166 21.5394Z" fill="#83C060"/>
<path d="M50.2103 26.4189L53.081 61.7963L53.0811 95.9537" stroke="#215035" stroke-width="2" stroke-linecap="round" stroke-dasharray="6 6"/>
<path d="M80.7275 61.6697C80.7275 61.6697 78.4862 76.0234 71.2637 80.095C65.8968 83.1204 55.4103 81.8041 55.4103 81.8041" stroke="#215035" stroke-width="2" stroke-linecap="round" stroke-dasharray="6 6"/>
<path d="M36.4898 61.5982C36.4898 61.5982 27.8655 63.7787 20.5444 59.6614C15.1215 56.6117 11.6496 40.9321 11.6496 40.9321" stroke="#215035" stroke-width="2" stroke-linecap="round" stroke-dasharray="5 5"/>
<path d="M40.9597 27.334L39.0458 62.7113L40.9597 96.2588" stroke="#215035" stroke-width="2" stroke-linecap="round" stroke-dasharray="6 6"/>
<path d="M37.4507 16.6598L40.0026 19.0996" stroke="#215133" stroke-width="5" stroke-linecap="round"/>
<path d="M52.5361 13L51.4862 15.3581" stroke="#215133" stroke-width="5" stroke-linecap="round"/>
<path d="M57.8662 20.7437L59.7801 19.0996" stroke="#215133" stroke-width="5" stroke-linecap="round"/>
<path d="M59.7798 30.6887L62.3317 29.4688" stroke="#215133" stroke-width="5" stroke-linecap="round"/>
<path d="M60.2483 39.4241L62.9698 38.0082" stroke="#215133" stroke-width="5" stroke-linecap="round"/>
<path d="M61.1211 47.3579L63.2239 46.6398" stroke="#215133" stroke-width="5" stroke-linecap="round"/>
<path d="M61.0918 54.5865L63.2531 54.0501" stroke="#215133" stroke-width="5" stroke-linecap="round"/>
<path d="M60.418 63.0963L62.5936 62.616" stroke="#215133" stroke-width="5" stroke-linecap="round"/>
<path d="M66.8867 68.5392L68.9413 69.3752" stroke="#215133" stroke-width="5" stroke-linecap="round"/>
<path d="M71.3291 58.8369L73.4304 59.5591" stroke="#215133" stroke-width="5" stroke-linecap="round"/>
<path d="M83.6062 50.6866L85.3965 49.4108" stroke="#215133" stroke-width="5" stroke-linecap="round"/>
<path d="M85.407 59.046L87.4239 58.13" stroke="#215133" stroke-width="5" stroke-linecap="round"/>
<path d="M85.937 67.1274L88.1699 67.1274" stroke="#215133" stroke-width="5" stroke-linecap="round"/>
<path d="M84.0229 77.4967L86.2559 77.4967" stroke="#215133" stroke-width="5" stroke-linecap="round"/>
<path d="M77.0054 86.1869L79.1082 86.905" stroke="#215133" stroke-width="5" stroke-linecap="round"/>
<path d="M60.4695 94.8966L62.5989 94.2542" stroke="#215133" stroke-width="5" stroke-linecap="round"/>
<path d="M31.071 93.5281L33.1848 94.2162" stroke="#215133" stroke-width="5" stroke-linecap="round"/>
<path d="M29.7952 84.4551L31.944 85.0354" stroke="#215133" stroke-width="5" stroke-linecap="round"/>
<path d="M28.519 75.8159L30.621 76.5362" stroke="#215133" stroke-width="5" stroke-linecap="round"/>
<path d="M16.4814 68.385L18.8792 67.4439" stroke="#215133" stroke-width="5" stroke-linecap="round"/>
<path d="M9.37964 61.028L11.6126 61.028" stroke="#215133" stroke-width="5" stroke-linecap="round"/>
<path d="M4.27588 47.609L6.5088 47.609" stroke="#215133" stroke-width="5" stroke-linecap="round"/>
<path d="M3 37.561L6.18988 38.0083" stroke="#215133" stroke-width="5" stroke-linecap="round"/>
<path d="M13.8455 29.4689L17.3543 28.7003" stroke="#215133" stroke-width="5" stroke-linecap="round"/>
<path d="M15.7595 36.7883L19.9064 36.0198" stroke="#215133" stroke-width="5" stroke-linecap="round"/>
<path d="M18.3113 44.7177L21.1822 43.9491" stroke="#215133" stroke-width="5" stroke-linecap="round"/>
<path d="M29.8662 44.1844L31.9571 44.9338" stroke="#215133" stroke-width="5" stroke-linecap="round"/>
<path d="M30.5879 33.038L32.5116 34.1219" stroke="#215133" stroke-width="5" stroke-linecap="round"/>
<path d="M32.3469 25.0406L34.8988 26.4192" stroke="#215133" stroke-width="5" stroke-linecap="round"/>
<path d="M73.3379 51.3271L75.2498 52.4299" stroke="#215133" stroke-width="5" stroke-linecap="round"/>
<path d="M415.89 46.5507C415.899 47.4526 415.421 48.2895 414.64 48.7406C412.442 50.0101 410.361 50.7413 408.39 50.7795C406.328 50.8194 404.589 50.0953 403.206 48.8461C401.889 47.6567 400.974 46.0666 400.29 44.4341C399.6 42.7855 399.076 40.9238 398.635 39.0428C398.256 37.4271 397.92 35.7212 397.594 34.0611C397.54 33.788 397.487 33.516 397.433 33.246C397.05 31.3075 396.668 29.4474 396.215 27.7366C395.45 24.8498 394.589 22.8592 393.589 21.7009C391.586 22.327 390.652 23.1788 390.351 23.983C389.301 44.08 392.955 55.1371 397.489 60.8804C401.947 66.528 407.475 67.3224 411.235 66.4584C411.933 66.2979 412.667 66.4448 413.25 66.8617C413.832 67.2787 414.208 67.9256 414.282 68.6383L417.565 100.464L439.795 101.052L440.564 91.3704C440.624 90.6095 441.029 89.918 441.663 89.4926C442.296 89.0673 443.09 88.9547 443.817 89.187C448.963 90.8313 453.02 90.0326 456.208 87.8629C459.499 85.6244 462.122 81.7443 463.866 76.8272C467.248 67.2969 466.978 54.8801 462.993 46.2079C462.607 46.2013 462.138 46.2566 461.644 46.3628C461.36 46.4238 461.091 46.4967 460.853 46.5709C458.849 55.3906 456.825 61.5606 454.869 65.8382C452.849 70.2576 450.778 72.9324 448.61 74.2905C446.24 75.7755 444.018 75.5269 442.428 74.7506C441.693 74.3922 441.135 73.9463 440.765 73.6003C440.577 73.4243 440.427 73.2651 440.318 73.1413C440.263 73.0791 440.218 73.0251 440.182 72.9812C440.168 72.9636 440.155 72.9475 440.144 72.9333C440.141 72.9298 440.139 72.9264 440.136 72.9231L440.118 72.9002L440.111 72.8902L440.107 72.8857C440.106 72.8835 440.104 72.8814 442.099 71.3748M415.89 46.5507L415.89 46.5483L415.89 46.5345L415.889 46.4731C415.889 46.4174 415.889 46.3323 415.889 46.2196C415.889 45.9941 415.891 45.6582 415.898 45.2251C415.911 44.3588 415.941 43.1051 416.012 41.5708C416.154 38.4974 416.457 34.3204 417.1 29.8849C417.745 25.4364 418.721 20.8047 420.18 16.791C421.6 12.8881 423.383 9.83591 425.522 8.01318C427.417 7.29769 429.487 7.15559 431.219 7.29356C432.125 7.36574 432.882 7.51029 433.406 7.65614C433.621 7.71603 433.772 7.76913 433.863 7.8061C434.22 8.08408 434.648 8.2619 435.102 8.31646C435.344 8.34549 436.007 8.58488 436.862 10.2178C437.684 11.7863 438.397 14.1275 438.97 17.1399C440.109 23.13 440.577 31.1015 440.676 39.1667C440.775 47.2018 440.508 55.2068 440.215 61.2117C440.069 64.2118 439.916 66.7074 439.801 68.4513C439.743 69.3231 439.694 70.0068 439.66 70.4713C439.643 70.7036 439.63 70.8811 439.621 70.9999L439.61 71.1336L439.608 71.1666L439.607 71.1744L439.607 71.1762C439.607 71.1764 439.607 71.1765 442.099 71.3748M415.89 46.5507L415.89 46.551L415.89 46.5512C415.89 46.551 415.89 46.5507 413.39 46.5757L415.89 46.5507ZM442.099 71.3748L440.104 72.8814C439.735 72.3931 439.558 71.7865 439.607 71.1765L442.099 71.3748ZM433.972 7.85602C433.971 7.85626 433.957 7.84988 433.933 7.83619C433.961 7.84893 433.973 7.85579 433.972 7.85602Z" fill="#37982C" stroke="#215133" stroke-width="5" stroke-linejoin="round"/>
<path d="M431.572 13.2739C437.791 37.8756 436.676 78.4601 436.676 78.4601C461.238 89.7969 462.833 52.5982 462.833 52.5982C462.833 52.5982 465.704 92.9853 436.995 84.8371L437.314 100.071H433.486C433.486 100.071 433.486 54.3696 431.572 13.2739Z" fill="#83C060"/>
<path d="M423.917 12.9197C418.813 31.3419 418.813 55.4324 418.813 55.4324C395.208 67.4777 392.975 26.0278 392.975 26.0278C392.975 26.0278 390.423 69.6034 418.813 62.5179C418.813 62.5179 418.813 81.2944 420.727 100.071H425.831C425.831 100.071 421.365 38.0731 423.917 12.9197Z" fill="#83C060"/>
<path d="M432.21 18.5879L435.081 59.6836L435.081 99.3621" stroke="#215035" stroke-width="2" stroke-linecap="round" stroke-dasharray="6 6"/>
<path d="M462.728 59.5365C462.728 59.5365 460.486 76.2103 453.264 80.94C447.897 84.4545 437.41 82.9253 437.41 82.9253" stroke="#215035" stroke-width="2" stroke-linecap="round" stroke-dasharray="6 6"/>
<path d="M418.49 59.4535C418.49 59.4535 409.866 61.9864 402.544 57.2037C397.121 53.6609 393.65 35.447 393.65 35.447" stroke="#215035" stroke-width="2" stroke-linecap="round" stroke-dasharray="5 5"/>
<path d="M422.96 19.6509L421.046 60.7465L422.96 99.7166" stroke="#215035" stroke-width="2" stroke-linecap="round" stroke-dasharray="6 6"/>
<path d="M419.451 7.25134L422.003 10.0855" stroke="#215133" stroke-width="5" stroke-linecap="round"/>
<path d="M434.536 3L433.486 5.73931" stroke="#215133" stroke-width="5" stroke-linecap="round"/>
<path d="M439.866 11.9954L441.78 10.0856" stroke="#215133" stroke-width="5" stroke-linecap="round"/>
<path d="M441.78 23.5479L444.332 22.1308" stroke="#215133" stroke-width="5" stroke-linecap="round"/>
<path d="M442.248 33.6952L444.97 32.0505" stroke="#215133" stroke-width="5" stroke-linecap="round"/>
<path d="M443.121 42.9114L445.224 42.0773" stroke="#215133" stroke-width="5" stroke-linecap="round"/>
<path d="M443.092 51.3085L445.253 50.6853" stroke="#215133" stroke-width="5" stroke-linecap="round"/>
<path d="M442.418 61.1937L444.594 60.6358" stroke="#215133" stroke-width="5" stroke-linecap="round"/>
<path d="M448.887 67.5164L450.941 68.4876" stroke="#215133" stroke-width="5" stroke-linecap="round"/>
<path d="M453.329 56.2458L455.43 57.0848" stroke="#215133" stroke-width="5" stroke-linecap="round"/>
<path d="M465.606 46.7782L467.397 45.2962" stroke="#215133" stroke-width="5" stroke-linecap="round"/>
<path d="M467.407 56.4888L469.424 55.4247" stroke="#215133" stroke-width="5" stroke-linecap="round"/>
<path d="M467.937 65.8765L470.17 65.8765" stroke="#215133" stroke-width="5" stroke-linecap="round"/>
<path d="M466.023 77.9218L468.256 77.9218" stroke="#215133" stroke-width="5" stroke-linecap="round"/>
<path d="M459.005 88.0166L461.108 88.8508" stroke="#215133" stroke-width="5" stroke-linecap="round"/>
<path d="M442.469 98.1342L444.599 97.3879" stroke="#215133" stroke-width="5" stroke-linecap="round"/>
<path d="M413.071 96.5444L415.185 97.3438" stroke="#215133" stroke-width="5" stroke-linecap="round"/>
<path d="M411.795 86.0049L413.944 86.679" stroke="#215133" stroke-width="5" stroke-linecap="round"/>
<path d="M410.519 75.9694L412.621 76.8061" stroke="#215133" stroke-width="5" stroke-linecap="round"/>
<path d="M398.481 67.3373L400.879 66.2441" stroke="#215133" stroke-width="5" stroke-linecap="round"/>
<path d="M391.38 58.791L393.613 58.791" stroke="#215133" stroke-width="5" stroke-linecap="round"/>
<path d="M386.276 43.2031L388.509 43.2031" stroke="#215133" stroke-width="5" stroke-linecap="round"/>
<path d="M385 31.531L388.19 32.0505" stroke="#215133" stroke-width="5" stroke-linecap="round"/>
<path d="M395.845 22.1309L399.354 21.2381" stroke="#215133" stroke-width="5" stroke-linecap="round"/>
<path d="M397.76 30.6334L401.906 29.7406" stroke="#215133" stroke-width="5" stroke-linecap="round"/>
<path d="M400.311 39.8444L403.182 38.9516" stroke="#215133" stroke-width="5" stroke-linecap="round"/>
<path d="M411.866 39.225L413.957 40.0954" stroke="#215133" stroke-width="5" stroke-linecap="round"/>
<path d="M412.588 26.2769L414.512 27.536" stroke="#215133" stroke-width="5" stroke-linecap="round"/>
<path d="M414.347 16.9868L416.899 18.5881" stroke="#215133" stroke-width="5" stroke-linecap="round"/>
<path d="M455.338 47.5222L457.25 48.8032" stroke="#215133" stroke-width="5" stroke-linecap="round"/>
<path d="M327.28 52.4839C327.269 53.443 327.808 54.3238 328.667 54.7509C333.067 56.9384 336.868 57.141 339.823 54.8432C342.417 52.826 343.663 49.3111 344.513 46.1933C344.896 44.7894 345.234 43.307 345.561 41.8787C345.614 41.644 345.668 41.4107 345.721 41.1795C346.104 39.5109 346.481 37.9288 346.928 36.4787C347.687 34.0126 348.525 32.3633 349.504 31.4144C350.456 31.6596 351.23 31.9596 351.811 32.2967C352.417 32.6483 352.696 32.9685 352.827 33.2173C353.847 50.3321 350.224 59.6466 345.801 64.4703C341.386 69.2849 335.784 70.0496 331.86 69.2733C331.177 69.1383 330.469 69.294 329.906 69.703C329.343 70.112 328.976 70.7372 328.893 71.4283L325.642 98.5536L303.346 99.0611L302.603 91.0146C302.535 90.278 302.145 89.6093 301.536 89.1884C300.928 88.7675 300.164 88.6377 299.451 88.8339C294.207 90.2762 290.048 89.568 286.819 87.6766C283.534 85.7529 280.963 82.4557 279.259 78.3213C275.95 70.2935 276.209 59.85 280.073 52.5461C280.104 52.5449 280.136 52.5441 280.17 52.5436C280.591 52.5372 281.087 52.5889 281.596 52.6832C281.88 52.7356 282.149 52.7978 282.389 52.8615C284.383 60.3793 286.403 65.6754 288.366 69.3722C290.421 73.2411 292.53 75.5766 294.701 76.7472C297.003 77.9889 299.1 77.7739 300.614 77.1375C301.331 76.8362 301.886 76.4565 302.265 76.1521C302.457 75.998 302.61 75.8576 302.723 75.7468C302.78 75.6912 302.828 75.6424 302.865 75.6024C302.884 75.5823 302.901 75.5644 302.915 75.5489L302.934 75.5273L302.943 75.5178L302.947 75.5134C302.948 75.5114 302.95 75.5093 301.071 73.8607L302.95 75.5093C303.403 74.9933 303.623 74.314 303.56 73.6305L303.357 73.6493C303.56 73.6305 303.56 73.6305 303.56 73.6304L303.56 73.629L303.56 73.6226L303.557 73.5947L303.547 73.4807C303.538 73.3792 303.524 73.2272 303.507 73.028C303.473 72.6297 303.425 72.0429 303.367 71.2943C303.252 69.7967 303.1 67.6528 302.954 65.0752C302.662 59.9144 302.396 53.0398 302.494 46.1434C302.593 39.213 303.06 32.4028 304.185 27.3096C304.751 24.7487 305.446 22.7996 306.229 21.5145C307.01 20.2305 307.642 19.9664 308.027 19.9266C308.439 19.884 308.831 19.7401 309.171 19.5104C309.271 19.4746 309.437 19.4233 309.676 19.3661C310.22 19.2358 310.997 19.1084 311.923 19.0449C313.702 18.9229 315.834 19.0495 317.784 19.6879C319.897 21.2358 321.643 23.8117 323.036 27.1094C324.473 30.5105 325.439 34.4489 326.079 38.2503C326.716 42.0385 327.018 45.6091 327.159 48.2384C327.229 49.5504 327.26 50.6217 327.272 51.3607C327.279 51.73 327.28 52.0159 327.281 52.2069C327.281 52.3024 327.281 52.3742 327.281 52.4207L327.28 52.4714L327.28 52.4822L327.28 52.4832L327.28 52.4839ZM327.28 52.4839C327.28 52.4836 327.28 52.4832 329.78 52.5123L327.28 52.4839ZM309.064 19.554C309.065 19.5543 309.08 19.5483 309.105 19.5354C309.075 19.5473 309.063 19.5537 309.064 19.554Z" fill="#37982C" stroke="#215133" stroke-width="5" stroke-linejoin="round"/>
<path d="M311.598 23.8444C305.378 45.0228 306.494 79.9602 306.494 79.9602C281.932 89.7194 280.337 57.6968 280.337 57.6968C280.337 57.6968 277.466 92.4642 306.175 85.4498L305.856 98.5638H309.684C309.684 98.5638 309.684 59.2217 311.598 23.8444Z" fill="#83C060"/>
<path d="M319.253 23.5394C324.357 39.3982 324.357 60.1367 324.357 60.1367C347.962 70.5059 350.195 34.8236 350.195 34.8236C350.195 34.8236 352.747 72.3358 324.357 66.2362C324.357 66.2362 324.357 82.4 322.443 98.5638H317.339C317.339 98.5638 321.805 45.1928 319.253 23.5394Z" fill="#83C060"/>
<path d="M310.96 28.4189L308.089 63.7963L308.089 97.9537" stroke="#215035" stroke-width="2" stroke-linecap="round" stroke-dasharray="6 6"/>
<path d="M280.442 63.6697C280.442 63.6697 282.684 78.0234 289.906 82.095C295.273 85.1204 305.76 83.8041 305.76 83.8041" stroke="#215035" stroke-width="2" stroke-linecap="round" stroke-dasharray="6 6"/>
<path d="M324.68 63.5982C324.68 63.5982 333.304 65.7787 340.626 61.6614C346.048 58.6117 349.52 42.9321 349.52 42.9321" stroke="#215035" stroke-width="2" stroke-linecap="round" stroke-dasharray="5 5"/>
<path d="M320.21 29.334L322.124 64.7113L320.21 98.2588" stroke="#215035" stroke-width="2" stroke-linecap="round" stroke-dasharray="6 6"/>
<path d="M323.719 18.6598L321.167 21.0996" stroke="#215133" stroke-width="5" stroke-linecap="round"/>
<path d="M308.634 15L309.684 17.3581" stroke="#215133" stroke-width="5" stroke-linecap="round"/>
<path d="M303.304 22.7437L301.39 21.0996" stroke="#215133" stroke-width="5" stroke-linecap="round"/>
<path d="M301.39 32.6887L298.838 31.4688" stroke="#215133" stroke-width="5" stroke-linecap="round"/>
<path d="M300.922 41.4241L298.2 40.0082" stroke="#215133" stroke-width="5" stroke-linecap="round"/>
<path d="M300.049 49.3579L297.946 48.6398" stroke="#215133" stroke-width="5" stroke-linecap="round"/>
<path d="M300.078 56.5865L297.917 56.0501" stroke="#215133" stroke-width="5" stroke-linecap="round"/>
<path d="M300.752 65.0963L298.576 64.616" stroke="#215133" stroke-width="5" stroke-linecap="round"/>
<path d="M294.283 70.5392L292.229 71.3752" stroke="#215133" stroke-width="5" stroke-linecap="round"/>
<path d="M289.841 60.8369L287.74 61.5591" stroke="#215133" stroke-width="5" stroke-linecap="round"/>
<path d="M277.564 52.6866L275.773 51.4108" stroke="#215133" stroke-width="5" stroke-linecap="round"/>
<path d="M275.763 61.046L273.746 60.13" stroke="#215133" stroke-width="5" stroke-linecap="round"/>
<path d="M275.233 69.1274L273 69.1274" stroke="#215133" stroke-width="5" stroke-linecap="round"/>
<path d="M277.147 79.4967L274.914 79.4967" stroke="#215133" stroke-width="5" stroke-linecap="round"/>
<path d="M284.165 88.1869L282.062 88.905" stroke="#215133" stroke-width="5" stroke-linecap="round"/>
<path d="M300.7 96.8966L298.571 96.2542" stroke="#215133" stroke-width="5" stroke-linecap="round"/>
<path d="M330.099 95.5281L327.985 96.2162" stroke="#215133" stroke-width="5" stroke-linecap="round"/>
<path d="M331.375 86.4551L329.226 87.0354" stroke="#215133" stroke-width="5" stroke-linecap="round"/>
<path d="M332.651 77.8159L330.549 78.5362" stroke="#215133" stroke-width="5" stroke-linecap="round"/>
<path d="M344.688 70.385L342.291 69.4439" stroke="#215133" stroke-width="5" stroke-linecap="round"/>
<path d="M351.79 63.028L349.557 63.028" stroke="#215133" stroke-width="5" stroke-linecap="round"/>
<path d="M356.894 49.609L354.661 49.609" stroke="#215133" stroke-width="5" stroke-linecap="round"/>
<path d="M358.17 39.561L354.98 40.0083" stroke="#215133" stroke-width="5" stroke-linecap="round"/>
<path d="M347.324 31.4689L343.816 30.7003" stroke="#215133" stroke-width="5" stroke-linecap="round"/>
<path d="M345.41 38.7883L341.264 38.0198" stroke="#215133" stroke-width="5" stroke-linecap="round"/>
<path d="M342.859 46.7177L339.988 45.9491" stroke="#215133" stroke-width="5" stroke-linecap="round"/>
<path d="M331.304 46.1844L329.213 46.9338" stroke="#215133" stroke-width="5" stroke-linecap="round"/>
<path d="M330.582 35.038L328.658 36.1219" stroke="#215133" stroke-width="5" stroke-linecap="round"/>
<path d="M328.823 27.0406L326.271 28.4192" stroke="#215133" stroke-width="5" stroke-linecap="round"/>
<path d="M287.832 53.3271L285.92 54.4299" stroke="#215133" stroke-width="5" stroke-linecap="round"/>
<path d="M152.038 96.3136C140.216 96.3136 132.005 93.0337 126.868 88.4251C121.745 83.8285 119.484 77.7454 119.795 71.6526C120.415 59.5329 131.4 46.7363 152.038 46.7363C171.853 46.7363 182.908 59.4942 183.704 71.6878C184.102 77.796 181.964 83.8662 176.971 88.443C171.963 93.0334 163.863 96.3136 152.038 96.3136Z" fill="#37982C" stroke="#215133" stroke-width="5" stroke-linejoin="round"/>
<path d="M139.132 51.8312C115.768 59.7073 130.465 92.1016 130.465 92.1016L136.82 94.751C136.82 94.751 123.444 64.4697 139.132 51.8312Z" fill="#83C060"/>
<path d="M134.555 56.2468C134.555 56.2468 128.172 63.1196 128.118 73.6807C128.081 80.8364 133.491 91.7136 133.491 91.7136" stroke="white" stroke-width="2" stroke-linecap="round" stroke-dasharray="6 6"/>
<path d="M147.606 49.7118C129.052 58.9944 140.98 96.3407 140.98 96.3407H145.22C145.22 96.3407 135.148 64.6072 147.606 49.7118Z" fill="#83C060"/>
<path d="M143.1 55.1086C143.1 55.1086 138.948 62.8801 139.124 74.9691C139.244 83.16 143.1 95.6931 143.1 95.6931" stroke="white" stroke-width="2" stroke-linecap="round" stroke-dasharray="6 6"/>
<path d="M152.999 49.7118C173.614 58.9944 160.361 96.3407 160.361 96.3407H155.649C155.649 96.3407 166.84 64.6072 152.999 49.7118Z" fill="#83C060"/>
<path d="M158.005 55.1086C158.005 55.1086 162.619 62.8801 162.423 74.9691C162.29 83.16 158.005 95.6931 158.005 95.6931" stroke="white" stroke-width="2" stroke-linecap="round" stroke-dasharray="6 6"/>
<path d="M149.532 49.0052C160.702 70.0236 152.421 97.0472 152.421 97.0472H148.761C148.761 97.0472 142.406 69.4937 149.532 49.0052Z" fill="#83C060"/>
<path d="M150.301 54.5658C150.301 54.5658 150.497 61.2775 150.301 73.7328C150.169 82.1719 150.301 96.3801 150.301 96.3801" stroke="white" stroke-width="2" stroke-linecap="round" stroke-dasharray="6 6"/>
<path d="M163.399 51.478C189.512 59.4948 172.644 92.6316 172.644 92.6316L166.481 94.9277C166.481 94.9277 180.932 64.3422 163.399 51.478Z" fill="#83C060"/>
<path d="M169.741 56.1389C169.741 56.1389 175.585 62.8507 175.337 73.2911C175.168 80.365 169.741 91.1891 169.741 91.1891" stroke="white" stroke-width="2" stroke-linecap="round" stroke-dasharray="6 6"/>
<path d="M134.369 46.0106L135.42 47.761" stroke="#215133" stroke-width="5" stroke-linecap="round"/>
<path d="M165.189 44.7662L164.555 46.1319" stroke="#215133" stroke-width="5" stroke-linecap="round"/>
<path d="M158.738 44.5093L159.201 43.1492" stroke="#215133" stroke-width="5" stroke-linecap="round"/>
<path d="M169.806 48.2175L170.859 46.967" stroke="#215133" stroke-width="5" stroke-linecap="round"/>
<path d="M178.807 55.124L180.45 54.304" stroke="#215133" stroke-width="5" stroke-linecap="round"/>
<path d="M117.176 63.9197L119.487 64.5484" stroke="#215133" stroke-width="5" stroke-linecap="round"/>
<path d="M151.769 44.2356L151.721 43" stroke="#215133" stroke-width="5" stroke-linecap="round"/>
<path d="M184.199 63.1815L185.513 62.9034" stroke="#215133" stroke-width="5" stroke-linecap="round"/>
<path d="M180.733 87.8071L181.973 88.2913" stroke="#215133" stroke-width="5" stroke-linecap="round"/>
<path d="M145.352 43.2756L145.677 44.4756" stroke="#215133" stroke-width="5" stroke-linecap="round"/>
<path d="M182.273 59.0914L183.354 58.3525" stroke="#215133" stroke-width="5" stroke-linecap="round"/>
<path d="M185.355 67.5165L186.573 66.986" stroke="#215133" stroke-width="5" stroke-linecap="round"/>
<path d="M186.125 76.1136L187.474 76.1136" stroke="#215133" stroke-width="5" stroke-linecap="round"/>
<path d="M183.488 84.3385L184.718 84.8448" stroke="#215133" stroke-width="5" stroke-linecap="round"/>
<path d="M178.036 91.0375L179.306 91.4534" stroke="#215133" stroke-width="5" stroke-linecap="round"/>
<path d="M116 73.52L117.326 73.7446" stroke="#215133" stroke-width="5" stroke-linecap="round"/>
<path d="M126.805 93.7172L127.849 92.9346" stroke="#215133" stroke-width="5" stroke-linecap="round"/>
<path d="M122.953 90.8542L124.126 90.2448" stroke="#215133" stroke-width="5" stroke-linecap="round"/>
<path d="M119.872 86.9314L121.11 86.4433" stroke="#215133" stroke-width="5" stroke-linecap="round"/>
<path d="M117.946 83.0878L119.394 82.5427" stroke="#215133" stroke-width="5" stroke-linecap="round"/>
<path d="M116.813 78.3923L118.116 78.074" stroke="#215133" stroke-width="5" stroke-linecap="round"/>
<path d="M116.02 68.6406L118.07 68.8612" stroke="#215133" stroke-width="5" stroke-linecap="round"/>
<path d="M119.594 58.9359L121.305 59.7882" stroke="#215133" stroke-width="5" stroke-linecap="round"/>
<path d="M174.955 51.3689L176.546 50.0113" stroke="#215133" stroke-width="5" stroke-linecap="round"/>
<path d="M122.391 54.3041L124.342 55.8109" stroke="#215133" stroke-width="5" stroke-linecap="round"/>
<path d="M130.246 48.2988L131.329 49.6174" stroke="#215133" stroke-width="5" stroke-linecap="round"/>
<path d="M184.97 80.7799L186.232 81.2139" stroke="#215133" stroke-width="5" stroke-linecap="round"/>
<path d="M139.519 44.317L139.906 45.5011" stroke="#215133" stroke-width="5" stroke-linecap="round"/>
<path d="M126.035 50.9554L127.159 52.2093" stroke="#215133" stroke-width="5" stroke-linecap="round"/>
<path d="M186.125 71.1486L187.473 71.1835" stroke="#215133" stroke-width="5" stroke-linecap="round"/>
</svg>
