<svg width="449" height="529" viewBox="0 0 449 529" fill="none" xmlns="http://www.w3.org/2000/svg">
<path d="M40.5 289.5L63 275.5L81 286L110.5 303L92.5 338L72.5 345L67.5 354L40.5 348L23 338L13 303L40.5 289.5Z" fill="#FF0000" fill-opacity="0.02" stroke="white" stroke-width="2"/>
<path d="M74.5 377L62.5 369L108 352.5L120.5 334L145.5 336.5H159.5L138 373.5L114.5 394L96.5 414L85 404.5L74.5 396.5V377Z" fill="#FF0000" fill-opacity="0.02" stroke="white" stroke-width="2"/>
<path d="M196 419.5H176.5L160.5 425L222 392.5L248 381.5L278.5 430.5L280.5 469.5L238.5 484L203.5 497.5V469.5V438L196 419.5Z" fill="#FF0000" fill-opacity="0.02" stroke="white" stroke-width="2"/>
</svg>
