<svg width="70" height="95" viewBox="0 0 70 95" fill="none" xmlns="http://www.w3.org/2000/svg">
<path d="M29.8435 78.1572C30.0892 78.6559 29.9697 79.536 29.967 80.0966L29.0535 80.0945L29.8435 78.1572Z" fill="#B25826"/>
<path d="M33.9351 74.248C34.3246 74.1985 34.7148 74.2169 35.1061 74.2266L37.2409 80.083L35.3089 80.0809C35.0633 78.8576 34.7724 77.6355 34.4945 76.4185C34.3292 75.6945 34.2418 74.9275 33.9351 74.248Z" fill="#B25826"/>
<path d="M2.64274 22.0472C2.82828 22.1755 3.02284 22.2975 3.19077 22.4481L3.19604 22.5969L3.0367 23.1189C2.76671 24.2577 2.35693 25.364 2.09581 26.5073C1.81237 27.7485 1.69699 29.0093 1.44655 30.2488L1.27585 31.7794C1.17379 32.3288 1.22246 32.937 1.1412 33.5054C1.03816 34.2265 1.3352 35.4047 0.959257 36.0025C0.731697 35.7814 0.458652 35.6053 0.201416 35.4203C0.266037 30.813 0.871341 26.3242 2.64274 22.0472Z" fill="#6F9628"/>
<path d="M31.2194 74.23L33.935 74.2479C34.2418 74.9274 34.3291 75.6944 34.4944 76.4184C34.7723 77.6353 35.0633 78.8575 35.3088 80.0808L33.5204 80.0743C33.1526 80.1079 32.7913 80.0823 32.4236 80.0621C31.632 79.9653 30.7589 80.0277 29.9671 80.0965C29.9697 79.536 30.0892 78.6558 29.8435 78.1572L31.2194 74.23Z" fill="#F48924"/>
<path d="M2.64282 22.0472C5.31045 15.4647 10.1312 9.86725 16.0749 6.02535C20.6306 3.08065 25.9753 1.22644 31.3993 0.896471C32.2529 0.844538 33.3514 0.712648 34.1872 0.892519L34.1043 1.11955C34.2471 1.29468 34.3954 1.40928 34.5794 1.5393L34.4841 1.56024C33.4302 1.78103 32.2856 1.65512 31.2134 1.68653C30.3267 1.71251 29.4396 1.86055 28.5625 1.98625C21.9163 2.93879 15.3246 6.45592 10.617 11.2135C7.42922 14.5492 5.07582 18.2544 3.19085 22.4481C3.02292 22.2975 2.82837 22.1755 2.64282 22.0472Z" fill="#B25826"/>
<path d="M32.4235 80.0623C32.7911 80.0825 33.1525 80.108 33.5203 80.0745C33.2584 81.5261 33.0948 82.9996 32.8986 84.4615C32.6877 86.0335 32.491 87.5804 32.4196 89.1658C32.3854 89.9283 32.3335 90.7093 32.4664 91.4644C32.5114 91.7203 32.5353 91.976 32.6466 92.2142C32.6441 93.0781 33.0149 94.8228 33.0149 94.8228L31.9695 94.9897C31.9695 94.9897 31.384 92.7419 31.2678 91.6397C31.2203 91.1879 31.2656 90.7071 31.2542 90.251C31.218 88.8037 31.2499 87.3219 31.4251 85.8829C31.6629 83.9283 32.1326 82.0082 32.4235 80.0623Z" fill="#693427"/>
<path d="M0.201416 35.4204C0.458652 35.6054 0.731697 35.7815 0.959257 36.0026C1.84953 37.0003 3.14376 37.5352 4.32607 38.1077L4.40401 38.1728C5.17169 38.3444 5.9165 38.6139 6.66838 38.8435C7.15137 38.9911 7.79481 39.1064 8.21721 39.3764C8.10183 40.138 8.11071 40.8957 8.07424 41.6624C7.97273 43.7973 7.99256 45.9277 8.14662 48.0601C8.20986 48.9369 8.42882 49.7999 8.40608 50.6825L7.98965 50.5208C6.04602 49.9344 4.14053 49.1254 2.34889 48.1799C1.79601 46.8915 1.48552 45.5038 1.19958 44.1358C0.607308 41.3023 0.271445 38.3157 0.201416 35.4204Z" fill="#F48924"/>
<path d="M4.40405 38.1726C5.17174 38.3443 5.91655 38.6137 6.66843 38.8434C7.15142 38.9909 7.79486 39.1063 8.21725 39.3763C8.10188 40.1379 8.11075 40.8956 8.07428 41.6623C7.97277 43.7971 7.99261 45.9276 8.14667 48.0599C8.2099 48.9367 8.42887 49.7997 8.40613 50.6823L7.98969 50.5206C5.8278 46.8776 5.03085 42.3107 4.40405 38.1726Z" fill="#F8DF92"/>
<path d="M3.19601 22.5969L5.44416 24.2104L5.51141 24.1933C7.07147 25.0195 8.90152 25.8647 10.7045 25.7955L10.7381 25.8076C10.0336 27.3785 9.84948 29.2059 9.58753 30.8919C9.37467 32.2618 9.14905 33.6298 8.93578 34.9997C8.70988 36.4516 8.38442 37.8999 8.2481 39.3642L8.21718 39.3764C7.79478 39.1064 7.15135 38.991 6.66835 38.8434C5.91647 38.6138 5.17166 38.3444 4.40398 38.1727L4.32605 38.1076C3.14373 37.5351 1.8495 37.0002 0.959229 36.0025C1.33517 35.4047 1.03813 34.2265 1.14117 33.5054C1.22243 32.937 1.17376 32.3288 1.27582 31.7794L1.44652 30.2488C1.69696 29.0092 1.81234 27.7484 2.09579 26.5073C2.3569 25.364 2.76668 24.2577 3.03667 23.1189L3.19601 22.5969Z" fill="#B0DD55"/>
<path d="M3.19601 22.5969L5.44416 24.2104C4.80474 26.5162 4.33783 28.7939 4.19139 31.1904C4.08975 32.852 4.10583 34.6174 4.18723 36.283C4.21705 36.8926 4.29901 37.4965 4.32605 38.1077C3.14373 37.5351 1.8495 37.0002 0.959229 36.0025C1.33517 35.4047 1.03813 34.2265 1.14117 33.5054C1.22243 32.937 1.17376 32.3288 1.27582 31.7794L1.44652 30.2488C1.69696 29.0092 1.81234 27.7484 2.09579 26.5073C2.3569 25.364 2.76668 24.2577 3.03667 23.1189L3.19601 22.5969Z" fill="#7FB532"/>
<path d="M34.1872 0.892561C35.4205 0.779752 36.6037 0.910477 37.8256 1.06529C43.9276 1.83836 49.5953 4.75807 54.2888 8.656C55.9904 10.0692 57.665 11.7363 59.0332 13.4798L58.94 13.8634C58.9099 14.0169 58.8633 14.1588 58.8131 14.3063L58.2648 15.9558L57.489 17.3843L57.3662 17.7337C56.6656 19.1813 55.7017 20.557 54.7212 21.8269C53.9342 20.6955 53.3825 19.3724 52.6813 18.1833C51.5406 16.249 50.1831 14.4442 48.79 12.687C48.0642 11.7715 47.296 10.7821 46.4563 9.96825L46.4173 9.98114C46.1293 9.37334 45.3246 8.8414 44.8326 8.38891C43.5155 7.17803 42.2052 5.953 40.7993 4.84474C40.0303 4.23846 39.209 3.7068 38.4468 3.09068L38.4587 3.02633L37.0198 1.92952C36.2471 1.67947 35.3807 1.67129 34.5793 1.53934C34.3953 1.40932 34.2471 1.29472 34.1042 1.11959L34.1872 0.892561Z" fill="#757424"/>
<path d="M37.0198 1.92949C37.6575 1.91307 38.334 1.92793 38.9595 2.05935L38.9925 2.17098L38.4586 3.0263L37.0198 1.92949Z" fill="#B25826"/>
<path d="M38.9595 2.05933C39.8245 2.22185 40.6773 2.37439 41.5238 2.62289C43.6867 3.25801 45.7947 4.21942 47.8569 5.12744C47.8341 5.88847 47.83 6.88219 47.4444 7.55988C45.8565 6.55119 44.2854 5.51434 42.6884 4.52034C41.4538 3.75209 40.0662 3.15955 38.9925 2.17096L38.9595 2.05933Z" fill="#A68741"/>
<path d="M38.9926 2.1709C40.0663 3.15949 41.4539 3.75204 42.6885 4.52028C44.2856 5.51428 45.8566 6.55113 47.4445 7.55982C47.111 8.25097 46.5357 9.20364 46.4563 9.96814L46.4174 9.98104C46.1293 9.37324 45.3246 8.84129 44.8326 8.38881C43.5155 7.17792 42.2052 5.9529 40.7993 4.84463C40.0303 4.23836 39.2091 3.70669 38.4468 3.09057L38.4587 3.02623L38.9926 2.1709Z" fill="#B0DD55"/>
<path d="M47.4445 7.55981C48.2676 7.84867 49.0263 8.5344 49.7058 9.06857C51.7251 10.6558 53.5089 12.3401 55.1154 14.3485C55.9125 15.3447 56.6185 16.4567 57.489 17.3842L57.3662 17.7336C56.6656 19.1812 55.7017 20.5568 54.7211 21.8268C53.9342 20.6954 53.3825 19.3723 52.6813 18.1832C51.5406 16.2489 50.1831 14.444 48.79 12.6869C48.0642 11.7714 47.296 10.782 46.4563 9.96813C46.5356 9.20363 47.111 8.25096 47.4445 7.55981Z" fill="#6F9628"/>
<path d="M54.6412 54.1795C55.6656 53.359 56.7575 52.6308 57.7835 51.8145C59.6279 50.347 61.2585 48.6529 62.7491 46.8307C63.2193 46.2561 63.6876 45.6685 64.0899 45.0439C64.5532 44.3248 64.9584 43.5108 65.5424 42.8816L65.5862 42.8354C65.3618 44.837 64.7015 46.8887 64.008 48.7731C61.3176 56.0842 56.7514 62.5983 50.6579 67.4751C47.0707 70.346 42.8319 72.6896 38.3344 73.7313C37.2673 73.9784 36.1941 74.1109 35.106 74.2266C34.7146 74.2169 34.3244 74.1985 33.9349 74.248L31.2193 74.2301C29.7215 73.95 28.1837 73.7232 26.7228 73.2895C19.8292 71.2427 13.663 66.5493 9.34961 60.8511C12 62.5 12.1553 62.8137 14 64C18.614 66.9671 21.7716 69.3886 26.2447 70.8835C30.8289 72.4154 35.4357 71.9925 39.7459 69.8412C44.8384 67.2995 48.8821 63.1459 52.1489 58.559C53.124 57.1901 54.1046 55.7848 54.6412 54.1795Z" fill="#693427"/>
<path d="M54.6414 54.1794C54.1047 55.7847 53.1242 57.19 52.149 58.559C48.8822 63.1458 44.8385 67.2995 39.7461 69.8412C35.4359 71.9924 30.8291 72.4154 26.2448 70.8834C21.7717 69.3886 14.0001 64.5 14.0001 64.5C14.0001 64.5 9.84918 61.5449 9.3501 60.8C10.8017 61.0095 14.9565 62.3261 16.3961 62.6002C18.0739 62.9195 19.7955 63.1354 21.4981 63.2762C22.8292 63.3863 24.1831 63.3565 25.5178 63.3366C33.1942 63.2224 40.8072 61.3755 47.7275 58.0549C50.1201 56.9067 52.3687 55.5412 54.6414 54.1794Z" fill="#B25826"/>
<path d="M34.5794 1.53931C35.3808 1.67125 36.2472 1.67943 37.0199 1.92949L38.4588 3.0263L38.4469 3.09064C39.2091 3.70676 40.0304 4.23843 40.7994 4.8447C42.2053 5.95297 43.5156 7.178 44.8327 8.38888C45.3247 8.84137 46.1294 9.37331 46.4174 9.98111C43.9985 14.6516 39.6824 18.1336 35.1718 20.6828C32.7565 22.0481 30.2 23.2053 27.5547 24.0485C23.6238 25.3017 19.4581 26.1048 15.3189 26.0652C13.7895 26.0505 12.2646 25.7821 10.7383 25.8076L10.7047 25.7955C8.9017 25.8647 7.07165 25.0195 5.51159 24.1933L5.44434 24.2104L3.19619 22.5969L3.19092 22.4481C5.07589 18.2544 7.42929 14.5492 10.6171 11.2135C15.3247 6.45593 21.9163 2.9388 28.5626 1.98626C29.4397 1.86055 30.3268 1.71252 31.2135 1.68653C32.2857 1.65513 33.4303 1.78104 34.4842 1.56025L34.5794 1.53931Z" fill="#F8DF92"/>
<path d="M10.6171 11.2135C11.2003 11.5026 11.9874 11.7753 12.5011 12.1598L12.5166 12.21C13.1846 12.5492 14.0172 12.5588 14.7513 12.6693C15.368 12.762 15.9924 12.9174 16.6164 12.9298C15.8565 14.06 15.1959 15.3013 14.5725 16.5122C13.032 19.5048 11.7529 22.5974 10.7047 25.7955C8.9017 25.8647 7.07165 25.0195 5.51159 24.1933L5.44434 24.2104L3.19619 22.5969L3.19092 22.4481C5.07588 18.2544 7.42929 14.5493 10.6171 11.2135Z" fill="#FEFEDA"/>
<path d="M10.6171 11.2135C11.2003 11.5026 11.9874 11.7753 12.5011 12.1598L12.5166 12.21C11.4732 13.2409 10.6823 14.4013 9.86104 15.6108C8.83195 17.1269 7.85986 18.6749 7.09453 20.3434C6.51585 21.605 6.08237 22.934 5.51159 24.1933L5.44434 24.2104L3.19619 22.5969L3.19092 22.4481C5.07588 18.2544 7.42929 14.5493 10.6171 11.2135Z" fill="#F8DF92"/>
<path d="M34.5793 1.53931C35.3807 1.67125 36.2471 1.67943 37.0198 1.92949L38.4586 3.0263L38.4467 3.09064C35.0394 7.33858 30.5858 10.154 25.3544 11.6603C24.0047 12.0488 22.556 12.3979 21.1596 12.5501L16.8007 12.8404L16.6163 12.9298C15.9923 12.9173 15.3678 12.762 14.7512 12.6693C14.017 12.5587 13.1845 12.5492 12.5165 12.21L12.5009 12.1598C11.9873 11.7752 11.2002 11.5026 10.6169 11.2135C15.3246 6.45593 21.9162 2.9388 28.5625 1.98626C29.4396 1.86055 30.3267 1.71252 31.2133 1.68653C32.2855 1.65513 33.4301 1.78104 34.484 1.56025L34.5793 1.53931Z" fill="#F48924"/>
<path d="M12.501 12.1598C12.7405 12.0879 12.9038 11.9554 13.0912 11.7969C13.6734 11.304 14.1754 10.7242 14.7335 10.2055C15.9086 9.11288 17.1992 8.07021 18.5084 7.14443C20.6417 5.6361 22.9628 4.33106 25.4086 3.40154C26.4919 2.98968 27.6233 2.68724 28.7385 2.37537C27.5842 3.08731 26.3664 3.68665 25.2251 4.41592C22.5357 6.13448 20.2189 8.4008 18.2247 10.8794C17.8006 11.4064 17.0236 12.1666 16.808 12.8061L16.8008 12.8404L16.6163 12.9298C15.9923 12.9173 15.3679 12.762 14.7512 12.6693C14.0171 12.5587 13.1845 12.5492 12.5165 12.21L12.501 12.1598Z" fill="#F9BF87"/>
<path d="M64.5665 24.3367C64.8885 25.8181 65.3048 27.28 65.5722 28.7733C65.8606 30.3847 65.9879 31.9905 66.0866 33.6213C66.2731 36.7073 66.3021 39.8029 65.5862 42.8354L65.5423 42.8815C64.9584 43.5107 64.5532 44.3247 64.0899 45.0438C63.6876 45.6684 63.2193 46.256 62.7491 46.8306C61.2585 48.6528 59.6278 50.3469 57.7835 51.8144C56.7575 52.6307 55.6656 53.3589 54.6412 54.1794C52.3685 55.5412 50.1199 56.9067 47.7273 58.0549C40.807 61.3755 33.1941 63.2223 25.5176 63.3366C24.1829 63.3564 22.829 63.3863 21.4979 63.2762C19.7953 63.1354 18.0737 62.9195 16.3959 62.6001C14.9564 62.3261 13.5346 61.9669 12.0829 61.7574C11.2095 61.3547 10.2761 61.0994 9.34959 60.8511C6.27093 57.0319 3.97203 52.8056 2.34888 48.1798C4.14052 49.1252 6.04601 49.9343 7.98963 50.5207L8.40606 50.6824C11.3251 51.4039 14.3727 51.8496 17.3808 51.9297C22.725 52.0719 28.2414 51.1523 33.3785 49.7214C40.9291 47.6183 48.3115 43.9761 54.4278 39.0571C56.1787 37.6489 57.8656 36.1551 59.3286 34.4436C60.5551 33.0088 61.5497 31.4335 62.4749 29.7934C62.9295 29.162 63.1941 28.3376 63.4348 27.6048L64.1064 25.4246C64.225 25.0492 64.3202 24.6512 64.5665 24.3367Z" fill="#11734B"/>
<path d="M46.4563 9.96826C47.2959 10.7821 48.0642 11.7716 48.79 12.6871C50.1831 14.4442 51.5405 16.249 52.6812 18.1833C53.3825 19.3724 53.9342 20.6955 54.7211 21.8269C55.7017 20.557 56.6656 19.1813 57.3661 17.7337L57.489 17.3843L58.2647 15.9558L58.813 14.3063C58.8632 14.1588 58.9098 14.0169 58.9399 13.8634L59.0331 13.4798C61.176 15.8183 62.5448 18.7635 63.6799 21.6927C64.0105 22.5458 64.3822 23.4405 64.5665 24.3367C64.3203 24.6513 64.225 25.0492 64.1064 25.4246L63.4348 27.6048C63.1941 28.3377 62.9295 29.1621 62.4749 29.7935C61.5497 31.4336 60.5552 33.0089 59.3286 34.4437C57.8656 36.1552 56.1787 37.649 54.4278 39.0572C48.3116 43.9762 40.9291 47.6184 33.3785 49.7215C28.2414 51.1524 22.7251 52.072 17.3808 51.9298C14.3727 51.8497 11.3251 51.404 8.40609 50.6825C8.42883 49.7998 8.20987 48.9369 8.14664 48.06C7.99257 45.9277 7.97274 43.7973 8.07425 41.6624C8.11072 40.8957 8.10185 40.138 8.21722 39.3764L8.24814 39.3642C8.38446 37.9 8.70992 36.4517 8.93582 34.9998C9.1491 33.6298 9.37471 32.2618 9.58758 30.8919C9.84953 29.2059 10.0337 27.3785 10.7381 25.8076C12.2645 25.7821 13.7893 26.0506 15.3187 26.0653C19.458 26.1048 23.6237 25.3018 27.5546 24.0486C30.1999 23.2053 32.7563 22.0481 35.1717 20.6829C39.6823 18.1337 43.9983 14.6516 46.4173 9.98116L46.4563 9.96826Z" fill="#F48924"/>
<path d="M58.9859 13.3313C58.9859 13.3313 63.0735 18.3445 64.5735 24.3445C64.3327 25.0774 62.9296 29.1621 62.475 29.7935C62.2224 29.4522 62.1171 29.015 62.0074 28.6091C61.8019 27.8485 61.6695 27.0715 61.4468 26.3146C60.8354 24.2362 60.0029 22.2206 58.9859 20.3085C58.5082 19.4103 58.0195 18.5164 57.3662 17.7337L57.4891 17.3843L58.9859 13.3313Z" fill="#B25826"/>
<path d="M46.4564 9.96826C47.2961 10.7821 48.0643 11.7716 48.7901 12.6871C50.1832 14.4442 51.5407 16.249 52.6814 18.1833C53.3827 19.3724 53.9343 20.6955 54.7213 21.8269C52.5332 24.6542 49.832 27.0231 46.9527 29.124C39.3195 34.6937 30.2776 38.4574 20.8871 39.6535C18.5746 39.948 16.1934 40.122 13.8639 39.9993C11.9765 39.8998 10.1205 39.6023 8.24829 39.3642C8.38461 37.9 8.71007 36.4517 8.93597 34.9998C9.14924 33.6298 9.37486 32.2619 9.58772 30.8919C9.84967 29.2059 10.0338 27.3785 10.7383 25.8076C12.2646 25.7821 13.7895 26.0506 15.3189 26.0653C19.4581 26.1048 23.6238 25.3018 27.5547 24.0486C30.2001 23.2053 32.7565 22.0481 35.1719 20.6829C39.6824 18.1337 43.9985 14.6516 46.4175 9.98116L46.4564 9.96826Z" fill="#7FB532"/>
<path d="M54.6998 21.8001C54.6998 21.8001 58 17.5 58.9999 13.5C61.9998 16.0001 68.4998 29.5001 65.4998 43.0001C63.4998 45.5001 61.4998 50.0001 54.5 54.0001C59.4998 41.5001 56.1997 23.8001 54.6998 21.8001Z" fill="#693427" fill-opacity="0.44"/>
</svg>
