<svg width="352" height="341" viewBox="0 0 352 341" fill="none" xmlns="http://www.w3.org/2000/svg">
<path d="M125.261 162.351C126.213 161.938 127.058 161.48 128.122 161.535L128.51 161.887C128.23 163.393 127.127 164.316 126.037 165.293C126.008 164.099 125.826 163.415 125.261 162.351Z" fill="#122C68"/>
<path d="M125.795 171.442C127.341 171.108 129.904 170.182 131.339 171.076C130.987 171.942 129.638 172.585 128.785 172.931C127.868 173.304 126.898 173.526 125.937 173.752L125.664 171.51L125.795 171.442Z" fill="#030D3E"/>
<path d="M128.787 167.381L130.274 167.14L130.71 167.468C130.632 168.261 130.504 168.69 129.916 169.26C128.79 170.352 127.05 170.543 125.795 171.442L125.664 171.51C125.524 170.667 125.409 169.93 125.494 169.07C126.019 168.276 126.986 168.094 127.841 167.792L128.787 167.381Z" fill="#001831"/>
<path d="M120.114 171.572L120.557 171.387C119.581 170.231 117.733 170.173 117.237 168.71C117.501 167.981 117.476 168.026 118.173 167.68C119.375 167.852 120.301 168.356 121.37 168.901L121.743 168.716C122.263 169.1 122.448 169.482 122.739 170.05C122.672 170.849 122.607 170.995 122.16 171.664C121.364 172.019 121.267 171.974 120.399 171.816L120.114 171.572Z" fill="#030D3E"/>
<path d="M125.676 177.347C125.814 177.377 125.951 177.41 126.089 177.437C128.14 177.835 130.946 176.997 133.133 177.087L133.342 177.415C132.631 178.517 131.067 178.846 129.891 179.224C129.358 179.396 129.558 179.321 129.011 179.669C127.879 179.901 127.495 180.168 126.435 179.634L126.878 179.263C125.857 178.552 125.587 178.603 125.285 177.333L125.676 177.347Z" fill="#122C68"/>
<path d="M125.583 174.236C128.234 174.272 131.26 172.734 133.966 172.34C131.269 175.16 129.561 176.562 125.676 177.347L125.285 177.333C125.319 176.296 125.461 175.266 125.583 174.236Z" fill="#030D3E"/>
<path d="M240.912 291.709L241.314 291.723C241.922 293.116 244.161 301.108 244.588 301.51C244.703 301.62 244.883 301.631 245.03 301.691C245.967 301.57 248.587 301.184 249.215 300.448L248.613 299.577L248.905 299.071L250.031 298.791L250.203 298.069C250.377 298.765 250.548 299.461 250.757 300.148L251.464 300.296C251.705 299.377 251.717 298.375 252.531 297.78C252.671 297.677 252.832 297.609 252.983 297.523C253.006 297.393 253.022 297.262 253.052 297.134C253.193 296.527 253.429 296.185 253.76 295.672L254.087 295.761C253.011 299.332 251.165 302.747 249.857 306.252C248.876 306.677 247.259 306.231 246.178 306.192C244.749 305.062 241.601 294.07 240.912 291.709Z" fill="#5AB3CA"/>
<path d="M120.678 175.404C121.46 175.489 121.998 175.362 122.475 176.092C123.533 177.713 122.874 181.403 122.67 183.249C121.26 182.644 120.057 182.722 118.563 182.752C116.626 181.96 114.778 181.088 112.925 180.115C113.972 179.706 115.014 179.288 116.053 178.858C117.541 178.988 119.025 179.148 120.507 179.336C118.462 178.384 116.496 177.289 114.609 176.053L114.723 175.745C116.328 174.978 118.422 175.464 120.146 175.42L120.678 175.404Z" fill="#030D3E"/>
<path d="M123.207 161.841C123.078 161.071 122.872 160.195 122.89 159.417C122.926 157.856 123.543 156.202 123.709 154.62C123.832 153.453 123.556 152.256 123.801 151.118C125.193 153.89 124.306 156.122 125.194 158.132L125.961 158.402L126.063 158.879C125.581 159.986 125.202 160.861 125.245 162.088C125.248 162.175 125.256 162.263 125.261 162.351C125.826 163.415 126.008 164.099 126.037 165.293L125.987 165.574C127.442 165.226 128.855 164.793 130.28 164.338C129.751 165.033 128.444 166.33 128.442 167.156L128.787 167.381L127.841 167.792C125.797 166.986 123.058 166.951 120.881 166.849L120.406 166.737C119.207 165.993 118.651 165.016 118.002 163.791C119.666 164.129 121.252 164.725 122.928 165.008C122.439 164.506 121.938 164.007 121.474 163.482C121.006 162.951 120.552 162.587 120.61 161.87C121.458 161.456 122.313 161.708 123.207 161.841Z" fill="#030D3E"/>
<path d="M120.881 166.849C123.058 166.951 125.797 166.986 127.841 167.792C126.986 168.094 126.019 168.276 125.494 169.07C125.409 169.93 125.524 170.667 125.664 171.51L125.937 173.752L125.583 174.236C125.461 175.266 125.319 176.296 125.285 177.333C125.587 178.603 125.857 178.552 126.878 179.263L126.435 179.634L125.974 179.992L125.98 180.486L126.264 180.4C126.185 180.535 126.101 180.666 126.027 180.804C125.165 182.409 125.276 185.019 125.336 186.812L125.26 191.795C124.932 198.189 125.044 204.587 124.65 210.979L123.219 210.599C123.512 203.719 123.484 193.42 122.766 186.604L122.67 183.249C122.874 181.403 123.533 177.713 122.475 176.092C121.998 175.362 121.46 175.489 120.678 175.404C118.911 174.637 117.313 173.563 115.765 172.428C117.234 172.019 118.588 171.704 120.114 171.572L120.399 171.816C121.267 171.974 121.364 172.019 122.16 171.664C122.607 170.995 122.672 170.849 122.739 170.05C122.448 169.482 122.263 169.1 121.743 168.716C121.744 167.751 121.457 167.595 120.881 166.849Z" fill="#020724"/>
<path d="M261.887 279.336C265.36 278.244 275.86 276.562 279.265 276.984C283.014 277.45 296.987 283.318 300.672 285.213C300.928 285.344 301.181 285.479 301.432 285.618C296.479 287.152 291.05 288.171 286.246 290.047C283.629 289.282 281.016 288.003 278.5 286.948C272.875 284.587 267.276 282.205 261.887 279.336Z" fill="#EA8246"/>
<path d="M19.5912 15.2708C18.9618 18.7393 18.4772 22.1686 18.0766 25.6709C20.3593 25.6546 22.6418 25.6703 24.924 25.7182C22.0818 30.754 19.9714 35.8896 20.1576 41.8024L21.0042 42.9537C19.4233 45.855 17.8826 48.7775 16.3823 51.7212C22.2808 48.1331 28.6727 45.6017 34.9244 42.7151C39.1054 40.7836 43.2469 38.4991 47.5951 36.9843C42.8373 45.0702 35.4337 52.4547 27.6673 57.7204C23.921 59.4674 20.1929 60.9741 16.1912 62.0594C13.725 62.7287 11.0816 63.0724 8.68037 63.904L7.47161 62.9797C7.06453 61.9982 7.34093 60.7104 7.43115 59.6699C7.75564 59.1839 7.77208 58.1253 7.94606 57.5051C7.42346 55.9494 7.11186 54.403 6.80463 52.7948C4.5828 51.6044 2.27287 50.5588 0 49.4688V25.2485C2.62717 25.2391 10.3104 24.7239 12.4777 25.6073C14.6779 22.2912 16.7098 18.6319 19.2984 15.6168L19.5912 15.2708Z" fill="url(#paint0_linear_387_882)"/>
<path d="M7.94606 57.5051L9.64274 60.7401C8.982 61.4894 8.31135 62.4411 7.47161 62.9797C7.06453 61.9982 7.34093 60.7104 7.43115 59.6699C7.75564 59.1839 7.77208 58.1253 7.94606 57.5051Z" fill="#F6A45C"/>
<path d="M301.432 285.618C304.749 287.996 320.512 312.505 322.849 316.97C315.706 318.839 308.455 321.363 301.225 322.754L300.937 322.789C298.423 324.793 290.294 325.25 287.01 325.428L287.024 325.292C287.163 313.694 285.833 302.055 286.408 290.459L286.246 290.047C291.05 288.171 296.479 287.152 301.432 285.618Z" fill="#044762"/>
<path d="M286.408 290.459C291.331 294.257 297.265 316.021 300.937 322.789C298.423 324.793 290.294 325.25 287.01 325.428L287.024 325.292C287.163 313.694 285.833 302.055 286.408 290.459Z" fill="#01344F"/>
<path d="M322.849 316.97C325.735 319.554 328.996 321.723 331.982 324.197C338.691 329.755 345.261 335.48 352 341H316.357H281.959C282.703 337.89 284.187 334.645 285.294 331.629C286.024 329.627 286.478 327.491 287.01 325.428C290.294 325.25 298.423 324.793 300.937 322.789L301.225 322.754C308.455 321.363 315.706 318.839 322.849 316.97Z" fill="#566847"/>
<path d="M300.937 322.789L301.225 322.754C301.118 324.169 302.814 325.797 303.703 326.838C307.805 331.634 311.944 336.489 316.357 341H281.959C282.703 337.89 284.187 334.645 285.294 331.629C286.024 329.627 286.478 327.491 287.01 325.428C290.294 325.25 298.423 324.793 300.937 322.789Z" fill="#025569"/>
<path d="M254.087 295.761C256.416 291.924 259.355 281.952 261.887 279.336C267.276 282.205 272.875 284.587 278.5 286.948C281.016 288.003 283.629 289.282 286.246 290.047L286.408 290.459C285.833 302.055 287.163 313.694 287.024 325.292L287.01 325.428C286.478 327.491 286.024 329.627 285.294 331.629C284.187 334.645 282.703 337.89 281.959 341H257.753C254.532 331.238 250.761 321.589 247.822 311.747C247.135 310.01 246.741 307.992 246.178 306.192C247.259 306.231 248.876 306.677 249.857 306.252C251.165 302.747 253.011 299.332 254.087 295.761Z" fill="#001831"/>
<path d="M249.857 306.252C250.136 306.546 250.377 306.815 250.729 307.025C252.599 308.142 254.734 309.006 256.695 309.966C260.644 311.907 264.583 313.869 268.51 315.853C272.281 317.763 283.846 324.484 287.024 325.292L287.01 325.428C286.478 327.491 286.024 329.627 285.294 331.629C284.187 334.645 282.703 337.89 281.959 341H257.753C254.532 331.238 250.761 321.589 247.822 311.747C247.135 310.01 246.741 307.992 246.178 306.192C247.259 306.231 248.876 306.677 249.857 306.252Z" fill="#001831"/>
<path d="M249.857 306.252C250.136 306.546 250.377 306.815 250.729 307.025C252.599 308.142 254.734 309.006 256.695 309.966C260.644 311.907 264.583 313.869 268.51 315.853C272.281 317.763 283.846 324.484 287.024 325.292L287.01 325.428C286.478 327.491 286.024 329.627 285.294 331.629C285.131 331.442 285.068 331.354 284.847 331.191C282.677 329.61 279.877 328.396 277.503 327.135C270.207 323.261 262.614 319.888 255.464 315.763C253.717 314.754 249.44 311.565 247.822 311.747C247.135 310.01 246.741 307.992 246.178 306.192C247.259 306.231 248.876 306.677 249.857 306.252Z" fill="#01344F"/>
<path d="M0 49.4688C2.27287 50.5588 4.5828 51.6044 6.80463 52.7948C7.11186 54.403 7.42346 55.9494 7.94606 57.5051C7.77208 58.1253 7.75564 59.1839 7.43115 59.6699C7.34093 60.7104 7.06453 61.9982 7.47161 62.9797L8.68037 63.904C11.0816 63.0724 13.725 62.7287 16.1912 62.0594C20.1929 60.9741 23.921 59.4674 27.6673 57.7204C31.8957 58.3331 69.8024 65.5297 70.7875 66.325C71.1075 67.0276 71.1693 67.495 71.1809 68.2647C64.6557 75.0551 56.7813 80.6914 49.3581 86.4426C44.9938 89.8235 40.5681 93.6549 35.9545 96.6519C28.3004 94.3791 19.9539 93.5861 12.1312 91.8443C8.08974 91.5245 4.08153 90.0779 0 89.6747V77.5118V60.6473V49.4688Z" fill="#EA8246"/>
<path d="M0 49.4688C2.27287 50.5588 4.5828 51.6044 6.80463 52.7948C7.11186 54.403 7.42346 55.9494 7.94606 57.5051C7.77208 58.1253 7.75564 59.1839 7.43115 59.6699C7.34093 60.7104 7.06453 61.9982 7.47161 62.9797L8.68037 63.904C7.41495 65.2822 6.3385 66.7236 5.26167 68.2518C16.1922 64.5482 22.9041 64.6007 34.1403 65.0488C29.7678 68.8172 24.1123 72.431 18.8552 74.7453C12.0865 77.7055 7.33539 78.2032 0 77.5118V60.6473V49.4688Z" fill="#001831"/>
<path d="M0 49.4688C2.27287 50.5588 4.5828 51.6044 6.80463 52.7948C7.11186 54.403 7.42346 55.9494 7.94606 57.5051C7.77208 58.1253 7.75564 59.1839 7.43115 59.6699C7.38435 58.7637 7.56545 58.2952 6.8748 57.6702C4.4595 57.5331 2.10948 59.6221 0 60.6473V49.4688Z" fill="#EA8246"/>
<path d="M0 77.5118C7.33539 78.2032 12.0865 77.7055 18.8552 74.7453C26.0961 76.0663 33.1812 77.1727 40.271 79.2594C33.6515 82.9531 26.1481 85.7464 19.1748 88.7399C16.9379 89.7004 14.1393 90.5156 12.1312 91.8443C8.08974 91.5245 4.08153 90.0779 0 89.6747V77.5118Z" fill="#5E3239"/>
<path d="M24.924 25.7182C26.7533 23.0229 28.4587 20.1847 30.5005 17.6452C37.7966 8.56905 48.1711 3.85884 58.88 0C52.9629 6.15325 46.7737 12.7325 41.9949 19.834L41.8491 20.4618C40.4157 21.5443 39.4895 23.6111 38.4781 25.1003C37.3986 26.6699 36.1705 28.2408 35.2121 29.8805L33.1564 32.5093C29.5224 36.6885 25.4824 39.7373 21.0042 42.9537L20.1576 41.8024C19.9714 35.8896 22.0818 30.754 24.924 25.7182Z" fill="#001831"/>
<path d="M135.517 179.276C141.72 177.367 163.865 181.367 169.729 184.346C170.184 184.577 170.47 184.78 170.742 185.221C175.314 199.354 179.73 213.652 184.656 227.661L184.988 229.025C179.978 231.184 175.088 233.608 170.105 235.829C166.872 237.271 163.045 238.55 160.067 240.41L157.726 241.473C148.318 245.449 138.975 250.143 129.422 253.7C128.804 253.396 128.791 253.441 128.545 252.805C127.91 247.738 127.743 242.563 127.389 237.468C127.145 233.95 126.5 229.977 126.853 226.499C124.442 225.29 121.554 224.467 119.02 223.531C111.965 220.905 104.84 218.485 97.6462 216.269C88.8589 213.497 80.2038 210.459 71.477 207.517C66.4906 205.836 61.1025 204.416 56.3792 202.117L56.3777 201.806C58.3082 199.923 64.0367 198.19 66.6608 197.131L74.3774 194.273C82.5497 190.946 90.7835 187.78 99.0789 184.775C102.932 184.018 107.747 182.153 111.638 182.375L111.885 182.733C114.117 182.652 116.328 182.949 118.563 182.752C120.057 182.722 121.26 182.644 122.67 183.249L122.766 186.604C123.484 193.42 123.512 203.719 123.219 210.599L124.65 210.979C125.044 204.587 124.932 198.189 125.26 191.795L125.336 186.812C125.276 185.019 125.165 182.409 126.027 180.804C126.101 180.666 126.185 180.535 126.264 180.4L125.98 180.486L125.974 179.992L126.435 179.634C127.495 180.168 127.879 179.901 129.011 179.669C131.139 179.337 133.364 179.358 135.517 179.276Z" fill="url(#paint1_linear_387_882)"/>
<path d="M125.336 186.812C126.31 186.821 127.428 186.716 128.37 186.958C130.756 187.26 133.813 186.924 135.915 188.278L135.748 188.849C133.158 189.988 130.551 190.709 127.812 191.398C127.099 191.913 126.107 191.78 125.26 191.795L125.336 186.812Z" fill="#122C68"/>
<path d="M129.011 179.669C131.139 179.337 133.364 179.358 135.517 179.276C135.371 180.169 135.395 180.569 134.665 181.138C133.066 182.384 130.359 182.946 128.423 183.558C130.639 183.365 133.259 182.646 135.086 184.137L135.372 184.777C134.271 186.046 130.131 186.511 128.37 186.958C127.428 186.716 126.31 186.821 125.336 186.812C125.276 185.019 125.165 182.409 126.027 180.804C126.101 180.666 126.185 180.535 126.264 180.4L125.98 180.486L125.974 179.992L126.435 179.634C127.495 180.168 127.879 179.901 129.011 179.669Z" fill="#030D3E"/>
<path d="M125.26 191.795C126.107 191.78 127.099 191.913 127.812 191.398C127.911 191.41 128.01 191.424 128.109 191.435C130.675 191.728 133.839 190.967 136.222 191.918L136.525 192.446C136.322 192.989 136.176 193.323 135.763 193.735C136.14 194.383 136.523 194.9 136.373 195.691C136.319 195.977 136.233 196.169 136.132 196.432L137.274 196.727L137.336 197.233C135.986 198.767 133.138 199.49 131.255 200.183C133.724 200.624 135.521 201.46 137.62 202.789C136.3 203.575 134.951 204.327 133.713 205.239C131.198 207.186 128.401 209.793 125.347 210.762C125.202 210.808 125.058 210.859 124.913 210.903C124.826 210.931 124.738 210.954 124.65 210.979C125.044 204.587 124.932 198.189 125.26 191.795Z" fill="#01344F"/>
<path d="M129.104 195.803C131.534 195.415 133.573 194.859 135.763 193.735C136.14 194.383 136.523 194.9 136.373 195.691C136.319 195.977 136.233 196.169 136.132 196.432C133.768 196.317 131.451 196.11 129.104 195.803Z" fill="#F6A45C"/>
<path d="M118.563 182.752C120.057 182.722 121.26 182.644 122.67 183.249L122.766 186.604C123.484 193.42 123.512 203.719 123.219 210.599C119.946 209.092 116.943 206.952 113.942 204.967C112.338 203.955 110.857 202.824 109.361 201.66C112.008 200.301 114.63 199.904 117.551 199.639C115.417 198.978 112.741 198.008 111.006 196.533C110.507 196.109 110.435 196.069 110.369 195.402C111.559 194.601 113.126 194.859 114.495 194.898C114.028 194.474 114.214 194.596 113.721 194.307C112.764 193.747 111.065 193.044 110.693 191.927C112.021 190.745 117.622 191.179 119.608 191.047C117.594 190.549 115.369 189.982 113.569 188.926C112.835 188.495 112.152 188.093 111.946 187.255C113.358 186.138 116.015 187.006 117.705 186.774C117.843 186.754 117.98 186.731 118.118 186.71C116.399 185.791 114.267 185.293 112.684 184.17C111.987 183.675 112.03 183.539 111.885 182.733C114.117 182.652 116.328 182.949 118.563 182.752Z" fill="#122C68"/>
<path d="M113.942 204.967C116.943 206.952 119.946 209.092 123.219 210.599L124.65 210.979C124.738 210.954 124.826 210.931 124.913 210.903C125.058 210.859 125.202 210.808 125.347 210.762C128.401 209.793 131.198 207.186 133.713 205.239C135.253 205.799 137.057 206.359 138.202 207.59C138.76 208.19 138.953 208.832 138.901 209.649C138.768 211.737 136.349 214.23 134.843 215.477C134.615 215.669 134.383 215.855 134.146 216.034C133.908 216.214 133.667 216.388 133.421 216.556C133.174 216.724 132.924 216.886 132.67 217.041C132.416 217.196 132.158 217.345 131.896 217.487C131.634 217.629 131.369 217.765 131.101 217.893C130.833 218.022 130.561 218.144 130.286 218.26C130.012 218.375 129.735 218.483 129.455 218.584C129.175 218.686 128.892 218.78 128.607 218.867C128.322 218.954 128.036 219.033 127.747 219.106C127.458 219.178 127.168 219.244 126.876 219.302C126.584 219.359 126.291 219.41 125.996 219.453C125.701 219.496 125.406 219.532 125.109 219.561C124.813 219.589 124.516 219.609 124.219 219.622C123.921 219.636 123.623 219.642 123.326 219.64C123.028 219.638 122.731 219.629 122.433 219.613C122.136 219.596 121.84 219.572 121.543 219.54C118.26 219.206 108.404 217.302 106.446 214.648C106.097 214.173 106.028 213.654 106.116 213.068C106.629 209.655 111.352 206.767 113.942 204.967Z" fill="#5E3239"/>
<path d="M170.742 185.221C175.314 199.354 179.73 213.652 184.656 227.661L184.988 229.025C179.978 231.184 175.088 233.608 170.105 235.829C166.872 237.271 163.045 238.55 160.067 240.41L157.726 241.473C148.318 245.449 138.975 250.143 129.422 253.7C128.804 253.396 128.791 253.441 128.545 252.805C127.91 247.738 127.743 242.563 127.389 237.468C127.145 233.95 126.5 229.977 126.853 226.499C134.843 222.785 143.15 219.379 151.329 216.099L152.706 215.384C155.429 211.67 157.748 207.466 160.148 203.528C163.799 197.536 167.64 191.518 170.742 185.221Z" fill="#044762"/>
<path d="M151.329 216.099L152.706 215.384C156.436 218.062 158.894 233.975 160.166 238.891L157.592 239.982C156.533 238.987 152.727 219.699 151.329 216.099Z" fill="#025569"/>
<path d="M126.853 226.499C134.843 222.785 143.15 219.379 151.329 216.099C152.727 219.699 156.533 238.987 157.592 239.982L160.166 238.891C168.524 235.595 176.357 231.092 184.656 227.661L184.988 229.025C179.978 231.184 175.088 233.608 170.105 235.829C166.872 237.271 163.045 238.55 160.067 240.41L157.726 241.473C148.318 245.449 138.975 250.143 129.422 253.7C128.804 253.396 128.791 253.441 128.545 252.805C127.91 247.738 127.743 242.563 127.389 237.468C127.145 233.95 126.5 229.977 126.853 226.499Z" fill="#044762"/>
<path d="M184.656 227.661L184.988 229.025C179.978 231.184 175.088 233.608 170.105 235.829C166.872 237.271 163.045 238.55 160.067 240.41L157.726 241.473C148.318 245.449 138.975 250.143 129.422 253.7C128.804 253.396 128.791 253.441 128.545 252.805L157.592 239.982L160.166 238.891C168.524 235.595 176.357 231.092 184.656 227.661Z" fill="#02010C"/>
<path d="M184.988 229.025C186.016 231.361 186.697 233.907 187.475 236.336C189.522 242.728 191.331 249.418 193.899 255.614C197.511 258.319 201.946 260.334 205.924 262.472L228.287 274.419C230.578 275.661 234.168 277.006 235.887 278.906C237.826 283.05 238.916 287.647 240.912 291.709C241.601 294.07 244.749 305.062 246.178 306.192C246.741 307.992 247.135 310.01 247.822 311.747C250.761 321.589 254.532 331.238 257.753 341L219.593 341H216.432H183.978H134.702C134.661 336.472 133.999 331.833 133.633 327.311L131.678 301.53C131.189 295.222 130.492 288.796 130.489 282.472L129.968 281.943L129.948 281.699C129.368 279.72 128.197 255.638 128.593 254.145L129.422 253.7C138.975 250.143 148.318 245.449 157.726 241.473L160.067 240.41C163.045 238.55 166.872 237.271 170.105 235.829C175.088 233.608 179.978 231.184 184.988 229.025Z" fill="url(#paint2_linear_387_882)"/>
<path d="M184.988 229.025C186.016 231.361 186.697 233.907 187.475 236.336C189.522 242.728 191.331 249.418 193.899 255.614C191.27 256.059 169.848 264.756 166.929 266.352L165.306 266.975C160.607 259.817 160.884 249.217 157.726 241.473L160.067 240.41C163.045 238.55 166.872 237.271 170.105 235.829C175.088 233.608 179.978 231.184 184.988 229.025Z" fill="#044762"/>
<path d="M160.067 240.41C161.718 242.931 163.216 253.597 164.131 257.328C164.875 260.361 165.856 263.419 166.929 266.352L165.306 266.975C160.607 259.817 160.884 249.217 157.726 241.473L160.067 240.41Z" fill="#025569"/>
<path d="M129.422 253.7C138.975 250.143 148.318 245.449 157.726 241.473C160.884 249.217 160.607 259.817 165.306 266.975C162.101 268.486 158.769 270.074 155.444 271.291C147.158 274.856 138.595 279.151 129.948 281.699C129.368 279.72 128.197 255.638 128.593 254.145L129.422 253.7Z" fill="#044762"/>
<path d="M130.489 282.472C140.013 290.365 150.167 297.459 160.083 304.837C166.993 309.977 173.739 315.576 180.824 320.449C182.115 327.13 183.363 334.231 183.978 341H134.702C134.661 336.472 133.999 331.833 133.633 327.311L131.678 301.53C131.189 295.222 130.492 288.796 130.489 282.472Z" fill="#001831"/>
<path d="M235.887 278.906C237.826 283.05 238.916 287.647 240.912 291.709C241.601 294.07 244.749 305.062 246.178 306.192C246.741 307.992 247.135 310.01 247.822 311.747C250.761 321.589 254.532 331.238 257.753 341L219.593 341H216.432H183.978C183.363 334.231 182.115 327.13 180.824 320.449C189.963 313.735 198.991 306.875 207.909 299.87L208.983 298.958C209.749 298.53 210.468 297.906 211.171 297.375C214.587 295.309 217.844 292.715 221.086 290.371C226.055 286.78 231.496 283.196 235.887 278.906Z" fill="#01344F"/>
<path d="M207.909 299.87L208.983 298.958C210.551 302.751 211.492 306.958 212.501 310.93C214.031 316.956 215.49 323 216.878 329.061C217.773 333.029 218.515 337.085 219.593 341H216.432C214.57 327.2 211.235 313.372 207.909 299.87Z" fill="#02010C"/>
<path d="M180.824 320.449C189.963 313.735 198.991 306.875 207.909 299.87C211.235 313.372 214.57 327.2 216.432 341H183.978C183.363 334.231 182.115 327.13 180.824 320.449Z" fill="#01344F"/>
<path d="M71.1809 68.2647C72.3974 75.5009 74.2066 82.6981 75.9191 89.8316C78.3493 100.076 80.9095 110.288 83.5996 120.467C86.1771 130.286 88.1577 140.227 90.5789 150.081C93.4204 161.648 96.6769 173.103 99.0789 184.775C90.7835 187.78 82.5497 190.946 74.3774 194.273L66.6608 197.131C64.0367 198.19 58.3082 199.923 56.3777 201.806L56.3792 202.117C61.1025 204.416 66.4906 205.836 71.477 207.517C80.2038 210.459 88.8589 213.497 97.6462 216.269C104.84 218.485 111.965 220.905 119.02 223.531C121.554 224.467 124.442 225.29 126.853 226.499C126.5 229.977 127.145 233.95 127.389 237.468C127.743 242.563 127.91 247.738 128.545 252.805C128.791 253.441 128.804 253.396 129.422 253.7L128.593 254.145C128.197 255.638 129.368 279.72 129.948 281.699L129.968 281.943L130.489 282.472C130.492 288.796 131.189 295.222 131.678 301.53L133.633 327.311C133.999 331.833 134.661 336.472 134.702 341L128.255 341H84.5305H58.5518H55.9773H52.1277H51.5301H46.6598H30.9496H0V332.632V285.802V270.386V264.296V245.775V180.997V157.749V89.6747C4.08153 90.0779 8.08974 91.5245 12.1312 91.8443C19.9539 93.5861 28.3004 94.3791 35.9545 96.6519C40.5681 93.6549 44.9938 89.8235 49.3581 86.4426C56.7813 80.6914 64.6557 75.0551 71.1809 68.2647Z" fill="#001831"/>
<path d="M58.5518 341C64.1941 337.289 72.4067 336.04 78.9774 337.493C80.7791 337.896 83.2726 338.794 84.2711 340.475C84.3702 340.644 84.4442 340.825 84.5305 341H58.5518Z" fill="#020724"/>
<path d="M129.968 281.943L130.489 282.472C130.492 288.796 131.189 295.222 131.678 301.53L133.633 327.311C133.999 331.833 134.661 336.472 134.702 341L128.255 341C128.455 334.885 128.283 328.74 128.397 322.621C128.511 316.519 128.878 310.425 128.91 304.322C128.944 297.717 128.432 290.217 129.213 283.707C129.323 282.784 129.361 282.669 129.968 281.943Z" fill="#020724"/>
<path d="M40.2591 297.023C42.3082 296.911 44.9546 296.532 46.7769 297.641C47.587 298.134 48.1881 298.891 48.3954 299.829C48.6141 300.817 48.2982 301.712 47.7822 302.547C43.7332 309.103 27.4641 313.802 20.0475 315.653C17.3533 316.225 14.5585 316.442 11.8236 316.758C12.1508 316.158 12.4894 315.564 12.8393 314.977C18.353 305.781 30.0821 299.521 40.2591 297.023Z" fill="#020724"/>
<path d="M56.1737 273.425C56.8202 273.353 57.5405 273.225 58.1404 273.563C58.9494 274.018 59.6203 275.057 59.9379 275.907C60.3762 277.08 60.1716 278.295 59.6453 279.403C55.7011 287.708 32.0059 296.139 23.5348 299.114L19.3377 300.349C20.1382 298.562 21.1284 296.887 22.3082 295.324C28.7571 286.886 45.437 274.853 56.1737 273.425Z" fill="#020724"/>
<path d="M41.8471 325.244C32.3828 326.83 23.1967 329.067 13.6246 330.059C11.3209 330.304 8.85161 330.712 6.54221 330.485L6.04759 330.129C5.92099 329.294 5.97723 328.962 6.46556 328.25C11.5585 320.844 26.6853 315.537 35.3165 314.423C38.3218 314.036 41.9812 313.95 44.4417 316.005C45.3925 316.799 46.0454 317.717 46.1367 318.981C46.163 319.379 46.1772 319.777 46.1796 320.176L46.1871 320.165C49.9635 323.336 51.2694 327.071 51.6744 331.879C51.9309 334.925 51.7639 337.96 51.5301 341H46.6598C43.7075 335.439 42.2813 331.518 41.8471 325.244Z" fill="#020724"/>
<path d="M86.5513 290.369C91.2166 284.794 94.4696 277.666 98.4891 271.572C101.749 266.629 113.094 251.957 118.934 251.659C119.724 251.619 120.223 251.671 120.77 252.304C121.715 253.399 121.768 255.427 121.462 256.754C119.344 265.947 96.6489 283.936 88.9719 292.018C85.4811 295.693 82.8955 299.884 79.6681 303.734C87.2595 298.119 103.504 285.765 113.163 287.304C113.789 287.403 114.329 287.534 114.737 288.066C115.368 288.889 115.463 290.023 115.293 291.015C114.845 293.635 111.492 296.066 109.304 297.298C100.041 302.51 88.8198 304.538 78.3899 305.815C75.6935 309.082 73.2612 312.535 71.0929 316.173C79.217 311.538 93.9217 304.458 103.434 307.076C104.249 307.3 104.971 307.598 105.422 308.358C105.71 308.844 105.696 309.447 105.536 309.978C104.804 312.404 102.497 314.282 100.312 315.349C92.6353 319.1 78.556 318.793 70.0245 318.561C67.0385 322.059 64.8678 326.675 62.5917 330.672C69.3047 326.542 83.0453 320.089 91.0784 322.066C92.5275 322.423 93.9572 323.166 94.7074 324.513C95.1615 325.328 95.2197 326.232 94.9248 327.106C94.2131 329.224 91.828 330.637 89.9022 331.465C82.9771 334.441 68.7189 334.202 61.4405 332.335C59.3533 335.071 58.0092 338.24 55.9773 341H52.1277C54.5991 337.645 57.1234 333.624 58.9628 329.884C55.2687 321.809 51.1747 308.341 54.2376 299.553C54.8321 297.848 55.7166 296.823 57.3391 296.063C58.5448 296.275 59.6278 297.586 60.2824 298.56C64.5356 304.895 63.4246 317.582 61.8188 324.653C61.6894 325.223 61.5414 325.788 61.3747 326.349C64.2273 322.338 67.1305 317.766 69.1933 313.295C68.2858 303.02 63.1758 274.408 70.6686 266.462C71.1978 265.901 71.5516 265.788 72.296 265.706C73.5252 266.311 74.002 267.362 74.4042 268.626C76.3516 274.744 74.6344 299.297 74.0941 306.96C75.5589 304.964 77.3331 302.765 78.1352 300.391C80.8712 292.295 82.4438 258.382 90.2776 256.283C90.7818 256.149 91.1618 256.273 91.6374 256.421C92.6912 257.426 92.7752 258.639 92.8247 260.034C93.0934 267.603 88.7353 282.88 86.5513 290.369Z" fill="#020724"/>
<path d="M0 180.997C5.01521 185.05 13.1174 191.056 17.2518 195.624L16.5107 225.62C16.3314 231.671 15.9783 237.709 16.0584 243.765C21.0926 249.654 21.7575 262.712 21.8933 270.353C22.1747 272.231 22.2173 274.197 22.4289 276.095C22.8129 271.023 24.2461 266.173 24.7271 261.138C24.5012 250.236 23.9779 232.567 28.3866 222.65C29.0608 221.134 29.9143 219.053 31.5468 218.421C32.4671 218.563 32.8987 218.828 33.4281 219.614C40.4017 229.97 33.5172 251.217 30.9313 262.427C34.0111 255.879 37.787 249.589 40.991 243.072C41.1402 243.011 41.2928 242.957 41.4387 242.888C43.2588 242.03 45.5023 238.057 46.9424 236.362C49.3446 233.534 58.4265 224.133 62.4472 225.098C63.3419 225.312 64.0979 226.03 64.4866 226.851C65.1704 228.296 64.795 230.051 64.2372 231.47C62.7205 235.327 59.5946 238.658 57.0498 241.881C55.1646 244.269 53.3886 246.737 51.4199 249.059C48.9265 251.999 46.1839 254.73 43.7154 257.687C38.7959 263.58 33.9788 270.529 30.8039 277.498C36.9267 269.351 53.6708 250.336 63.7569 249.118C64.7058 249.004 65.351 249.04 66.1187 249.674C66.7447 250.93 66.4125 252.059 65.9619 253.326C62.6564 262.629 47.0792 269.345 38.8773 273.769C35.9539 275.346 33.12 277.144 30.258 278.833C17.9299 297.978 9.69351 319.839 0.529899 340.586C8.40035 334.873 25.0941 328.005 34.9568 329.773C36.0748 329.971 37.1495 330.409 37.7791 331.401C38.2631 332.171 38.4168 333.087 38.1729 333.963C37.908 334.92 37.4416 335.865 37.0462 336.769C35.0702 338.252 32.8025 339.378 30.9496 341H0V332.632V285.802V270.386V264.296V245.775V180.997Z" fill="#020724"/>
<path d="M22.4289 276.095C22.8129 271.023 24.2461 266.173 24.7271 261.138L24.7287 261.385C24.7768 265.326 25.977 270.028 25.1712 273.86C24.5261 276.929 19.4762 285.85 19.3479 286.816L19.4817 286.763C19.43 286.135 21.1127 281.728 21.3636 280.178C21.8993 276.868 21.6836 273.664 21.8933 270.353C22.1747 272.231 22.2173 274.197 22.4289 276.095Z" fill="#001831"/>
<path d="M11.1006 265.177C12.5432 268.378 13.1691 272.195 14.1237 275.599C15.4219 280.064 16.8031 284.503 18.2675 288.916C15.2244 296.88 11.1137 304.487 7.86644 312.391C6.15273 316.636 4.5156 320.91 2.95506 325.215C2.04579 327.666 1.2397 330.333 0 332.632V285.802V270.386C0.921049 269.775 1.94658 269.41 2.96771 269.003C5.29517 270.063 6.66468 271.796 7.55175 274.187C8.18015 275.88 8.67017 277.651 9.19219 279.381C10.7801 276.379 10.8304 268.739 11.1006 265.177Z" fill="#001831"/>
<path d="M2.96771 269.003C5.29517 270.063 6.66468 271.796 7.55175 274.187C8.18015 275.88 8.67017 277.651 9.19219 279.381C11.5083 291.382 13.121 294.773 9.26516 306.761C6.61268 302.367 4.70915 297.733 2.88272 292.954C1.97729 290.585 1.20942 288.02 0 285.802V270.386C0.921049 269.775 1.94658 269.41 2.96771 269.003Z" fill="#020724"/>
<path d="M0 180.997C5.01521 185.05 13.1174 191.056 17.2518 195.624L16.5107 225.62C16.3314 231.671 15.9783 237.709 16.0584 243.765C14.6313 243.807 13.2928 243.769 12.2304 244.877C11.7226 245.407 11.3393 246.098 10.9575 246.721C8.8807 252.514 10.4997 259.233 11.1006 265.177C10.8304 268.739 10.7801 276.379 9.19219 279.381C8.67017 277.651 8.18015 275.88 7.55175 274.187C6.66468 271.796 5.29517 270.063 2.96771 269.003C1.94658 269.41 0.921049 269.775 0 270.386V264.296V245.775V180.997Z" fill="#001831"/>
<path d="M2.96771 269.003C2.46252 264.834 7.20046 250.461 9.59151 246.871C9.9874 246.277 10.0618 246.245 10.7229 246.139L10.9575 246.721C8.8807 252.514 10.4997 259.233 11.1006 265.177C10.8304 268.739 10.7801 276.379 9.19219 279.381C8.67017 277.651 8.18015 275.88 7.55175 274.187C6.66468 271.796 5.29517 270.063 2.96771 269.003Z" fill="#01344F"/>
<path d="M0 245.775L0.111706 245.368C2.21734 237.562 1.97327 231.154 5.5439 223.374C6.201 221.943 7.08609 219.954 8.52229 219.182C9.40925 218.705 10.3469 218.51 11.3224 218.779C12.2925 219.454 12.5355 220.151 12.7162 221.271C13.0606 223.407 12.9292 225.625 12.5141 227.739C11.4572 233.121 2.3241 260.954 0 264.296V245.775Z" fill="#020724"/>
<path d="M71.1809 68.2647C72.3974 75.5009 74.2066 82.6981 75.9191 89.8316C78.3493 100.076 80.9095 110.288 83.5996 120.467C86.1771 130.286 88.1577 140.227 90.5789 150.081C93.4204 161.648 96.6769 173.103 99.0789 184.775C90.7835 187.78 82.5497 190.946 74.3774 194.273L66.6608 197.131C64.0367 198.19 58.3082 199.923 56.3777 201.806L56.3792 202.117C55.4441 205.393 54.0107 208.592 52.8433 211.798C50.2877 218.817 47.8442 225.891 45.1721 232.866C43.8602 236.291 42.2077 239.626 40.991 243.072C37.787 249.589 34.0111 255.879 30.9313 262.427C33.5172 251.217 40.4017 229.97 33.4281 219.614C32.8987 218.828 32.4671 218.563 31.5468 218.421C29.9143 219.053 29.0608 221.134 28.3866 222.65C23.9779 232.567 24.5012 250.236 24.7271 261.138C24.2461 266.173 22.8129 271.023 22.4289 276.095C22.2173 274.197 22.1747 272.231 21.8933 270.353C21.7575 262.712 21.0926 249.654 16.0584 243.765C15.9783 237.709 16.3314 231.671 16.5107 225.62L17.2518 195.624C13.1174 191.056 5.01521 185.05 0 180.997V157.749V89.6747C4.08153 90.0779 8.08974 91.5245 12.1312 91.8443C19.9539 93.5861 28.3004 94.3791 35.9545 96.6519C40.5681 93.6549 44.9938 89.8235 49.3581 86.4426C56.7813 80.6914 64.6557 75.0551 71.1809 68.2647Z" fill="#025569"/>
<path d="M75.3117 140.18C74.3541 136.62 72.704 133.114 72.2866 129.448L72.7838 129.005L72.7285 128.878L72.2645 129.011L72.3403 128.358L72.2896 129.124L72.6882 128.737C74.4374 131.995 75.3222 135.805 76.358 139.342C76.0001 139.611 75.6242 139.859 75.3117 140.18Z" fill="#02010C"/>
<path d="M75.3117 140.18C75.6242 139.859 76.0001 139.611 76.358 139.342C77.4532 142.494 83.7552 161.468 83.1082 163.146C82.2275 162.339 81.6814 161.17 81.239 160.073C80.5547 158.375 80.3274 156.378 79.8197 154.603C78.4418 149.783 76.9986 144.901 75.3117 140.18Z" fill="#02010C"/>
<path d="M36.4023 147.494C43.7249 143.348 50.6767 138.109 58.317 134.592C54.7075 138.884 41.497 146.18 36.2407 148.714C29.0571 147.008 21.7186 146.03 14.583 144.08L14.6701 143.776L13.8809 143.742L14.6018 144.094L13.8717 143.786C15.9509 143.808 18.1381 144.325 20.1954 144.66C25.6018 145.539 30.9868 146.732 36.4023 147.494Z" fill="#020724"/>
<path d="M66.6608 197.131C63.8216 188.979 61.4155 180.711 58.7325 172.51C56.6141 166.036 53.9607 159.344 52.5339 152.701C52.2643 151.445 52.1742 150.299 52.5024 149.048C52.7706 148.026 53.3508 146.858 54.3619 146.386C55.0346 146.072 55.9467 146.007 56.6566 146.278C57.574 146.628 58.1295 147.245 58.5641 148.094C60.4637 151.811 61.5064 156.704 62.8237 160.696C66.4515 171.692 69.9161 183.654 74.3774 194.273L66.6608 197.131Z" fill="#001831"/>
<path d="M0 89.6747C4.08153 90.0779 8.08974 91.5245 12.1312 91.8443C19.9539 93.5861 28.3004 94.3791 35.9545 96.6519C35.038 99.7872 36.154 127.424 36.2465 132.769C36.3307 137.637 36.0977 142.648 36.4023 147.494C30.9868 146.732 25.6018 145.539 20.1954 144.66C18.1381 144.325 15.9509 143.808 13.8717 143.786L14.6018 144.094L13.8809 143.742L14.6701 143.776L14.583 144.08C21.7186 146.03 29.0571 147.008 36.2407 148.714C36.4475 162.51 36.2478 176.459 36.9983 190.231C32.5918 192.424 22.122 195.043 17.2518 195.624C13.1174 191.056 5.01521 185.05 0 180.997V157.749V89.6747Z" fill="#001831"/>
<path d="M0 157.749C8.63333 164.254 16.5357 171.804 24.5642 179.031C28.688 182.744 33.2038 186.185 36.9983 190.231C32.5918 192.424 22.122 195.043 17.2518 195.624C13.1174 191.056 5.01521 185.05 0 180.997V157.749Z" fill="#01344F"/>
<defs>
<linearGradient id="paint0_linear_387_882" x1="329.654" y1="215.584" x2="51.6826" y2="160.667" gradientUnits="userSpaceOnUse">
<stop stop-color="#001136"/>
<stop offset="1" stop-color="#002B4C"/>
</linearGradient>
<linearGradient id="paint1_linear_387_882" x1="206.77" y1="-73.4809" x2="17.3962" y2="119.225" gradientUnits="userSpaceOnUse">
<stop stop-color="#EF9632"/>
<stop offset="1" stop-color="#D66F37"/>
</linearGradient>
<linearGradient id="paint2_linear_387_882" x1="178.618" y1="81.5513" x2="90.715" y2="250.735" gradientUnits="userSpaceOnUse">
<stop stop-color="#C8563B"/>
<stop offset="1" stop-color="#0A6F53"/>
</linearGradient>
</defs>
</svg>
