<svg width="114" height="88" viewBox="0 0 114 88" fill="none" xmlns="http://www.w3.org/2000/svg">
<path d="M66.3962 0.0306912C66.8793 0.0887117 67.4128 0.0197606 67.9009 0C70.6758 0.691201 73.399 1.45305 76.0604 2.51424C81.0249 5.16847 82.6554 8.35538 85.4395 13.0576C86.6584 15.116 88.0231 17.2291 89.0482 19.3906C92.7846 25.4252 96.0228 31.7511 99.6756 37.8256C101.045 40.3478 102.386 42.8889 103.884 45.338L104.932 47.1484C105.117 47.6147 105.264 48.0919 105.599 48.4749C107.528 48.6548 109.53 49.74 111.18 50.7049C112.242 51.5319 113.764 52.5115 113.976 53.9494C114.063 54.5368 113.912 54.9761 113.519 55.4176C111.252 57.9676 100.553 59.9335 96.8418 60.5478C95.3299 60.798 93.2235 60.8471 91.8315 61.4097C90.5807 62.4608 90.1968 63.408 89.6073 64.9094L89.3933 65.2718C89.1966 65.6094 89.0553 65.9336 88.9077 66.2939C88.6937 66.8165 88.5092 66.986 88.0492 67.2996C86.6542 67.1882 83.4071 67.6027 82.3598 68.4852C84.2905 68.3797 86.1736 67.8886 88.098 67.7436C85.7565 72.363 83.4475 77.0168 80.9043 81.5285L78.8849 84.9517C70.1923 82.2277 61.7474 83.0366 53.0384 85.0068C50.137 85.5736 47.4252 86.9795 44.5872 87.7779C43.3759 86.1773 41.7787 84.8369 40.5636 83.1943C37.4604 78.9991 35.2308 74.3071 32.8776 69.6763C33.8934 69.7323 34.8612 69.8017 35.8707 69.6234L35.943 69.4194C34.8641 69.0667 33.7676 69.134 32.6451 69.1348C31.8471 67.4451 31.1698 65.6973 30.4664 63.9664C30.0472 63.2373 29.8651 62.6285 29.818 61.7906C27.8453 61.2365 24.7749 61.3201 22.6437 61.1015C16.4569 60.4658 10.3387 59.6321 4.41556 57.6741C3.22866 57.2822 1.12059 56.7285 0.354126 55.6753C0.0572963 55.2679 -0.0923793 54.8344 0.0610808 54.3324C0.797269 51.9254 8.54049 50.2803 10.7835 49.901C11.809 49.7274 15.1813 49.6273 15.9162 49.1442C15.9995 49.0896 16.0768 49.0269 16.1572 48.9685L16.2908 49.4007L17.4971 47.0467C18.8417 44.6952 19.9272 42.1776 21.2495 39.8033C23.728 36.0173 25.4795 31.6405 28.4268 28.1648C32.5534 21.019 40.4585 14.9289 46.9354 9.98921C49.4655 8.34404 51.9697 6.71735 54.5823 5.20293C57.881 3.55186 62.7754 0.607533 66.3962 0.0306912Z" fill="#2E2A30"/>
<path d="M78.0288 6.34823C79.2876 7.28581 82.1155 8.95538 82.3753 10.5774C82.9261 14.0149 81.4613 32.9372 80.1891 36.1166C78.9572 34.9582 77.7409 33.7953 76.5653 32.5798C77.0299 32.2981 77.7144 31.9639 78.0583 31.5396C79.7552 29.4471 78.0377 10.4761 78.0288 6.34823Z" fill="#504849"/>
<path d="M68.5905 0.536453C71.8288 2.25184 75.2873 3.88567 78.029 6.34817C78.0378 10.476 79.7553 29.4471 78.0584 31.5396C77.7145 31.9638 77.03 32.2981 76.5654 32.5798C75.2957 31.4421 73.9986 30.3081 72.8037 29.0922C68.189 24.3968 68.5519 7.06712 68.5905 0.536453Z" fill="#736860"/>
<path d="M49.9347 63.1209C56.9291 63.386 63.9231 63.3758 70.9167 63.0902C77.9103 62.8046 84.8819 62.2444 91.8314 61.4097C90.5806 62.4608 90.1968 63.408 89.6073 64.9094L89.3933 65.2718C89.1965 65.6094 89.0553 65.9336 88.9077 66.2939C88.6937 66.8165 88.5091 66.986 88.0492 67.2996C86.6541 67.1882 83.4071 67.6027 82.3598 68.4853C84.2904 68.3797 86.1736 67.8887 88.0979 67.7436C85.7565 72.363 83.4475 77.0168 80.9042 81.5285L78.8849 84.9517C70.1923 82.2277 61.7474 83.0366 53.0384 85.0068C50.1369 85.5736 47.4251 86.9795 44.5872 87.7779C43.3759 86.1773 41.7786 84.8369 40.5636 83.1943C37.4603 78.9992 35.2307 74.3071 32.8775 69.6764C33.8933 69.7323 34.8612 69.8017 35.8706 69.6234L35.9429 69.4195C34.8641 69.0667 33.7676 69.134 32.645 69.1348C31.847 67.4451 31.1697 65.6973 30.4663 63.9664C30.0471 63.2373 29.8651 62.6286 29.818 61.7906L49.9347 63.1209Z" fill="#185051"/>
<path d="M56.6984 76.1633C64.8137 76.1528 73.1985 79.2337 80.9043 81.5285L78.8849 84.9517C70.1923 82.2277 61.7474 83.0366 53.0385 85.0068C53.3357 83.3242 54.3876 81.5903 55.1297 80.0599C55.699 78.778 56.1501 77.4523 56.6984 76.1633Z" fill="#0E6A71"/>
<path d="M29.818 61.7906L49.9347 63.1209C50.0201 64.1253 50.1121 64.9767 50.5561 65.9017C51.0199 67.253 51.5463 68.6089 51.9499 69.9774C54.4847 69.948 58.7517 69.507 61.1041 70.2431C59.0759 71.1084 54.433 70.6131 52.1441 70.5677C53.0069 73.7862 53.8334 76.9815 55.1297 80.06C54.3876 81.5904 53.3356 83.3242 53.0384 85.0068C50.1369 85.5736 47.4251 86.9795 44.5872 87.778C43.3759 86.1773 41.7786 84.837 40.5636 83.1943C37.4603 78.9992 35.2307 74.3071 32.8775 69.6764C33.8933 69.7323 34.8612 69.8017 35.8706 69.6234L35.9429 69.4195C34.8641 69.0667 33.7676 69.134 32.645 69.1349C31.847 67.4451 31.1697 65.6974 30.4663 63.9664C30.0471 63.2374 29.8651 62.6286 29.818 61.7906Z" fill="#148187"/>
<path d="M66.3962 0.0306912C66.8793 0.0887117 67.4129 0.0197606 67.901 0C67.8947 5.15289 67.7021 10.3193 67.729 15.4671C67.748 19.1178 68.0435 22.7474 67.9624 26.4031C66.3908 29.2562 58.4483 39.5267 58.5126 41.6671C61.0979 38.1552 65.6878 32.9902 69.8207 31.6372C70.5687 32.206 71.177 32.7585 71.7745 33.4846C74.3526 35.2563 76.9186 38.5126 78.544 41.1391C76.4266 46.7969 72.8844 55.8725 67.1648 58.5818C65.3271 59.4521 57.8134 60.4069 55.633 60.3779C53.8991 60.3548 52.962 60.0088 51.2045 60.5381C50.3906 60.7837 48.8976 60.5347 48.2438 60.993C38.3215 61.1852 22.312 56.1122 12.5183 53.1573C13.2717 52.5389 13.9634 51.7926 14.6688 51.1169C15.2705 50.5813 15.7746 50.0183 16.2909 49.4007L17.4971 47.0467C18.8417 44.6952 19.9273 42.1776 21.2496 39.8033C23.728 36.0173 25.4796 31.6405 28.4269 28.1648C32.5535 21.019 40.4585 14.9289 46.9354 9.98921C49.4656 8.34404 51.9697 6.71735 54.5823 5.20293C57.8811 3.55186 62.7754 0.607533 66.3962 0.0306912Z" fill="#504849"/>
<path d="M21.2495 39.8034C26.6072 40.072 31.821 42.5484 36.9449 43.9935C35.6718 46.2638 31.8639 55.2162 29.6671 55.6976C27.6389 56.142 16.8295 53.3474 15.2604 51.9502C14.9959 51.7148 14.8109 51.4377 14.6688 51.1169C15.2705 50.5813 15.7746 50.0183 16.2909 49.4007L17.4971 47.0467C18.8417 44.6952 19.9273 42.1776 21.2495 39.8034Z" fill="#736860"/>
<path d="M54.5823 5.20293C57.8811 3.55187 62.7754 0.607535 66.3962 0.0306931L66.0216 1.13057C65.6054 6.62514 65.4652 12.1267 65.6012 17.6353C65.4502 18.6532 65.4666 18.9517 64.6068 19.5853C60.9662 22.2694 49.2961 25.9348 47.6249 28.8904C44.237 33.9849 40.0427 38.7501 36.9449 43.9934C31.821 42.5484 26.6072 40.072 21.2495 39.8033C23.728 36.0173 25.4795 31.6405 28.4268 28.1648C32.5534 21.019 40.4585 14.9289 46.9354 9.98921C49.4656 8.34404 51.9697 6.71735 54.5823 5.20293Z" fill="#BAAD9E"/>
</svg>
