<svg width="815" height="732" viewBox="0 0 815 732" fill="none" xmlns="http://www.w3.org/2000/svg">
<path d="M809 730C809 730 518.485 739.789 433.5 701.5C315.984 648.556 168 465.5 168 465.5L643.5 590.5L809 730Z" fill="black" fill-opacity="0.22"/>
<path d="M15 390C46 326 468.007 529.945 554.5 520.5C641.5 511 946 554.5 717 695.5C510.5 717.5 20.5 446.5 15 390Z" fill="#F9FEFF" fill-opacity="0.85"/>
<path d="M8.70013 386.949L7.84227 388.72L8.03293 390.678C8.57552 396.252 11.85 401.934 15.9896 407.273C20.2937 412.824 26.284 418.94 33.6151 425.476C48.2978 438.567 69.0057 453.911 94.1088 470.504C144.358 503.718 212.859 542.352 287.577 578.489C362.297 614.627 443.414 648.353 518.902 671.68C594.187 694.944 664.653 708.117 717.741 702.461L719.319 702.293L720.67 701.461C749.6 683.648 770.479 667.153 784.498 651.834C798.489 636.545 806.072 621.953 807.42 608.01C810.194 579.322 786.669 559.003 757.216 545.222C727.101 531.132 687.237 522.056 649.719 517.069C612.188 512.08 576.241 511.084 553.74 513.541C544.189 514.584 529.131 512.689 509.318 508.156C489.729 503.674 466.248 496.802 440.216 488.43C404.353 476.896 363.99 462.628 322.665 448.02C303.945 441.402 285.026 434.715 266.24 428.18C206.173 407.287 147.448 387.956 101.718 377.883C78.9081 372.859 58.8451 370.023 43.2643 370.625C28.2621 371.205 14.4281 375.123 8.70013 386.949Z" stroke="black" stroke-opacity="0.11" stroke-width="14"/>
<path d="M297.788 22.7997C298.798 15.7 298.526 7.37872 300.446 0.592894L301.785 0C302.846 0.86221 302.913 1.68423 303.069 3.00144C303.363 5.47839 303.146 8.05524 303.665 10.5061C304.667 15.2342 309.326 22.4717 308.364 27.1683L307.483 27.4343C306.47 28.328 305.676 28.8818 304.429 29.4063L303.817 29.5128C303.729 33.1668 303.909 37.0859 303.323 40.6835C302.627 35.0954 304.674 19.719 301.973 15.9368L301.077 16.1529C301.162 19.062 299.466 20.6463 297.788 22.7997Z" fill="#122C68"/>
<path d="M303.817 29.5127C303.874 25.0713 303.999 20.4986 304.721 16.1115C305.556 19.9002 306.554 23.6662 307.483 27.4343C306.47 28.328 305.676 28.8818 304.429 29.4063L303.817 29.5127Z" fill="#F4CFAC"/>
<path d="M297.788 22.7996C299.466 20.6463 301.162 19.062 301.077 16.1528L301.973 15.9367C304.674 19.7189 302.627 35.0954 303.323 40.6834L303.305 48.1935C303.481 48.161 303.66 48.1414 303.833 48.098C304.596 47.9101 304.886 47.6256 305.438 47.1055C307.004 51.0918 309.82 65.5051 309.442 69.6945C309.492 77.551 311.278 88.725 313.213 96.3959L319.565 135.741C319.955 139.375 320.495 142.796 321.393 146.339C324.825 162.43 327.187 179.045 329.842 195.297C330.858 201.516 331.347 208.593 333.01 214.616L333.301 217.444C333.604 218.722 333.857 219.986 334.071 221.282L334.483 224.126C335.475 227.971 335.948 231.902 336.783 235.776L337.198 238.108C339.517 251.937 341.112 266.611 345.216 280.029C343.268 281.321 341.554 282.543 341.083 284.99C340.661 287.182 341.633 288.962 342.834 290.685C342.844 293.361 342.898 296.043 342.849 298.718C336.723 299.101 330.686 300.273 324.578 300.686C324.084 295.377 322.304 267.939 320.581 265.336C319.585 267.432 323.043 296.336 323.816 300.922C315.678 301.614 307.52 302.96 299.378 303.378C295.466 303.885 291.484 304.267 287.611 304.994C288.021 290.221 289.036 275.473 289.291 260.698C290.702 256.386 290.064 247.302 290.194 242.496L289.748 242.345C276.171 243.866 261.512 244.3 247.861 243.797L247.62 242.402L246.964 241.978C246.326 237.429 251.422 224.195 252.487 218.649C254.596 213.438 255.667 207.335 256.998 201.856C261.557 183.274 266.261 164.729 271.112 146.22C274.764 133.548 278.911 116.861 280.771 103.916C283.195 92.3921 285.441 80.8344 287.511 69.2428C288.642 63.4375 289.876 57.654 291.213 51.8921C291.623 48.9721 292.665 45.8578 293.379 42.979C294.405 38.4595 295.344 33.8965 296.645 29.4465C296.862 27.2225 297.378 24.9964 297.788 22.7996Z" fill="url(#paint0_linear_387_1362)"/>
<path d="M294.77 42.3818C295.91 36.7525 296.677 30.628 298.616 25.2256C298.812 31.0971 298.753 36.8763 298.508 42.7445L294.77 42.3818Z" fill="#F4CFAC"/>
<path d="M303.306 48.1936C303.481 48.161 303.66 48.1415 303.833 48.098C304.596 47.9102 304.886 47.6257 305.438 47.1055C307.004 51.0919 309.82 65.5051 309.442 69.6946C309.492 77.5511 311.278 88.7251 313.213 96.3959C309.715 97.2983 306.208 98.3017 302.669 99.0227L302.267 98.4005C302.822 81.6417 302.946 64.9491 303.306 48.1936Z" fill="#FBBD6F"/>
<path d="M294.77 42.3818L298.508 42.7445C298.422 56.0678 298.168 69.3879 297.743 82.7047C297.564 88.2971 297.914 94.7105 296.689 100.135C291.953 101.322 286.921 102.912 282.084 103.492C285.024 92.1065 286.916 80.2256 289.205 68.677C290.947 59.8888 293.133 51.1852 294.77 42.3818Z" fill="#F6A45C"/>
<path d="M296.689 100.135C294.443 115.334 294.24 130.317 293.509 145.612C286.531 145.404 279.496 145.58 272.512 145.573C275.881 131.588 278.666 117.448 282.084 103.492C286.921 102.912 291.953 101.322 296.689 100.135Z" fill="#09879D"/>
<path d="M302.669 99.0227C306.208 98.3017 309.714 97.2983 313.213 96.3959L319.565 135.742C319.954 139.375 320.495 142.796 321.393 146.339C317.512 146.318 313.143 145.909 309.344 146.625L308.31 146.656C305.623 146.118 302.724 146.3 299.988 146.272L300.961 116.661C301.17 110.742 300.982 104.179 302.267 98.4005L302.669 99.0227Z" fill="#0A6F7C"/>
<path d="M302.267 98.4005L302.669 99.0227C304.328 114.875 305.164 131.004 308.31 146.656C305.623 146.118 302.724 146.3 299.988 146.272L300.961 116.661C301.17 110.742 300.982 104.179 302.267 98.4005Z" fill="#09879D"/>
<path d="M299.988 146.272C302.725 146.3 305.623 146.118 308.31 146.656L309.344 146.624C313.143 145.909 317.512 146.318 321.393 146.339C324.825 162.43 327.187 179.045 329.842 195.297C330.858 201.516 331.347 208.593 333.01 214.616C328.544 215.967 321.031 213.552 316.241 213.265L315.882 215.736C316.088 216.905 316.325 217.984 316.243 219.175L315.859 219.67C310.192 218.991 304.579 219.425 298.892 219.494V216.278L298.979 212.3C299.481 190.295 298.988 168.261 299.988 146.272Z" fill="#FDF2D1"/>
<path d="M310.936 164.984C313.732 174.738 313.975 191.086 314.781 201.575C315.059 205.194 314.787 209.978 316.241 213.265L315.882 215.736C316.088 216.905 316.325 217.984 316.243 219.175L315.859 219.67C310.192 218.991 304.579 219.425 298.892 219.494V216.278L298.979 212.3C304.114 212.23 309.307 211.998 314.433 212.338C314.588 201.525 312.752 190.103 311.68 179.328C311.224 174.746 310.196 169.544 310.936 164.984Z" fill="#E7D8CC"/>
<path d="M314.433 212.338C314.447 214.098 314.757 214.741 313.59 216.115C309.266 217.292 303.404 216.743 298.892 216.278L298.979 212.3C304.114 212.229 309.307 211.998 314.433 212.338Z" fill="#FCFCFB"/>
<path d="M272.512 145.573C279.496 145.58 286.531 145.404 293.509 145.612C292.93 168.51 291.268 191.54 291.177 214.419C290.83 223.768 290.328 233.141 290.194 242.496L289.748 242.345C276.171 243.866 261.512 244.3 247.861 243.797L247.62 242.403L248.278 241.995C250.521 233.269 252.302 224.052 255.3 215.57L256.888 207.952C262.419 187.353 265.929 165.858 272.512 145.573Z" fill="#FDF2D1"/>
<path d="M256.888 207.952C263.583 208.49 269.985 210.305 276.621 211.141C280.65 211.649 285.285 210.863 289.109 212.064C285.842 214.589 260.762 208.304 259.66 214.782L257.697 215.106L257.309 214.194L258.343 214.967L257.465 214.604C257.329 213.457 257.281 214.033 257.639 212.88C256.768 213.657 256.352 214.183 255.886 215.257L255.3 215.57L256.888 207.952Z" fill="#E7D8CC"/>
<path d="M259.66 214.782C265.437 214.254 271.194 213.678 277.002 214.056C279.848 214.242 284.662 215.843 287.187 215.148L286.99 214.393C280.737 213.326 274.233 213.233 267.908 213.078C267.171 213.059 267.368 213.04 266.486 212.749C272.883 211.939 283.413 212.263 289.802 213.328C290.243 214.648 290.013 215.567 289.803 216.908C288.051 216.888 286.432 216.632 284.707 216.324L284.643 216.761C286.409 217.66 287.753 218.081 289.738 217.37C289.96 217.291 290.168 217.181 290.383 217.087C290.689 216.2 290.953 215.33 291.177 214.419C290.83 223.768 290.328 233.141 290.194 242.496L289.748 242.345C276.171 243.866 261.512 244.3 247.861 243.797L247.62 242.403L248.278 241.995C250.521 233.269 252.302 224.052 255.3 215.57L255.886 215.257C256.352 214.183 256.768 213.658 257.639 212.88C257.282 214.033 257.329 213.457 257.465 214.604L258.344 214.967L257.309 214.194L257.697 215.106L259.66 214.782Z" fill="#D0DAD7"/>
<path d="M248.278 241.995C253.975 241.873 285.996 239.905 289.294 241.325L289.748 242.345C276.171 243.866 261.512 244.3 247.861 243.797L247.62 242.403L248.278 241.995Z" fill="#FCFCFB"/>
<path d="M316.241 213.265C321.031 213.552 328.544 215.967 333.01 214.616L333.301 217.444C333.604 218.722 333.857 219.986 334.071 221.282L334.483 224.126C335.475 227.971 335.948 231.902 336.783 235.776L337.198 238.108C339.517 251.937 341.112 266.611 345.216 280.029C343.268 281.321 341.554 282.543 341.083 284.99C340.661 287.182 341.633 288.962 342.834 290.685C342.844 293.361 342.898 296.043 342.849 298.718C336.723 299.101 330.686 300.273 324.578 300.686C324.084 295.377 322.304 267.939 320.581 265.336C319.585 267.432 323.043 296.336 323.816 300.922C315.678 301.614 307.52 302.96 299.378 303.378L298.789 258.118C298.641 249.347 297.809 240.041 298.833 231.327C298.634 229.462 298.796 227.434 298.797 225.55L298.892 219.494C304.579 219.425 310.192 218.991 315.859 219.67L316.243 219.175C316.325 217.984 316.088 216.905 315.882 215.736L316.241 213.265Z" fill="#D0DAD7"/>
<path d="M317.682 236.308C322.089 234.796 331.819 235.708 336.783 235.776L337.198 238.108C332.261 238.38 323.376 239.957 318.832 238.245C317.947 237.911 317.977 237.129 317.682 236.308Z" fill="#FCFCFB"/>
<path d="M298.935 235.623C304.613 235.65 311.701 234.914 317.192 236.2C317.009 236.968 316.752 237.685 316.494 238.43C316.271 238.526 316.052 238.628 315.826 238.718C312.637 239.99 302.198 240.126 299.184 238.827L298.935 235.623Z" fill="#FCFCFB"/>
<path d="M298.892 219.494C304.579 219.425 310.192 218.991 315.858 219.67L315.668 223.354L315.413 224.922C311.465 226.863 303.334 225.422 298.797 225.55L298.892 219.494Z" fill="#FDF2D1"/>
<path d="M316.241 213.265C321.031 213.552 328.544 215.967 333.01 214.616L333.301 217.444C333.604 218.722 333.857 219.986 334.071 221.282L334.483 224.126C332.392 226.088 326.638 225.511 323.835 225.424C321.752 225.359 318.504 225.663 316.817 224.458L315.668 223.354L315.858 219.67L316.243 219.175C316.325 217.984 316.088 216.905 315.882 215.736L316.241 213.265Z" fill="#E7D8CC"/>
<path d="M316.241 213.265C321.031 213.552 328.544 215.967 333.01 214.616L333.301 217.444C327.596 217.206 321.499 216.753 315.882 215.736L316.241 213.265Z" fill="#FCFCFB"/>
<path d="M316.817 224.458C316.837 223.337 316.877 222.514 317.283 221.464C321.186 219.635 329.596 221.196 334.071 221.282L334.483 224.126C332.393 226.088 326.638 225.511 323.836 225.424C321.752 225.359 318.504 225.663 316.817 224.458Z" fill="#FDF2D1"/>
<path d="M369.613 298.913C369.543 297.319 369.066 295.453 370.21 294.142C371.088 293.138 372.824 292.499 374.165 292.549C375.506 292.599 376.731 292.991 377.652 294.018C378.614 295.09 378.889 296.353 378.621 297.747C378.348 299.158 376.943 300.871 376.116 302.027C374.209 301.24 372.411 300.468 370.377 300.082L369.705 300.919L369.613 298.913Z" fill="#D10F33"/>
<path d="M345.216 280.029L345.913 279.567C348.099 280.258 350.439 280.818 351.563 283.032C352.232 284.35 351.801 285.904 351.251 287.175C350.719 288.405 350.081 289.569 349.418 290.732C347.227 290.784 345.026 290.712 342.833 290.685C341.632 288.962 340.661 287.182 341.083 284.99C341.554 282.543 343.268 281.321 345.216 280.029Z" fill="#9C113E"/>
<path d="M489.971 389.081C497.325 390.207 504.459 392.449 511.662 394.276L525.482 398.345C536.105 401.499 546.807 404.499 557.301 408.06C566.627 411.235 575.541 415.64 584.866 418.731C590.61 421.592 596.607 423.948 602.408 426.698C619.354 434.733 633.24 444.729 646.255 458.201C644.883 459.342 643.917 460.203 643.073 461.788L643.186 462.483C642.724 468.282 641.292 482.439 643.808 487.319C644.644 487.895 645.478 488.449 646.349 488.973L644.874 490.084C642.985 489.142 641.866 486.136 640.928 484.321C640.441 483.379 640.002 482.567 639.26 481.788C637.93 480.393 635.529 478.31 633.565 478.228C629.511 475.864 625.978 472.556 621.819 470.172C614.561 465.47 606.882 460.552 599.184 456.604C588.735 454.154 570.498 444.128 562.613 443.73L562.711 448.168C561.898 447.517 561.229 447.222 560.284 446.81C559.032 445.09 558.632 443.967 558.386 441.876C558.499 439.974 558.662 438.137 558.385 436.245C557.333 434.711 556.641 434.645 554.952 433.954C544.284 431.218 533.73 428.076 523.025 425.412C522.667 424.241 522.616 424.803 523.156 423.724L525.228 423.45C519.98 422.542 514.712 420.946 509.532 419.667C506.848 419.028 504.216 418.233 501.436 418.382C500.68 418.484 500.028 418.405 499.272 418.339L498.625 417.373C496.717 416.9 494.713 416.705 492.766 416.432C492.825 413.75 492.509 411.07 492.276 408.4C491.444 402.703 490.893 396.948 490.233 391.228L489.971 389.081Z" fill="#030D3E"/>
<path d="M562.222 437.144C574.419 442.601 588.483 448.447 599.183 456.604C588.735 454.154 570.498 444.128 562.613 443.73C562.346 441.511 562.206 439.377 562.222 437.144Z" fill="#83CBD5"/>
<path d="M610.05 453.35C618.797 459.735 629.678 464.834 637.165 472.677C639.002 474.601 638.911 475.829 638.886 478.354C629.99 471.053 620.092 465.146 610.112 459.473L610.05 453.35Z" fill="#83CBD5"/>
<path d="M562.102 429.963C576.923 436.207 592.198 441.761 606.196 449.744L606.314 456.948C598.749 452.486 591.546 447.692 583.706 443.675C578.24 440.875 567.209 437.6 563.057 434.327C561.875 433.395 562.182 431.323 562.102 429.963Z" fill="#83CBD5"/>
<path d="M609.802 433.725C621.22 439.933 629.841 446.845 638.822 456.164L638.805 471.761C630.449 463.431 619.13 457.832 609.978 450.356C609.433 444.811 609.58 439.282 609.802 433.725Z" fill="#83CBD5"/>
<path d="M562.013 412.587C576.973 419.369 592.116 425.298 606.84 432.657C606.597 437.546 606.238 442.427 605.764 447.299L605.244 447.304C591.904 439.369 576.613 433.877 562.239 428.112C561.99 422.921 561.728 417.785 562.013 412.587Z" fill="#83CBD5"/>
<path d="M489.971 389.081C497.325 390.207 504.459 392.449 511.662 394.276C510.247 394.544 508.683 394.67 507.455 395.463C513.789 397.469 520.162 399.498 526.61 401.108C534.466 404.244 549.171 409.016 557.342 410.603L558.546 411.546C558.743 416.644 558.422 421.77 558.389 426.871L558.042 428.344C558.446 429.804 558.761 430.537 558.204 432.014L556.841 432.407C548.482 427.609 534.745 425.963 525.228 423.45C519.98 422.542 514.712 420.946 509.532 419.667C506.848 419.028 504.216 418.233 501.436 418.382C500.68 418.484 500.028 418.405 499.272 418.339L498.625 417.373C496.717 416.9 494.713 416.705 492.766 416.432C492.825 413.75 492.509 411.07 492.276 408.4C491.444 402.703 490.893 396.948 490.233 391.228L489.971 389.081Z" fill="#83CBD5"/>
<path d="M502.123 410.804C521.062 414.658 540.094 420.614 558.389 426.871L558.042 428.344C548.922 426.543 539.726 423.226 530.79 420.629C521.14 417.823 511.334 415.499 501.773 412.41L502.123 410.804Z" fill="#264B87"/>
<path d="M501.773 412.41C511.334 415.499 521.14 417.823 530.79 420.629C539.726 423.227 548.922 426.543 558.042 428.344C558.446 429.804 558.761 430.537 558.203 432.014L556.841 432.407C548.482 427.609 534.745 425.963 525.228 423.45C519.98 422.542 514.712 420.946 509.532 419.667C506.848 419.028 504.215 418.233 501.436 418.382L501.773 412.41Z" fill="#83CBD5"/>
<path d="M489.971 389.081C497.325 390.207 504.459 392.449 511.662 394.276C510.247 394.544 508.683 394.67 507.455 395.463C505.778 395.036 504.091 394.638 502.438 394.127C502.284 399.621 501.819 405.331 502.123 410.804L501.773 412.41L501.436 418.382C500.68 418.484 500.028 418.405 499.272 418.339L498.625 417.373C496.717 416.9 494.713 416.705 492.766 416.432C492.825 413.75 492.509 411.07 492.276 408.4C491.444 402.703 490.893 396.948 490.233 391.228L489.971 389.081Z" fill="#030D3E"/>
<path d="M492.276 408.4L495.837 409.644C497.327 410.518 498.304 410.715 498.744 412.562C499.05 413.85 498.694 416.026 498.625 417.374C496.717 416.9 494.713 416.705 492.766 416.432C492.826 413.75 492.51 411.07 492.276 408.4Z" fill="#A3CFB9"/>
<path d="M490.233 391.228C493.469 391.889 496.653 392.569 499.825 393.504L499.713 394.221C499.177 397.855 499.988 407.453 497.785 409.906L495.837 409.644L492.276 408.4C491.444 402.703 490.893 396.948 490.233 391.228Z" fill="#83CBD5"/>
<path d="M323.816 300.922C323.043 296.336 319.585 267.432 320.581 265.336C322.304 267.939 324.084 295.377 324.578 300.686C330.685 300.273 336.723 299.101 342.849 298.718C342.897 296.043 342.844 293.361 342.833 290.685C345.026 290.712 347.227 290.784 349.418 290.732C349.146 292.372 348.807 294.007 348.781 295.673C355.355 296.868 362.941 299.019 369.613 298.913L369.705 300.919L370.377 300.081C372.411 300.468 374.208 301.24 376.116 302.027L375.406 304.048C396.03 307.326 418.35 316.448 438.185 323.377C445.221 325.836 453.889 327.96 460.287 331.695C463.33 330.228 479.853 336.485 483.788 337.863C486.995 338.986 491.111 340.144 493.725 342.367L494.688 342.392L495.319 343.959C495.084 344.377 494.833 344.945 494.524 345.305C491.051 345.794 487.569 346.4 484.054 346.404C483.592 345.579 482.906 344.931 482.272 344.23L454.339 347.451C455.476 348.3 456.026 349.795 457.045 350.174L456.901 350.707C456.021 351.44 455.611 351.77 454.501 352.146L453.637 350.926C446.001 350.433 427.107 353.612 418.952 355.128L418.271 355.975C417.124 355.455 416.522 355.633 415.273 355.709C403.696 356.725 392.152 358.038 380.642 359.649C378.515 359.171 378.017 359.113 376.619 357.379C375.067 356.466 373.474 355.918 371.779 355.327L371.795 356.124C364.17 353.932 356.484 348.048 348.525 345.136C330.502 338.54 312.261 332.371 294.111 326.126C285.233 323.071 275.659 320.493 267.159 316.579C263.991 315.155 260.023 313.72 257.449 311.38L257.413 310.395C259.998 307.726 282.293 305.727 287.611 304.994C291.484 304.267 295.466 303.885 299.378 303.378C307.52 302.96 315.678 301.614 323.816 300.922Z" fill="#EB6843"/>
<path d="M342.833 290.685C345.026 290.712 347.227 290.784 349.418 290.732C349.146 292.372 348.807 294.007 348.781 295.673C348.91 297.671 349.487 300.578 348.091 302.21C347.23 303.217 346.472 303.724 345.168 303.844C343.756 303.228 343.53 303.085 342.62 301.85C342.647 300.773 342.692 299.787 342.849 298.718C342.898 296.043 342.844 293.361 342.833 290.685Z" fill="#001831"/>
<path d="M369.705 300.919L370.377 300.081C372.411 300.468 374.209 301.24 376.116 302.027L375.406 304.048C374.692 307.564 373.898 311.067 373.598 314.648C371.809 314.637 370.103 314.243 368.356 313.897C368.187 309.671 369.283 305.159 369.705 300.919Z" fill="#001831"/>
<path d="M368.356 313.897C369.162 312.571 369.229 312.223 370.62 311.595C371.813 311.948 372.256 312.139 372.983 313.258C373.226 313.633 373.434 314.222 373.598 314.648C371.809 314.637 370.103 314.243 368.356 313.897Z" fill="#122C68"/>
<path d="M460.287 331.695C463.33 330.228 479.853 336.485 483.788 337.863C486.995 338.986 491.111 340.144 493.726 342.367L494.688 342.392L495.319 343.959C495.084 344.377 494.833 344.945 494.524 345.305C491.051 345.794 487.57 346.4 484.055 346.404C483.592 345.579 482.906 344.931 482.273 344.23L454.339 347.451C455.476 348.3 456.026 349.795 457.045 350.174L456.901 350.707C456.021 351.44 455.611 351.77 454.502 352.146L453.637 350.926C446.001 350.433 427.107 353.612 418.952 355.128L418.271 355.975C417.124 355.455 416.522 355.633 415.273 355.709C403.696 356.725 392.152 358.038 380.643 359.649C378.515 359.171 378.017 359.113 376.619 357.379C375.068 356.466 373.475 355.918 371.779 355.327C366.085 352.329 360.651 349.113 355.552 345.174C373.737 345.298 398.524 340.63 417.009 338.03C431.233 336.028 446.329 334.875 460.287 331.695Z" fill="#FCFCFB"/>
<path d="M493.726 342.367L494.688 342.392L495.319 343.959C495.084 344.377 494.833 344.945 494.524 345.305C491.051 345.794 487.57 346.4 484.054 346.404C483.592 345.579 482.906 344.931 482.272 344.23C485.99 343.335 490.301 344.202 493.726 342.367Z" fill="#F4CFAC"/>
<path d="M376.619 357.379C385.858 357.428 395.888 355.07 405.058 353.749C421.439 351.292 437.866 349.193 454.339 347.451C455.476 348.3 456.026 349.795 457.045 350.174L456.902 350.708C456.021 351.441 455.611 351.77 454.502 352.146L453.637 350.926C446.001 350.433 427.108 353.612 418.952 355.128L418.271 355.975C417.124 355.455 416.522 355.633 415.273 355.709C403.696 356.725 392.153 358.038 380.643 359.649C378.515 359.171 378.017 359.114 376.619 357.379Z" fill="#F4CFAC"/>
<path d="M454.339 347.451L482.273 344.23C482.906 344.931 483.592 345.579 484.055 346.404C484.467 349.471 485.149 352.692 484.958 355.785C487.944 365.763 486.84 380.614 489.971 389.081L490.233 391.228C490.892 396.948 491.444 402.703 492.276 408.4C492.509 411.07 492.825 413.75 492.766 416.432L493.459 419.276L493.389 423.457C494.119 424.367 494.616 424.991 495.536 425.725C496.636 428.567 498.488 431.956 497.013 434.953C492.665 443.789 463.496 453.548 453.367 456.261C446.601 458.073 439.914 459.316 432.969 460.147C429.465 460.568 412.753 461.448 410.891 462.661L410.172 462.698C402.657 460.981 395.196 458.954 387.729 457.038C381.77 455.442 375.87 453.494 369.979 451.661C368.334 450.729 366.284 450.191 364.5 449.542C365.19 447.03 365.862 444.512 366.516 441.99C368.543 434.659 374.361 390.134 376.329 388.226L375.842 386.855L376.556 385.579C375.952 378.158 379.493 367.305 380.643 359.649C392.153 358.038 403.696 356.725 415.273 355.709C416.522 355.633 417.124 355.455 418.271 355.975L418.952 355.128C427.107 353.612 446.001 350.433 453.637 350.926L454.502 352.146C455.611 351.77 456.021 351.441 456.902 350.708L457.045 350.174C456.026 349.795 455.476 348.3 454.339 347.451Z" fill="#9C113E"/>
<path d="M454.339 347.451L482.273 344.23C482.906 344.931 483.592 345.579 484.055 346.404C484.467 349.471 485.149 352.692 484.958 355.785C484.436 359.727 484.5 363.648 484.514 367.616C484.57 369.138 484.885 370.159 484.074 371.492C473.364 374.141 453.066 376.844 441.725 377.854L439.481 377.673L438.804 376.989C437.216 377.334 435.722 377.539 434.103 377.679C436.156 375.69 439.555 377.118 442.084 375.568C442.383 375.385 442.674 375.187 442.968 374.997L453.382 373.458C453.611 366.035 454.169 358.326 453.637 350.926L454.502 352.146C455.611 351.77 456.021 351.441 456.902 350.708L457.045 350.174C456.026 349.795 455.476 348.3 454.339 347.451Z" fill="#030D3E"/>
<path d="M454.339 347.451L482.273 344.23C482.906 344.931 483.592 345.579 484.055 346.404C484.467 349.471 485.149 352.692 484.958 355.785C484.436 359.727 484.5 363.648 484.514 367.616C484.093 365.399 483.735 363.856 482.462 361.973L482.388 347.166C474.034 348.539 465.481 349.457 457.045 350.174C456.026 349.795 455.476 348.3 454.339 347.451Z" fill="#FBBD6F"/>
<path d="M453.637 350.926L454.502 352.146C455.611 351.77 456.021 351.441 456.902 350.708C456.826 358.134 456.46 365.543 456.326 372.964L482.872 369.343L482.462 361.973C483.735 363.856 484.093 365.399 484.514 367.616C484.57 369.138 484.885 370.159 484.074 371.492C473.364 374.141 453.066 376.844 441.725 377.854L439.481 377.673L438.804 376.989C437.216 377.334 435.722 377.539 434.103 377.679C436.156 375.69 439.555 377.118 442.084 375.568C442.383 375.385 442.674 375.187 442.968 374.997L453.382 373.458C453.611 366.035 454.169 358.326 453.637 350.926Z" fill="#D0DAD7"/>
<path d="M418.271 355.975L418.952 355.128C427.107 353.612 446.001 350.433 453.637 350.926C454.169 358.326 453.611 366.035 453.382 373.458L442.968 374.997C442.674 375.187 442.383 375.385 442.084 375.568C439.555 377.118 436.156 375.69 434.103 377.679C435.722 377.539 437.216 377.334 438.804 376.989L439.481 377.673C433.121 379.645 425.432 380.082 418.78 381.227C417.832 380.455 417.637 379.851 417.085 378.768L416.813 378.593C415.649 378.834 415.603 378.989 414.429 378.541C414.013 377.122 414.009 375.709 413.95 374.243C413.757 368.125 414.669 361.795 415.273 355.709C416.522 355.633 417.123 355.455 418.271 355.975Z" fill="#030D3E"/>
<path d="M442.968 374.997C442.674 375.187 442.383 375.385 442.084 375.568C439.555 377.118 436.156 375.69 434.103 377.679C435.722 377.539 437.216 377.334 438.804 376.989L439.481 377.673C433.121 379.645 425.432 380.082 418.78 381.227C417.832 380.455 417.637 379.851 417.086 378.768C425.334 378.8 434.767 376.336 442.968 374.997Z" fill="#B2D8DB"/>
<path d="M415.273 355.709C416.522 355.633 417.123 355.455 418.271 355.975C418.043 363.45 417.722 371.174 416.813 378.593C415.649 378.834 415.603 378.989 414.429 378.542C414.013 377.122 414.009 375.709 413.95 374.243C413.757 368.125 414.669 361.795 415.273 355.709Z" fill="#E7D8CC"/>
<path d="M439.481 377.673L441.725 377.854C440.778 394.677 439.791 411.555 439.435 428.401C429.592 430.972 419.142 432.729 409.083 434.238C410.148 427.839 410.538 421.2 411.228 414.74C412.39 403.869 413.635 393 414.667 382.115L418.78 381.227C425.432 380.082 433.121 379.645 439.481 377.673Z" fill="#CF9287"/>
<path d="M380.643 359.649C392.153 358.038 403.696 356.725 415.273 355.709C414.67 361.795 413.757 368.126 413.951 374.244C414.009 375.71 414.014 377.122 414.43 378.542C415.603 378.989 415.649 378.834 416.813 378.593L417.086 378.768C417.637 379.851 417.832 380.455 418.78 381.227L414.667 382.115C413.635 393 412.39 403.869 411.228 414.74C410.538 421.2 410.148 427.84 409.083 434.238C402.141 435.833 394.946 436.723 387.932 438.048C380.92 439.374 373.603 441.311 366.516 441.99C368.544 434.659 374.361 390.134 376.329 388.226L375.842 386.855L376.556 385.579C375.952 378.158 379.493 367.305 380.643 359.649Z" fill="#9C113E"/>
<path d="M380.643 359.649C392.152 358.038 403.696 356.725 415.273 355.709C414.669 361.795 413.757 368.126 413.951 374.244C414.009 375.71 414.014 377.122 414.43 378.542C415.603 378.989 415.649 378.834 416.813 378.593L417.086 378.768C417.637 379.851 417.832 380.455 418.78 381.227L414.667 382.115C402.116 384.623 389.051 386.847 376.329 388.226L375.842 386.855L376.556 385.579C375.951 378.158 379.493 367.305 380.643 359.649Z" fill="#030D3E"/>
<path d="M413.951 374.243C414.009 375.709 414.014 377.122 414.43 378.542C415.603 378.989 415.649 378.834 416.813 378.593L417.086 378.768C417.637 379.851 417.832 380.455 418.78 381.227L414.667 382.115C402.116 384.623 389.051 386.847 376.329 388.226L375.842 386.855L376.556 385.579C388.402 383.409 401.204 382.323 412.767 379.119C413.808 377.762 413.763 375.892 413.951 374.243Z" fill="#D0DAD7"/>
<path d="M439.435 428.401C449.62 425.924 460.81 425.858 471.226 425.022C478.515 424.435 486.091 423.321 493.389 423.457C494.119 424.367 494.616 424.991 495.536 425.725C496.636 428.567 498.488 431.956 497.013 434.953C492.665 443.789 463.496 453.548 453.367 456.261C446.601 458.073 439.914 459.316 432.969 460.147C429.465 460.568 412.753 461.448 410.891 462.661L410.172 462.698C402.657 460.981 395.196 458.954 387.729 457.038C381.77 455.442 375.87 453.494 369.979 451.661C368.334 450.729 366.284 450.191 364.5 449.542C365.19 447.03 365.862 444.512 366.516 441.99C373.603 441.311 380.92 439.374 387.932 438.048C394.946 436.723 402.141 435.833 409.083 434.238C419.142 432.729 429.592 430.972 439.435 428.401Z" fill="#C1503F"/>
<path d="M267.159 316.579C275.659 320.493 285.233 323.071 294.111 326.126C312.261 332.371 330.502 338.54 348.525 345.136C356.485 348.048 364.171 353.932 371.795 356.124L371.78 355.327C373.475 355.918 375.068 356.466 376.619 357.379C378.017 359.113 378.515 359.171 380.643 359.649C379.493 367.304 375.952 378.158 376.556 385.579L375.842 386.855L376.33 388.226C374.361 390.133 368.544 434.659 366.516 441.99C365.862 444.512 365.19 447.03 364.5 449.542L360.619 448.199C356.972 447.156 353.072 446.269 349.689 444.543L348.827 444.436L348.107 446.823C338.576 443.474 329.278 439.408 319.744 436.018L320.069 433.6C315.841 431.893 311.569 430.305 307.253 428.835L304.959 430.572C288.435 424.008 272.038 417.14 255.77 409.965L256.706 408.891L256.575 407.479C248.832 403.687 240.735 400.511 232.803 397.132L231.448 396.715C235.341 387.27 239.805 377.979 243.963 368.639C246.284 362.677 248.856 356.831 251.418 350.97C253.044 348.634 254.245 345.393 255.487 342.801C256.161 341.742 256.148 341.491 256.188 340.221C260.656 333.709 262.992 323.778 267.159 316.579Z" fill="#E7D8CC"/>
<path d="M342.465 380.089C347.805 379.163 356.387 382.71 361.194 385.003C360.802 385.883 360.348 386.62 359.834 387.433C356.032 386.376 352.675 383.922 348.828 382.905C347.098 382.448 345.442 381.899 343.751 381.314C342.594 380.914 343.049 381.288 342.465 380.089Z" fill="#C1503F"/>
<path d="M332.692 376.648L331.799 377.433C326.065 374.742 319.974 372.901 314.11 370.512C313.751 369.417 314.527 368.377 314.973 367.333C320.585 370.286 328.105 372.28 332.692 376.648Z" fill="#C1503F"/>
<path d="M320.068 433.6C329.685 437.132 339.271 440.744 348.827 444.436L348.107 446.823C338.576 443.474 329.278 439.408 319.744 436.019L320.068 433.6Z" fill="#020724"/>
<path d="M256.575 407.479C273.307 414.979 290.2 422.098 307.253 428.835L304.959 430.572C288.435 424.008 272.038 417.14 255.77 409.965L256.706 408.891L256.575 407.479Z" fill="#020724"/>
<path d="M295.409 336.283L313.299 341.847C311.449 348.399 309.173 360.05 306.156 365.642L305.321 365.49C301.407 364.092 294.596 359.965 290.703 360.5C289.497 360.666 288.717 360.789 287.5 360.503C287.487 358.087 290.141 354.176 291.128 351.816C293.237 346.773 294.556 341.672 295.409 336.283Z" fill="#122C68"/>
<path d="M270.227 326.138C275.957 328.649 282.009 330.462 287.942 332.432C285.352 340.448 282.427 348.303 280.451 356.506C274.454 354.229 268.425 352.043 262.362 349.947C265.427 342.155 267.828 334.153 270.227 326.138Z" fill="#122C68"/>
<path d="M350.94 354.416C356.581 356.025 362.25 357.576 367.866 359.272C366.085 367.897 362.566 376.376 361.194 385.003C356.387 382.71 347.805 379.163 342.465 380.089C345.955 371.873 348.329 362.947 350.94 354.416Z" fill="#122C68"/>
<path d="M322.79 345.75C328.925 347.255 335.193 348.594 341.248 350.386C338.604 359.001 334.218 367.805 332.692 376.648C328.105 372.28 320.586 370.286 314.974 367.333L322.79 345.75Z" fill="#030D3E"/>
<path d="M371.779 355.327C373.474 355.918 375.067 356.466 376.619 357.379C378.017 359.114 378.515 359.171 380.642 359.649C379.493 367.305 375.951 378.158 376.556 385.579L375.842 386.855L376.329 388.226C374.361 390.134 368.543 434.659 366.516 441.99C365.862 444.512 365.19 447.03 364.499 449.542L360.618 448.199C356.972 447.156 353.071 446.269 349.689 444.543C351.04 438.013 352.36 431.498 354.236 425.093C356.678 416.759 374.886 361.526 374.742 358.211C373.799 357.424 372.825 356.788 371.795 356.124L371.779 355.327Z" fill="#D3B3AE"/>
<path d="M492.766 416.432C494.713 416.705 496.717 416.9 498.625 417.374L499.272 418.339C500.028 418.405 500.68 418.484 501.436 418.382C504.215 418.234 506.848 419.028 509.532 419.667C514.712 420.946 519.98 422.542 525.228 423.45L523.156 423.724C522.616 424.803 522.667 424.241 523.024 425.412C533.73 428.076 544.284 431.218 554.952 433.954C556.641 434.645 557.333 434.711 558.385 436.245C558.662 438.137 558.499 439.974 558.386 441.876C558.632 443.967 559.032 445.09 560.284 446.81C561.229 447.222 561.898 447.517 562.711 448.168L562.613 443.73C570.498 444.128 588.735 454.154 599.183 456.604C606.881 460.552 614.561 465.471 621.819 470.172C625.978 472.556 629.511 475.864 633.565 478.228C635.529 478.31 637.93 480.393 639.26 481.788C640.001 482.567 640.441 483.379 640.928 484.321C641.866 486.136 642.985 489.142 644.874 490.084L646.349 488.973C645.478 488.449 644.644 487.896 643.808 487.319C641.292 482.439 642.724 468.282 643.185 462.483L643.072 461.788C643.917 460.203 644.883 459.342 646.255 458.201C646.605 458.626 647.111 459.414 647.577 459.687L648.816 458.383L649.588 458.611L649.797 459.271C651.116 464.193 655.772 468.379 659.119 472.03C667.099 486.111 675.141 494.747 676.325 511.994L676.5 514.509C675.052 517.57 673.412 520.308 671.525 523.118C669.047 526.871 666.444 530.589 664.204 534.49L663.915 534.548C663.406 528.491 663.747 519.801 659.744 514.96C657.161 511.835 653.613 511.724 649.827 511.368C626.132 509.145 599.644 510.757 575.589 510.722C552.7 510.691 530.047 508.965 507.285 506.739L509.428 506.059C510.095 504.673 509.851 503.861 509.735 502.347L510.561 501.892L510.555 500.576C491.994 498.818 473.739 495.931 455.358 492.866C445.55 491.23 434.66 488.453 424.756 488.229C423.219 488.079 422.149 488.086 420.959 486.974C421.018 483.852 421.154 480.75 420.772 477.645C420.548 474.422 420.404 471.195 420.342 467.966C418.951 466.818 416.944 466.614 415.219 466.244C413.427 465.581 411.581 465.204 409.72 464.785L410.172 462.698L410.89 462.661C412.753 461.448 429.465 460.568 432.969 460.147C439.914 459.316 446.601 458.073 453.367 456.261C463.496 453.548 492.665 443.789 497.013 434.953C498.488 431.956 496.636 428.567 495.536 425.725C494.616 424.991 494.119 424.367 493.389 423.457L493.458 419.276L492.766 416.432Z" fill="#FBBD6F"/>
<path d="M410.89 462.661C418.759 464.509 426.738 465.892 434.685 467.368L447.56 469.506L447.191 470.328C445.68 470.022 444.454 469.586 442.935 469.993C443.16 470.095 443.393 470.183 443.61 470.301C443.829 470.419 444.023 470.58 444.241 470.697C445.265 471.242 446.012 471.167 447.141 471.173L448.87 472.343C443.547 471.549 438.235 470.688 432.934 469.759C429.883 469.17 426.837 468.435 423.718 468.439C422.401 468.635 421.589 468.342 420.342 467.966C418.951 466.818 416.944 466.614 415.219 466.244C413.427 465.581 411.581 465.205 409.72 464.785L410.172 462.698L410.89 462.661Z" fill="#030D3E"/>
<path d="M606.673 469.698C609.577 469.376 611.948 469.03 614.643 467.775L615.408 468.344C615.396 469.574 615.466 469.539 614.626 470.424L608.996 472.105L608.748 472.76L606.191 472.773C603.795 472.896 601.445 473.185 599.068 473.487C571.089 476.214 542.099 479.875 513.998 478.12L513.902 491.649L513.861 500.809C513.686 502.777 513.695 504.19 512.384 505.739L511.625 505.756C510.699 504.406 510.645 503.462 510.561 501.892L510.555 500.576C510.141 497.555 510.287 494.24 510.216 491.185C510.248 486.833 510.518 482.474 510.711 478.126C490.068 477.016 469.32 475.465 448.87 472.343L447.141 471.173C446.012 471.167 445.265 471.242 444.241 470.697C444.022 470.58 443.829 470.419 443.61 470.301C443.393 470.183 443.16 470.095 442.934 469.993C444.454 469.586 445.68 470.021 447.191 470.328L447.56 469.506C475.324 473.165 503.397 475.952 531.431 475.11C549.845 474.558 567.945 472.08 585.892 471.464C592.674 470.344 599.812 470.097 606.673 469.698Z" fill="#020724"/>
<path d="M606.673 469.698C609.577 469.376 611.948 469.03 614.643 467.775L615.408 468.344C615.396 469.574 615.467 469.539 614.626 470.424L608.996 472.105L608.748 472.76L606.191 472.773C603.795 472.896 601.445 473.185 599.068 473.487C597.347 472.262 595.024 473.02 593.072 472.194C595.535 472.215 597.97 472.304 600.413 471.935C599.112 470.201 589.029 472.694 585.892 471.464C592.674 470.344 599.812 470.097 606.673 469.698Z" fill="#030D3E"/>
<path d="M492.766 416.432C494.713 416.705 496.717 416.9 498.625 417.374L499.272 418.339C500.028 418.405 500.68 418.484 501.436 418.382C504.215 418.234 506.848 419.028 509.532 419.667C514.712 420.946 519.98 422.542 525.228 423.45L523.156 423.724C522.616 424.803 522.667 424.241 523.024 425.412C533.73 428.076 544.284 431.218 554.952 433.954C556.641 434.645 557.333 434.711 558.385 436.245C558.662 438.137 558.499 439.974 558.386 441.876C558.632 443.967 559.032 445.09 560.284 446.81C554.77 446.324 541.785 440.583 535.942 438.56C522.699 433.974 509.053 429.342 495.536 425.725C494.616 424.991 494.119 424.367 493.389 423.457L493.458 419.276L492.766 416.432Z" fill="#FCFCFB"/>
<path d="M492.766 416.432C494.713 416.705 496.717 416.9 498.625 417.374L499.272 418.339C500.028 418.405 500.68 418.484 501.436 418.382C504.215 418.234 506.848 419.028 509.532 419.667C514.712 420.946 519.98 422.542 525.228 423.45L523.156 423.724C522.616 424.803 522.667 424.241 523.024 425.412L518.686 424.649C514.482 423.717 510.272 422.807 506.057 421.919C501.866 420.998 497.667 420.117 493.458 419.276L492.766 416.432Z" fill="#001831"/>
<path d="M518.686 424.649L523.024 425.412C533.73 428.076 544.284 431.218 554.952 433.954C556.641 434.645 557.333 434.711 558.385 436.245C558.662 438.137 558.499 439.974 558.386 441.876C558.217 441.155 558.068 439.588 557.714 439.009C556.306 436.712 523.74 429.393 518.686 424.649Z" fill="#83CBD5"/>
<path d="M420.342 467.966C421.589 468.342 422.401 468.635 423.718 468.439C426.837 468.435 429.883 469.17 432.934 469.759C438.235 470.688 443.547 471.549 448.87 472.343C469.32 475.465 490.068 477.016 510.711 478.126C510.518 482.474 510.248 486.834 510.216 491.185C510.287 494.241 510.141 497.555 510.555 500.576C491.993 498.818 473.739 495.931 455.358 492.866C445.55 491.23 434.66 488.453 424.756 488.229C423.219 488.079 422.149 488.086 420.959 486.974C421.018 483.852 421.154 480.75 420.772 477.645C420.548 474.422 420.404 471.195 420.342 467.966Z" fill="#FBBD6F"/>
<path d="M420.342 467.966C421.589 468.342 422.401 468.635 423.718 468.439L424.284 479.534C424.401 482.436 424.506 485.335 424.756 488.229C423.219 488.079 422.149 488.086 420.959 486.974C421.018 483.852 421.154 480.75 420.772 477.645C420.548 474.422 420.404 471.195 420.342 467.966Z" fill="#020724"/>
<path d="M424.284 479.534C453.002 484.493 481.1 489.139 510.216 491.185C510.287 494.24 510.141 497.555 510.555 500.576C491.994 498.818 473.739 495.931 455.358 492.866C445.55 491.23 434.66 488.453 424.756 488.229C424.507 485.335 424.401 482.436 424.284 479.534Z" fill="#EB6843"/>
<path d="M562.613 443.73C570.498 444.128 588.735 454.154 599.184 456.604C606.882 460.552 614.561 465.471 621.819 470.173C625.978 472.556 629.511 475.864 633.565 478.228C635.529 478.31 637.93 480.393 639.26 481.788C640.002 482.567 640.441 483.379 640.928 484.321C641.866 486.136 642.985 489.142 644.874 490.084L646.349 488.973C645.478 488.449 644.644 487.896 643.808 487.319C641.292 482.439 642.724 468.282 643.186 462.483L643.073 461.788C643.917 460.203 644.883 459.342 646.255 458.201C646.605 458.626 647.111 459.414 647.577 459.687L648.816 458.383L649.588 458.611L649.798 459.271C651.116 464.194 655.772 468.379 659.119 472.031C667.099 486.111 675.142 494.747 676.325 511.994L676.5 514.509C675.053 517.57 673.412 520.308 671.525 523.118C669.047 526.871 666.445 530.589 664.204 534.49L663.915 534.548C663.406 528.491 663.747 519.801 659.744 514.96C657.161 511.835 653.613 511.724 649.827 511.369C626.132 509.145 599.644 510.757 575.589 510.722C552.7 510.691 530.047 508.965 507.285 506.739L509.428 506.06C510.095 504.673 509.851 503.861 509.735 502.347L510.562 501.892C510.645 503.462 510.7 504.406 511.625 505.757L512.384 505.739C513.696 504.19 513.686 502.777 513.862 500.809L513.902 491.65L513.998 478.12C542.1 479.875 571.089 476.215 599.068 473.487C601.445 473.185 603.795 472.896 606.191 472.773L608.748 472.76L608.996 472.105L614.626 470.424C615.467 469.539 615.396 469.574 615.408 468.344L614.644 467.775C611.948 469.03 609.577 469.377 606.673 469.698C606.288 469.693 605.902 469.687 605.519 469.653C601.34 469.292 565.53 451.696 562.711 448.168L562.613 443.73Z" fill="#FCFCFB"/>
<path d="M621.819 470.173C625.978 472.556 629.511 475.864 633.565 478.228C635.18 479.782 637.366 481.452 638.262 483.525L638.248 484.262C637.213 484.007 636.164 483.676 635.273 483.071C632.856 481.429 623.295 474.059 622.24 472.027C621.948 471.465 621.959 470.792 621.819 470.173Z" fill="#B2D8DB"/>
<path d="M606.434 485.76L609.411 486.144C609.537 489.995 609.931 494.058 609.589 497.888C609.531 499.782 609.776 502.362 608.404 503.819C607.543 504.734 606.417 505.359 605.13 505.261C603.783 505.159 603.049 504.619 602.161 503.679C602.35 502.329 602.341 502.208 603.262 501.22C603.582 501.214 603.903 501.212 604.222 501.203C605.551 501.164 605.021 501.222 606.262 500.949L606.552 499.83C606.009 495.527 606.212 491.023 606.171 486.685L606.434 485.76Z" fill="#020724"/>
<path d="M608.748 472.76L608.995 472.105C613.47 475.296 619.311 479.784 622.5 484.229C618.563 484.859 613.405 486.24 609.491 485.859L609.411 486.144L606.434 485.76C606.206 481.452 606.268 477.089 606.191 472.773L608.748 472.76Z" fill="#F6A45C"/>
<path d="M606.191 472.773L608.748 472.76C608.933 477.129 609.07 481.505 609.491 485.86L609.411 486.144L606.434 485.76C606.206 481.452 606.268 477.089 606.191 472.773Z" fill="#0A1C22"/>
<path d="M622.5 484.229C625.482 487.419 628.268 490.69 630.993 494.1C624.23 496.282 616.667 497.233 609.588 497.888C609.93 494.058 609.537 489.995 609.411 486.144L609.491 485.859C613.405 486.24 618.563 484.859 622.5 484.229Z" fill="#926358"/>
<path d="M646.255 458.202C646.605 458.626 647.111 459.415 647.577 459.687C652.916 467.511 660.406 481.834 658.417 491.292C657.793 494.263 656.149 498.988 653.378 500.657C652.272 501.322 651.074 501.251 649.934 500.721C646.118 498.947 644.697 488.9 640.998 489.264C639.397 489.421 637.015 490.899 635.546 491.615L635.259 491.105C636.253 488.823 637.226 486.531 638.248 484.262L638.262 483.525C637.366 481.452 635.18 479.782 633.565 478.228C635.529 478.31 637.93 480.393 639.26 481.788C640.001 482.567 640.441 483.379 640.928 484.321C641.866 486.136 642.984 489.142 644.874 490.084L646.349 488.973C645.478 488.449 644.644 487.896 643.808 487.319C641.292 482.439 642.724 468.282 643.185 462.483L643.072 461.788C643.917 460.203 644.883 459.342 646.255 458.202Z" fill="#001831"/>
<path d="M643.185 462.483C646.785 467.481 642.637 472.033 645.142 473.942L645.808 470.119L646.354 469.768C648.649 472.687 647.108 475.156 648.096 478.317C648.917 480.942 648.566 485.889 648.063 488.62C646.917 489.133 647.493 489.042 646.349 488.973C645.478 488.449 644.644 487.895 643.808 487.319C641.292 482.439 642.724 468.282 643.185 462.483Z" fill="#122C68"/>
<path d="M513.902 491.649C532.189 492.13 550.474 491.035 568.716 489.873C581.187 489.079 593.799 488.493 606.171 486.685C606.213 491.023 606.01 495.527 606.552 499.83C601.803 498.545 565.783 501.486 556.843 501.663C542.505 501.914 528.178 501.629 513.862 500.809L513.902 491.649Z" fill="#A95534"/>
<path d="M599.068 473.487C601.445 473.185 603.795 472.896 606.191 472.773C606.268 477.088 606.206 481.452 606.434 485.759L606.171 486.685C593.799 488.493 581.187 489.079 568.716 489.873C550.474 491.035 532.189 492.13 513.902 491.649L513.998 478.12C542.1 479.875 571.089 476.214 599.068 473.487Z" fill="#FBBD6F"/>
<path d="M246.964 241.978L247.62 242.403L247.861 243.797C246.5 249.543 245.358 255.503 243.665 261.155C239.284 278.852 234.128 296.383 229.206 313.937C226.709 322.844 224.748 332.495 221.606 341.171L220.861 344.044C220.037 347.147 219.093 350.252 218.624 353.43C217.663 357.745 216.93 362.315 215.505 366.496C213.721 373.263 211.834 380.013 210.578 386.903C217.444 390.373 224.304 393.844 231.448 396.715L232.803 397.132L232.085 399.466C224.768 396.537 217.79 392.819 210.449 389.984C207.463 389.035 204.244 386.859 201.352 385.485L200.638 385.347L198.368 384.145L197.901 383.543L193.115 381.054L189.147 379.166L189.175 378.941L193.454 378.167C196.287 379.543 207.422 385.881 209.769 385.524C210.538 379.646 211.808 373.822 212.943 368.005C214.446 363.305 214.881 358.351 216.85 353.779L219.408 344.292L220.237 341.953C220.906 336.328 222.972 330.366 224.445 324.868C228.089 311.269 232.147 297.782 235.833 284.193C238.134 275.728 240.335 267.236 242.435 258.718C243.81 253.185 244.875 247.278 246.964 241.978Z" fill="#030D3E"/>
<path d="M215.505 366.496C225.484 366.02 234.166 367.729 243.963 368.639C239.805 377.979 235.341 387.27 231.448 396.715C224.304 393.844 217.444 390.372 210.578 386.903C211.834 380.013 213.722 373.263 215.505 366.496Z" fill="#EB6843"/>
<path d="M145.028 366.757C145.347 363.408 145.818 361.261 148.185 358.777C158.64 347.808 204.944 342.514 220.237 341.953L219.408 344.292C206.912 346.2 167.099 350.845 159.426 360.027C159.21 360.285 159.051 360.588 158.864 360.869L158.872 363.585L169.358 369.132C169.322 370.565 169.155 372.065 169.439 373.472C171.978 374.806 175.053 376.095 177.051 378.189C181.381 379.311 184.66 380.053 189.147 379.166L193.115 381.054L197.901 383.543L198.368 384.145L200.638 385.347L201.352 385.485C204.244 386.858 207.463 389.035 210.449 389.984L209.238 391.018C207.352 395.292 205.314 399.209 202.928 403.218L201.113 402.589C201.19 404.118 201.586 405.966 200.654 407.271L199.161 407.769L198.67 408.213C191.012 405.443 158.995 382.804 152.545 376.726C149.36 373.724 147.101 370.596 145.028 366.757Z" fill="#FCFCFB"/>
<path d="M158.872 363.585L169.358 369.132C169.322 370.566 169.155 372.065 169.439 373.472C169.513 375.007 169.989 378.171 169.031 379.366C168.872 379.562 168.656 379.707 168.47 379.877C164.452 376.982 159.736 372.428 157.59 367.89C156.875 366.379 156.742 365.389 157.308 363.831L158.872 363.585Z" fill="#F6A45C"/>
<path d="M169.439 373.473C171.978 374.806 175.053 376.095 177.051 378.189C181.381 379.311 184.66 380.053 189.147 379.166L193.115 381.054L197.901 383.543L198.368 384.145L200.638 385.347L201.352 385.485C204.244 386.858 207.463 389.035 210.448 389.984L209.238 391.019C207.351 395.292 205.314 399.21 202.927 403.218L201.113 402.589C201.19 404.118 201.586 405.966 200.654 407.271L199.16 407.769L198.499 400.302C187.932 392.865 178.182 389.275 168.469 379.877C168.656 379.707 168.872 379.562 169.031 379.366C169.989 378.171 169.513 375.007 169.439 373.473Z" fill="#EA8246"/>
<path d="M177.052 378.189C181.381 379.311 184.661 380.053 189.147 379.166L193.115 381.054L197.901 383.543C194.592 384.121 192.817 384.094 189.794 382.51C189.675 382.464 189.564 382.388 189.439 382.369C184.908 381.706 180.853 381.043 177.052 378.189Z" fill="#EB6843"/>
<path d="M198.368 384.145L200.638 385.347L201.352 385.485C204.244 386.858 207.463 389.035 210.449 389.984L209.238 391.019C207.352 395.292 205.314 399.21 202.928 403.218L201.113 402.589C201.19 404.118 201.586 405.966 200.654 407.271L199.161 407.769L198.499 400.302C198.328 394.917 198.284 389.532 198.368 384.145Z" fill="#EB6843"/>
<path d="M206.504 389.472L209.238 391.019C207.352 395.292 205.314 399.21 202.928 403.218L201.113 402.589L200.999 401.233C201.02 401.103 201.043 400.975 201.063 400.846C201.247 399.652 201.364 398.345 201.716 397.19C202.213 395.558 204.866 394.672 206.345 393.966C207.077 392.45 206.66 391.129 206.504 389.472Z" fill="#EA8246"/>
<path d="M198.368 384.145L200.638 385.347C200.371 390.504 200.394 396.103 200.999 401.233L201.113 402.589C201.19 404.118 201.586 405.966 200.654 407.271L199.161 407.769L198.499 400.302C198.328 394.917 198.284 389.532 198.368 384.145Z" fill="#02010C"/>
<path d="M158.864 360.869C159.051 360.588 159.21 360.285 159.426 360.027C167.099 350.845 206.912 346.2 219.408 344.292L216.85 353.778C214.881 358.351 214.446 363.305 212.943 368.005C211.808 373.822 210.537 379.646 209.769 385.524C207.422 385.881 196.287 379.543 193.454 378.167L189.174 378.941L189.147 379.166C184.66 380.053 181.381 379.311 177.051 378.189C175.053 376.095 171.978 374.806 169.439 373.472C169.155 372.065 169.322 370.566 169.358 369.132L158.872 363.585L158.864 360.869Z" fill="#CF9287"/>
<path d="M158.864 360.869C170.145 367.105 182.037 372.178 193.454 378.167L189.174 378.941L189.147 379.166C184.66 380.053 181.381 379.311 177.051 378.189C175.053 376.095 171.978 374.806 169.439 373.472C169.155 372.065 169.322 370.565 169.358 369.132L158.872 363.585L158.864 360.869Z" fill="#001831"/>
<path d="M169.358 369.132C175.962 372.298 182.451 376.101 189.175 378.941L189.147 379.166C184.661 380.053 181.381 379.311 177.052 378.189C175.053 376.095 171.978 374.806 169.439 373.472C169.155 372.065 169.322 370.566 169.358 369.132Z" fill="#C1503F"/>
<path d="M180.898 370.344C184.255 369.653 188.703 370.142 192.204 369.952C199.147 369.573 206.04 368.823 212.943 368.005C211.808 373.822 210.538 379.646 209.769 385.524C207.144 381.59 186.427 373.805 180.898 370.344Z" fill="#C1503F"/>
<path d="M216.85 353.778C214.881 358.351 214.446 363.305 212.943 368.005C206.04 368.823 199.147 369.573 192.204 369.952C188.703 370.142 184.255 369.653 180.898 370.344C177.955 369.232 175.218 368.183 172.55 366.488C186.778 357.895 200.634 355.888 216.85 353.778Z" fill="#9C113E"/>
<path d="M289.748 242.345L290.194 242.496C290.064 247.302 290.703 256.386 289.291 260.698C289.036 275.473 288.021 290.222 287.611 304.994C282.293 305.727 259.998 307.726 257.413 310.395L257.449 311.38C260.023 313.72 263.991 315.155 267.159 316.579C262.992 323.778 260.655 333.709 256.188 340.221C256.148 341.491 256.161 341.742 255.487 342.801C254.245 345.393 253.044 348.635 251.418 350.97C248.856 356.831 246.284 362.678 243.963 368.639C234.166 367.729 225.484 366.02 215.505 366.496C216.93 362.315 217.663 357.745 218.624 353.43C219.093 350.252 220.037 347.147 220.861 344.044L221.606 341.171C224.748 332.495 226.709 322.844 229.207 313.937C234.128 296.383 239.284 278.852 243.665 261.155C245.358 255.503 246.5 249.543 247.861 243.797C261.512 244.3 276.171 243.866 289.748 242.345Z" fill="url(#paint1_linear_387_1362)"/>
<path d="M221.606 341.171C233.185 340.49 244.592 339.982 256.188 340.221C256.148 341.491 256.161 341.742 255.486 342.801C254.245 345.393 253.044 348.634 251.418 350.97C240.171 350.711 229.706 352.921 218.624 353.43C219.093 350.251 220.037 347.147 220.861 344.044L221.606 341.171Z" fill="#CF9287"/>
<path d="M221.606 341.171C233.185 340.49 244.592 339.982 256.188 340.221C256.148 341.491 256.161 341.742 255.486 342.801C244.049 343.383 232.309 344.227 220.861 344.044L221.606 341.171Z" fill="#FDF2D1"/>
<path d="M218.624 353.43C229.706 352.921 240.171 350.711 251.418 350.97C248.856 356.831 246.284 362.678 243.963 368.639C234.166 367.729 225.484 366.02 215.505 366.496C216.93 362.315 217.663 357.745 218.624 353.43Z" fill="#9C113E"/>
<path d="M289.748 242.345L290.194 242.496C290.064 247.302 290.702 256.386 289.291 260.698C289.007 259.497 289.172 258.487 289.281 257.273C287.247 258.099 260.681 260.279 256.598 260.295C252.372 261.386 248 261.204 243.665 261.155C245.358 255.503 246.5 249.543 247.861 243.797C261.512 244.3 276.171 243.866 289.748 242.345Z" fill="#B2D8DB"/>
<path d="M256.598 260.295C260.049 258.402 269.855 259.926 271.99 257.328L268.017 256.847L267.919 256.394C273.496 254.375 283.808 255.717 289.281 257.273C287.247 258.099 260.681 260.279 256.598 260.295Z" fill="#FCFCFB"/>
<path d="M51.5 408.658C71.6837 413.325 92.0847 417.063 112.125 422.356C121.427 424.812 130.628 427.665 139.849 430.405C144.966 431.926 150.708 434.15 156.008 434.607C158.312 439.33 160.412 444.48 163.105 448.979C155.682 454.214 144.59 455.162 135.802 455.565C132.842 455.701 129.449 455.511 126.587 456.181C120.272 454.063 113.486 448.775 107.829 445.18C93.6386 436.338 79.6536 427.182 65.8741 417.711C61.1776 414.546 56.2096 411.819 51.5 408.658Z" fill="#D0DAD7"/>
<path d="M631.11 625.687C633.498 617.955 636.145 610.313 639.053 602.762C642.701 605.447 646.699 607.609 650.308 610.335C658.258 616.336 664.202 625.553 665.78 635.445C667.075 643.572 665.343 651.428 660.466 658.115C653.895 667.128 642.186 676.094 632.314 681.112C632.487 673.747 627.768 658.549 623.093 652.806C625.35 643.665 628.33 634.681 631.11 625.687Z" fill="#5AB3CA"/>
<path d="M163.105 448.979L164.996 451.439C169.304 458.676 173.728 465.013 180.511 470.132C188.987 476.529 198.724 481.351 207.99 486.49C223.756 495.285 239.657 503.828 255.692 512.12C301.335 536.276 347.133 560.13 393.088 583.681C405.798 590.25 418.253 597.181 430.801 604.049C435.89 606.835 442.065 609.245 446.567 612.881C435.655 610.583 427.584 611.187 416.701 613.519C393.23 606.125 368.567 593.608 346.137 583.271C289.955 557.378 234.014 529.57 182.075 495.842C162.935 483.413 145.151 469.382 126.587 456.18C129.449 455.51 132.842 455.7 135.802 455.565C144.591 455.162 155.682 454.214 163.105 448.979Z" fill="#5AB3CA"/>
<path d="M164.996 451.439C169.3 452.102 185.069 463.509 189.99 466.387C208.887 477.439 228.538 487.299 248.19 496.92C261.54 503.456 275.272 509.309 288.831 515.404C303.664 522.069 318.369 529.007 333.311 535.424C348.522 541.958 363.929 547.95 379.265 554.177C409.284 566.365 439.122 578.567 469.54 589.763C506.104 603.222 545.28 612.706 583.632 619.378C593.897 621.163 604.292 622.361 614.64 623.551C619.663 624.129 626.433 623.953 631.11 625.687C628.33 634.681 625.35 643.665 623.093 652.806C627.768 658.549 632.487 673.747 632.314 681.112C630.623 682.194 628.833 683.15 627.089 684.149C622.352 682.142 617.941 679.093 613.458 676.566C601.372 669.757 589.113 664.816 575.221 663.572C565.992 649.946 549.704 636.453 534.597 629.883C529.694 627.751 523.38 625.686 518.205 627.914C514.968 629.309 513.977 631.555 512.686 634.67C504.76 628.162 495.297 621.636 484.563 621.723C479.094 621.767 475.897 623.854 472.166 627.497C463.874 622.07 455.715 616.788 446.567 612.881C442.065 609.245 435.89 606.835 430.801 604.049C418.253 597.181 405.798 590.25 393.088 583.681C347.133 560.13 301.335 536.276 255.692 512.12C239.656 503.828 223.756 495.285 207.99 486.49C198.724 481.351 188.987 476.529 180.511 470.132C173.727 465.013 169.304 458.676 164.996 451.439Z" fill="#030D3E"/>
<path d="M142.725 380.295C143.288 375.809 143.697 371.086 145.028 366.757C147.101 370.596 149.36 373.724 152.545 376.726C158.995 382.804 191.012 405.443 198.67 408.213L199.16 407.769L200.654 407.271C201.586 405.966 201.19 404.118 201.113 402.589L202.927 403.218C205.314 399.21 207.351 395.292 209.238 391.019L210.448 389.984C217.79 392.819 224.768 396.537 232.085 399.466L232.803 397.132C240.734 400.512 248.832 403.687 256.575 407.479L256.706 408.891L255.77 409.965C272.038 417.14 288.435 424.008 304.959 430.572L307.253 428.835C311.569 430.305 315.841 431.893 320.069 433.6L319.744 436.018C329.278 439.408 338.576 443.474 348.107 446.823L348.827 444.436L349.689 444.543C353.071 446.269 356.972 447.156 360.618 448.199L364.499 449.542C366.284 450.191 368.334 450.729 369.979 451.661C375.87 453.494 381.77 455.442 387.729 457.038C395.196 458.954 402.657 460.981 410.172 462.698L409.72 464.785C411.581 465.204 413.427 465.581 415.219 466.244C416.944 466.614 418.951 466.818 420.342 467.966C420.404 471.195 420.548 474.422 420.772 477.645C421.154 480.75 421.018 483.852 420.959 486.974C422.149 488.086 423.219 488.079 424.756 488.229C434.66 488.453 445.55 491.23 455.358 492.866C473.74 495.931 491.994 498.818 510.555 500.576L510.562 501.892L509.735 502.347C509.851 503.86 510.095 504.673 509.428 506.059L507.285 506.739C530.047 508.965 552.7 510.691 575.589 510.722C599.644 510.757 626.132 509.144 649.827 511.368C653.613 511.724 657.161 511.835 659.744 514.96C663.747 519.8 663.406 528.491 663.915 534.548L663.514 535.032C662.823 538.098 660.875 540.952 660.324 543.885C658.038 549.781 655.859 555.716 653.787 561.69C648.015 575.024 644.329 589.23 639.054 602.762C636.146 610.313 633.498 617.955 631.11 625.687C626.433 623.953 619.663 624.129 614.64 623.551C604.292 622.361 593.897 621.163 583.632 619.378C545.28 612.706 506.104 603.222 469.54 589.763C439.122 578.568 409.284 566.365 379.265 554.177C363.929 547.95 348.521 541.958 333.311 535.425C318.369 529.007 303.664 522.069 288.831 515.404C275.272 509.31 261.54 503.457 248.19 496.92C228.537 487.299 208.887 477.439 189.99 466.387C185.069 463.509 169.3 452.102 164.996 451.439L163.105 448.979C160.412 444.48 158.312 439.331 156.008 434.607C154.739 431.566 153.607 428.493 152.491 425.395C151.318 422.858 150.517 420.277 149.705 417.612C147.934 413.249 146.92 408.555 146.022 403.947C144.311 396.892 142.175 387.521 142.725 380.295Z" fill="#122C68"/>
<path d="M202.579 437.982C214.942 443.156 226.442 450.739 238.704 456.358C282.535 476.445 327.21 495.903 372.858 511.509C398.337 520.02 424.197 527.151 450.437 532.901C461.184 535.318 472.421 536.735 483.022 539.594L483.593 539.754C484.594 542.352 485.357 545.007 486.143 547.675C397.804 528.31 310.074 499.745 230.882 455.49C224.389 451.862 206.545 443.018 202.579 437.982Z" fill="#D10F33"/>
<path d="M149.705 417.612C157.251 419.496 165.019 425.065 171.779 428.936C187.859 438.143 203.589 447.972 219.746 457.041C245.659 471.638 272.104 485.198 299.081 497.72C333.919 513.703 373.644 530.026 410.09 541.647C431.142 548.358 452.423 554.316 473.437 561.154C482.087 563.969 491.378 566.486 499.603 570.367C484.459 569.418 468.728 564.406 454.028 560.646C379.871 541.671 304.726 512.948 238.008 475.197C215.665 462.555 193.751 449.188 171.458 436.466C165.3 432.952 159.131 427.825 152.492 425.395C151.318 422.858 150.517 420.277 149.705 417.612Z" fill="#D10F33"/>
<path d="M142.725 380.295C143.288 375.809 143.697 371.086 145.028 366.757C147.101 370.596 149.36 373.724 152.545 376.726C158.995 382.804 191.012 405.443 198.67 408.213L199.161 407.769L200.654 407.271C201.586 405.966 201.19 404.118 201.113 402.589L202.928 403.218C205.314 399.21 207.351 395.292 209.238 391.019L210.448 389.984C217.79 392.819 224.768 396.537 232.085 399.466L232.803 397.132C240.734 400.512 248.832 403.687 256.575 407.479L256.706 408.891L255.77 409.965C272.038 417.14 288.435 424.008 304.959 430.572L307.253 428.835C311.569 430.305 315.841 431.893 320.069 433.6L319.744 436.018C329.278 439.408 338.576 443.474 348.107 446.823L348.827 444.436L349.689 444.543C353.071 446.269 356.972 447.156 360.618 448.199L364.499 449.542C366.284 450.191 368.334 450.729 369.979 451.661C375.87 453.494 381.77 455.442 387.729 457.038C395.196 458.954 402.657 460.981 410.172 462.698L409.72 464.785C411.581 465.204 413.427 465.581 415.219 466.244C416.944 466.614 418.951 466.818 420.342 467.966C420.404 471.195 420.548 474.422 420.772 477.645C421.154 480.75 421.018 483.852 420.959 486.974C422.149 488.086 423.219 488.079 424.756 488.229C434.66 488.453 445.55 491.23 455.358 492.866C473.74 495.931 491.994 498.818 510.555 500.576L510.562 501.892L509.735 502.347C509.851 503.86 510.095 504.673 509.428 506.059L507.285 506.739C530.047 508.965 552.7 510.691 575.589 510.722C599.644 510.757 626.132 509.144 649.827 511.368C653.613 511.724 657.161 511.835 659.744 514.96C663.747 519.8 663.406 528.491 663.915 534.548L663.514 535.032C647.892 538.167 631.831 538.038 615.968 537.808C559.463 536.986 503.364 528.065 448.367 515.673C418.05 509.03 388.128 500.925 358.602 491.357C339.755 485.111 321.544 477.84 303.111 470.518C287.375 464.267 271.595 458.2 256.187 451.163C243.319 445.286 230.867 438.679 218.41 431.992C191.847 417.732 163.896 402.113 142.725 380.295Z" fill="#D3B3AE"/>
<path d="M589.922 518.831C591.689 518.713 593.512 518.598 595.229 519.127C597.592 519.854 601.36 521.836 602.287 524.308C602.599 525.143 602.62 525.934 602.281 526.742C601.365 528.927 599.398 529.474 597.364 530.272C595.152 530.555 592.92 530.5 590.774 529.81C588.812 529.181 585.734 527.511 585.007 525.42C584.696 524.528 584.679 523.657 585.049 522.801C586.008 520.585 587.866 519.804 589.922 518.831Z" fill="#001831"/>
<path d="M201.113 402.589L202.927 403.218C209.76 409.277 244.245 424.285 245.749 426.035C245.952 426.271 246.252 427.206 246.319 427.537C246.407 428.822 246.168 429.476 247.123 430.42C248.643 429.753 249.198 428.4 249.894 426.983L254.943 430.104C253.611 429.606 252.271 429.127 250.926 428.668C249.653 429.311 249.153 429.979 248.249 431.004C247.694 431.634 247.886 431.415 246.958 431.824C247.225 431.902 247.493 431.975 247.759 432.057C250.17 432.811 259.568 437.956 262.884 439.422C275.186 444.862 287.705 449.761 300.199 454.741L300.479 455.554C296.132 454.93 290.731 452 286.632 450.347C272.61 444.692 258.978 438.564 245.205 432.351C236.175 428.277 227.043 424.432 218.216 419.92C211.606 416.541 204.442 412.888 198.67 408.213L199.16 407.769L200.654 407.271C201.586 405.966 201.19 404.118 201.113 402.589Z" fill="#FDF2D1"/>
<path d="M210.449 389.984C217.79 392.819 224.768 396.537 232.085 399.466L232.803 397.132C240.734 400.512 248.832 403.687 256.575 407.479L256.706 408.891L255.77 409.965L248.884 406.953C249.347 413.501 250.339 420.446 249.894 426.983C249.198 428.4 248.643 429.753 247.123 430.42C246.168 429.476 246.407 428.822 246.319 427.537C246.252 427.206 245.952 426.271 245.749 426.035C244.245 424.285 209.76 409.277 202.928 403.218C205.314 399.21 207.352 395.292 209.238 391.019L210.449 389.984Z" fill="#E7D8CC"/>
<path d="M232.803 397.132C240.734 400.512 248.832 403.687 256.575 407.479L256.706 408.891L255.77 409.965L248.884 406.953C249.347 413.501 250.339 420.446 249.894 426.983C249.198 428.4 248.643 429.753 247.123 430.42C246.168 429.476 246.407 428.822 246.319 427.537C247.851 420.943 246.222 412.166 245.74 405.434L232.085 399.466L232.803 397.132Z" fill="#030D3E"/>
<path d="M248.884 406.953L255.77 409.965C272.038 417.14 288.435 424.008 304.959 430.572L307.253 428.835C311.569 430.305 315.841 431.893 320.069 433.6L319.744 436.018C329.278 439.408 338.576 443.474 348.107 446.823L348.827 444.436L349.689 444.543C353.071 446.269 356.972 447.156 360.618 448.199L364.499 449.542C366.284 450.191 368.334 450.729 369.979 451.661C375.87 453.494 381.77 455.442 387.729 457.038C395.196 458.954 402.657 460.981 410.172 462.698L409.72 464.785C411.581 465.204 413.427 465.581 415.219 466.244C416.944 466.614 418.951 466.818 420.342 467.966C420.404 471.195 420.548 474.422 420.772 477.645C421.154 480.75 421.018 483.852 420.959 486.974C422.149 488.086 423.219 488.079 424.756 488.229C434.66 488.453 445.55 491.23 455.358 492.866C473.74 495.931 491.994 498.818 510.555 500.576L510.561 501.892L509.735 502.347C509.851 503.86 510.095 504.673 509.428 506.059L507.285 506.739C496.993 506.786 485.452 504.12 475.209 502.639C445.069 498.279 414.473 492.957 385.048 485.041C369.336 480.813 353.971 475.587 338.613 470.241C325.961 465.836 312.552 461.39 300.479 455.554L300.199 454.741C287.705 449.761 275.186 444.862 262.884 439.422C259.568 437.956 250.17 432.811 247.759 432.057C247.493 431.975 247.225 431.902 246.958 431.824C247.886 431.415 247.694 431.634 248.249 431.004C249.153 429.979 249.653 429.311 250.926 428.668C252.271 429.127 253.611 429.605 254.943 430.104L249.894 426.983C250.339 420.446 249.347 413.501 248.884 406.953Z" fill="#F0F7E3"/>
<path d="M369.33 474.085C376.531 472.846 385.145 473.331 392.354 474.166C395.435 474.523 419.158 478.885 419.989 478.419C420.31 478.24 420.512 477.902 420.772 477.645C421.154 480.75 421.018 483.852 420.959 486.974C415.974 484.399 404.832 483.166 398.9 481.814C388.966 479.534 379.109 476.957 369.33 474.085Z" fill="#EB6843"/>
<path d="M360.618 448.199L364.499 449.542C366.284 450.191 368.334 450.729 369.979 451.661C375.87 453.494 381.77 455.442 387.729 457.038C395.196 458.954 402.657 460.981 410.172 462.698L409.72 464.785C411.581 465.204 413.427 465.581 415.219 466.244C416.944 466.614 418.951 466.818 420.342 467.966C420.404 471.195 420.548 474.422 420.772 477.645C420.512 477.902 420.31 478.24 419.989 478.419C419.157 478.885 395.435 474.523 392.354 474.166C385.145 473.331 376.531 472.846 369.33 474.085C365.538 473.405 361.636 471.867 357.943 470.721C358.032 467.622 358.715 464.29 359.339 461.257C360.118 457.931 360.676 454.561 361.278 451.199L359.877 450.696L360.618 448.199Z" fill="#FBBD6F"/>
<path d="M360.619 448.199L364.5 449.542C366.284 450.191 368.334 450.729 369.979 451.661C375.87 453.494 381.77 455.442 387.729 457.038C395.196 458.954 402.657 460.981 410.172 462.698L409.72 464.785C411.581 465.204 413.427 465.581 415.219 466.244C406.779 471.279 371.15 462.407 359.339 461.257C360.118 457.931 360.676 454.561 361.278 451.199L359.877 450.696L360.619 448.199Z" fill="#EB6843"/>
<path d="M360.619 448.199L364.5 449.542C366.284 450.191 368.334 450.729 369.979 451.661C375.87 453.494 381.77 455.442 387.729 457.038C395.196 458.954 402.657 460.981 410.172 462.698L409.72 464.785C401.77 463.084 393.851 461.248 385.962 459.276C380.569 457.691 374.726 456.3 369.652 453.866C366.804 453.205 364.041 452.146 361.278 451.199L359.877 450.696L360.619 448.199Z" fill="#030D3E"/>
<path d="M307.253 428.835C311.569 430.305 315.841 431.893 320.069 433.6L319.744 436.018C329.278 439.408 338.576 443.474 348.107 446.823L348.827 444.436L349.689 444.543C353.071 446.269 356.972 447.156 360.618 448.199L359.877 450.696L361.278 451.199C360.676 454.561 360.118 457.931 359.339 461.257C358.715 464.29 358.032 467.622 357.943 470.721C355.388 470.032 352.791 469.151 350.139 469.017C349.237 468.803 348.478 468.481 347.626 468.123C345.513 466.785 314.271 454.895 310.653 454.045L309.225 453.139L308.791 453.131C308.794 446.366 309.203 439.5 308.66 432.756C307.669 431.351 306.535 431.199 304.959 430.572L307.253 428.835Z" fill="#E7D8CC"/>
<path d="M307.253 428.835C311.569 430.305 315.841 431.893 320.069 433.6L319.744 436.018L311.965 433.398L311.746 438.827C311.834 441.466 312.849 452.284 311.167 453.759C311.02 453.888 310.824 453.949 310.653 454.045L309.225 453.139L308.791 453.131C308.794 446.366 309.203 439.5 308.66 432.756C307.669 431.351 306.535 431.199 304.959 430.572L307.253 428.835Z" fill="#030D3E"/>
<path d="M309.225 453.139C309.391 449.255 310.527 439.407 310.273 436.505C310.257 436.333 310.219 436.163 310.193 435.993L311.319 436.2L310.685 435.649L310.958 435.161C311.013 436.256 310.981 437.376 311.468 438.383C311.545 438.539 311.654 438.678 311.746 438.827C311.834 441.467 312.85 452.284 311.167 453.759C311.02 453.888 310.824 453.949 310.653 454.045L309.225 453.139Z" fill="#020724"/>
<path d="M348.827 444.436L349.689 444.543C353.071 446.269 356.972 447.156 360.619 448.199L359.877 450.696L361.278 451.199C360.676 454.561 360.118 457.931 359.339 461.257C358.715 464.29 358.032 467.622 357.943 470.721C355.388 470.032 352.791 469.151 350.139 469.017C349.237 468.803 348.478 468.481 347.626 468.123C347.622 462.418 349.294 451.846 348.107 446.823L348.827 444.436Z" fill="#F4CFAC"/>
<path d="M348.827 444.436L349.689 444.543C353.071 446.269 356.972 447.156 360.619 448.199L359.877 450.696L351.68 448.13C351.397 452.877 351.893 465.409 350.139 469.017C349.237 468.803 348.478 468.481 347.626 468.123C347.622 462.418 349.294 451.846 348.107 446.823L348.827 444.436Z" fill="#030D3E"/>
<path d="M248.884 406.953L255.77 409.965C272.038 417.14 288.435 424.008 304.959 430.572C306.535 431.199 307.669 431.351 308.66 432.756C309.203 439.5 308.794 446.366 308.791 453.131C302.163 452.221 292.515 446.789 286.257 444.006L254.943 430.104L249.894 426.983C250.339 420.446 249.347 413.501 248.884 406.953Z" fill="#E7D8CC"/>
<defs>
<linearGradient id="paint0_linear_387_1362" x1="276.963" y1="156.616" x2="320.064" y2="163.559" gradientUnits="userSpaceOnUse">
<stop stop-color="#020E53"/>
<stop offset="1" stop-color="#153670"/>
</linearGradient>
<linearGradient id="paint1_linear_387_1362" x1="212.906" y1="323.967" x2="295.885" y2="270.983" gradientUnits="userSpaceOnUse">
<stop stop-color="#7EC8CB"/>
<stop offset="1" stop-color="#C3D6D2"/>
</linearGradient>
</defs>
</svg>
